<?xml version="1.0" standalone="no"?>
<!DOCTYPE svg PUBLIC "-//W3C//DTD SVG 1.1//EN" "http://www.w3.org/Graphics/SVG/1.1/DTD/svg11.dtd" >
<svg xmlns="http://www.w3.org/2000/svg" xmlns:xlink="http://www.w3.org/1999/xlink" version="1.1">
<metadata>
Created by FontForge 20190801 at Mon Feb 27 11:28:25 2017
 By Jimmy Wärting
Copyright (c) 2012-2016, Damien Gautier, 205TF. All rights reserved.
</metadata>
<defs>
<font id="Maax-Medium" horiz-adv-x="600" >
  <font-face 
    font-family="Maax Medium"
    font-weight="500"
    font-stretch="normal"
    units-per-em="1000"
    panose-1="2 0 0 0 0 0 0 0 0 0"
    ascent="750"
    descent="-250"
    x-height="490"
    cap-height="700"
    bbox="-47 -205 1484 995"
    underline-thickness="105"
    underline-position="-349"
    unicode-range="U+0020-FB05"
  />
<missing-glyph horiz-adv-x="649" 
d="M323 202q13 0 21.5 -9t8.5 -22q0 -14 -8.5 -23t-21.5 -9t-22 9t-9 23q0 13 9 22t22 9zM332 153h8l-9 13q8 3 8 12q0 12 -13 12h-17v-37h8v12h7zM175 400q7 -12 3 -25t-16 -21q-30 -16 -47 12q-15 28 13 46q13 8 26.5 4.5t20.5 -16.5zM324 184q8 0 8 -6q0 -7 -8 -7h-7v13
h7zM290 412q19 12 42 -6l-29 -92q-7 7 -15 20q-33 58 2 78zM344 394q10 -12 14 -20q32 -57 -1 -78q-21 -11 -41 6zM324 684l285 -164v-328l-285 -164l-284 164v328zM338 561v-75h8v34h36v8h-36v25h39v8h-47zM260 561v-8h23v-67h8v67h24v8h-55zM157 259l89 51l-8 15l-68 -40
l20 69q11 35 -1 55q-10 18 -30 23t-39 -6q-18 -11 -23.5 -30.5t4.5 -37.5t29.5 -23.5t35.5 4.5l4 3l-20 -70zM323 130q17 0 28.5 12t11.5 29t-11.5 28.5t-28.5 11.5t-28.5 -11.5t-11.5 -28.5t11.5 -29t28.5 -12zM365 282q25 15 25 45t-17 56q-17 30 -41.5 43.5t-49.5 -0.5
t-25.5 -44t16.5 -56q17 -30 42 -44t50 0zM523 281q23 13 28.5 35.5t-6.5 39.5q-11 21 -32.5 25.5t-37.5 -6.5q-17 -10 -23 -27l-26 46l63 37l-8 14l-78 -45l47 -82l14 8q-4 22 18 34q13 8 27 4.5t22 -16.5q8 -15 3.5 -29.5t-18.5 -22.5q-22 -12 -43 -1l-5 -17q30 -12 55 3z
" />
    <glyph glyph-name="f_f" unicode="ff" horiz-adv-x="660" 
d="M297 712l44 -1v-105q-15 1 -26 1q-53 0 -78 -23.5t-25 -76.5v-17h118h79v36q0 186 197 186l44 -1v-105q-15 1 -26 1q-53 0 -78 -23.5t-25 -76.5v-17h118v-102h-118v-388h-112v388h-197v-388h-112v388h-72v102h72v36q0 186 197 186z" />
    <glyph glyph-name="fi" unicode="fi" horiz-adv-x="594" 
d="M523 0h-114v388h-197v-388h-112v388h-72v102h72v36q0 186 198 186l45 -1v-103q-20 1 -27 1q-53 0 -78.5 -23.5t-25.5 -76.5v-19h311v-490zM395 640q0 30 21 51t51 21t51 -21t21 -51t-21 -51t-51 -21t-51 21t-21 51z" />
    <glyph glyph-name="fl" unicode="fl" horiz-adv-x="588" 
d="M298 700h220v-700h-114v597h-89q-53 0 -78 -23.5t-25 -76.5v-7h118v-102h-118v-388h-112v388h-72v102h72v24q0 186 198 186z" />
    <glyph glyph-name="f_f_i" unicode="ffi" horiz-adv-x="896" 
d="M297 712l44 -1v-105q-15 1 -26 1q-53 0 -78 -23.5t-25 -76.5v-17h118h79v36q0 186 198 186l45 -1v-103q-20 1 -27 1q-53 0 -78.5 -23.5t-25.5 -76.5v-19h311v-490h-114v388h-197v-388h-112v388h-197v-388h-112v388h-72v102h72v36q0 186 197 186zM697 640q0 30 21 51
t51 21t51 -21t21 -51t-21 -51t-51 -21t-51 21t-21 51z" />
    <glyph glyph-name="f_f_l" unicode="ffl" horiz-adv-x="897" 
d="M297 712l44 -1v-105q-15 1 -26 1q-53 0 -78 -23.5t-25 -76.5v-17h197v24q0 186 198 186h220v-700h-114v597h-89q-53 0 -78 -23.5t-25 -76.5v-7h118v-102h-118v-388h-112v388h-197v-388h-112v388h-72v102h72v36q0 186 197 186z" />
    <glyph glyph-name="f_t" unicode="ft" horiz-adv-x="669" 
d="M297 712l44 -1v-105q-15 1 -26 1q-53 0 -78 -23.5t-25 -76.5v-17h192v137h113v-137h117v-102h-117v-198q0 -53 16 -71t64 -18l37 2v-102q-22 -2 -61 -2q-95 0 -132 39.5t-37 134.5v215h-192v-388h-112v388h-72v102h72v36q0 186 197 186z" />
    <glyph glyph-name="f_b" unicode="fb" horiz-adv-x="939" 
d="M894 245q0 -111 -67 -183.5t-172 -72.5q-86 0 -139 55v-44h-112v597h-89q-53 0 -78 -23.5t-25 -76.5v-7h118v-102h-118v-388h-112v388h-72v102h72v24q0 186 198 186h220v-246q56 48 137 48q105 0 172 -73t67 -184zM516 245q0 -66 34 -111t97 -45q62 0 96.5 45t34.5 111
t-34.5 111t-96.5 45q-63 0 -97 -45t-34 -111z" />
    <glyph glyph-name="f_f_b" unicode="ffb" horiz-adv-x="1248" 
d="M1203 245q0 -111 -67 -183.5t-172 -72.5q-86 0 -139 55v-44h-112v597h-89q-53 0 -78 -23.5t-25 -76.5v-7h118v-102h-118v-388h-112v388h-197v-388h-112v388h-72v102h72v36q0 186 197 186l44 -1v-105q-15 1 -26 1q-53 0 -78 -23.5t-25 -76.5v-17h197v24q0 186 198 186h220
v-246q56 48 137 48q105 0 172 -73t67 -184zM825 245q0 -66 34 -111t97 -45q62 0 96.5 45t34.5 111t-34.5 111t-96.5 45q-63 0 -97 -45t-34 -111z" />
    <glyph glyph-name="f_h" unicode="fh" horiz-adv-x="905" 
d="M518 271v-271h-114v597h-89q-53 0 -78 -23.5t-25 -76.5v-7h118v-102h-118v-388h-112v388h-72v102h72v24q0 186 198 186h220v-244q50 46 122 46q88 0 142.5 -57.5t54.5 -159.5v-285h-114v285q0 52 -25.5 83t-71.5 31q-52 0 -80 -34.5t-28 -93.5z" />
    <glyph glyph-name="f_f_h" unicode="ffh" horiz-adv-x="1214" 
d="M297 712l44 -1v-105q-15 1 -26 1q-53 0 -78 -23.5t-25 -76.5v-17h197v24q0 186 198 186h220v-244q50 46 122 46q88 0 142.5 -57.5t54.5 -159.5v-285h-114v285q0 52 -25.5 83t-71.5 31q-52 0 -80 -34.5t-28 -93.5v-271h-114v597h-89q-53 0 -78 -23.5t-25 -76.5v-7h118
v-102h-118v-388h-112v388h-197v-388h-112v388h-72v102h72v36q0 186 197 186z" />
    <glyph glyph-name="f_j" unicode="fj" horiz-adv-x="593" 
d="M212 509v-19h311v-521q0 -92 -45 -133t-142 -41l-44 1v108q15 -1 26 -1q53 0 72 18t19 71v396h-197v-388h-112v388h-72v102h72v36q0 186 198 186l45 -1v-103q-20 1 -27 1q-53 0 -78.5 -23.5t-25.5 -76.5zM396 641q0 30 21 50.5t51 20.5q29 0 50 -20.5t21 -50.5t-21 -51
t-50 -21q-30 0 -51 21t-21 51z" />
    <glyph glyph-name="f_f_j" unicode="ffj" horiz-adv-x="902" 
d="M297 712l44 -1v-105q-15 1 -26 1q-53 0 -78 -23.5t-25 -76.5v-17h197v36q0 186 198 186l45 -1v-103q-20 1 -27 1q-53 0 -78.5 -23.5t-25.5 -76.5v-19h311v-521q0 -92 -45 -133t-142 -41l-44 1v108q15 -1 26 -1q53 0 72 18t19 71v396h-197v-388h-112v388h-197v-388h-112
v388h-72v102h72v36q0 186 197 186zM705 641q0 30 21 50.5t51 20.5q29 0 50 -20.5t21 -50.5t-21 -51t-50 -21q-30 0 -51 21t-21 51z" />
    <glyph glyph-name="f_k" unicode="fk" horiz-adv-x="855" 
d="M688 490h142l-191 -210l204 -280h-136l-144 196l-45 -49v-147h-114v597h-89q-53 0 -78 -23.5t-25 -76.5v-7h118v-102h-118v-388h-112v388h-72v102h72v24q0 186 198 186h220v-400z" />
    <glyph glyph-name="f_f_k" unicode="ffk" horiz-adv-x="1164" 
d="M297 712l44 -1v-105q-15 1 -26 1q-53 0 -78 -23.5t-25 -76.5v-17h197v24q0 186 198 186h220v-400l170 190h142l-191 -210l204 -280h-136l-144 196l-45 -49v-147h-114v597h-89q-53 0 -78 -23.5t-25 -76.5v-7h118v-102h-118v-388h-112v388h-197v-388h-112v388h-72v102h72
v36q0 186 197 186z" />
    <glyph glyph-name="f_f_t" unicode="fft" horiz-adv-x="978" 
d="M882 -1q-95 0 -132 39.5t-37 134.5v215h-192v-388h-112v388h-197v-388h-112v388h-72v102h72v36q0 186 197 186l44 -1v-105q-15 1 -26 1q-53 0 -78 -23.5t-25 -76.5v-17h197v36q0 186 197 186l44 -1v-105q-15 1 -26 1q-53 0 -78 -23.5t-25 -76.5v-17h118h74v137h113v-137
h117v-102h-117v-198q0 -53 16 -71t64 -18l37 2v-102q-22 -2 -61 -2z" />
    <glyph glyph-name="t_t" unicode="tt" horiz-adv-x="654" 
d="M254 -1q-95 0 -132 39.5t-37 134.5v215h-72v102h72v137h113v-137h117h74v137h113v-137h117v-102h-117v-198q0 -53 16 -71t64 -18l37 2v-102q-22 -2 -61 -2q-95 0 -132 39.5t-37 134.5v215h-191v-198q0 -53 16 -71t64 -18l37 2v-102q-22 -2 -61 -2z" />
    <glyph glyph-name="t_f" unicode="tf" horiz-adv-x="640" 
d="M254 -1q-95 0 -132 39.5t-37 134.5v215h-72v102h72v137h113v-137h117h74v36q0 186 197 186l44 -1v-105q-15 1 -26 1q-53 0 -78 -23.5t-25 -76.5v-17h118v-102h-118v-388h-112v388h-191v-198q0 -53 16 -71t64 -18l37 2v-102q-22 -2 -61 -2z" />
    <glyph glyph-name=".notdef" horiz-adv-x="649" 
d="M323 202q13 0 21.5 -9t8.5 -22q0 -14 -8.5 -23t-21.5 -9t-22 9t-9 23q0 13 9 22t22 9zM332 153h8l-9 13q8 3 8 12q0 12 -13 12h-17v-37h8v12h7zM175 400q7 -12 3 -25t-16 -21q-30 -16 -47 12q-15 28 13 46q13 8 26.5 4.5t20.5 -16.5zM324 184q8 0 8 -6q0 -7 -8 -7h-7v13
h7zM290 412q19 12 42 -6l-29 -92q-7 7 -15 20q-33 58 2 78zM344 394q10 -12 14 -20q32 -57 -1 -78q-21 -11 -41 6zM324 684l285 -164v-328l-285 -164l-284 164v328zM338 561v-75h8v34h36v8h-36v25h39v8h-47zM260 561v-8h23v-67h8v67h24v8h-55zM157 259l89 51l-8 15l-68 -40
l20 69q11 35 -1 55q-10 18 -30 23t-39 -6q-18 -11 -23.5 -30.5t4.5 -37.5t29.5 -23.5t35.5 4.5l4 3l-20 -70zM323 130q17 0 28.5 12t11.5 29t-11.5 28.5t-28.5 11.5t-28.5 -11.5t-11.5 -28.5t11.5 -29t28.5 -12zM365 282q25 15 25 45t-17 56q-17 30 -41.5 43.5t-49.5 -0.5
t-25.5 -44t16.5 -56q17 -30 42 -44t50 0zM523 281q23 13 28.5 35.5t-6.5 39.5q-11 21 -32.5 25.5t-37.5 -6.5q-17 -10 -23 -27l-26 46l63 37l-8 14l-78 -45l47 -82l14 8q-4 22 18 34q13 8 27 4.5t22 -16.5q8 -15 3.5 -29.5t-18.5 -22.5q-22 -12 -43 -1l-5 -17q30 -12 55 3z
" />
    <glyph glyph-name=".null" horiz-adv-x="0" 
 />
    <glyph glyph-name="nonmarkingreturn" horiz-adv-x="333" 
 />
    <glyph glyph-name="NULL" horiz-adv-x="0" 
 />
    <glyph glyph-name="NULL" horiz-adv-x="0" 
 />
    <glyph glyph-name="space" unicode=" " horiz-adv-x="290" 
 />
    <glyph glyph-name="exclam" unicode="!" horiz-adv-x="324" 
d="M220 210h-118v490h118v-490zM90 60q0 30 21 51t51 21t51 -21t21 -51q0 -29 -21 -50t-51 -21t-51 21t-21 50z" />
    <glyph glyph-name="quotedbl" unicode="&#x22;" horiz-adv-x="482" 
d="M88 455v245h114v-245h-114zM280 455v245h114v-245h-114z" />
    <glyph glyph-name="numbersign" unicode="#" horiz-adv-x="798" 
d="M40 180v105h142l38 132h-128v104h156l53 180h113l-53 -180h171l52 180h114l-53 -180h113v-104h-141l-38 -132h127v-105h-157l-50 -180h-114l52 180h-171l-52 -180h-113l52 180h-113zM504 417h-171l-38 -132h171z" />
    <glyph glyph-name="dollar" unicode="$" horiz-adv-x="661" 
d="M380 -114h-96v107q-138 17 -227 130l81 82q61 -82 146 -101v200q-100 18 -155 70.5t-55 137.5q0 82 59.5 135t150.5 62v106h96v-108q114 -18 200 -107l-83 -88q-54 64 -117 82v-186q113 -18 168.5 -74t55.5 -142q0 -82 -59.5 -136.5t-164.5 -64.5v-105zM484 190
q0 75 -104 98v-190q50 6 77 31t27 61zM194 515q0 -70 90 -90v176q-44 -7 -67 -31.5t-23 -54.5z" />
    <glyph glyph-name="percent" unicode="%" horiz-adv-x="735" 
d="M57 572q0 59 40.5 99.5t99.5 40.5t99 -40.5t40 -99.5q0 -58 -40.5 -98.5t-98.5 -40.5t-99 40.5t-41 98.5zM148 572q0 -22 14.5 -36t34.5 -14q18 0 32.5 14t14.5 36q0 23 -14.5 37.5t-32.5 14.5q-20 0 -34.5 -14.5t-14.5 -37.5zM399 128q0 58 40.5 99t99.5 41
q58 0 98.5 -40.5t40.5 -99.5q0 -58 -40 -98.5t-99 -40.5t-99.5 40.5t-40.5 98.5zM490 128q0 -22 14.5 -36t34.5 -14q18 0 32.5 14t14.5 36q0 23 -14.5 37t-32.5 14q-20 0 -34.5 -14t-14.5 -37zM209 0h-117l432 700h117z" />
    <glyph glyph-name="ampersand" unicode="&#x26;" horiz-adv-x="687" 
d="M659 0h-140l-44 54q-82 -65 -190 -65q-115 0 -174.5 60t-59.5 139q0 130 143 209l10 5q-36 50 -49 85t-13 72q0 65 49.5 108.5t128.5 43.5q78 0 128.5 -48.5t50.5 -115.5q0 -54 -34.5 -97.5t-82.5 -71.5l-10 -6l109 -139q31 54 47 120h121q-26 -122 -97 -216zM282 92
q73 0 125 48l-137 177l-4 -2q-98 -48 -98 -123q0 -43 33.5 -71.5t80.5 -28.5zM319 608q-22 0 -40 -17t-18 -44q0 -31 38 -82l7 -9l6 3q71 40 71 88q0 28 -18 44.5t-46 16.5z" />
    <glyph glyph-name="quotesingle" unicode="'" horiz-adv-x="290" 
d="M88 455v245h114v-245h-114z" />
    <glyph glyph-name="parenleft" unicode="(" horiz-adv-x="399" 
d="M199 260q0 -221 166 -389l-81 -76q-89 86 -146.5 205t-57.5 260q0 140 57.5 259t146.5 206l80 -75q-165 -157 -165 -390z" />
    <glyph glyph-name="parenright" unicode=")" horiz-adv-x="399" 
d="M200 260q0 221 -166 389l81 76q89 -86 146.5 -205t57.5 -260q0 -140 -57.5 -259t-146.5 -206l-80 75q165 157 165 390z" />
    <glyph glyph-name="asterisk" unicode="*" horiz-adv-x="477" 
d="M420 605l-117 -27l78 -92l-75 -56l-68 102l-67 -102l-75 56l77 92l-116 27l23 86l117 -37l-4 121h91l-5 -121l118 37z" />
    <glyph glyph-name="plus" unicode="+" horiz-adv-x="650" 
d="M271 194h-191v105h191v191h105v-191h194v-105h-194v-194h-105v194z" />
    <glyph glyph-name="comma" unicode="," horiz-adv-x="290" 
d="M227 114l-117 -252h-110l102 252h125z" />
    <glyph glyph-name="hyphen" unicode="-" horiz-adv-x="290" 
d="M270 210h-250v105h250v-105z" />
    <glyph glyph-name="period" unicode="." horiz-adv-x="290" 
d="M73 60q0 30 21 51t51 21t51 -21t21 -51q0 -29 -21 -50t-51 -21t-51 21t-21 50z" />
    <glyph glyph-name="slash" unicode="/" horiz-adv-x="497" 
d="M133 -92h-123l355 842h122z" />
    <glyph glyph-name="zero" unicode="0" horiz-adv-x="664" 
d="M479 351q0 118 -38 185.5t-109 67.5t-109 -67.5t-38 -185.5t38 -186t109 -68t109 68t38 186zM65 351q0 160 69.5 260.5t197.5 100.5t197.5 -100.5t69.5 -260.5t-69.5 -261t-197.5 -101t-197.5 101t-69.5 261z" />
    <glyph glyph-name="one" unicode="1" horiz-adv-x="547" 
d="M40 0v108h174v442q-64 -51 -174 -51v105q60 3 111 26t74 70h108v-592h174v-108h-467z" />
    <glyph glyph-name="two" unicode="2" horiz-adv-x="571" 
d="M177 108h348v-108h-478v23q0 123 53 199t185 142l18 9q55 27 78.5 56t23.5 75q0 45 -32 72.5t-86 27.5q-56 0 -98.5 -32.5t-65.5 -89.5l-78 78q30 68 94 110t145 42q101 0 171.5 -56t70.5 -158q0 -138 -154 -216l-61 -31q-27 -14 -45.5 -26t-39.5 -29.5t-33 -39.5
t-16 -48z" />
    <glyph glyph-name="three" unicode="3" horiz-adv-x="575" 
d="M425 366q41 -20 70.5 -63t29.5 -102q0 -100 -71 -156t-180 -56q-74 0 -138.5 31t-105.5 81l81 81q69 -85 168 -85q55 0 91 29t36 73q0 50 -39.5 76.5t-110.5 26.5h-52v110h41q71 0 107.5 27.5t36.5 74.5q0 45 -33.5 67.5t-80.5 22.5q-90 0 -151 -76l-77 77
q95 107 227 107q97 0 165.5 -49t68.5 -145q0 -97 -83 -152z" />
    <glyph glyph-name="four" unicode="4" horiz-adv-x="602" 
d="M567 262v-108h-97v-154h-120v154h-320v97l329 449h111v-438h97zM350 527l-190 -265h190v265z" />
    <glyph glyph-name="five" unicode="5" horiz-adv-x="591" 
d="M426 227q0 55 -37.5 91.5t-92.5 36.5q-88 0 -125 -79h-108l17 424h410v-108h-300l-9 -171q52 42 128 42q97 0 167 -60t70 -176q0 -105 -73 -171.5t-193 -66.5q-74 0 -133 30t-97 81l83 82q65 -85 156 -85q60 0 98.5 37t38.5 93z" />
    <glyph glyph-name="six" unicode="6" horiz-adv-x="634" 
d="M335 -11q-129 0 -199.5 99t-70.5 269q0 159 79 257t206 98t204 -90l-77 -79q-54 61 -130 61q-66 0 -113.5 -56.5t-51.5 -163.5q61 70 164 70q96 0 164.5 -64t68.5 -168q0 -107 -71 -170t-173 -63zM335 345q-51 0 -87 -33.5t-36 -88.5q0 -53 35.5 -89.5t91.5 -36.5
q53 0 86.5 34t33.5 91q0 55 -34.5 89t-89.5 34z" />
    <glyph glyph-name="seven" unicode="7" horiz-adv-x="549" 
d="M145 469h-115v231h489v-100q-213 -222 -242 -560l-3 -40h-121l3 39q30 330 213 553h-224v-123z" />
    <glyph glyph-name="eight" unicode="8" horiz-adv-x="617" 
d="M309 -11q-111 0 -180 56t-69 150q0 113 99 166q-33 19 -57.5 57t-24.5 94q0 90 65 145t167 55t166.5 -55t64.5 -145q0 -56 -24.5 -94t-57.5 -57q99 -53 99 -166q0 -94 -69 -150t-179 -56zM309 304q-56 0 -92.5 -29t-36.5 -76q0 -49 37 -75.5t92 -26.5t91.5 26.5
t36.5 75.5q0 50 -36.5 77.5t-91.5 27.5zM309 604q-45 0 -78.5 -24.5t-33.5 -72.5q0 -43 30 -68.5t82 -25.5q51 0 81 25.5t30 68.5q0 48 -33.5 72.5t-77.5 24.5z" />
    <glyph glyph-name="nine" unicode="9" horiz-adv-x="627" 
d="M296 712q128 0 197 -98.5t69 -269.5q0 -161 -76.5 -258t-208.5 -97q-127 0 -204 90l77 79q54 -61 130 -61q67 0 115.5 56.5t49.5 163.5q-61 -70 -161 -70q-96 0 -162.5 63.5t-66.5 168.5q0 108 70 170.5t171 62.5zM296 356q51 0 85 33t34 89q0 53 -34 89.5t-90 36.5
q-53 0 -84.5 -34t-31.5 -91q0 -55 32.5 -89t88.5 -34z" />
    <glyph glyph-name="colon" unicode=":" horiz-adv-x="290" 
d="M73 60q0 30 21 51t51 21t51 -21t21 -51q0 -29 -21 -50t-51 -21t-51 21t-21 50zM73 429q0 30 21 51t51 21t51 -21t21 -51q0 -29 -21 -50t-51 -21t-51 21t-21 50z" />
    <glyph glyph-name="semicolon" unicode=";" horiz-adv-x="290" 
d="M217 114l-117 -252h-110l102 252h125zM80 429q0 30 21 51t51 21t51 -21t21 -51q0 -29 -21 -50t-51 -21t-51 21t-21 50z" />
    <glyph glyph-name="less" unicode="&#x3c;" horiz-adv-x="606" 
d="M536 -11l-491 193v126l491 194v-121l-366 -136l366 -136v-120z" />
    <glyph glyph-name="equal" unicode="=" horiz-adv-x="650" 
d="M570 296h-490v105h490v-105zM570 100h-490v105h490v-105z" />
    <glyph glyph-name="greater" unicode="&#x3e;" horiz-adv-x="606" 
d="M70 502l491 -194v-126l-491 -193v120l366 136l-366 136v121z" />
    <glyph glyph-name="question" unicode="?" horiz-adv-x="535" 
d="M168 60q0 30 20.5 51t50.5 21t51 -21t21 -51q0 -29 -21 -50t-51 -21t-50.5 21t-20.5 50zM299 298v-87h-118v183h33q62 0 106 29t44 82q0 45 -32.5 71.5t-78.5 26.5q-99 0 -154 -98l-76 83q39 57 98 90.5t131 33.5q100 0 165.5 -58.5t65.5 -150.5q0 -78 -50.5 -133
t-133.5 -72z" />
    <glyph glyph-name="at" unicode="@" horiz-adv-x="1082" 
d="M674 48q-66 -59 -154 -59q-106 0 -173 72.5t-67 183.5t67 184t173 73q85 0 139 -56v44h112v-333q0 -66 44 -66q35 0 62.5 52t28.5 121q5 150 -90.5 251t-266.5 101q-159 0 -267 -102t-108 -267q0 -169 107.5 -262t285.5 -93q99 0 192 35v-98q-89 -34 -198 -34
q-219 0 -356 122t-137 330q0 209 136 337t345 128q213 0 338.5 -121.5t125.5 -314.5q0 -124 -61.5 -205.5t-159.5 -81.5q-80 0 -118 59zM397 245q0 -66 33.5 -112t96.5 -46q62 0 97 46t35 112q0 65 -35 109t-97 44q-63 0 -96.5 -43.5t-33.5 -109.5z" />
    <glyph glyph-name="A" unicode="A" horiz-adv-x="703" 
d="M292 700h120l273 -700h-125l-59 149h-299l-58 -149h-126zM458 259l-107 279l-106 -279h213z" />
    <glyph glyph-name="B" unicode="B" horiz-adv-x="693" 
d="M389 0h-309v700h292q111 0 176 -46t65 -139t-79 -150q96 -59 96 -166q0 -92 -65.5 -145.5t-175.5 -53.5zM199 303v-195h156q155 0 155 102q0 93 -151 93h-160zM342 592h-143v-180h149q144 0 144 92q0 51 -39 69.5t-111 18.5z" />
    <glyph glyph-name="C" unicode="C" horiz-adv-x="725" 
d="M616 203l75 -82q-105 -132 -279 -132q-159 0 -262.5 100.5t-103.5 259.5q0 162 102.5 262.5t259.5 100.5q176 0 273 -132l-77 -80q-72 103 -194 103q-104 0 -173 -72t-69 -182q0 -108 70 -179.5t176 -71.5q123 0 202 105z" />
    <glyph glyph-name="D" unicode="D" horiz-adv-x="724" 
d="M299 0h-219v700h219q75 0 139.5 -17.5t120 -55t87.5 -107.5t32 -165q0 -96 -32 -167t-87.5 -111t-120 -58.5t-139.5 -18.5zM276 592h-77v-484h78q60 0 107 11t87.5 37.5t62.5 76.5t22 122q0 69 -22 117t-62.5 73.5t-87.5 36t-108 10.5z" />
    <glyph glyph-name="E" unicode="E" horiz-adv-x="643" 
d="M573 0h-493v700h493v-108h-374v-180h357v-109h-357v-195h374v-108z" />
    <glyph glyph-name="F" unicode="F" horiz-adv-x="579" 
d="M199 303v-303h-119v700h459v-108h-340v-180h317v-109h-317z" />
    <glyph glyph-name="G" unicode="G" horiz-adv-x="754" 
d="M573 259h-161v108h279v-246q-49 -60 -125.5 -96t-165.5 -36q-148 0 -251 101.5t-103 258.5q0 161 102.5 262t258.5 101q175 0 274 -132l-78 -80q-72 103 -194 103q-104 0 -172.5 -72t-68.5 -182q0 -108 69.5 -179.5t176.5 -71.5q93 0 159 58v103z" />
    <glyph glyph-name="H" unicode="H" horiz-adv-x="728" 
d="M648 0h-120v303h-329v-303h-119v700h119v-288h329v288h120v-700z" />
    <glyph glyph-name="I" unicode="I" horiz-adv-x="279" 
d="M199 0h-119v700h119v-700z" />
    <glyph glyph-name="J" unicode="J" horiz-adv-x="526" 
d="M30 93l85 85q44 -81 117 -81q48 0 76 33t28 99v471h120v-459q0 -120 -59 -186t-170 -66q-125 0 -197 104z" />
    <glyph glyph-name="K" unicode="K" horiz-adv-x="662" 
d="M199 0h-119v700h119v-325l261 325h148l-236 -295l260 -405h-143l-199 304l-91 -111v-193z" />
    <glyph glyph-name="L" unicode="L" horiz-adv-x="571" 
d="M531 0h-451v700h119v-592h332v-108z" />
    <glyph glyph-name="M" unicode="M" horiz-adv-x="832" 
d="M471 155h-110l-162 306v-461h-119v700h125l211 -413l211 413h125v-700h-119v461z" />
    <glyph glyph-name="N" unicode="N" horiz-adv-x="747" 
d="M667 0h-120l-348 493v-493h-119v700h119l348 -495v495h120v-700z" />
    <glyph glyph-name="O" unicode="O" horiz-adv-x="803" 
d="M46 351q0 153 101.5 257t252.5 104t254 -104t103 -257q0 -154 -103 -258t-254 -104t-252.5 104t-101.5 258zM168 351q0 -109 66.5 -181t169.5 -72q101 0 167 72.5t66 180.5q0 107 -66 179t-167 72q-103 0 -169.5 -72t-66.5 -179z" />
    <glyph glyph-name="P" unicode="P" horiz-adv-x="643" 
d="M347 239h-148v-239h-119v700h267q124 0 195.5 -60t71.5 -168q0 -109 -72 -171t-195 -62zM332 592h-133v-244h133q163 0 163 123q0 121 -163 121z" />
    <glyph glyph-name="Q" unicode="Q" horiz-adv-x="803" 
d="M46 351q0 153 101.5 257t252.5 104t254 -104t103 -257q0 -125 -71 -220l77 -76l-78 -78l-77 77q-90 -65 -208 -65q-151 0 -252.5 104t-101.5 258zM528 134l-90 91l77 77l88 -88q34 60 34 137q0 107 -66 179t-167 72q-103 0 -169.5 -72t-66.5 -179q0 -109 66.5 -181
t169.5 -72q69 0 124 36z" />
    <glyph glyph-name="R" unicode="R" horiz-adv-x="670" 
d="M632 0h-141l-147 239h-145v-239h-119v700h267q124 0 195.5 -60t71.5 -168q0 -77 -37.5 -132t-105.5 -81zM332 592h-133v-244h133q163 0 163 123q0 121 -163 121z" />
    <glyph glyph-name="S" unicode="S" horiz-adv-x="661" 
d="M374 290l-85 14q-97 16 -151 69.5t-54 137.5q0 91 72 146t175 55q153 0 259 -112l-83 -88q-76 92 -181 92q-60 0 -91 -27t-31 -63q0 -75 111 -94l70 -12q219 -38 219 -214q0 -91 -72 -148t-196 -57q-173 0 -279 134l81 82q38 -50 87.5 -79t125.5 -29q64 0 98.5 26.5
t34.5 68.5q0 79 -110 98z" />
    <glyph glyph-name="T" unicode="T" horiz-adv-x="609" 
d="M35 592v108h539v-108h-210v-592h-119v592h-210z" />
    <glyph glyph-name="U" unicode="U" horiz-adv-x="706" 
d="M516 311v389h120v-389q0 -157 -76.5 -239.5t-206.5 -82.5t-206.5 82.5t-76.5 239.5v389h120v-390q0 -213 163 -213t163 214z" />
    <glyph glyph-name="V" unicode="V" horiz-adv-x="651" 
d="M143 700l184 -556l181 556h123l-239 -700h-131l-241 700h123z" />
    <glyph glyph-name="W" unicode="W" horiz-adv-x="920" 
d="M529 700l129 -511l119 511h128l-182 -700h-132l-131 507l-131 -507h-131l-183 700h127l122 -511l128 511h137z" />
    <glyph glyph-name="X" unicode="X" horiz-adv-x="673" 
d="M42 700h138l156 -243l158 243h138l-226 -341l239 -359h-138l-171 258l-170 -258h-138l240 359z" />
    <glyph glyph-name="Y" unicode="Y" horiz-adv-x="635" 
d="M23 700h127l168 -325l166 325h128l-235 -455v-245h-119v245z" />
    <glyph glyph-name="Z" unicode="Z" horiz-adv-x="644" 
d="M65 592v108h516v-103l-364 -489h362v-108h-516v103l364 489h-362z" />
    <glyph glyph-name="bracketleft" unicode="[" horiz-adv-x="384" 
d="M350 -194h-259v895h259v-107h-140v-681h140v-107z" />
    <glyph glyph-name="backslash" unicode="\" horiz-adv-x="497" 
d="M487 -92h-123l-354 842h122z" />
    <glyph glyph-name="bracketright" unicode="]" horiz-adv-x="384" 
d="M34 701h259v-895h-259v107h140v681h-140v107z" />
    <glyph glyph-name="asciicircum" unicode="^" horiz-adv-x="641" 
d="M265 425h110l216 -359h-123l-148 250l-148 -250h-122z" />
    <glyph glyph-name="underscore" unicode="_" horiz-adv-x="500" 
d="M480 -194h-460v105h460v-105z" />
    <glyph glyph-name="grave" unicode="`" horiz-adv-x="500" 
d="M253 569l-119 131h140l91 -131h-112z" />
    <glyph glyph-name="a" unicode="a" horiz-adv-x="531" 
d="M211 -11q-70 0 -117.5 40.5t-47.5 108.5q0 80 57 122t147 42q48 0 99 -17v33q0 37 -27.5 59t-68.5 22q-77 0 -116 -71l-77 72q28 50 81 76t113 26q95 0 152 -47t57 -138v-317h-112v38q-56 -49 -140 -49zM160 146q0 -25 19 -41t55 -16q71 0 115 42v56q-53 20 -102 20
q-40 0 -63.5 -16t-23.5 -45z" />
    <glyph glyph-name="b" unicode="b" horiz-adv-x="605" 
d="M560 245q0 -111 -67 -183.5t-172 -72.5q-86 0 -139 55v-44h-112v700h114v-246q56 48 137 48q105 0 172 -73t67 -184zM182 245q0 -66 34 -111t97 -45q62 0 96.5 45t34.5 111t-34.5 111t-96.5 45q-63 0 -97 -45t-34 -111z" />
    <glyph glyph-name="c" unicode="c" horiz-adv-x="527" 
d="M294 398q-58 0 -95.5 -43t-37.5 -110t38 -110t96 -43q43 0 70.5 18.5t55.5 57.5l78 -73q-73 -106 -208 -106q-102 0 -174 73.5t-72 182.5t72 183t174 74q123 0 199 -98l-79 -76q-53 70 -117 70z" />
    <glyph glyph-name="d" unicode="d" horiz-adv-x="605" 
d="M45 245q0 111 67 184t172 73q81 0 137 -48v246h114v-700h-112v44q-53 -55 -139 -55q-105 0 -172 72.5t-67 183.5zM423 245q0 66 -34 111t-97 45q-62 0 -96.5 -45t-34.5 -111t34.5 -111t96.5 -45q63 0 97 45t34 111z" />
    <glyph glyph-name="e" unicode="e" horiz-adv-x="543" 
d="M497 211h-335q4 -55 39 -87t90 -32q79 0 126 69l77 -72q-78 -100 -203 -100q-110 0 -178 70.5t-68 182.5q0 110 62.5 185t166.5 75q57 0 101.5 -21.5t70.5 -58t39 -80t13 -91.5zM275 398q-45 0 -72 -28t-35 -68h209q-1 38 -25.5 67t-76.5 29z" />
    <glyph glyph-name="f" unicode="f" horiz-adv-x="351" 
d="M297 712l44 -1v-105q-15 1 -26 1q-53 0 -78 -23.5t-25 -76.5v-17h118v-102h-118v-388h-112v388h-72v102h72v36q0 186 197 186z" />
    <glyph glyph-name="g" unicode="g" horiz-adv-x="594" 
d="M62 -96l82 78q47 -85 136 -85q59 0 94.5 35t35.5 102v25q-52 -48 -131 -48q-103 0 -168.5 69.5t-65.5 175.5q0 107 66 176.5t168 69.5q81 0 133 -52v40h112v-450q0 -111 -66 -178t-176 -67q-83 0 -137 34.5t-83 74.5zM161 256q0 -62 34 -101.5t91 -39.5t91.5 39.5
t34.5 101.5q0 63 -34.5 102.5t-91.5 39.5t-91 -39.5t-34 -102.5z" />
    <glyph glyph-name="h" unicode="h" horiz-adv-x="571" 
d="M184 271v-271h-114v700h114v-244q50 46 122 46q88 0 142.5 -57.5t54.5 -159.5v-285h-114v285q0 52 -25.5 83t-71.5 31q-52 0 -80 -34.5t-28 -93.5z" />
    <glyph glyph-name="i" unicode="i" horiz-adv-x="254" 
d="M184 0h-114v490h114v-490zM55 641q0 30 21 50.5t51 20.5t51 -20.5t21 -50.5t-21 -51t-51 -21t-51 21t-21 51z" />
    <glyph glyph-name="j" unicode="j" horiz-adv-x="254" 
d="M70 -8v498h114v-521q0 -92 -45 -133t-142 -41l-44 1v108q15 -1 26 -1q53 0 72 18t19 71zM57 641q0 30 21 50.5t51 20.5q29 0 50 -20.5t21 -50.5t-21 -51t-50 -21q-30 0 -51 21t-21 51z" />
    <glyph glyph-name="k" unicode="k" horiz-adv-x="521" 
d="M354 490h142l-191 -210l204 -280h-136l-144 196l-45 -49v-147h-114v700h114v-400z" />
    <glyph glyph-name="l" unicode="l" horiz-adv-x="254" 
d="M184 0h-114v700h114v-700z" />
    <glyph glyph-name="m" unicode="m" horiz-adv-x="862" 
d="M488 0h-113v293q0 49 -23.5 77.5t-66.5 28.5q-49 0 -75 -32.5t-26 -87.5v-279h-114v490h112v-43q47 55 127 55q91 0 137 -64q57 64 153 64q97 0 146 -55.5t49 -161.5v-285h-114v293q0 49 -23.5 77.5t-66.5 28.5q-49 0 -75.5 -32.5t-26.5 -87.5v-279z" />
    <glyph glyph-name="n" unicode="n" horiz-adv-x="571" 
d="M184 271v-271h-114v490h112v-40q46 52 127 52q91 0 142.5 -57t51.5 -160v-285h-114v285q0 52 -25.5 83t-71.5 31q-52 0 -80 -34.5t-28 -93.5z" />
    <glyph glyph-name="o" unicode="o" horiz-adv-x="596" 
d="M45 245q0 110 73 183.5t180 73.5q106 0 179.5 -73.5t73.5 -183.5q0 -109 -73.5 -182.5t-179.5 -73.5q-107 0 -180 73t-73 183zM161 245q0 -67 38.5 -110t98.5 -43q59 0 97.5 43t38.5 110t-38.5 110t-97.5 43q-60 0 -98.5 -43t-38.5 -110z" />
    <glyph glyph-name="p" unicode="p" horiz-adv-x="605" 
d="M560 245q0 -111 -67 -183.5t-172 -72.5q-80 0 -137 47v-230h-114v684h112v-44q52 56 139 56q105 0 172 -73t67 -184zM182 244q0 -66 34 -110.5t97 -44.5q62 0 96.5 45t34.5 110t-34.5 110t-96.5 45q-63 0 -97 -44.5t-34 -110.5z" />
    <glyph glyph-name="q" unicode="q" horiz-adv-x="605" 
d="M45 245q0 111 67 184t172 73q86 0 139 -56v44h112v-684h-114v230q-57 -47 -137 -47q-105 0 -172 72.5t-67 183.5zM423 244q0 66 -34 110.5t-97 44.5q-62 0 -96.5 -45t-34.5 -110t34.5 -110t96.5 -45q63 0 97 44.5t34 110.5z" />
    <glyph glyph-name="r" unicode="r" horiz-adv-x="368" 
d="M353 496v-108q-8 1 -18 1q-84 0 -117.5 -47t-33.5 -150v-192h-114v490h112v-53q50 60 149 60q10 0 22 -1z" />
    <glyph glyph-name="s" unicode="s" horiz-adv-x="471" 
d="M269 185l-65 16q-149 37 -149 155q0 67 50 106.5t129 39.5q104 0 183 -82l-71 -78q-45 62 -115 62q-31 0 -49 -13.5t-18 -32.5q0 -35 48 -46l77 -18q146 -35 146 -153q0 -67 -51 -109.5t-144 -42.5q-129 0 -204 95l72 74q54 -71 141 -71q76 0 76 50q0 34 -56 48z" />
    <glyph glyph-name="t" unicode="t" horiz-adv-x="350" 
d="M254 -1q-95 0 -132 39.5t-37 134.5v215h-72v102h72v137h113v-137h117v-102h-117v-198q0 -53 16 -71t64 -18l37 2v-102q-22 -2 -61 -2z" />
    <glyph glyph-name="u" unicode="u" horiz-adv-x="560" 
d="M68 490h114v-293q0 -49 24 -77.5t68 -28.5q48 0 75 34t27 89v276h114v-490h-112v40q-46 -51 -127 -51q-83 0 -133 57t-50 159v285z" />
    <glyph glyph-name="v" unicode="v" horiz-adv-x="482" 
d="M354 490h123l-174 -490h-124l-174 490h123l113 -343z" />
    <glyph glyph-name="w" unicode="w" horiz-adv-x="786" 
d="M144 490l83 -338l89 338h146l89 -338l83 338h123l-135 -490h-138l-95 348l-96 -348h-138l-135 490h124z" />
    <glyph glyph-name="x" unicode="x" horiz-adv-x="497" 
d="M26 490h131l91 -146l92 146h131l-159 -238l170 -252h-131l-103 160l-102 -160h-131l170 252z" />
    <glyph glyph-name="y" unicode="y" horiz-adv-x="526" 
d="M244 -194h-120l77 200l-186 484h130l120 -339l121 339h125z" />
    <glyph glyph-name="z" unicode="z" horiz-adv-x="511" 
d="M76 388v102h373v-97l-239 -290h251v-103h-390v97l237 291h-232z" />
    <glyph glyph-name="braceleft" unicode="{" horiz-adv-x="417" 
d="M264 510v-512q0 -49 19.5 -70t63.5 -21h36v-106h-84q-78 0 -114.5 45t-36.5 114v239h-114v109h114v239q0 70 36.5 115t114.5 45h84v-106h-36q-44 0 -63.5 -21t-19.5 -70z" />
    <glyph glyph-name="bar" unicode="|" horiz-adv-x="436" 
d="M276 -194h-116v895h116v-895z" />
    <glyph glyph-name="braceright" unicode="}" horiz-adv-x="417" 
d="M153 -2v512q0 49 -19.5 70t-63.5 21h-36v106h84q78 0 114.5 -45t36.5 -115v-239h114v-109h-114v-239q0 -69 -36.5 -114t-114.5 -45h-84v106h36q44 0 63.5 21t19.5 70z" />
    <glyph glyph-name="asciitilde" unicode="~" horiz-adv-x="488" 
d="M346 324h86q4 -71 -23 -109.5t-75 -38.5q-23 0 -55 8l-68 22q-30 8 -39 8q-31 0 -31 -38h-85q-4 71 23 109.5t75 38.5q32 0 54 -8l69 -21q24 -8 39 -8q30 0 30 37z" />
    <glyph glyph-name="nbspace" unicode="&#xa0;" horiz-adv-x="290" 
 />
    <glyph glyph-name="exclamdown" unicode="&#xa1;" horiz-adv-x="324" 
d="M103 279h118v-473h-118v473zM234 430q0 -30 -21 -51t-51 -21t-51 21t-21 51t21 51t51 21t51 -21t21 -51z" />
    <glyph glyph-name="cent" unicode="&#xa2;" horiz-adv-x="527" 
d="M331 -114h-97v110q-82 19 -135.5 87.5t-53.5 161.5q0 92 53.5 161t135.5 89v109h97v-105q94 -12 159 -95l-79 -76q-39 51 -80 64v-296q46 11 90 72l78 -73q-62 -90 -168 -103v-106zM161 245q0 -47 19.5 -83.5t53.5 -54.5v276q-34 -18 -53.5 -54.5t-19.5 -83.5z" />
    <glyph glyph-name="sterling" unicode="&#xa3;" horiz-adv-x="632" 
d="M142 309h-92v99h72q-8 41 -8 82q0 57 21 102t55 70t71 37.5t74 12.5q136 0 221 -115l-82 -83q-59 90 -132 90q-49 0 -79 -30.5t-30 -89.5q0 -40 8 -76h187v-99h-167l44 -195h152v123h105v-237h-512v114h134z" />
    <glyph glyph-name="currency" unicode="&#xa4;" horiz-adv-x="570" 
d="M55 403l79 75l56 -59q45 24 92 24q50 0 95 -26l59 61l79 -75l-62 -65q21 -42 21 -87q0 -47 -22 -88l63 -65l-79 -76l-60 62q-44 -25 -94 -25t-91 23l-57 -60l-79 76l58 61q-23 41 -23 92q0 50 23 91zM198 251q0 -35 24 -60t60 -25t60 25t24 60t-24 61.5t-60 26.5t-60 -26
t-24 -62z" />
    <glyph glyph-name="yen" unicode="&#xa5;" horiz-adv-x="624" 
d="M258 283h-179v99h127l-183 318h128l168 -291l157 291h125l-174 -318h130v-99h-179v-69h179v-99h-179v-115h-120v115h-179v99h179v69z" />
    <glyph glyph-name="brokenbar" unicode="&#xa6;" horiz-adv-x="436" 
d="M276 336h-116v365h116v-365zM276 -194h-116v365h116v-365z" />
    <glyph glyph-name="section" unicode="&#xa7;" horiz-adv-x="627" 
d="M568 206q0 -76 -60 -132q36 -43 36 -98q0 -77 -55.5 -129t-153.5 -52q-149 0 -235 139l78 75q58 -109 154 -109q42 0 69 17.5t27 51.5q0 36 -23 52.5t-78 35.5l-82 28q-173 61 -173 208q0 89 76 145q-38 46 -38 107q0 73 61 120t148 47q67 0 119.5 -31.5t84.5 -78.5
l-78 -78q-28 41 -58 62.5t-73 21.5q-38 0 -63 -19t-25 -48q0 -57 82 -90l73 -28q97 -37 142 -84.5t45 -132.5zM291 189l135 -51q27 35 27 71q0 37 -22.5 59.5t-79.5 44.5l-132 53q-30 -28 -30 -70q0 -37 22.5 -61t79.5 -46z" />
    <glyph glyph-name="dieresis" unicode="&#xa8;" horiz-adv-x="500" 
d="M92 649q0 26 18.5 44.5t43.5 18.5q26 0 44.5 -19t18.5 -44t-18.5 -44t-44.5 -19q-25 0 -43.5 18.5t-18.5 44.5zM283 649q0 25 18.5 44t44.5 19q25 0 43.5 -18.5t18.5 -44.5t-18.5 -44.5t-43.5 -18.5q-26 0 -44.5 19t-18.5 44z" />
    <glyph glyph-name="copyright" unicode="&#xa9;" horiz-adv-x="826" 
d="M57 351q0 150 103 255.5t253 105.5q149 0 252.5 -106t103.5 -255q0 -152 -103 -257t-253 -105t-253 105t-103 257zM133 351q0 -121 80.5 -204t199.5 -83t199.5 83t80.5 204q0 119 -81 202.5t-199 83.5q-119 0 -199.5 -83.5t-80.5 -202.5zM515 280l62 -57
q-63 -73 -156 -73q-86 0 -142 57.5t-56 142.5t57 141t143 56q93 0 146 -64l-62 -61q-37 42 -84 42q-46 0 -75 -33t-29 -81q0 -49 28.5 -82t77.5 -33q51 0 90 45z" />
    <glyph glyph-name="ordfeminine" unicode="&#xaa;" horiz-adv-x="408" 
d="M166 334q-58 0 -94 31t-36 81q0 55 41 84.5t104 29.5q35 0 87 -13v19q0 31 -21 49.5t-56 18.5q-27 0 -50 -13t-34 -29l-59 52q57 67 149 67q72 0 117 -37t45 -105v-227h-89v30q-40 -38 -104 -38zM126 450q0 -19 16 -30.5t42 -11.5q49 0 84 35v43q-1 0 -13 3t-27.5 5
t-29.5 2q-35 0 -53.5 -12.5t-18.5 -33.5z" />
    <glyph glyph-name="guillemotleft" unicode="&#xab;" horiz-adv-x="633" 
d="M190 0l-137 245l137 245h125l-139 -245l139 -245h-125zM458 0l-137 245l137 245h125l-139 -245l139 -245h-125z" />
    <glyph glyph-name="logicalnot" unicode="&#xac;" horiz-adv-x="629" 
d="M451 191h-381v105h489v-248h-108v143z" />
    <glyph glyph-name="uni00AD" unicode="&#xad;" horiz-adv-x="290" 
d="M270 210h-250v105h250v-105z" />
    <glyph glyph-name="registered" unicode="&#xae;" horiz-adv-x="659" 
d="M57 435q0 115 78.5 196t192.5 81t194 -81t80 -196q0 -114 -80 -194.5t-194 -80.5t-192.5 80.5t-78.5 194.5zM131 435q0 -85 57 -143.5t140 -58.5q84 0 141.5 58.5t57.5 143.5q0 86 -57.5 145.5t-141.5 59.5q-83 0 -140 -59.5t-57 -145.5zM454 316h-77l-48 69h-34v-69h-68
v251h113q45 0 76 -22t31 -67q0 -58 -52 -82zM328 508h-33v-62h33q50 0 50 32q0 30 -50 30z" />
    <glyph glyph-name="macron" unicode="&#xaf;" horiz-adv-x="500" 
d="M130 605v95h239v-95h-239z" />
    <glyph glyph-name="degree" unicode="&#xb0;" horiz-adv-x="411" 
d="M40 547q0 70 48 117.5t117 47.5q70 0 118 -47.5t48 -117.5q0 -69 -48 -117t-118 -48q-69 0 -117 48t-48 117zM139 547q0 -29 19 -48.5t47 -19.5q27 0 46 19.5t19 48.5t-19 49t-46 20q-28 0 -47 -20t-19 -49z" />
    <glyph glyph-name="plusminus" unicode="&#xb1;" horiz-adv-x="650" 
d="M570 -116h-490v105h490v-105zM271 263h-191v105h191v191h105v-191h194v-105h-194v-194h-105v194z" />
    <glyph glyph-name="twosuperior" unicode="&#xb2;" horiz-adv-x="365" 
d="M133 387h193v-79h-296v13q0 72 30 119t105 83l23 11q50 24 50 55q0 17 -14.5 28t-40.5 11q-62 0 -95 -62l-58 56q19 38 59 61.5t89 23.5q62 0 106 -31t44 -86q0 -44 -25 -72.5t-73 -51.5l-36 -18q-29 -14 -43 -27t-18 -34z" />
    <glyph glyph-name="threesuperior" unicode="&#xb3;" horiz-adv-x="350" 
d="M261 513q24 -11 39.5 -35t15.5 -57q0 -56 -44 -87.5t-112 -31.5q-43 0 -83 17.5t-64 45.5l60 58q37 -43 91 -43q28 0 45.5 11.5t17.5 31.5q0 45 -77 45h-34v79h28q72 0 72 43q0 16 -14 27t-38 11q-52 0 -82 -38l-59 56q56 61 138 61q60 0 102.5 -27.5t42.5 -81.5
q0 -56 -45 -85z" />
    <glyph glyph-name="acute" unicode="&#xb4;" horiz-adv-x="500" 
d="M154 569l91 131h140l-119 -131h-112z" />
    <glyph glyph-name="mu" unicode="&#xb5;" horiz-adv-x="562" 
d="M184 -194h-114v684h114v-292q0 -51 24.5 -79t66.5 -28q48 0 75.5 34t27.5 89v276h114v-490h-112v40q-48 -51 -116 -51q-48 0 -80 22v-205z" />
    <glyph glyph-name="paragraph" unicode="&#xb6;" horiz-adv-x="759" 
d="M337 -194v452h-52q-118 0 -187.5 60t-69.5 161t70 161.5t187 60.5h394v-895h-116v792h-109v-792h-117z" />
    <glyph glyph-name="periodcentered" unicode="&#xb7;" horiz-adv-x="290" 
d="M73 262q0 30 21 51t51 21t51 -21t21 -51q0 -29 -21 -50t-51 -21t-51 21t-21 50z" />
    <glyph glyph-name="cedilla" unicode="&#xb8;" horiz-adv-x="500" 
d="M339 11l-64 -148h-115l77 148h102z" />
    <glyph glyph-name="onesuperior" unicode="&#xb9;" horiz-adv-x="337" 
d="M35 387h100v207q-41 -25 -100 -25v77q83 4 109 54h81v-313h97v-79h-287v79z" />
    <glyph glyph-name="ordmasculine" unicode="&#xba;" horiz-adv-x="460" 
d="M33 522q0 80 56.5 134.5t140.5 54.5t140.5 -54.5t56.5 -134.5t-56.5 -134t-140.5 -54t-140.5 54t-56.5 134zM125 522q0 -47 29.5 -77.5t75.5 -30.5t75 30.5t29 77.5t-29 78t-75 31t-75.5 -31t-29.5 -78z" />
    <glyph glyph-name="guillemotright" unicode="&#xbb;" horiz-adv-x="633" 
d="M50 490h125l137 -245l-137 -245h-125l139 245zM318 490h125l137 -245l-137 -245h-125l139 245z" />
    <glyph glyph-name="onequarter" unicode="&#xbc;" horiz-adv-x="881" 
d="M316 0h-117l432 700h117zM35 387h100v207q-41 -25 -100 -25v77q83 4 109 54h81v-313h97v-79h-287v79zM858 82h-57v-82h-90v82h-185v70l175 240h100v-235h57v-75zM619 157h92v128z" />
    <glyph glyph-name="onehalf" unicode="&#xbd;" horiz-adv-x="935" 
d="M316 0h-117l432 700h117zM35 387h100v207q-41 -25 -100 -25v77q83 4 109 54h81v-313h97v-79h-287v79zM703 79h193v-79h-296v13q0 72 30 119t105 83l23 11q50 24 50 55q0 17 -14.5 28t-40.5 11q-62 0 -95 -62l-58 56q19 38 59 61.5t89 23.5q62 0 106 -31t44 -86
q0 -44 -25 -72.5t-73 -51.5l-36 -18q-29 -14 -43 -27t-18 -34z" />
    <glyph glyph-name="threequarters" unicode="&#xbe;" horiz-adv-x="861" 
d="M261 513q24 -11 39.5 -35t15.5 -57q0 -56 -44 -87.5t-112 -31.5q-43 0 -83 17.5t-64 45.5l60 58q37 -43 91 -43q28 0 45.5 11.5t17.5 31.5q0 45 -77 45h-34v79h28q72 0 72 43q0 16 -14 27t-38 11q-52 0 -82 -38l-59 56q56 61 138 61q60 0 102.5 -27.5t42.5 -81.5
q0 -56 -45 -85zM179 0h117l432 700h-117zM838 82h-57v-82h-90v82h-185v70l175 240h100v-235h57v-75zM599 157h92v128z" />
    <glyph glyph-name="questiondown" unicode="&#xbf;" horiz-adv-x="535" 
d="M370 430q0 -30 -21 -51t-51 -21q-29 0 -50 21t-21 51t21 51t50 21q30 0 51 -21t21 -51zM357 279v-183h-33q-65 0 -107.5 -23.5t-42.5 -75.5q0 -44 31.5 -68.5t79.5 -24.5q99 0 154 98l76 -83q-39 -57 -98 -90.5t-131 -33.5q-101 0 -166.5 56t-65.5 148q0 77 50 126.5
t135 67.5v86h118z" />
    <glyph glyph-name="Agrave" unicode="&#xc0;" horiz-adv-x="703" 
d="M292 700h120l273 -700h-125l-59 149h-299l-58 -149h-126zM458 259l-107 279l-106 -279h213zM304 769l-109 103h146l86 -103h-123z" />
    <glyph glyph-name="Aacute" unicode="&#xc1;" horiz-adv-x="703" 
d="M292 700h120l273 -700h-125l-59 149h-299l-58 -149h-126zM458 259l-107 279l-106 -279h213zM275 769l86 103h146l-109 -103h-123z" />
    <glyph glyph-name="Acircumflex" unicode="&#xc2;" horiz-adv-x="703" 
d="M292 700h120l273 -700h-125l-59 149h-299l-58 -149h-126zM458 259l-107 279l-106 -279h213zM192 769l91 103h136l91 -103h-113l-46 44l-46 -44h-113z" />
    <glyph glyph-name="Atilde" unicode="&#xc3;" horiz-adv-x="703" 
d="M292 700h120l273 -700h-125l-59 149h-299l-58 -149h-126zM458 259l-107 279l-106 -279h213zM424 874h80q0 -49 -25 -81.5t-63 -32.5q-21 0 -42 7l-40 15q-27 8 -33 8q-22 0 -24 -24h-80q0 49 25 81.5t63 32.5q21 0 42 -7l40 -15q27 -8 33 -8q22 0 24 24z" />
    <glyph glyph-name="Adieresis" unicode="&#xc4;" horiz-adv-x="703" 
d="M292 700h120l273 -700h-125l-59 149h-299l-58 -149h-126zM458 259l-107 279l-106 -279h213zM193 820q0 26 18.5 44.5t43.5 18.5t44 -18.5t19 -44.5t-19 -44.5t-44 -18.5t-43.5 18.5t-18.5 44.5zM384 820q0 26 19 44.5t44 18.5t43.5 -18.5t18.5 -44.5t-18.5 -44.5
t-43.5 -18.5t-44 18.5t-19 44.5z" />
    <glyph glyph-name="Aring" unicode="&#xc5;" horiz-adv-x="703" 
d="M249 761q0 44 30 73t70 29q43 0 73.5 -29t30.5 -73q0 -45 -35 -77l267 -684h-125l-59 149h-299l-58 -149h-126l267 683q-36 31 -36 78zM458 259l-107 279l-106 -279h213zM311 761q0 -16 12 -27.5t28 -11.5t27.5 11.5t11.5 27.5t-11.5 27.5t-27.5 11.5t-28 -11.5
t-12 -27.5z" />
    <glyph glyph-name="AE" unicode="&#xc6;" horiz-adv-x="930" 
d="M860 108v-108h-300l-59 149h-299l-58 -149h-126l274 700h568v-108h-406l70 -180h319v-109h-276l76 -195h217zM458 259l-107 279l-106 -279h213z" />
    <glyph glyph-name="Ccedilla" unicode="&#xc7;" horiz-adv-x="725" 
d="M473 -7l-56 -130h-115l66 128q-142 14 -232 112t-90 246q0 162 102.5 262.5t259.5 100.5q176 0 273 -132l-77 -80q-72 103 -194 103q-104 0 -173 -72t-69 -182q0 -108 70 -179.5t176 -71.5q123 0 202 105l75 -82q-87 -109 -218 -128z" />
    <glyph glyph-name="Egrave" unicode="&#xc8;" horiz-adv-x="643" 
d="M573 0h-493v700h493v-108h-374v-180h357v-109h-357v-195h374v-108zM289 769l-109 103h146l86 -103h-123z" />
    <glyph glyph-name="Eacute" unicode="&#xc9;" horiz-adv-x="643" 
d="M573 0h-493v700h493v-108h-374v-180h357v-109h-357v-195h374v-108zM260 769l86 103h146l-109 -103h-123z" />
    <glyph glyph-name="Ecircumflex" unicode="&#xca;" horiz-adv-x="643" 
d="M573 0h-493v700h493v-108h-374v-180h357v-109h-357v-195h374v-108zM177 769l91 103h136l91 -103h-113l-46 44l-46 -44h-113z" />
    <glyph glyph-name="Edieresis" unicode="&#xcb;" horiz-adv-x="643" 
d="M573 0h-493v700h493v-108h-374v-180h357v-109h-357v-195h374v-108zM178 820q0 26 18.5 44.5t43.5 18.5q26 0 44.5 -18.5t18.5 -44.5t-18.5 -44.5t-44.5 -18.5q-25 0 -43.5 18.5t-18.5 44.5zM369 820q0 26 18.5 44.5t44.5 18.5q25 0 43.5 -18.5t18.5 -44.5t-18.5 -44.5
t-43.5 -18.5q-26 0 -44.5 18.5t-18.5 44.5z" />
    <glyph glyph-name="Igrave" unicode="&#xcc;" horiz-adv-x="279" 
d="M199 0h-119v700h119v-700zM94 769l-109 103h146l86 -103h-123z" />
    <glyph glyph-name="Iacute" unicode="&#xcd;" horiz-adv-x="279" 
d="M199 0h-119v700h119v-700zM65 769l86 103h146l-109 -103h-123z" />
    <glyph glyph-name="Icircumflex" unicode="&#xce;" horiz-adv-x="279" 
d="M199 0h-119v700h119v-700zM-18 769l91 103h136l91 -103h-113l-46 44l-46 -44h-113z" />
    <glyph glyph-name="Idieresis" unicode="&#xcf;" horiz-adv-x="279" 
d="M199 0h-119v700h119v-700zM-17 820q0 26 18.5 44.5t43.5 18.5t44 -18.5t19 -44.5t-19 -44.5t-44 -18.5t-43.5 18.5t-18.5 44.5zM174 820q0 26 19 44.5t44 18.5t43.5 -18.5t18.5 -44.5t-18.5 -44.5t-43.5 -18.5t-44 18.5t-19 44.5z" />
    <glyph glyph-name="Eth" unicode="&#xd0;" horiz-adv-x="724" 
d="M299 0h-219v303h-80v109h80v288h219q75 0 139.5 -17.5t120 -55t87.5 -107.5t32 -165q0 -96 -32 -167t-87.5 -111t-120 -58.5t-139.5 -18.5zM276 592h-77v-180h120v-109h-120v-195h78q60 0 107 11t87.5 37.5t62.5 76.5t22 122q0 69 -22 117t-62.5 73.5t-87.5 36t-108 10.5
z" />
    <glyph glyph-name="Ntilde" unicode="&#xd1;" horiz-adv-x="747" 
d="M667 0h-120l-348 493v-493h-119v700h119l348 -495v495h120v-700zM456 874h80q0 -49 -25 -81.5t-63 -32.5q-21 0 -42 7l-40 15q-27 8 -33 8q-22 0 -24 -24h-80q0 49 25 81.5t63 32.5q21 0 42 -7l40 -15q27 -8 33 -8q22 0 24 24z" />
    <glyph glyph-name="Ograve" unicode="&#xd2;" horiz-adv-x="803" 
d="M46 351q0 153 101.5 257t252.5 104t254 -104t103 -257q0 -154 -103 -258t-254 -104t-252.5 104t-101.5 258zM168 351q0 -109 66.5 -181t169.5 -72q101 0 167 72.5t66 180.5q0 107 -66 179t-167 72q-103 0 -169.5 -72t-66.5 -179zM353 769l-109 103h146l86 -103h-123z" />
    <glyph glyph-name="Oacute" unicode="&#xd3;" horiz-adv-x="803" 
d="M46 351q0 153 101.5 257t252.5 104t254 -104t103 -257q0 -154 -103 -258t-254 -104t-252.5 104t-101.5 258zM168 351q0 -109 66.5 -181t169.5 -72q101 0 167 72.5t66 180.5q0 107 -66 179t-167 72q-103 0 -169.5 -72t-66.5 -179zM324 769l86 103h146l-109 -103h-123z" />
    <glyph glyph-name="Ocircumflex" unicode="&#xd4;" horiz-adv-x="803" 
d="M46 351q0 153 101.5 257t252.5 104t254 -104t103 -257q0 -154 -103 -258t-254 -104t-252.5 104t-101.5 258zM168 351q0 -109 66.5 -181t169.5 -72q101 0 167 72.5t66 180.5q0 107 -66 179t-167 72q-103 0 -169.5 -72t-66.5 -179zM241 769l91 103h136l91 -103h-113l-46 44
l-46 -44h-113z" />
    <glyph glyph-name="Otilde" unicode="&#xd5;" horiz-adv-x="803" 
d="M46 351q0 153 101.5 257t252.5 104t254 -104t103 -257q0 -154 -103 -258t-254 -104t-252.5 104t-101.5 258zM168 351q0 -109 66.5 -181t169.5 -72q101 0 167 72.5t66 180.5q0 107 -66 179t-167 72q-103 0 -169.5 -72t-66.5 -179zM473 874h80q0 -49 -25 -81.5t-63 -32.5
q-21 0 -42 7l-40 15q-27 8 -33 8q-22 0 -24 -24h-80q0 49 25 81.5t63 32.5q21 0 42 -7l40 -15q27 -8 33 -8q22 0 24 24z" />
    <glyph glyph-name="Odieresis" unicode="&#xd6;" horiz-adv-x="803" 
d="M46 351q0 153 101.5 257t252.5 104t254 -104t103 -257q0 -154 -103 -258t-254 -104t-252.5 104t-101.5 258zM168 351q0 -109 66.5 -181t169.5 -72q101 0 167 72.5t66 180.5q0 107 -66 179t-167 72q-103 0 -169.5 -72t-66.5 -179zM242 820q0 26 18.5 44.5t43.5 18.5
q26 0 44.5 -18.5t18.5 -44.5t-18.5 -44.5t-44.5 -18.5q-25 0 -43.5 18.5t-18.5 44.5zM433 820q0 26 18.5 44.5t44.5 18.5q25 0 43.5 -18.5t18.5 -44.5t-18.5 -44.5t-43.5 -18.5q-26 0 -44.5 18.5t-18.5 44.5z" />
    <glyph glyph-name="multiply" unicode="&#xd7;" horiz-adv-x="605" 
d="M229 249l-147 147l74 74l147 -147l146 147l74 -74l-146 -147l149 -148l-75 -74l-148 148l-149 -148l-74 74z" />
    <glyph glyph-name="Oslash" unicode="&#xd8;" horiz-adv-x="803" 
d="M46 351q0 153 101.5 257t252.5 104q85 0 163 -38l41 59l79 -57l-40 -58q114 -106 114 -267q0 -154 -103 -258t-254 -104q-90 0 -169 41l-42 -60l-79 57l42 61q-106 104 -106 263zM404 98q101 0 167 72.5t66 180.5q0 101 -61 172l-280 -400q50 -25 108 -25zM168 351
q0 -98 53 -165l277 396q-43 20 -94 20q-103 0 -169.5 -72t-66.5 -179z" />
    <glyph glyph-name="Ugrave" unicode="&#xd9;" horiz-adv-x="706" 
d="M516 311v389h120v-389q0 -157 -76.5 -239.5t-206.5 -82.5t-206.5 82.5t-76.5 239.5v389h120v-390q0 -213 163 -213t163 214zM306 769l-109 103h146l86 -103h-123z" />
    <glyph glyph-name="Uacute" unicode="&#xda;" horiz-adv-x="706" 
d="M516 311v389h120v-389q0 -157 -76.5 -239.5t-206.5 -82.5t-206.5 82.5t-76.5 239.5v389h120v-390q0 -213 163 -213t163 214zM277 769l86 103h146l-109 -103h-123z" />
    <glyph glyph-name="Ucircumflex" unicode="&#xdb;" horiz-adv-x="706" 
d="M516 311v389h120v-389q0 -157 -76.5 -239.5t-206.5 -82.5t-206.5 82.5t-76.5 239.5v389h120v-390q0 -213 163 -213t163 214zM194 769l91 103h136l91 -103h-113l-46 44l-46 -44h-113z" />
    <glyph glyph-name="Udieresis" unicode="&#xdc;" horiz-adv-x="706" 
d="M516 311v389h120v-389q0 -157 -76.5 -239.5t-206.5 -82.5t-206.5 82.5t-76.5 239.5v389h120v-390q0 -213 163 -213t163 214zM195 820q0 26 18.5 44.5t43.5 18.5t44 -18.5t19 -44.5t-19 -44.5t-44 -18.5t-43.5 18.5t-18.5 44.5zM386 820q0 26 19 44.5t44 18.5t43.5 -18.5
t18.5 -44.5t-18.5 -44.5t-43.5 -18.5t-44 18.5t-19 44.5z" />
    <glyph glyph-name="Yacute" unicode="&#xdd;" horiz-adv-x="635" 
d="M23 700h127l168 -325l166 325h128l-235 -455v-245h-119v245zM242 769l86 103h146l-109 -103h-123z" />
    <glyph glyph-name="Thorn" unicode="&#xde;" horiz-adv-x="643" 
d="M347 128h-148v-128h-119v700h119v-111h148q124 0 195.5 -60t71.5 -168q0 -109 -72 -171t-195 -62zM332 481h-133v-244h133q163 0 163 123q0 121 -163 121z" />
    <glyph glyph-name="germandbls" unicode="&#xdf;" horiz-adv-x="634" 
d="M184 0h-114v441q0 130 67.5 200.5t189.5 70.5q96 0 163.5 -56.5t67.5 -144.5q0 -92 -70 -137q101 -57 101 -167q0 -86 -61.5 -146.5t-166.5 -60.5h-95v103h80q56 0 92.5 29t36.5 75q0 104 -143 104h-66v102h59q54 0 86 27.5t32 72.5q0 40 -31 68t-85 28q-143 0 -143 -168
v-441z" />
    <glyph glyph-name="agrave" unicode="&#xe0;" horiz-adv-x="531" 
d="M211 -11q-70 0 -117.5 40.5t-47.5 108.5q0 80 57 122t147 42q48 0 99 -17v33q0 37 -27.5 59t-68.5 22q-77 0 -116 -71l-77 72q28 50 81 76t113 26q95 0 152 -47t57 -138v-317h-112v38q-56 -49 -140 -49zM160 146q0 -25 19 -41t55 -16q71 0 115 42v56q-53 20 -102 20
q-40 0 -63.5 -16t-23.5 -45zM268 569l-119 131h140l91 -131h-112z" />
    <glyph glyph-name="aacute" unicode="&#xe1;" horiz-adv-x="531" 
d="M211 -11q-70 0 -117.5 40.5t-47.5 108.5q0 80 57 122t147 42q48 0 99 -17v33q0 37 -27.5 59t-68.5 22q-77 0 -116 -71l-77 72q28 50 81 76t113 26q95 0 152 -47t57 -138v-317h-112v38q-56 -49 -140 -49zM160 146q0 -25 19 -41t55 -16q71 0 115 42v56q-53 20 -102 20
q-40 0 -63.5 -16t-23.5 -45zM169 569l91 131h140l-119 -131h-112z" />
    <glyph glyph-name="acircumflex" unicode="&#xe2;" horiz-adv-x="531" 
d="M211 -11q-70 0 -117.5 40.5t-47.5 108.5q0 80 57 122t147 42q48 0 99 -17v33q0 37 -27.5 59t-68.5 22q-77 0 -116 -71l-77 72q28 50 81 76t113 26q95 0 152 -47t57 -138v-317h-112v38q-56 -49 -140 -49zM160 146q0 -25 19 -41t55 -16q71 0 115 42v56q-53 20 -102 20
q-40 0 -63.5 -16t-23.5 -45zM104 569l97 131h129l97 -131h-112l-50 60l-50 -60h-111z" />
    <glyph glyph-name="atilde" unicode="&#xe3;" horiz-adv-x="531" 
d="M211 -11q-70 0 -117.5 40.5t-47.5 108.5q0 80 57 122t147 42q48 0 99 -17v33q0 37 -27.5 59t-68.5 22q-77 0 -116 -71l-77 72q28 50 81 76t113 26q95 0 152 -47t57 -138v-317h-112v38q-56 -49 -140 -49zM160 146q0 -25 19 -41t55 -16q71 0 115 42v56q-53 20 -102 20
q-40 0 -63.5 -16t-23.5 -45zM338 700h80q0 -49 -25 -81.5t-63 -32.5q-21 0 -42 7l-40 15q-27 8 -33 8q-22 0 -24 -24h-80q0 49 25 81.5t63 32.5q21 0 42 -7l40 -15q27 -8 33 -8q22 0 24 24z" />
    <glyph glyph-name="adieresis" unicode="&#xe4;" horiz-adv-x="531" 
d="M211 -11q-70 0 -117.5 40.5t-47.5 108.5q0 80 57 122t147 42q48 0 99 -17v33q0 37 -27.5 59t-68.5 22q-77 0 -116 -71l-77 72q28 50 81 76t113 26q95 0 152 -47t57 -138v-317h-112v38q-56 -49 -140 -49zM160 146q0 -25 19 -41t55 -16q71 0 115 42v56q-53 20 -102 20
q-40 0 -63.5 -16t-23.5 -45zM107 649q0 26 18.5 44.5t43.5 18.5t44 -19t19 -44t-19 -44t-44 -19t-43.5 18.5t-18.5 44.5zM298 649q0 25 19 44t44 19t43.5 -18.5t18.5 -44.5t-18.5 -44.5t-43.5 -18.5t-44 19t-19 44z" />
    <glyph glyph-name="aring" unicode="&#xe5;" horiz-adv-x="531" 
d="M211 -11q-70 0 -117.5 40.5t-47.5 108.5q0 80 57 122t147 42q48 0 99 -17v33q0 37 -27.5 59t-68.5 22q-77 0 -116 -71l-77 72q28 50 81 76t113 26q95 0 152 -47t57 -138v-317h-112v38q-56 -49 -140 -49zM160 146q0 -25 19 -41t55 -16q71 0 115 42v56q-53 20 -102 20
q-40 0 -63.5 -16t-23.5 -45zM265 712q34 0 57.5 -22.5t23.5 -57.5q0 -33 -24 -56t-57 -23t-57 23t-24 56q0 35 23.5 57.5t57.5 22.5zM265 609q10 0 16.5 6.5t6.5 16.5t-6.5 16t-16.5 6t-16.5 -6t-6.5 -16t6.5 -16.5t16.5 -6.5z" />
    <glyph glyph-name="ae" unicode="&#xe6;" horiz-adv-x="847" 
d="M801 210h-335q4 -55 38.5 -86.5t89.5 -31.5q78 0 127 69l76 -72q-78 -100 -203 -100q-106 0 -174 66q-78 -66 -197 -66q-78 0 -127.5 40t-49.5 109q0 80 57 122t147 42h99v16q0 37 -27.5 59t-68.5 22q-77 0 -116 -71l-76 72q28 50 81 76t113 26q105 0 167 -69
q62 69 155 69q111 0 168 -74t57 -177zM160 148q0 -25 20 -42t60 -17q72 0 125 51q-10 26 -12 70h-105q-40 0 -64 -16t-24 -46zM578 398q-44 0 -71.5 -28.5t-35.5 -67.5h210q-1 38 -25.5 67t-77.5 29z" />
    <glyph glyph-name="ccedilla" unicode="&#xe7;" horiz-adv-x="527" 
d="M376 2l-60 -139h-115l66 128q-94 8 -158 79.5t-64 174.5q0 109 72 183t174 74q123 0 199 -98l-79 -76q-53 70 -117 70q-58 0 -95.5 -43t-37.5 -110t38 -110t96 -43q43 0 70.5 18.5t55.5 57.5l78 -73q-47 -68 -123 -93z" />
    <glyph glyph-name="egrave" unicode="&#xe8;" horiz-adv-x="543" 
d="M497 211h-335q4 -55 39 -87t90 -32q79 0 126 69l77 -72q-78 -100 -203 -100q-110 0 -178 70.5t-68 182.5q0 110 62.5 185t166.5 75q57 0 101.5 -21.5t70.5 -58t39 -80t13 -91.5zM275 398q-45 0 -72 -28t-35 -68h209q-1 38 -25.5 67t-76.5 29zM277 569l-119 131h140
l91 -131h-112z" />
    <glyph glyph-name="eacute" unicode="&#xe9;" horiz-adv-x="543" 
d="M497 211h-335q4 -55 39 -87t90 -32q79 0 126 69l77 -72q-78 -100 -203 -100q-110 0 -178 70.5t-68 182.5q0 110 62.5 185t166.5 75q57 0 101.5 -21.5t70.5 -58t39 -80t13 -91.5zM275 398q-45 0 -72 -28t-35 -68h209q-1 38 -25.5 67t-76.5 29zM207 569l91 131h140
l-119 -131h-112z" />
    <glyph glyph-name="ecircumflex" unicode="&#xea;" horiz-adv-x="543" 
d="M497 211h-335q4 -55 39 -87t90 -32q79 0 126 69l77 -72q-78 -100 -203 -100q-110 0 -178 70.5t-68 182.5q0 110 62.5 185t166.5 75q57 0 101.5 -21.5t70.5 -58t39 -80t13 -91.5zM275 398q-45 0 -72 -28t-35 -68h209q-1 38 -25.5 67t-76.5 29zM113 569l97 131h129l97 -131
h-112l-50 60l-50 -60h-111z" />
    <glyph glyph-name="edieresis" unicode="&#xeb;" horiz-adv-x="543" 
d="M497 211h-335q4 -55 39 -87t90 -32q79 0 126 69l77 -72q-78 -100 -203 -100q-110 0 -178 70.5t-68 182.5q0 110 62.5 185t166.5 75q57 0 101.5 -21.5t70.5 -58t39 -80t13 -91.5zM275 398q-45 0 -72 -28t-35 -68h209q-1 38 -25.5 67t-76.5 29zM116 649q0 26 18.5 44.5
t43.5 18.5q26 0 44.5 -19t18.5 -44t-18.5 -44t-44.5 -19q-25 0 -43.5 18.5t-18.5 44.5zM307 649q0 25 18.5 44t44.5 19q25 0 43.5 -18.5t18.5 -44.5t-18.5 -44.5t-43.5 -18.5q-26 0 -44.5 19t-18.5 44z" />
    <glyph glyph-name="igrave" unicode="&#xec;" horiz-adv-x="254" 
d="M184 0h-114v490h114v-490zM130 569l-119 131h140l91 -131h-112z" />
    <glyph glyph-name="iacute" unicode="&#xed;" horiz-adv-x="254" 
d="M184 0h-114v490h114v-490zM31 569l91 131h140l-119 -131h-112z" />
    <glyph glyph-name="icircumflex" unicode="&#xee;" horiz-adv-x="254" 
d="M184 0h-114v490h114v-490zM-34 569l97 131h129l97 -131h-112l-50 60l-50 -60h-111z" />
    <glyph glyph-name="idieresis" unicode="&#xef;" horiz-adv-x="254" 
d="M184 0h-114v490h114v-490zM-31 649q0 26 18.5 44.5t43.5 18.5t44 -19t19 -44t-19 -44t-44 -19t-43.5 18.5t-18.5 44.5zM160 649q0 25 19 44t44 19t43.5 -18.5t18.5 -44.5t-18.5 -44.5t-43.5 -18.5t-44 19t-19 44z" />
    <glyph glyph-name="eth" unicode="&#xf0;" horiz-adv-x="576" 
d="M288 -11q-102 0 -172.5 63t-70.5 170q0 104 68 168t164 64q21 0 32 -4l-61 85l-102 -56v91l56 31l-70 100h137l32 -46l103 57v-91l-58 -32l101 -144q84 -121 84 -211q0 -105 -68.5 -175t-174.5 -70zM411 221q0 55 -36 89.5t-87 34.5t-87 -34.5t-36 -89.5t36 -89.5
t87 -34.5t87 34.5t36 89.5z" />
    <glyph glyph-name="ntilde" unicode="&#xf1;" horiz-adv-x="571" 
d="M184 271v-271h-114v490h112v-40q46 52 127 52q91 0 142.5 -57t51.5 -160v-285h-114v285q0 52 -25.5 83t-71.5 31q-52 0 -80 -34.5t-28 -93.5zM358 700h80q0 -49 -25 -81.5t-63 -32.5q-21 0 -42 7l-40 15q-27 8 -33 8q-22 0 -24 -24h-80q0 49 25 81.5t63 32.5q21 0 42 -7
l40 -15q27 -8 33 -8q22 0 24 24z" />
    <glyph glyph-name="ograve" unicode="&#xf2;" horiz-adv-x="596" 
d="M45 245q0 110 73 183.5t180 73.5q106 0 179.5 -73.5t73.5 -183.5q0 -109 -73.5 -182.5t-179.5 -73.5q-107 0 -180 73t-73 183zM161 245q0 -67 38.5 -110t98.5 -43q59 0 97.5 43t38.5 110t-38.5 110t-97.5 43q-60 0 -98.5 -43t-38.5 -110zM278 569l-119 131h140l91 -131
h-112z" />
    <glyph glyph-name="oacute" unicode="&#xf3;" horiz-adv-x="596" 
d="M45 245q0 110 73 183.5t180 73.5q106 0 179.5 -73.5t73.5 -183.5q0 -109 -73.5 -182.5t-179.5 -73.5q-107 0 -180 73t-73 183zM161 245q0 -67 38.5 -110t98.5 -43q59 0 97.5 43t38.5 110t-38.5 110t-97.5 43q-60 0 -98.5 -43t-38.5 -110zM240 569l91 131h140l-119 -131
h-112z" />
    <glyph glyph-name="ocircumflex" unicode="&#xf4;" horiz-adv-x="596" 
d="M45 245q0 110 73 183.5t180 73.5q106 0 179.5 -73.5t73.5 -183.5q0 -109 -73.5 -182.5t-179.5 -73.5q-107 0 -180 73t-73 183zM161 245q0 -67 38.5 -110t98.5 -43q59 0 97.5 43t38.5 110t-38.5 110t-97.5 43q-60 0 -98.5 -43t-38.5 -110zM137 569l97 131h129l97 -131
h-112l-50 60l-50 -60h-111z" />
    <glyph glyph-name="otilde" unicode="&#xf5;" horiz-adv-x="596" 
d="M45 245q0 110 73 183.5t180 73.5q106 0 179.5 -73.5t73.5 -183.5q0 -109 -73.5 -182.5t-179.5 -73.5q-107 0 -180 73t-73 183zM161 245q0 -67 38.5 -110t98.5 -43q59 0 97.5 43t38.5 110t-38.5 110t-97.5 43q-60 0 -98.5 -43t-38.5 -110zM371 700h80q0 -49 -25 -81.5
t-63 -32.5q-21 0 -42 7l-40 15q-27 8 -33 8q-22 0 -24 -24h-80q0 49 25 81.5t63 32.5q21 0 42 -7l40 -15q27 -8 33 -8q22 0 24 24z" />
    <glyph glyph-name="odieresis" unicode="&#xf6;" horiz-adv-x="596" 
d="M45 245q0 110 73 183.5t180 73.5q106 0 179.5 -73.5t73.5 -183.5q0 -109 -73.5 -182.5t-179.5 -73.5q-107 0 -180 73t-73 183zM161 245q0 -67 38.5 -110t98.5 -43q59 0 97.5 43t38.5 110t-38.5 110t-97.5 43q-60 0 -98.5 -43t-38.5 -110zM140 649q0 26 18.5 44.5
t43.5 18.5q26 0 44.5 -19t18.5 -44t-18.5 -44t-44.5 -19q-25 0 -43.5 18.5t-18.5 44.5zM331 649q0 25 18.5 44t44.5 19q25 0 43.5 -18.5t18.5 -44.5t-18.5 -44.5t-43.5 -18.5q-26 0 -44.5 19t-18.5 44z" />
    <glyph glyph-name="divide" unicode="&#xf7;" horiz-adv-x="650" 
d="M570 193h-490v105h490v-105zM253 61q0 30 21 51t51 21t51 -21t21 -51q0 -29 -21 -50t-51 -21t-51 21t-21 50zM253 430q0 30 21 51t51 21t51 -21t21 -51q0 -29 -21 -50t-51 -21t-51 21t-21 50z" />
    <glyph glyph-name="oslash" unicode="&#xf8;" horiz-adv-x="596" 
d="M45 245q0 110 73 183.5t180 73.5q54 0 103 -22l29 41l78 -56l-28 -40q71 -73 71 -180q0 -109 -73.5 -182.5t-179.5 -73.5q-54 0 -108 23l-30 -43l-77 56l30 42q-68 71 -68 178zM434 245q0 49 -21 85l-161 -230q22 -8 46 -8q59 0 97.5 43t38.5 110zM161 245q0 -46 19 -82
l159 228q-23 7 -41 7q-60 0 -98.5 -43t-38.5 -110z" />
    <glyph glyph-name="ugrave" unicode="&#xf9;" horiz-adv-x="560" 
d="M68 490h114v-293q0 -49 24 -77.5t68 -28.5q48 0 75 34t27 89v276h114v-490h-112v40q-46 -51 -127 -51q-83 0 -133 57t-50 159v285zM283 569l-119 131h140l91 -131h-112z" />
    <glyph glyph-name="uacute" unicode="&#xfa;" horiz-adv-x="560" 
d="M68 490h114v-293q0 -49 24 -77.5t68 -28.5q48 0 75 34t27 89v276h114v-490h-112v40q-46 -51 -127 -51q-83 0 -133 57t-50 159v285zM184 569l91 131h140l-119 -131h-112z" />
    <glyph glyph-name="ucircumflex" unicode="&#xfb;" horiz-adv-x="560" 
d="M68 490h114v-293q0 -49 24 -77.5t68 -28.5q48 0 75 34t27 89v276h114v-490h-112v40q-46 -51 -127 -51q-83 0 -133 57t-50 159v285zM119 569l97 131h129l97 -131h-112l-50 60l-50 -60h-111z" />
    <glyph glyph-name="udieresis" unicode="&#xfc;" horiz-adv-x="560" 
d="M68 490h114v-293q0 -49 24 -77.5t68 -28.5q48 0 75 34t27 89v276h114v-490h-112v40q-46 -51 -127 -51q-83 0 -133 57t-50 159v285zM122 649q0 26 18.5 44.5t43.5 18.5q26 0 44.5 -19t18.5 -44t-18.5 -44t-44.5 -19q-25 0 -43.5 18.5t-18.5 44.5zM313 649q0 25 18.5 44
t44.5 19q25 0 43.5 -18.5t18.5 -44.5t-18.5 -44.5t-43.5 -18.5q-26 0 -44.5 19t-18.5 44z" />
    <glyph glyph-name="yacute" unicode="&#xfd;" horiz-adv-x="526" 
d="M244 -194h-120l77 200l-186 484h130l120 -339l121 339h125zM169 569l91 131h140l-119 -131h-112z" />
    <glyph glyph-name="thorn" unicode="&#xfe;" horiz-adv-x="605" 
d="M560 245q0 -111 -67 -183.5t-172 -72.5q-80 0 -137 47v-230h-114v895h112v-255q52 56 139 56q105 0 172 -73t67 -184zM444 245q0 66 -33.5 109.5t-96.5 43.5t-97.5 -44t-34.5 -109q0 -66 34.5 -112t97.5 -46t96.5 46t33.5 112z" />
    <glyph glyph-name="ydieresis" unicode="&#xff;" horiz-adv-x="526" 
d="M244 -194h-120l77 200l-186 484h130l120 -339l121 339h125zM298 649q0 25 19 44t44 19t43.5 -18.5t18.5 -44.5t-18.5 -44.5t-43.5 -18.5t-44 19t-19 44zM107 649q0 26 18.5 44.5t43.5 18.5t44 -19t19 -44t-19 -44t-44 -19t-43.5 18.5t-18.5 44.5z" />
    <glyph glyph-name="Amacron" unicode="&#x100;" horiz-adv-x="703" 
d="M292 700h120l273 -700h-125l-59 149h-299l-58 -149h-126zM458 259l-107 279l-106 -279h213zM231 772v95h239v-95h-239z" />
    <glyph glyph-name="amacron" unicode="&#x101;" horiz-adv-x="531" 
d="M211 -11q-70 0 -117.5 40.5t-47.5 108.5q0 80 57 122t147 42q48 0 99 -17v33q0 37 -27.5 59t-68.5 22q-77 0 -116 -71l-77 72q28 50 81 76t113 26q95 0 152 -47t57 -138v-317h-112v38q-56 -49 -140 -49zM160 146q0 -25 19 -41t55 -16q71 0 115 42v56q-53 20 -102 20
q-40 0 -63.5 -16t-23.5 -45zM145 605v95h239v-95h-239z" />
    <glyph glyph-name="Abreve" unicode="&#x102;" horiz-adv-x="703" 
d="M292 700h120l273 -700h-125l-59 149h-299l-58 -149h-126zM458 259l-107 279l-106 -279h213zM350 746q-60 0 -96 34.5t-41 91.5h90q5 -38 47 -38t47 38h91q-5 -57 -41.5 -91.5t-96.5 -34.5z" />
    <glyph glyph-name="abreve" unicode="&#x103;" horiz-adv-x="531" 
d="M211 -11q-70 0 -117.5 40.5t-47.5 108.5q0 80 57 122t147 42q48 0 99 -17v33q0 37 -27.5 59t-68.5 22q-77 0 -116 -71l-77 72q28 50 81 76t113 26q95 0 152 -47t57 -138v-317h-112v38q-56 -49 -140 -49zM160 146q0 -25 19 -41t55 -16q71 0 115 42v56q-53 20 -102 20
q-40 0 -63.5 -16t-23.5 -45zM264 558q-61 0 -100.5 40t-43.5 102h89q5 -51 55 -51t56 51h89q-5 -63 -44 -102.5t-101 -39.5z" />
    <glyph glyph-name="Aogonek" unicode="&#x104;" horiz-adv-x="703" 
d="M685 0h1q-59 -35 -59 -76q0 -38 55 -38h4v-75q-22 -4 -43 -4q-49 0 -78 24.5t-29 66.5q0 59 60 102h-36l-59 149h-299l-58 -149h-126l274 700h120zM458 259l-107 279l-106 -279h213z" />
    <glyph glyph-name="aogonek" unicode="&#x105;" horiz-adv-x="531" 
d="M463 0h-1q-59 -35 -59 -76q0 -38 55 -38h4v-75q-22 -4 -43 -4q-49 0 -78 24.5t-29 66.5q0 59 60 102h-21v38q-56 -49 -140 -49q-70 0 -117.5 40.5t-47.5 108.5q0 80 57 122t147 42q48 0 99 -17v33q0 37 -27.5 59t-68.5 22q-77 0 -116 -71l-77 72q28 50 81 76t113 26
q95 0 152 -47t57 -138v-317zM160 146q0 -25 19 -41t55 -16q71 0 115 42v56q-53 20 -102 20q-40 0 -63.5 -16t-23.5 -45z" />
    <glyph glyph-name="Cacute" unicode="&#x106;" horiz-adv-x="725" 
d="M616 203l75 -82q-105 -132 -279 -132q-159 0 -262.5 100.5t-103.5 259.5q0 162 102.5 262.5t259.5 100.5q176 0 273 -132l-77 -80q-72 103 -194 103q-104 0 -173 -72t-69 -182q0 -108 70 -179.5t176 -71.5q123 0 202 105zM324 769l86 103h146l-109 -103h-123z" />
    <glyph glyph-name="cacute" unicode="&#x107;" horiz-adv-x="527" 
d="M294 398q-58 0 -95.5 -43t-37.5 -110t38 -110t96 -43q43 0 70.5 18.5t55.5 57.5l78 -73q-73 -106 -208 -106q-102 0 -174 73.5t-72 182.5t72 183t174 74q123 0 199 -98l-79 -76q-53 70 -117 70zM194 569l91 131h140l-119 -131h-112z" />
    <glyph glyph-name="Ccircumflex" unicode="&#x108;" horiz-adv-x="725" 
d="M616 203l75 -82q-105 -132 -279 -132q-159 0 -262.5 100.5t-103.5 259.5q0 162 102.5 262.5t259.5 100.5q176 0 273 -132l-77 -80q-72 103 -194 103q-104 0 -173 -72t-69 -182q0 -108 70 -179.5t176 -71.5q123 0 202 105zM241 769l91 103h136l91 -103h-113l-46 44
l-46 -44h-113z" />
    <glyph glyph-name="ccircumflex" unicode="&#x109;" horiz-adv-x="527" 
d="M294 398q-58 0 -95.5 -43t-37.5 -110t38 -110t96 -43q43 0 70.5 18.5t55.5 57.5l78 -73q-73 -106 -208 -106q-102 0 -174 73.5t-72 182.5t72 183t174 74q123 0 199 -98l-79 -76q-53 70 -117 70zM129 569l97 131h129l97 -131h-112l-50 60l-50 -60h-111z" />
    <glyph glyph-name="Cdotaccent" unicode="&#x10a;" horiz-adv-x="725" 
d="M616 203l75 -82q-105 -132 -279 -132q-159 0 -262.5 100.5t-103.5 259.5q0 162 102.5 262.5t259.5 100.5q176 0 273 -132l-77 -80q-72 103 -194 103q-104 0 -173 -72t-69 -182q0 -108 70 -179.5t176 -71.5q123 0 202 105zM328 821q0 30 21 51t51 21t51 -21t21 -51
t-21 -51t-51 -21t-51 21t-21 51z" />
    <glyph glyph-name="cdotaccent" unicode="&#x10b;" horiz-adv-x="527" 
d="M294 398q-58 0 -95.5 -43t-37.5 -110t38 -110t96 -43q43 0 70.5 18.5t55.5 57.5l78 -73q-73 -106 -208 -106q-102 0 -174 73.5t-72 182.5t72 183t174 74q123 0 199 -98l-79 -76q-53 70 -117 70zM218 640q0 30 21 51t51 21t51 -21t21 -51t-21 -51t-51 -21t-51 21t-21 51z
" />
    <glyph glyph-name="Ccaron" unicode="&#x10c;" horiz-adv-x="725" 
d="M616 203l75 -82q-105 -132 -279 -132q-159 0 -262.5 100.5t-103.5 259.5q0 162 102.5 262.5t259.5 100.5q176 0 273 -132l-77 -80q-72 103 -194 103q-104 0 -173 -72t-69 -182q0 -108 70 -179.5t176 -71.5q123 0 202 105zM559 872l-91 -103h-136l-91 103h113l46 -44
l46 44h113z" />
    <glyph glyph-name="ccaron" unicode="&#x10d;" horiz-adv-x="527" 
d="M294 398q-58 0 -95.5 -43t-37.5 -110t38 -110t96 -43q43 0 70.5 18.5t55.5 57.5l78 -73q-73 -106 -208 -106q-102 0 -174 73.5t-72 182.5t72 183t174 74q123 0 199 -98l-79 -76q-53 70 -117 70zM458 700l-97 -131h-140l-97 131h110l56 -65l56 65h112z" />
    <glyph glyph-name="Dcaron" unicode="&#x10e;" horiz-adv-x="724" 
d="M299 0h-219v700h219q75 0 139.5 -17.5t120 -55t87.5 -107.5t32 -165q0 -96 -32 -167t-87.5 -111t-120 -58.5t-139.5 -18.5zM276 592h-77v-484h78q60 0 107 11t87.5 37.5t62.5 76.5t22 122q0 69 -22 117t-62.5 73.5t-87.5 36t-108 10.5zM519 872l-91 -103h-136l-91 103
h113l46 -44l46 44h113z" />
    <glyph glyph-name="dcaron" unicode="&#x10f;" horiz-adv-x="605" 
d="M45 245q0 111 67 184t172 73q81 0 137 -48v246h114v-700h-112v44q-53 -55 -139 -55q-105 0 -172 72.5t-67 183.5zM423 245q0 66 -34 111t-97 45q-62 0 -96.5 -45t-34.5 -111t34.5 -111t96.5 -45q63 0 97 45t34 111zM739 700l-59 -189h-85l27 189h117z" />
    <glyph glyph-name="Dcroat" unicode="&#x110;" horiz-adv-x="724" 
d="M299 0h-219v303h-80v109h80v288h219q75 0 139.5 -17.5t120 -55t87.5 -107.5t32 -165q0 -96 -32 -167t-87.5 -111t-120 -58.5t-139.5 -18.5zM276 592h-77v-180h120v-109h-120v-195h78q60 0 107 11t87.5 37.5t62.5 76.5t22 122q0 69 -22 117t-62.5 73.5t-87.5 36t-108 10.5
z" />
    <glyph glyph-name="dcroat" unicode="&#x111;" horiz-adv-x="610" 
d="M45 245q0 111 67 184t172 73q81 0 137 -48v91h-160v89h160v66h114v-66h70v-89h-70v-545h-112v44q-53 -55 -139 -55q-105 0 -172 72.5t-67 183.5zM423 245q0 66 -34 111t-97 45q-62 0 -96.5 -45t-34.5 -111t34.5 -111t96.5 -45q63 0 97 45t34 111z" />
    <glyph glyph-name="Emacron" unicode="&#x112;" horiz-adv-x="643" 
d="M573 0h-493v700h493v-108h-374v-180h357v-109h-357v-195h374v-108zM216 772v95h239v-95h-239z" />
    <glyph glyph-name="emacron" unicode="&#x113;" horiz-adv-x="543" 
d="M497 211h-335q4 -55 39 -87t90 -32q79 0 126 69l77 -72q-78 -100 -203 -100q-110 0 -178 70.5t-68 182.5q0 110 62.5 185t166.5 75q57 0 101.5 -21.5t70.5 -58t39 -80t13 -91.5zM275 398q-45 0 -72 -28t-35 -68h209q-1 38 -25.5 67t-76.5 29zM154 605v95h239v-95h-239z
" />
    <glyph glyph-name="Ebreve" unicode="&#x114;" horiz-adv-x="643" 
d="M573 0h-493v700h493v-108h-374v-180h357v-109h-357v-195h374v-108zM335 746q-60 0 -96 34.5t-41 91.5h90q5 -38 47 -38t47 38h91q-5 -57 -41.5 -91.5t-96.5 -34.5z" />
    <glyph glyph-name="ebreve" unicode="&#x115;" horiz-adv-x="543" 
d="M497 211h-335q4 -55 39 -87t90 -32q79 0 126 69l77 -72q-78 -100 -203 -100q-110 0 -178 70.5t-68 182.5q0 110 62.5 185t166.5 75q57 0 101.5 -21.5t70.5 -58t39 -80t13 -91.5zM275 398q-45 0 -72 -28t-35 -68h209q-1 38 -25.5 67t-76.5 29zM273 558q-61 0 -100.5 40
t-43.5 102h89q5 -51 55 -51t56 51h89q-5 -63 -44 -102.5t-101 -39.5z" />
    <glyph glyph-name="Edotaccent" unicode="&#x116;" horiz-adv-x="643" 
d="M573 0h-493v700h493v-108h-374v-180h357v-109h-357v-195h374v-108zM264 821q0 30 21 51t51 21t51 -21t21 -51t-21 -51t-51 -21t-51 21t-21 51z" />
    <glyph glyph-name="edotaccent" unicode="&#x117;" horiz-adv-x="543" 
d="M497 211h-335q4 -55 39 -87t90 -32q79 0 126 69l77 -72q-78 -100 -203 -100q-110 0 -178 70.5t-68 182.5q0 110 62.5 185t166.5 75q57 0 101.5 -21.5t70.5 -58t39 -80t13 -91.5zM275 398q-45 0 -72 -28t-35 -68h209q-1 38 -25.5 67t-76.5 29zM202 640q0 30 21 51t51 21
t51 -21t21 -51t-21 -51t-51 -21t-51 21t-21 51z" />
    <glyph glyph-name="Eogonek" unicode="&#x118;" horiz-adv-x="643" 
d="M573 0h-1q-59 -35 -59 -76q0 -38 55 -38h4v-75q-22 -4 -43 -4q-49 0 -78 24.5t-29 66.5q0 59 60 102h-402v700h493v-108h-374v-180h357v-109h-357v-195h374v-108z" />
    <glyph glyph-name="eogonek" unicode="&#x119;" horiz-adv-x="543" 
d="M497 211h-335q4 -55 39 -87t90 -32q79 0 126 69l77 -72q-52 -68 -126 -89q-58 -35 -58 -76q0 -38 55 -38h4v-75q-22 -4 -43 -4q-49 0 -78 24.5t-29 66.5q0 51 48 92q-100 8 -161 77t-61 175q0 110 62.5 185t166.5 75q57 0 101.5 -21.5t70.5 -58t39 -80t13 -91.5zM275 398
q-45 0 -72 -28t-35 -68h209q-1 38 -25.5 67t-76.5 29z" />
    <glyph glyph-name="Ecaron" unicode="&#x11a;" horiz-adv-x="643" 
d="M573 0h-493v700h493v-108h-374v-180h357v-109h-357v-195h374v-108zM495 872l-91 -103h-136l-91 103h113l46 -44l46 44h113z" />
    <glyph glyph-name="ecaron" unicode="&#x11b;" horiz-adv-x="543" 
d="M497 211h-335q4 -55 39 -87t90 -32q79 0 126 69l77 -72q-78 -100 -203 -100q-110 0 -178 70.5t-68 182.5q0 110 62.5 185t166.5 75q57 0 101.5 -21.5t70.5 -58t39 -80t13 -91.5zM275 398q-45 0 -72 -28t-35 -68h209q-1 38 -25.5 67t-76.5 29zM442 700l-97 -131h-140
l-97 131h110l56 -65l56 65h112z" />
    <glyph glyph-name="Gcircumflex" unicode="&#x11c;" horiz-adv-x="754" 
d="M573 259h-161v108h279v-246q-49 -60 -125.5 -96t-165.5 -36q-148 0 -251 101.5t-103 258.5q0 161 102.5 262t258.5 101q175 0 274 -132l-78 -80q-72 103 -194 103q-104 0 -172.5 -72t-68.5 -182q0 -108 69.5 -179.5t176.5 -71.5q93 0 159 58v103zM238 769l91 103h136
l91 -103h-113l-46 44l-46 -44h-113z" />
    <glyph glyph-name="gcircumflex" unicode="&#x11d;" horiz-adv-x="594" 
d="M62 -96l82 78q47 -85 136 -85q59 0 94.5 35t35.5 102v25q-52 -48 -131 -48q-103 0 -168.5 69.5t-65.5 175.5q0 107 66 176.5t168 69.5q81 0 133 -52v40h112v-450q0 -111 -66 -178t-176 -67q-83 0 -137 34.5t-83 74.5zM161 256q0 -62 34 -101.5t91 -39.5t91.5 39.5
t34.5 101.5q0 63 -34.5 102.5t-91.5 39.5t-91 -39.5t-34 -102.5zM128 569l97 131h129l97 -131h-112l-50 60l-50 -60h-111z" />
    <glyph glyph-name="Gbreve" unicode="&#x11e;" horiz-adv-x="754" 
d="M573 259h-161v108h279v-246q-49 -60 -125.5 -96t-165.5 -36q-148 0 -251 101.5t-103 258.5q0 161 102.5 262t258.5 101q175 0 274 -132l-78 -80q-72 103 -194 103q-104 0 -172.5 -72t-68.5 -182q0 -108 69.5 -179.5t176.5 -71.5q93 0 159 58v103zM396 746q-60 0 -96 34.5
t-41 91.5h90q5 -38 47 -38t47 38h91q-5 -57 -41.5 -91.5t-96.5 -34.5z" />
    <glyph glyph-name="gbreve" unicode="&#x11f;" horiz-adv-x="594" 
d="M62 -96l82 78q47 -85 136 -85q59 0 94.5 35t35.5 102v25q-52 -48 -131 -48q-103 0 -168.5 69.5t-65.5 175.5q0 107 66 176.5t168 69.5q81 0 133 -52v40h112v-450q0 -111 -66 -178t-176 -67q-83 0 -137 34.5t-83 74.5zM161 256q0 -62 34 -101.5t91 -39.5t91.5 39.5
t34.5 101.5q0 63 -34.5 102.5t-91.5 39.5t-91 -39.5t-34 -102.5zM288 558q-61 0 -100.5 40t-43.5 102h89q5 -51 55 -51t56 51h89q-5 -63 -44 -102.5t-101 -39.5z" />
    <glyph glyph-name="Gdotaccent" unicode="&#x120;" horiz-adv-x="754" 
d="M573 259h-161v108h279v-246q-49 -60 -125.5 -96t-165.5 -36q-148 0 -251 101.5t-103 258.5q0 161 102.5 262t258.5 101q175 0 274 -132l-78 -80q-72 103 -194 103q-104 0 -172.5 -72t-68.5 -182q0 -108 69.5 -179.5t176.5 -71.5q93 0 159 58v103zM325 821q0 30 21 51
t51 21t51 -21t21 -51t-21 -51t-51 -21t-51 21t-21 51z" />
    <glyph glyph-name="gdotaccent" unicode="&#x121;" horiz-adv-x="594" 
d="M62 -96l82 78q47 -85 136 -85q59 0 94.5 35t35.5 102v25q-52 -48 -131 -48q-103 0 -168.5 69.5t-65.5 175.5q0 107 66 176.5t168 69.5q81 0 133 -52v40h112v-450q0 -111 -66 -178t-176 -67q-83 0 -137 34.5t-83 74.5zM161 256q0 -62 34 -101.5t91 -39.5t91.5 39.5
t34.5 101.5q0 63 -34.5 102.5t-91.5 39.5t-91 -39.5t-34 -102.5zM217 640q0 30 21 51t51 21t51 -21t21 -51t-21 -51t-51 -21t-51 21t-21 51z" />
    <glyph glyph-name="Gcommaaccent" unicode="&#x122;" horiz-adv-x="754" 
d="M573 259h-161v108h279v-246q-49 -60 -125.5 -96t-165.5 -36q-148 0 -251 101.5t-103 258.5q0 161 102.5 262t258.5 101q175 0 274 -132l-78 -80q-72 103 -194 103q-104 0 -172.5 -72t-68.5 -182q0 -108 69.5 -179.5t176.5 -71.5q93 0 159 58v103zM317 -194l48 137h117
l-72 -137h-93z" />
    <glyph glyph-name="gcommaaccent" unicode="&#x123;" horiz-adv-x="594" 
d="M62 -96l82 78q47 -85 136 -85q59 0 94.5 35t35.5 102v25q-52 -48 -131 -48q-103 0 -168.5 69.5t-65.5 175.5q0 107 66 176.5t168 69.5q81 0 133 -52v40h112v-450q0 -111 -66 -178t-176 -67q-83 0 -137 34.5t-83 74.5zM161 256q0 -62 34 -101.5t91 -39.5t91.5 39.5
t34.5 101.5q0 63 -34.5 102.5t-91.5 39.5t-91 -39.5t-34 -102.5zM412 700l-48 -137h-117l72 137h93z" />
    <glyph glyph-name="Hcircumflex" unicode="&#x124;" horiz-adv-x="728" 
d="M648 0h-120v303h-329v-303h-119v700h119v-288h329v288h120v-700zM205 769l91 103h136l91 -103h-113l-46 44l-46 -44h-113z" />
    <glyph glyph-name="hcircumflex" unicode="&#x125;" horiz-adv-x="571" 
d="M184 271v-271h-114v700h114v-244q50 46 122 46q88 0 142.5 -57.5t54.5 -159.5v-285h-114v285q0 52 -25.5 83t-71.5 31q-52 0 -80 -34.5t-28 -93.5zM-31 769l91 103h136l91 -103h-113l-46 44l-46 -44h-113z" />
    <glyph glyph-name="Hbar" unicode="&#x126;" horiz-adv-x="728" 
d="M648 0h-120v303h-329v-303h-119v496h-72v101h72v103h119v-103h329v103h120v-103h72v-101h-72v-496zM199 412h329v84h-329v-84z" />
    <glyph glyph-name="hbar" unicode="&#x127;" horiz-adv-x="571" 
d="M184 271v-271h-114v545h-62v89h62v66h114v-66h168v-89h-168v-89q50 46 122 46q88 0 142.5 -57.5t54.5 -159.5v-285h-114v285q0 52 -25.5 83t-71.5 31q-52 0 -80 -34.5t-28 -93.5z" />
    <glyph glyph-name="Itilde" unicode="&#x128;" horiz-adv-x="279" 
d="M199 0h-119v700h119v-700zM214 874h80q0 -49 -25 -81.5t-63 -32.5q-21 0 -42 7l-40 15q-27 8 -33 8q-22 0 -24 -24h-80q0 49 25 81.5t63 32.5q21 0 42 -7l40 -15q27 -8 33 -8q22 0 24 24z" />
    <glyph glyph-name="itilde" unicode="&#x129;" horiz-adv-x="254" 
d="M184 0h-114v490h114v-490zM200 700h80q0 -49 -25 -81.5t-63 -32.5q-21 0 -42 7l-40 15q-27 8 -33 8q-22 0 -24 -24h-80q0 49 25 81.5t63 32.5q21 0 42 -7l40 -15q27 -8 33 -8q22 0 24 24z" />
    <glyph glyph-name="Imacron" unicode="&#x12a;" horiz-adv-x="279" 
d="M199 0h-119v700h119v-700zM21 772v95h239v-95h-239z" />
    <glyph glyph-name="imacron" unicode="&#x12b;" horiz-adv-x="254" 
d="M184 0h-114v490h114v-490zM7 605v95h239v-95h-239z" />
    <glyph glyph-name="Ibreve" unicode="&#x12c;" horiz-adv-x="279" 
d="M199 0h-119v700h119v-700zM140 746q-60 0 -96 34.5t-41 91.5h90q5 -38 47 -38t47 38h91q-5 -57 -41.5 -91.5t-96.5 -34.5z" />
    <glyph glyph-name="ibreve" unicode="&#x12d;" horiz-adv-x="254" 
d="M184 0h-114v490h114v-490zM126 558q-61 0 -100.5 40t-43.5 102h89q5 -51 55 -51t56 51h89q-5 -63 -44 -102.5t-101 -39.5z" />
    <glyph glyph-name="Iogonek" unicode="&#x12e;" horiz-adv-x="279" 
d="M199 700v-700q-59 -35 -59 -76q0 -38 55 -38h4v-75q-22 -4 -43 -4q-49 0 -78 24.5t-29 66.5q0 59 60 102h-29v700h119z" />
    <glyph glyph-name="iogonek" unicode="&#x12f;" horiz-adv-x="254" 
d="M184 490v-490q-59 -35 -59 -76q0 -38 55 -38h4v-75q-22 -4 -43 -4q-49 0 -78 24.5t-29 66.5q0 59 60 102h-24v490h114zM55 641q0 30 21 50.5t51 20.5t51 -20.5t21 -50.5t-21 -51t-51 -21t-51 21t-21 51z" />
    <glyph glyph-name="Idotaccent" unicode="&#x130;" horiz-adv-x="279" 
d="M199 0h-119v700h119v-700zM69 821q0 30 21 51t51 21t51 -21t21 -51t-21 -51t-51 -21t-51 21t-21 51z" />
    <glyph glyph-name="dotlessi" unicode="&#x131;" horiz-adv-x="254" 
d="M184 0h-114v490h114v-490z" />
    <glyph glyph-name="IJ" unicode="&#x132;" horiz-adv-x="805" 
d="M199 0h-119v700h119v-700zM309 93l85 85q44 -81 117 -81q48 0 76 33t28 99v471h120v-459q0 -120 -59 -186t-170 -66q-125 0 -197 104z" />
    <glyph glyph-name="ij" unicode="&#x133;" horiz-adv-x="508" 
d="M184 0h-114v490h114v-490zM55 641q0 30 21 50.5t51 20.5t51 -20.5t21 -50.5t-21 -51t-51 -21t-51 21t-21 51zM324 -8v498h114v-521q0 -92 -45 -133t-142 -41l-44 1v108q15 -1 26 -1q53 0 72 18t19 71zM311 641q0 30 21 50.5t51 20.5q29 0 50 -20.5t21 -50.5t-21 -51
t-50 -21q-30 0 -51 21t-21 51z" />
    <glyph glyph-name="Jcircumflex" unicode="&#x134;" horiz-adv-x="526" 
d="M30 93l85 85q44 -81 117 -81q48 0 76 33t28 99v471h120v-459q0 -120 -59 -186t-170 -66q-125 0 -197 104zM237 769l91 103h136l91 -103h-113l-46 44l-46 -44h-113z" />
    <glyph glyph-name="jcircumflex" unicode="&#x135;" horiz-adv-x="254" 
d="M70 -8v498h114v-521q0 -92 -45 -133t-142 -41l-44 1v108q15 -1 26 -1q53 0 72 18t19 71zM-32 569l97 131h129l97 -131h-112l-50 60l-50 -60h-111z" />
    <glyph glyph-name="Kcommaaccent" unicode="&#x136;" horiz-adv-x="662" 
d="M199 0h-119v700h119v-325l261 325h148l-236 -295l260 -405h-143l-199 304l-91 -111v-193zM238 -194l48 137h117l-72 -137h-93z" />
    <glyph glyph-name="kcommaaccent" unicode="&#x137;" horiz-adv-x="521" 
d="M354 490h142l-191 -210l204 -280h-136l-144 196l-45 -49v-147h-114v700h114v-400zM177 -194l48 137h117l-72 -137h-93z" />
    <glyph glyph-name="kgreenlandic" unicode="&#x138;" horiz-adv-x="521" 
d="M354 490h142l-191 -210l204 -280h-136l-144 196l-45 -49v-147h-114v490h114v-190z" />
    <glyph glyph-name="Lacute" unicode="&#x139;" horiz-adv-x="571" 
d="M531 0h-451v700h119v-592h332v-108zM62 769l86 103h146l-109 -103h-123z" />
    <glyph glyph-name="lacute" unicode="&#x13a;" horiz-adv-x="254" 
d="M184 0h-114v700h114v-700zM66 769l86 103h146l-109 -103h-123z" />
    <glyph glyph-name="Lcommaaccent" unicode="&#x13b;" horiz-adv-x="571" 
d="M531 0h-451v700h119v-592h332v-108zM212 -194l48 137h117l-72 -137h-93z" />
    <glyph glyph-name="lcommaaccent" unicode="&#x13c;" horiz-adv-x="254" 
d="M184 0h-114v700h114v-700zM24 -194l48 137h117l-72 -137h-93z" />
    <glyph glyph-name="Lcaron" unicode="&#x13d;" horiz-adv-x="571" 
d="M531 0h-451v700h119v-592h332v-108zM427 700l-59 -189h-85l27 189h117z" />
    <glyph glyph-name="lcaron" unicode="&#x13e;" horiz-adv-x="254" 
d="M184 0h-114v700h114v-700zM384 700l-59 -189h-85l27 189h117z" />
    <glyph glyph-name="Ldot" unicode="&#x13f;" horiz-adv-x="571" 
d="M531 0h-451v700h119v-592h332v-108zM344 347q0 30 21 51t51 21t51 -21t21 -51t-21 -51t-51 -21t-51 21t-21 51z" />
    <glyph glyph-name="ldot" unicode="&#x140;" horiz-adv-x="336" 
d="M184 0h-114v700h114v-700zM225 347q0 30 21 51t51 21t51 -21t21 -51t-21 -51t-51 -21t-51 21t-21 51z" />
    <glyph glyph-name="Lslash" unicode="&#x141;" horiz-adv-x="571" 
d="M531 0h-451v268l-92 -41v109l92 41v323h119v-270l167 74v-109l-167 -74v-213h332v-108z" />
    <glyph glyph-name="lslash" unicode="&#x142;" horiz-adv-x="254" 
d="M184 0h-114v283l-75 -38v107l75 38v310h114v-252l75 38v-107l-75 -38v-341z" />
    <glyph glyph-name="Nacute" unicode="&#x143;" horiz-adv-x="747" 
d="M667 0h-120l-348 493v-493h-119v700h119l348 -495v495h120v-700zM307 769l86 103h146l-109 -103h-123z" />
    <glyph glyph-name="nacute" unicode="&#x144;" horiz-adv-x="571" 
d="M184 271v-271h-114v490h112v-40q46 52 127 52q91 0 142.5 -57t51.5 -160v-285h-114v285q0 52 -25.5 83t-71.5 31q-52 0 -80 -34.5t-28 -93.5zM189 569l91 131h140l-119 -131h-112z" />
    <glyph glyph-name="Ncommaaccent" unicode="&#x145;" horiz-adv-x="747" 
d="M667 0h-120l-348 493v-493h-119v700h119l348 -495v495h120v-700zM270 -194l48 137h117l-72 -137h-93z" />
    <glyph glyph-name="ncommaaccent" unicode="&#x146;" horiz-adv-x="571" 
d="M184 271v-271h-114v490h112v-40q46 52 127 52q91 0 142.5 -57t51.5 -160v-285h-114v285q0 52 -25.5 83t-71.5 31q-52 0 -80 -34.5t-28 -93.5zM182 -194l48 137h117l-72 -137h-93z" />
    <glyph glyph-name="Ncaron" unicode="&#x147;" horiz-adv-x="747" 
d="M667 0h-120l-348 493v-493h-119v700h119l348 -495v495h120v-700zM542 872l-91 -103h-136l-91 103h113l46 -44l46 44h113z" />
    <glyph glyph-name="ncaron" unicode="&#x148;" horiz-adv-x="571" 
d="M184 271v-271h-114v490h112v-40q46 52 127 52q91 0 142.5 -57t51.5 -160v-285h-114v285q0 52 -25.5 83t-71.5 31q-52 0 -80 -34.5t-28 -93.5zM453 700l-97 -131h-140l-97 131h110l56 -65l56 65h112z" />
    <glyph glyph-name="Eng" unicode="&#x14a;" horiz-adv-x="747" 
d="M547 0l-348 493v-493h-119v700h119l348 -495v495h120v-722q0 -97 -47.5 -140t-149.5 -43l-46 1v114q16 -1 27 -1q56 0 75.5 18t20.5 73z" />
    <glyph glyph-name="eng" unicode="&#x14b;" horiz-adv-x="571" 
d="M184 271v-271h-114v490h112v-40q46 52 127 52q91 0 142.5 -57t51.5 -160v-316q0 -92 -45 -133t-142 -41l-44 1v108q15 -1 26 -1q53 0 72 18t19 71v293q0 52 -25.5 83t-71.5 31q-52 0 -80 -34.5t-28 -93.5z" />
    <glyph glyph-name="Omacron" unicode="&#x14c;" horiz-adv-x="803" 
d="M46 351q0 153 101.5 257t252.5 104t254 -104t103 -257q0 -154 -103 -258t-254 -104t-252.5 104t-101.5 258zM168 351q0 -109 66.5 -181t169.5 -72q101 0 167 72.5t66 180.5q0 107 -66 179t-167 72q-103 0 -169.5 -72t-66.5 -179zM280 772v95h239v-95h-239z" />
    <glyph glyph-name="omacron" unicode="&#x14d;" horiz-adv-x="596" 
d="M45 245q0 110 73 183.5t180 73.5q106 0 179.5 -73.5t73.5 -183.5q0 -109 -73.5 -182.5t-179.5 -73.5q-107 0 -180 73t-73 183zM161 245q0 -67 38.5 -110t98.5 -43q59 0 97.5 43t38.5 110t-38.5 110t-97.5 43q-60 0 -98.5 -43t-38.5 -110zM178 605v95h239v-95h-239z" />
    <glyph glyph-name="Obreve" unicode="&#x14e;" horiz-adv-x="803" 
d="M46 351q0 153 101.5 257t252.5 104t254 -104t103 -257q0 -154 -103 -258t-254 -104t-252.5 104t-101.5 258zM168 351q0 -109 66.5 -181t169.5 -72q101 0 167 72.5t66 180.5q0 107 -66 179t-167 72q-103 0 -169.5 -72t-66.5 -179zM399 746q-60 0 -96 34.5t-41 91.5h90
q5 -38 47 -38t47 38h91q-5 -57 -41.5 -91.5t-96.5 -34.5z" />
    <glyph glyph-name="obreve" unicode="&#x14f;" horiz-adv-x="596" 
d="M45 245q0 110 73 183.5t180 73.5q106 0 179.5 -73.5t73.5 -183.5q0 -109 -73.5 -182.5t-179.5 -73.5q-107 0 -180 73t-73 183zM161 245q0 -67 38.5 -110t98.5 -43q59 0 97.5 43t38.5 110t-38.5 110t-97.5 43q-60 0 -98.5 -43t-38.5 -110zM297 558q-61 0 -100.5 40
t-43.5 102h89q5 -51 55 -51t56 51h89q-5 -63 -44 -102.5t-101 -39.5z" />
    <glyph glyph-name="Ohungarumlaut" unicode="&#x150;" horiz-adv-x="803" 
d="M46 351q0 153 101.5 257t252.5 104t254 -104t103 -257q0 -154 -103 -258t-254 -104t-252.5 104t-101.5 258zM168 351q0 -109 66.5 -181t169.5 -72q101 0 167 72.5t66 180.5q0 107 -66 179t-167 72q-103 0 -169.5 -72t-66.5 -179zM190 769l81 103h138l-103 -103h-116z
M388 769l83 103h138l-109 -103h-112z" />
    <glyph glyph-name="ohungarumlaut" unicode="&#x151;" horiz-adv-x="596" 
d="M45 245q0 110 73 183.5t180 73.5q106 0 179.5 -73.5t73.5 -183.5q0 -109 -73.5 -182.5t-179.5 -73.5q-107 0 -180 73t-73 183zM161 245q0 -67 38.5 -110t98.5 -43q59 0 97.5 43t38.5 110t-38.5 110t-97.5 43q-60 0 -98.5 -43t-38.5 -110zM121 569l91 131h140l-119 -131
h-112zM319 569l91 131h140l-119 -131h-112z" />
    <glyph glyph-name="OE" unicode="&#x152;" horiz-adv-x="956" 
d="M395 701h491v-108h-316v-181h299v-109h-299v-195h316v-108h-491q-151 0 -250 98.5t-99 252.5q0 153 99 251.5t250 98.5zM450 591h-51q-103 0 -167 -67t-64 -173q0 -108 64 -175t167 -67h51v482z" />
    <glyph glyph-name="oe" unicode="&#x153;" horiz-adv-x="932" 
d="M886 211h-335q4 -55 39 -87t90 -32q78 0 127 69l76 -72q-78 -100 -203 -100q-124 0 -192 91q-69 -91 -191 -91q-106 0 -179 73t-73 183t73 183.5t179 73.5q120 0 190 -92q66 92 176 92q57 0 101.5 -21.5t70.5 -58t39 -80t13 -91.5zM161 245q0 -67 38.5 -110t97.5 -43
q57 0 97 42t40 108q0 69 -38 112.5t-99 43.5q-59 0 -97.5 -43t-38.5 -110zM664 398q-45 0 -72 -28t-35 -68h210q-2 39 -26.5 67.5t-76.5 28.5z" />
    <glyph glyph-name="Racute" unicode="&#x154;" horiz-adv-x="670" 
d="M632 0h-141l-147 239h-145v-239h-119v700h267q124 0 195.5 -60t71.5 -168q0 -77 -37.5 -132t-105.5 -81zM332 592h-133v-244h133q163 0 163 123q0 121 -163 121zM259 769l86 103h146l-109 -103h-123z" />
    <glyph glyph-name="racute" unicode="&#x155;" horiz-adv-x="368" 
d="M353 496v-108q-8 1 -18 1q-84 0 -117.5 -47t-33.5 -150v-192h-114v490h112v-53q50 60 149 60q10 0 22 -1zM103 569l91 131h140l-119 -131h-112z" />
    <glyph glyph-name="Rcommaaccent" unicode="&#x156;" horiz-adv-x="670" 
d="M632 0h-141l-147 239h-145v-239h-119v700h267q124 0 195.5 -60t71.5 -168q0 -77 -37.5 -132t-105.5 -81zM332 592h-133v-244h133q163 0 163 123q0 121 -163 121zM242 -194l48 137h117l-72 -137h-93z" />
    <glyph glyph-name="rcommaaccent" unicode="&#x157;" horiz-adv-x="368" 
d="M353 496v-108q-8 1 -18 1q-84 0 -117.5 -47t-33.5 -150v-192h-114v490h112v-53q50 60 149 60q10 0 22 -1zM23 -194l48 137h117l-72 -137h-93z" />
    <glyph glyph-name="Rcaron" unicode="&#x158;" horiz-adv-x="670" 
d="M632 0h-141l-147 239h-145v-239h-119v700h267q124 0 195.5 -60t71.5 -168q0 -77 -37.5 -132t-105.5 -81zM332 592h-133v-244h133q163 0 163 123q0 121 -163 121zM494 872l-91 -103h-136l-91 103h113l46 -44l46 44h113z" />
    <glyph glyph-name="rcaron" unicode="&#x159;" horiz-adv-x="368" 
d="M353 496v-108q-8 1 -18 1q-84 0 -117.5 -47t-33.5 -150v-192h-114v490h112v-53q50 60 149 60q10 0 22 -1zM367 700l-97 -131h-140l-97 131h110l56 -65l56 65h112z" />
    <glyph glyph-name="Sacute" unicode="&#x15a;" horiz-adv-x="661" 
d="M374 290l-85 14q-97 16 -151 69.5t-54 137.5q0 91 72 146t175 55q153 0 259 -112l-83 -88q-76 92 -181 92q-60 0 -91 -27t-31 -63q0 -75 111 -94l70 -12q219 -38 219 -214q0 -91 -72 -148t-196 -57q-173 0 -279 134l81 82q38 -50 87.5 -79t125.5 -29q64 0 98.5 26.5
t34.5 68.5q0 79 -110 98zM265 769l86 103h146l-109 -103h-123z" />
    <glyph glyph-name="sacute" unicode="&#x15b;" horiz-adv-x="471" 
d="M269 185l-65 16q-149 37 -149 155q0 67 50 106.5t129 39.5q104 0 183 -82l-71 -78q-45 62 -115 62q-31 0 -49 -13.5t-18 -32.5q0 -35 48 -46l77 -18q146 -35 146 -153q0 -67 -51 -109.5t-144 -42.5q-129 0 -204 95l72 74q54 -71 141 -71q76 0 76 50q0 34 -56 48zM149 569
l91 131h140l-119 -131h-112z" />
    <glyph glyph-name="Scircumflex" unicode="&#x15c;" horiz-adv-x="661" 
d="M374 290l-85 14q-97 16 -151 69.5t-54 137.5q0 91 72 146t175 55q153 0 259 -112l-83 -88q-76 92 -181 92q-60 0 -91 -27t-31 -63q0 -75 111 -94l70 -12q219 -38 219 -214q0 -91 -72 -148t-196 -57q-173 0 -279 134l81 82q38 -50 87.5 -79t125.5 -29q64 0 98.5 26.5
t34.5 68.5q0 79 -110 98zM182 769l91 103h136l91 -103h-113l-46 44l-46 -44h-113z" />
    <glyph glyph-name="scircumflex" unicode="&#x15d;" horiz-adv-x="471" 
d="M269 185l-65 16q-149 37 -149 155q0 67 50 106.5t129 39.5q104 0 183 -82l-71 -78q-45 62 -115 62q-31 0 -49 -13.5t-18 -32.5q0 -35 48 -46l77 -18q146 -35 146 -153q0 -67 -51 -109.5t-144 -42.5q-129 0 -204 95l72 74q54 -71 141 -71q76 0 76 50q0 34 -56 48zM84 569
l97 131h129l97 -131h-112l-50 60l-50 -60h-111z" />
    <glyph glyph-name="Scedilla" unicode="&#x15e;" horiz-adv-x="661" 
d="M413 -4l-57 -133h-115l66 127q-156 12 -250 133l81 82q38 -50 87.5 -79t125.5 -29q64 0 98.5 26.5t34.5 68.5q0 79 -110 98l-85 14q-97 16 -151 69.5t-54 137.5q0 91 72 146t175 55q153 0 259 -112l-83 -88q-76 92 -181 92q-60 0 -91 -27t-31 -63q0 -75 111 -94l70 -12
q219 -38 219 -214q0 -75 -50.5 -128.5t-140.5 -69.5z" />
    <glyph glyph-name="scedilla" unicode="&#x15f;" horiz-adv-x="471" 
d="M307 -4l-57 -133h-115l66 128q-102 13 -165 93l72 74q54 -71 141 -71q76 0 76 50q0 34 -56 48l-65 16q-149 37 -149 155q0 67 50 106.5t129 39.5q104 0 183 -82l-71 -78q-45 62 -115 62q-31 0 -49 -13.5t-18 -32.5q0 -35 48 -46l77 -18q146 -35 146 -153q0 -53 -33 -92
t-95 -53z" />
    <glyph glyph-name="Scaron" unicode="&#x160;" horiz-adv-x="661" 
d="M374 290l-85 14q-97 16 -151 69.5t-54 137.5q0 91 72 146t175 55q153 0 259 -112l-83 -88q-76 92 -181 92q-60 0 -91 -27t-31 -63q0 -75 111 -94l70 -12q219 -38 219 -214q0 -91 -72 -148t-196 -57q-173 0 -279 134l81 82q38 -50 87.5 -79t125.5 -29q64 0 98.5 26.5
t34.5 68.5q0 79 -110 98zM500 872l-91 -103h-136l-91 103h113l46 -44l46 44h113z" />
    <glyph glyph-name="scaron" unicode="&#x161;" horiz-adv-x="471" 
d="M269 185l-65 16q-149 37 -149 155q0 67 50 106.5t129 39.5q104 0 183 -82l-71 -78q-45 62 -115 62q-31 0 -49 -13.5t-18 -32.5q0 -35 48 -46l77 -18q146 -35 146 -153q0 -67 -51 -109.5t-144 -42.5q-129 0 -204 95l72 74q54 -71 141 -71q76 0 76 50q0 34 -56 48zM413 700
l-97 -131h-140l-97 131h110l56 -65l56 65h112z" />
    <glyph glyph-name="uni0162" unicode="&#x162;" horiz-adv-x="609" 
d="M356 0l-59 -137h-115l71 137h-8v592h-210v108h539v-108h-210v-592h-8z" />
    <glyph glyph-name="uni0163" unicode="&#x163;" horiz-adv-x="350" 
d="M279 -1l-59 -136h-115l75 144q-52 13 -73.5 52.5t-21.5 113.5v215h-72v102h72v137h113v-137h117v-102h-117v-198q0 -53 16 -71t64 -18l37 2v-102q-13 -1 -36 -2z" />
    <glyph glyph-name="Tcaron" unicode="&#x164;" horiz-adv-x="609" 
d="M35 592v108h539v-108h-210v-592h-119v592h-210zM464 872l-91 -103h-136l-91 103h113l46 -44l46 44h113z" />
    <glyph glyph-name="tcaron" unicode="&#x165;" horiz-adv-x="350" 
d="M254 -1q-95 0 -132 39.5t-37 134.5v215h-72v102h72v137h113v-137h117v-102h-117v-198q0 -53 16 -71t64 -18l37 2v-102q-22 -2 -61 -2zM387 744l-59 -189h-85l27 189h117z" />
    <glyph glyph-name="Tbar" unicode="&#x166;" horiz-adv-x="609" 
d="M35 592v108h539v-108h-210v-225h130v-108h-130v-259h-119v259h-130v108h130v225h-210z" />
    <glyph glyph-name="tbar" unicode="&#x167;" horiz-adv-x="350" 
d="M254 -1q-95 0 -132 39.5t-37 134.5v40h-72v89h72v86h-72v102h72v137h113v-137h117v-102h-117v-86h117v-89h-117v-23q0 -53 16 -71t64 -18l37 2v-102q-22 -2 -61 -2z" />
    <glyph glyph-name="Utilde" unicode="&#x168;" horiz-adv-x="706" 
d="M516 311v389h120v-389q0 -157 -76.5 -239.5t-206.5 -82.5t-206.5 82.5t-76.5 239.5v389h120v-390q0 -213 163 -213t163 214zM426 874h80q0 -49 -25 -81.5t-63 -32.5q-21 0 -42 7l-40 15q-27 8 -33 8q-22 0 -24 -24h-80q0 49 25 81.5t63 32.5q21 0 42 -7l40 -15
q27 -8 33 -8q22 0 24 24z" />
    <glyph glyph-name="utilde" unicode="&#x169;" horiz-adv-x="560" 
d="M68 490h114v-293q0 -49 24 -77.5t68 -28.5q48 0 75 34t27 89v276h114v-490h-112v40q-46 -51 -127 -51q-83 0 -133 57t-50 159v285zM353 700h80q0 -49 -25 -81.5t-63 -32.5q-21 0 -42 7l-40 15q-27 8 -33 8q-22 0 -24 -24h-80q0 49 25 81.5t63 32.5q21 0 42 -7l40 -15
q27 -8 33 -8q22 0 24 24z" />
    <glyph glyph-name="Umacron" unicode="&#x16a;" horiz-adv-x="706" 
d="M516 311v389h120v-389q0 -157 -76.5 -239.5t-206.5 -82.5t-206.5 82.5t-76.5 239.5v389h120v-390q0 -213 163 -213t163 214zM233 772v95h239v-95h-239z" />
    <glyph glyph-name="umacron" unicode="&#x16b;" horiz-adv-x="560" 
d="M68 490h114v-293q0 -49 24 -77.5t68 -28.5q48 0 75 34t27 89v276h114v-490h-112v40q-46 -51 -127 -51q-83 0 -133 57t-50 159v285zM160 605v95h239v-95h-239z" />
    <glyph glyph-name="Ubreve" unicode="&#x16c;" horiz-adv-x="706" 
d="M516 311v389h120v-389q0 -157 -76.5 -239.5t-206.5 -82.5t-206.5 82.5t-76.5 239.5v389h120v-390q0 -213 163 -213t163 214zM352 746q-60 0 -96 34.5t-41 91.5h90q5 -38 47 -38t47 38h91q-5 -57 -41.5 -91.5t-96.5 -34.5z" />
    <glyph glyph-name="ubreve" unicode="&#x16d;" horiz-adv-x="560" 
d="M68 490h114v-293q0 -49 24 -77.5t68 -28.5q48 0 75 34t27 89v276h114v-490h-112v40q-46 -51 -127 -51q-83 0 -133 57t-50 159v285zM279 558q-61 0 -100.5 40t-43.5 102h89q5 -51 55 -51t56 51h89q-5 -63 -44 -102.5t-101 -39.5z" />
    <glyph glyph-name="Uring" unicode="&#x16e;" horiz-adv-x="706" 
d="M516 311v389h120v-389q0 -157 -76.5 -239.5t-206.5 -82.5t-206.5 82.5t-76.5 239.5v389h120v-390q0 -213 163 -213t163 214zM251 781q0 44 30 73t70 29q43 0 73.5 -29t30.5 -73q0 -42 -30 -72t-74 -30q-40 0 -70 30.5t-30 71.5zM313 781q0 -16 12 -27.5t28 -11.5
t27.5 11.5t11.5 27.5t-11.5 27.5t-27.5 11.5t-28 -11.5t-12 -27.5z" />
    <glyph glyph-name="uring" unicode="&#x16f;" horiz-adv-x="560" 
d="M68 490h114v-293q0 -49 24 -77.5t68 -28.5q48 0 75 34t27 89v276h114v-490h-112v40q-46 -51 -127 -51q-83 0 -133 57t-50 159v285zM280 712q34 0 57.5 -22.5t23.5 -57.5q0 -33 -24 -56t-57 -23t-57 23t-24 56q0 35 23.5 57.5t57.5 22.5zM280 609q10 0 16.5 6.5t6.5 16.5
t-6.5 16t-16.5 6t-16.5 -6t-6.5 -16t6.5 -16.5t16.5 -6.5z" />
    <glyph glyph-name="Uhungarumlaut" unicode="&#x170;" horiz-adv-x="706" 
d="M516 311v389h120v-389q0 -157 -76.5 -239.5t-206.5 -82.5t-206.5 82.5t-76.5 239.5v389h120v-390q0 -213 163 -213t163 214zM143 769l81 103h138l-103 -103h-116zM341 769l83 103h138l-109 -103h-112z" />
    <glyph glyph-name="uhungarumlaut" unicode="&#x171;" horiz-adv-x="560" 
d="M68 490h114v-293q0 -49 24 -77.5t68 -28.5q48 0 75 34t27 89v276h114v-490h-112v40q-46 -51 -127 -51q-83 0 -133 57t-50 159v285zM65 569l91 131h140l-119 -131h-112zM263 569l91 131h140l-119 -131h-112z" />
    <glyph glyph-name="Uogonek" unicode="&#x172;" horiz-adv-x="706" 
d="M516 311v389h120v-389q0 -138 -60 -219t-165 -98q-48 -33 -48 -70q0 -38 55 -38h4v-75q-22 -4 -43 -4q-49 0 -78 24.5t-29 66.5q0 51 49 93q-116 9 -183.5 91t-67.5 229v389h120v-390q0 -213 163 -213t163 214z" />
    <glyph glyph-name="uogonek" unicode="&#x173;" horiz-adv-x="560" 
d="M490 490v-490q-59 -35 -59 -76q0 -38 55 -38h4v-75q-22 -4 -43 -4q-49 0 -78 24.5t-29 66.5q0 59 60 102h-22v40q-46 -51 -127 -51q-83 0 -133 57t-50 159v285h114v-293q0 -49 24 -77.5t68 -28.5q48 0 75 34t27 89v276h114z" />
    <glyph glyph-name="Wcircumflex" unicode="&#x174;" horiz-adv-x="920" 
d="M529 700l129 -511l119 511h128l-182 -700h-132l-131 507l-131 -507h-131l-183 700h127l122 -511l128 511h137zM301 769l91 103h136l91 -103h-113l-46 44l-46 -44h-113z" />
    <glyph glyph-name="wcircumflex" unicode="&#x175;" horiz-adv-x="786" 
d="M144 490l83 -338l89 338h146l89 -338l83 338h123l-135 -490h-138l-95 348l-96 -348h-138l-135 490h124zM228 569l97 131h129l97 -131h-112l-50 60l-50 -60h-111z" />
    <glyph glyph-name="Ycircumflex" unicode="&#x176;" horiz-adv-x="635" 
d="M23 700h127l168 -325l166 325h128l-235 -455v-245h-119v245zM159 769l91 103h136l91 -103h-113l-46 44l-46 -44h-113z" />
    <glyph glyph-name="ycircumflex" unicode="&#x177;" horiz-adv-x="526" 
d="M244 -194h-120l77 200l-186 484h130l120 -339l121 339h125zM104 569l97 131h129l97 -131h-112l-50 60l-50 -60h-111z" />
    <glyph glyph-name="Ydieresis" unicode="&#x178;" horiz-adv-x="635" 
d="M23 700h127l168 -325l166 325h128l-235 -455v-245h-119v245zM160 820q0 26 18.5 44.5t43.5 18.5q26 0 44.5 -18.5t18.5 -44.5t-18.5 -44.5t-44.5 -18.5q-25 0 -43.5 18.5t-18.5 44.5zM351 820q0 26 18.5 44.5t44.5 18.5q25 0 43.5 -18.5t18.5 -44.5t-18.5 -44.5
t-43.5 -18.5q-26 0 -44.5 18.5t-18.5 44.5z" />
    <glyph glyph-name="Zacute" unicode="&#x179;" horiz-adv-x="644" 
d="M65 592v108h516v-103l-364 -489h362v-108h-516v103l364 489h-362zM246 769l86 103h146l-109 -103h-123z" />
    <glyph glyph-name="zacute" unicode="&#x17a;" horiz-adv-x="511" 
d="M76 388v102h373v-97l-239 -290h251v-103h-390v97l237 291h-232zM207 569l91 131h140l-119 -131h-112z" />
    <glyph glyph-name="Zdotaccent" unicode="&#x17b;" horiz-adv-x="644" 
d="M65 592v108h516v-103l-364 -489h362v-108h-516v103l364 489h-362zM250 821q0 30 21 51t51 21t51 -21t21 -51t-21 -51t-51 -21t-51 21t-21 51z" />
    <glyph glyph-name="zdotaccent" unicode="&#x17c;" horiz-adv-x="511" 
d="M76 388v102h373v-97l-239 -290h251v-103h-390v97l237 291h-232zM193 640q0 30 21 51t51 21t51 -21t21 -51t-21 -51t-51 -21t-51 21t-21 51z" />
    <glyph glyph-name="Zcaron" unicode="&#x17d;" horiz-adv-x="644" 
d="M65 592v108h516v-103l-364 -489h362v-108h-516v103l364 489h-362zM481 872l-91 -103h-136l-91 103h113l46 -44l46 44h113z" />
    <glyph glyph-name="zcaron" unicode="&#x17e;" horiz-adv-x="511" 
d="M76 388v102h373v-97l-239 -290h251v-103h-390v97l237 291h-232zM433 700l-97 -131h-140l-97 131h110l56 -65l56 65h112z" />
    <glyph glyph-name="florin" unicode="&#x192;" horiz-adv-x="393" 
d="M370 388h-128v-407q0 -92 -50.5 -139t-147.5 -47l-55 1v103q26 -1 37 -1q53 0 78 23.5t25 76.5v390h-83v102h83v36q0 186 197 186l56 -1v-103q-26 1 -38 1q-53 0 -77.5 -23.5t-24.5 -76.5v-19h128v-102z" />
    <glyph glyph-name="Aringacute" unicode="&#x1fa;" horiz-adv-x="703" 
d="M249 761q0 44 30 73t70 29q43 0 73.5 -29t30.5 -73q0 -45 -35 -77l267 -684h-125l-59 149h-299l-58 -149h-126l267 683q-36 31 -36 78zM458 259l-107 279l-106 -279h213zM275 892l86 103h146l-109 -103h-123zM311 761q0 -16 12 -27.5t28 -11.5t27.5 11.5t11.5 27.5
t-11.5 27.5t-27.5 11.5t-28 -11.5t-12 -27.5z" />
    <glyph glyph-name="aringacute" unicode="&#x1fb;" horiz-adv-x="531" 
d="M211 -11q-70 0 -117.5 40.5t-47.5 108.5q0 80 57 122t147 42q48 0 99 -17v33q0 37 -27.5 59t-68.5 22q-77 0 -116 -71l-77 72q28 50 81 76t113 26q95 0 152 -47t57 -138v-317h-112v38q-56 -49 -140 -49zM160 146q0 -25 19 -41t55 -16q71 0 115 42v56q-53 20 -102 20
q-40 0 -63.5 -16t-23.5 -45zM265 712q34 0 57.5 -22.5t23.5 -57.5q0 -33 -24 -56t-57 -23t-57 23t-24 56q0 35 23.5 57.5t57.5 22.5zM265 609q10 0 16.5 6.5t6.5 16.5t-6.5 16t-16.5 6t-16.5 -6t-6.5 -16t6.5 -16.5t16.5 -6.5zM229 769l91 131h140l-119 -131h-112z" />
    <glyph glyph-name="AEacute" unicode="&#x1fc;" horiz-adv-x="930" 
d="M860 108v-108h-300l-59 149h-299l-58 -149h-126l274 700h568v-108h-406l70 -180h319v-109h-276l76 -195h217zM458 259l-107 279l-106 -279h213zM549 769l86 103h146l-109 -103h-123z" />
    <glyph glyph-name="aeacute" unicode="&#x1fd;" horiz-adv-x="847" 
d="M801 210h-335q4 -55 38.5 -86.5t89.5 -31.5q78 0 127 69l76 -72q-78 -100 -203 -100q-106 0 -174 66q-78 -66 -197 -66q-78 0 -127.5 40t-49.5 109q0 80 57 122t147 42h99v16q0 37 -27.5 59t-68.5 22q-77 0 -116 -71l-76 72q28 50 81 76t113 26q105 0 167 -69
q62 69 155 69q111 0 168 -74t57 -177zM160 148q0 -25 20 -42t60 -17q72 0 125 51q-10 26 -12 70h-105q-40 0 -64 -16t-24 -46zM578 398q-44 0 -71.5 -28.5t-35.5 -67.5h210q-1 38 -25.5 67t-77.5 29zM377 569l91 131h140l-119 -131h-112z" />
    <glyph glyph-name="Oslashacute" unicode="&#x1fe;" horiz-adv-x="803" 
d="M46 351q0 153 101.5 257t252.5 104q85 0 163 -38l41 59l79 -57l-40 -58q114 -106 114 -267q0 -154 -103 -258t-254 -104q-90 0 -169 41l-42 -60l-79 57l42 61q-106 104 -106 263zM404 98q101 0 167 72.5t66 180.5q0 101 -61 172l-280 -400q50 -25 108 -25zM168 351
q0 -98 53 -165l277 396q-43 20 -94 20q-103 0 -169.5 -72t-66.5 -179zM325 769l86 103h146l-109 -103h-123z" />
    <glyph glyph-name="oslashacute" unicode="&#x1ff;" horiz-adv-x="596" 
d="M45 245q0 110 73 183.5t180 73.5q54 0 103 -22l29 41l78 -56l-28 -40q71 -73 71 -180q0 -109 -73.5 -182.5t-179.5 -73.5q-54 0 -108 23l-30 -43l-77 56l30 42q-68 71 -68 178zM434 245q0 49 -21 85l-161 -230q22 -8 46 -8q59 0 97.5 43t38.5 110zM161 245q0 -46 19 -82
l159 228q-23 7 -41 7q-60 0 -98.5 -43t-38.5 -110zM202 569l91 131h140l-119 -131h-112z" />
    <glyph glyph-name="Scommaaccent" unicode="&#x218;" horiz-adv-x="661" 
d="M374 290l-85 14q-97 16 -151 69.5t-54 137.5q0 91 72 146t175 55q153 0 259 -112l-83 -88q-76 92 -181 92q-60 0 -91 -27t-31 -63q0 -75 111 -94l70 -12q219 -38 219 -214q0 -91 -72 -148t-196 -57q-173 0 -279 134l81 82q38 -50 87.5 -79t125.5 -29q64 0 98.5 26.5
t34.5 68.5q0 79 -110 98zM248 -194l48 137h117l-72 -137h-93z" />
    <glyph glyph-name="scommaaccent" unicode="&#x219;" horiz-adv-x="471" 
d="M269 185l-65 16q-149 37 -149 155q0 67 50 106.5t129 39.5q104 0 183 -82l-71 -78q-45 62 -115 62q-31 0 -49 -13.5t-18 -32.5q0 -35 48 -46l77 -18q146 -35 146 -153q0 -67 -51 -109.5t-144 -42.5q-129 0 -204 95l72 74q54 -71 141 -71q76 0 76 50q0 34 -56 48z
M142 -194l48 137h117l-72 -137h-93z" />
    <glyph glyph-name="Tcommaaccent" unicode="&#x21a;" horiz-adv-x="609" 
d="M35 592v108h539v-108h-210v-592h-119v592h-210zM197 -194l48 137h117l-72 -137h-93z" />
    <glyph glyph-name="tcommaaccent" unicode="&#x21b;" horiz-adv-x="350" 
d="M254 -1q-95 0 -132 39.5t-37 134.5v215h-72v102h72v137h113v-137h117v-102h-117v-198q0 -53 16 -71t64 -18l37 2v-102q-22 -2 -61 -2zM112 -194l48 137h117l-72 -137h-93z" />
    <glyph glyph-name="dotlessj" unicode="&#x237;" horiz-adv-x="254" 
d="M70 -8v498h114v-521q0 -92 -45 -133t-142 -41l-44 1v108q15 -1 26 -1q53 0 72 18t19 71z" />
    <glyph glyph-name="circumflex" unicode="&#x2c6;" horiz-adv-x="500" 
d="M88 569l97 131h129l97 -131h-112l-50 60l-50 -60h-111z" />
    <glyph glyph-name="caron" unicode="&#x2c7;" horiz-adv-x="500" 
d="M417 700l-97 -131h-140l-97 131h110l56 -65l56 65h112z" />
    <glyph glyph-name="uni02C9" unicode="&#x2c9;" horiz-adv-x="500" 
d="M130 605v95h239v-95h-239z" />
    <glyph glyph-name="breve" unicode="&#x2d8;" horiz-adv-x="500" 
d="M249 558q-61 0 -100.5 40t-43.5 102h89q5 -51 55 -51t56 51h89q-5 -63 -44 -102.5t-101 -39.5z" />
    <glyph glyph-name="dotaccent" unicode="&#x2d9;" horiz-adv-x="500" 
d="M178 640q0 30 21 51t51 21t51 -21t21 -51t-21 -51t-51 -21t-51 21t-21 51z" />
    <glyph glyph-name="ring" unicode="&#x2da;" horiz-adv-x="500" 
d="M250 712q34 0 57.5 -22.5t23.5 -57.5q0 -33 -24 -56t-57 -23t-57 23t-24 56q0 35 23.5 57.5t57.5 22.5zM250 609q10 0 16.5 6.5t6.5 16.5t-6.5 16t-16.5 6t-16.5 -6t-6.5 -16t6.5 -16.5t16.5 -6.5z" />
    <glyph glyph-name="ogonek" unicode="&#x2db;" horiz-adv-x="500" 
d="M237 5l82 -5q-59 -35 -59 -76q0 -38 55 -38h4v-75q-22 -4 -43 -4q-49 0 -78 24.5t-29 66.5q0 63 68 107z" />
    <glyph glyph-name="tilde" unicode="&#x2dc;" horiz-adv-x="500" 
d="M323 700h80q0 -49 -25 -81.5t-63 -32.5q-21 0 -42 7l-40 15q-27 8 -33 8q-22 0 -24 -24h-80q0 49 25 81.5t63 32.5q21 0 42 -7l40 -15q27 -8 33 -8q22 0 24 24z" />
    <glyph glyph-name="hungarumlaut" unicode="&#x2dd;" horiz-adv-x="500" 
d="M35 569l91 131h140l-119 -131h-112zM233 569l91 131h140l-119 -131h-112z" />
    <glyph glyph-name="commaaccent" unicode="&#x326;" horiz-adv-x="500" 
d="M167 -194l48 137h117l-72 -137h-93z" />
    <glyph glyph-name="Deltagreek" unicode="&#x394;" horiz-adv-x="704" 
d="M70 99l227 601h110l227 -601v-99h-564v99zM520 105l-168 455l-168 -455h336z" />
    <glyph glyph-name="Omegagreek" unicode="&#x3a9;" horiz-adv-x="716" 
d="M515 103h126v-103h-237v218q76 12 117 65.5t41 124.5q0 87 -57.5 143.5t-145.5 56.5q-87 0 -145.5 -56.5t-58.5 -143.5q0 -71 41.5 -124.5t117.5 -65.5v-218h-237v103h125v45q-70 29 -116 96.5t-46 163.5q0 135 94 219.5t224 84.5q129 0 223.5 -84.5t94.5 -219.5
q0 -95 -46 -162.5t-115 -97.5v-45z" />
    <glyph glyph-name="mugreek" unicode="&#x3bc;" horiz-adv-x="562" 
d="M184 -194h-114v684h114v-292q0 -51 24.5 -79t66.5 -28q48 0 75.5 34t27.5 89v276h114v-490h-112v40q-48 -51 -116 -51q-48 0 -80 22v-205z" />
    <glyph glyph-name="pi" unicode="&#x3c0;" horiz-adv-x="651" 
d="M521 0h-110v388h-170v-388h-111v388h-80v102h551v-102h-80v-388z" />
    <glyph glyph-name="Wgrave" unicode="&#x1e80;" horiz-adv-x="920" 
d="M529 700l129 -511l119 511h128l-182 -700h-132l-131 507l-131 -507h-131l-183 700h127l122 -511l128 511h137zM413 769l-109 103h146l86 -103h-123z" />
    <glyph glyph-name="wgrave" unicode="&#x1e81;" horiz-adv-x="786" 
d="M144 490l83 -338l89 338h146l89 -338l83 338h123l-135 -490h-138l-95 348l-96 -348h-138l-135 490h124zM332 581l-119 131h140l91 -131h-112z" />
    <glyph glyph-name="Wacute" unicode="&#x1e82;" horiz-adv-x="920" 
d="M529 700l129 -511l119 511h128l-182 -700h-132l-131 507l-131 -507h-131l-183 700h127l122 -511l128 511h137zM384 769l86 103h146l-109 -103h-123z" />
    <glyph glyph-name="wacute" unicode="&#x1e83;" horiz-adv-x="786" 
d="M144 490l83 -338l89 338h146l89 -338l83 338h123l-135 -490h-138l-95 348l-96 -348h-138l-135 490h124zM363 581l91 131h140l-119 -131h-112z" />
    <glyph glyph-name="Wdieresis" unicode="&#x1e84;" horiz-adv-x="920" 
d="M529 700l129 -511l119 511h128l-182 -700h-132l-131 507l-131 -507h-131l-183 700h127l122 -511l128 511h137zM302 820q0 26 18.5 44.5t43.5 18.5q26 0 44.5 -18.5t18.5 -44.5t-18.5 -44.5t-44.5 -18.5q-25 0 -43.5 18.5t-18.5 44.5zM493 820q0 26 18.5 44.5t44.5 18.5
q25 0 43.5 -18.5t18.5 -44.5t-18.5 -44.5t-43.5 -18.5q-26 0 -44.5 18.5t-18.5 44.5z" />
    <glyph glyph-name="wdieresis" unicode="&#x1e85;" horiz-adv-x="786" 
d="M144 490l83 -338l89 338h146l89 -338l83 338h123l-135 -490h-138l-95 348l-96 -348h-138l-135 490h124zM231 649q0 26 18.5 44.5t43.5 18.5t44 -19t19 -44t-19 -44t-44 -19t-43.5 18.5t-18.5 44.5zM422 649q0 25 19 44t44 19t43.5 -18.5t18.5 -44.5t-18.5 -44.5
t-43.5 -18.5t-44 19t-19 44z" />
    <glyph glyph-name="Ygrave" unicode="&#x1ef2;" horiz-adv-x="635" 
d="M23 700h127l168 -325l166 325h128l-235 -455v-245h-119v245zM271 769l-109 103h146l86 -103h-123z" />
    <glyph glyph-name="ygrave" unicode="&#x1ef3;" horiz-adv-x="526" 
d="M244 -194h-120l77 200l-186 484h130l120 -339l121 339h125zM268 569l-119 131h140l91 -131h-112z" />
    <glyph glyph-name="thinspace" unicode="&#x2009;" horiz-adv-x="104" 
 />
    <glyph glyph-name="endash" unicode="&#x2013;" horiz-adv-x="500" 
d="M480 210h-460v105h460v-105z" />
    <glyph glyph-name="emdash" unicode="&#x2014;" horiz-adv-x="1000" 
d="M980 210h-960v105h960v-105z" />
    <glyph glyph-name="quoteleft" unicode="&#x2018;" horiz-adv-x="290" 
d="M163 700l93 -229h-105l-108 229h120z" />
    <glyph glyph-name="quoteright" unicode="&#x2019;" horiz-adv-x="290" 
d="M247 700l-108 -229h-105l93 229h120z" />
    <glyph glyph-name="quotesinglbase" unicode="&#x201a;" horiz-adv-x="290" 
d="M246 114l-108 -229h-105l93 229h120z" />
    <glyph glyph-name="quotedblleft" unicode="&#x201c;" horiz-adv-x="467" 
d="M340 700l93 -229h-105l-108 229h120zM163 700l94 -229h-105l-109 229h120z" />
    <glyph glyph-name="quotedblright" unicode="&#x201d;" horiz-adv-x="467" 
d="M247 700l-108 -229h-105l93 229h120zM424 700l-109 -229h-105l94 229h120z" />
    <glyph glyph-name="quotedblbase" unicode="&#x201e;" horiz-adv-x="466" 
d="M246 114l-108 -229h-105l93 229h120zM422 114l-108 -229h-105l93 229h120z" />
    <glyph glyph-name="dagger" unicode="&#x2020;" horiz-adv-x="572" 
d="M46 383v107h181v211h112v-211h187v-107h-187v-577h-112v577h-181z" />
    <glyph glyph-name="daggerdbl" unicode="&#x2021;" horiz-adv-x="572" 
d="M46 186h181v197h-181v107h181v211h112v-211h187v-107h-187v-197h187v-107h-187v-273h-112v273h-181v107z" />
    <glyph glyph-name="bullet" unicode="&#x2022;" horiz-adv-x="404" 
d="M68 262q0 56 39 95t95 39q55 0 94 -39t39 -95t-38.5 -94.5t-94.5 -38.5t-95 39t-39 94z" />
    <glyph glyph-name="ellipsis" unicode="&#x2026;" horiz-adv-x="803" 
d="M73 60q0 30 21 51t51 21t51 -21t21 -51q0 -29 -21 -50t-51 -21t-51 21t-21 50zM330 60q0 30 21 51t51 21t51 -21t21 -51q0 -29 -21 -50t-51 -21t-51 21t-21 50zM586 60q0 30 21 51t51 21t51 -21t21 -51q0 -29 -21 -50t-51 -21t-51 21t-21 50z" />
    <glyph glyph-name="perthousand" unicode="&#x2030;" horiz-adv-x="1060" 
d="M724 128q0 59 40.5 99.5t99.5 40.5q58 0 98.5 -40.5t40.5 -99.5q0 -58 -40.5 -98.5t-98.5 -40.5q-59 0 -99.5 40t-40.5 99zM815 128q0 -22 14.5 -36t34.5 -14q18 0 32.5 14t14.5 36q0 23 -14.5 37t-32.5 14q-20 0 -34.5 -14t-14.5 -37zM57 572q0 59 40.5 99.5t99.5 40.5
t99 -40.5t40 -99.5q0 -58 -40.5 -98.5t-98.5 -40.5t-99 40.5t-41 98.5zM148 572q0 -22 14.5 -36t34.5 -14q18 0 32.5 14t14.5 36q0 23 -14.5 37.5t-32.5 14.5q-20 0 -34.5 -14.5t-14.5 -37.5zM399 128q0 58 40.5 99t99.5 41q58 0 98.5 -40.5t40.5 -99.5q0 -58 -40 -98.5
t-99 -40.5t-99.5 40.5t-40.5 98.5zM490 128q0 -22 14.5 -36t34.5 -14q18 0 32.5 14t14.5 36q0 23 -14.5 37t-32.5 14q-20 0 -34.5 -14t-14.5 -37zM209 0h-117l432 700h117z" />
    <glyph glyph-name="guilsinglleft" unicode="&#x2039;" horiz-adv-x="365" 
d="M190 0l-137 245l137 245h125l-139 -245l139 -245h-125z" />
    <glyph glyph-name="guilsinglright" unicode="&#x203a;" horiz-adv-x="365" 
d="M50 490h125l137 -245l-137 -245h-125l139 245z" />
    <glyph glyph-name="fraction" unicode="&#x2044;" horiz-adv-x="622" 
d="M136 0h-117l432 700h117z" />
    <glyph glyph-name="zerosuperior" unicode="&#x2070;" horiz-adv-x="389" 
d="M194 383q38 0 55 29t17 93t-17 92.5t-55 28.5q-37 0 -54.5 -29t-17.5 -92q0 -64 17.5 -93t54.5 -29zM194 302q-76 0 -120.5 57t-44.5 146q0 88 44.5 145t120.5 57t120.5 -57t44.5 -145q0 -89 -44.5 -146t-120.5 -57z" />
    <glyph glyph-name="foursuperior" unicode="&#x2074;" horiz-adv-x="371" 
d="M348 390h-57v-82h-90v82h-185v70l175 240h100v-235h57v-75zM109 465h92v128z" />
    <glyph glyph-name="zeroinferior" unicode="&#x2080;" horiz-adv-x="389" 
d="M194 75q38 0 55 29t17 93t-17 92.5t-55 28.5q-37 0 -54.5 -29t-17.5 -92q0 -64 17.5 -93t54.5 -29zM194 -6q-76 0 -120.5 57t-44.5 146q0 88 44.5 145t120.5 57t120.5 -57t44.5 -145q0 -89 -44.5 -146t-120.5 -57z" />
    <glyph glyph-name="oneinferior" unicode="&#x2081;" horiz-adv-x="337" 
d="M35 79h100v207q-41 -25 -100 -25v77q83 4 109 54h81v-313h97v-79h-287v79z" />
    <glyph glyph-name="twoinferior" unicode="&#x2082;" horiz-adv-x="365" 
d="M133 79h193v-79h-296v13q0 72 30 119t105 83l23 11q50 24 50 55q0 17 -14.5 28t-40.5 11q-62 0 -95 -62l-58 56q19 38 59 61.5t89 23.5q62 0 106 -31t44 -86q0 -44 -25 -72.5t-73 -51.5l-36 -18q-29 -14 -43 -27t-18 -34z" />
    <glyph glyph-name="threeinferior" unicode="&#x2083;" horiz-adv-x="350" 
d="M261 200q24 -11 39.5 -35t15.5 -57q0 -56 -44 -87.5t-112 -31.5q-43 0 -83 17.5t-64 45.5l60 58q37 -43 91 -43q28 0 45.5 11.5t17.5 31.5q0 45 -77 45h-34v79h28q72 0 72 43q0 16 -14 27t-38 11q-52 0 -82 -38l-59 56q56 61 138 61q60 0 102.5 -27.5t42.5 -81.5
q0 -56 -45 -85z" />
    <glyph glyph-name="fourinferior" unicode="&#x2084;" horiz-adv-x="371" 
d="M348 82h-57v-82h-90v82h-185v70l175 240h100v-235h57v-75zM109 157h92v128z" />
    <glyph glyph-name="Euro" unicode="&#x20ac;" horiz-adv-x="640" 
d="M78 382h-68v99h83q29 107 103.5 169t182.5 62q135 0 217 -109l-76 -79q-56 80 -143 80q-52 0 -95 -31t-65 -92h214v-99h-234q-1 -11 -1 -33q0 -25 1 -36h234v-99h-214q45 -117 161 -117q86 0 153 76l75 -83q-96 -101 -228 -101q-109 0 -182.5 60t-101.5 165h-84v99h68
q0 6 -0.5 18t-0.5 18q0 22 1 33z" />
    <glyph glyph-name="numero" unicode="&#x2116;" horiz-adv-x="1167" 
d="M547 0h120v700h-120v-495l-348 495h-119v-700h119v493zM740 522q0 80 56.5 134.5t140.5 54.5t140.5 -54.5t56.5 -134.5t-56.5 -134t-140.5 -54t-140.5 54t-56.5 134zM832 522q0 -47 29.5 -77.5t75.5 -30.5t75 30.5t29 77.5t-29 78t-75 31t-75.5 -31t-29.5 -78z" />
    <glyph glyph-name="published" unicode="&#x2117;" horiz-adv-x="826" 
d="M57 351q0 150 103 255.5t253 105.5q149 0 252.5 -106t103.5 -255q0 -152 -103 -257t-253 -105t-253 105t-103 257zM133 351q0 -121 80.5 -204t199.5 -83t199.5 83t80.5 204q0 119 -81 202.5t-199 83.5q-119 0 -199.5 -83.5t-80.5 -202.5zM447 288h-78v-129h-90v379h168
q67 0 105.5 -32t38.5 -91t-39 -93t-105 -34zM445 458h-76v-90h76q56 0 56 46q0 44 -56 44z" />
    <glyph glyph-name="trademark" unicode="&#x2122;" horiz-adv-x="870" 
d="M23 622v79h301v-79h-109v-314h-86v314h-106zM633 377h-88l-73 151v-220h-86v393h91l111 -234l113 234h89v-393h-85v220z" />
    <glyph glyph-name="Omega" unicode="&#x2126;" horiz-adv-x="716" 
d="M515 103h126v-103h-237v218q76 12 117 65.5t41 124.5q0 87 -57.5 143.5t-145.5 56.5q-87 0 -145.5 -56.5t-58.5 -143.5q0 -71 41.5 -124.5t117.5 -65.5v-218h-237v103h125v45q-70 29 -116 96.5t-46 163.5q0 135 94 219.5t224 84.5q129 0 223.5 -84.5t94.5 -219.5
q0 -95 -46 -162.5t-115 -97.5v-45z" />
    <glyph glyph-name="LeftArrow" unicode="&#x2190;" horiz-adv-x="804" 
d="M358 602l76 -78l-181 -180h505v-109h-503l179 -173l-76 -85l-312 313z" />
    <glyph glyph-name="UpArrow" unicode="&#x2191;" horiz-adv-x="716" 
d="M670 400l-77 -76l-178 178v-502h-114v500l-171 -176l-84 76l312 312z" />
    <glyph glyph-name="RightArrow" unicode="&#x2192;" horiz-adv-x="804" 
d="M46 344h505l-181 180l76 78l312 -312l-312 -313l-76 85l179 173h-503v109z" />
    <glyph glyph-name="DownwArrow" unicode="&#x2193;" horiz-adv-x="716" 
d="M415 701v-502l178 178l77 -76l-312 -312l-312 312l84 76l171 -176v500h114z" />
    <glyph glyph-name="NorthWestArrow" unicode="&#x2196;" horiz-adv-x="669" 
d="M521 521v-108h-253l356 -355l-81 -81l-355 356v-253h-108v441h441z" />
    <glyph glyph-name="NorthEastArrow" unicode="&#x2197;" horiz-adv-x="669" 
d="M45 58l356 355h-253v108h441v-441h-108v253l-355 -356z" />
    <glyph glyph-name="SouthEastArrow" unicode="&#x2198;" horiz-adv-x="669" 
d="M182 0v108h253l-356 355l81 81l355 -356v253h108v-441h-441z" />
    <glyph glyph-name="SouthWestArrow" unicode="&#x2199;" horiz-adv-x="669" 
d="M624 463l-356 -355h253v-108h-441v441h108v-253l355 356z" />
    <glyph glyph-name="partialdiff" unicode="&#x2202;" horiz-adv-x="578" 
d="M268 -11q-86 0 -152 63.5t-66 169.5q0 103 67.5 167.5t155.5 64.5q84 0 134 -46q-4 90 -47 143t-105 53q-70 0 -112 -60l-75 78q73 90 193 90q126 0 194 -103t68 -269q0 -169 -68 -260t-187 -91zM279 348q-49 0 -83.5 -34.5t-34.5 -91.5q0 -60 31 -93.5t77 -33.5
q58 0 90 35t32 99q0 54 -33.5 86.5t-78.5 32.5z" />
    <glyph glyph-name="Delta" unicode="&#x2206;" horiz-adv-x="704" 
d="M70 99l227 601h110l227 -601v-99h-564v99zM520 105l-168 455l-168 -455h336z" />
    <glyph glyph-name="product" unicode="&#x220f;" horiz-adv-x="652" 
d="M572 -194h-110v792h-272v-792h-110v894h492v-894z" />
    <glyph glyph-name="summation" unicode="&#x2211;" horiz-adv-x="502" 
d="M472 594h-294l197 -340l-197 -342h294v-106h-422v101l199 347l-199 346v100h422v-106z" />
    <glyph glyph-name="minus" unicode="&#x2212;" horiz-adv-x="650" 
d="M570 194h-490v105h490v-105z" />
    <glyph glyph-name="radical" unicode="&#x221a;" horiz-adv-x="706" 
d="M40 388v102h185l127 -344l204 554h120l-262 -700h-122l-148 388h-104z" />
    <glyph glyph-name="infinity" unicode="&#x221e;" horiz-adv-x="1130" 
d="M559 349l6 -8l5 7q24 33 44 55.5t50.5 47.5t69 38t84.5 13q110 0 183.5 -75t73.5 -182t-73.5 -181.5t-183.5 -74.5q-49 0 -88 12.5t-70 39.5t-46 45t-42 55l-7 9l-6 -8q-27 -37 -42.5 -55t-47 -45.5t-70.5 -40t-87 -12.5q-109 0 -183 74.5t-74 181.5t74 182t183 75
q49 0 88 -12.5t70.5 -40t46.5 -45.5t42 -55zM671 294l-36 -49l36 -49q36 -50 69.5 -76.5t77.5 -26.5q61 0 102.5 43.5t41.5 108.5t-41.5 108.5t-102.5 43.5q-44 0 -77 -26t-70 -77zM312 397q-61 0 -102.5 -43.5t-41.5 -108.5t41.5 -108.5t102.5 -43.5q44 0 77 26.5t71 77.5
l35 48l-36 49q-37 51 -70 77t-77 26z" />
    <glyph glyph-name="integral" unicode="&#x222b;" horiz-adv-x="350" 
d="M118 -2v528q0 186 198 186l44 -1v-103q-15 1 -26 1q-53 0 -78 -23.5t-25 -76.5v-528q0 -186 -197 -186l-44 1v103q14 -1 26 -1q53 0 77.5 23.5t24.5 76.5z" />
    <glyph glyph-name="approxequal" unicode="&#x2248;" horiz-adv-x="625" 
d="M239 419l148 -35q28 -7 45 -7q40 0 40 43h97q5 -64 -28 -106t-98 -42q-28 0 -56 7l-148 35q-28 7 -46 7q-40 0 -40 -43h-97q-4 64 29 106t98 42q28 0 56 -7zM239 221l148 -36q32 -6 45 -6q40 0 40 43h97q5 -64 -28 -106t-98 -42q-28 0 -56 7l-148 35q-37 7 -46 7
q-40 0 -40 -44h-97q-4 65 29 107t98 42q28 0 56 -7z" />
    <glyph glyph-name="notequal" unicode="&#x2260;" horiz-adv-x="650" 
d="M299 297h-219v105h283l55 88h113l-54 -88h93v-105h-158l-56 -91h214v-105h-278l-62 -101h-114l62 101h-98v105h163z" />
    <glyph glyph-name="lessequal" unicode="&#x2264;" horiz-adv-x="605" 
d="M536 40l-491 173v126l491 174v-121l-366 -116l366 -116v-120zM45 0h491v-105h-491v105z" />
    <glyph glyph-name="greaterequal" unicode="&#x2265;" horiz-adv-x="605" 
d="M560 213l-491 -173v120l366 116l-366 116v121l491 -174v-126zM69 0h491v-105h-491v105z" />
    <glyph glyph-name="BlackSquare" unicode="&#x25a0;" horiz-adv-x="651" 
d="M80 137v491h491v-491h-491z" />
    <glyph glyph-name="UpTriangle" unicode="&#x25b2;" horiz-adv-x="760" 
d="M40 80l340 540l340 -540h-680z" />
    <glyph glyph-name="RightTriangle" unicode="&#x25ba;" horiz-adv-x="660" 
d="M620 350l-540 -340v680z" />
    <glyph glyph-name="DownTriangle" unicode="&#x25bc;" horiz-adv-x="760" 
d="M380 80l-340 540h680z" />
    <glyph glyph-name="LeftTriangle" unicode="&#x25c0;" horiz-adv-x="660" 
d="M580 10l-540 340l540 340v-680z" />
    <glyph glyph-name="Diamond" unicode="&#x25c6;" horiz-adv-x="718" 
d="M40 385l319 319l319 -319l-319 -319z" />
    <glyph glyph-name="lozenge" unicode="&#x25ca;" horiz-adv-x="656" 
d="M60 247l219 453h98l219 -453l-219 -452h-98zM328 561l-148 -314l148 -313l148 313z" />
    <glyph glyph-name="BlackCircle" unicode="&#x25cf;" horiz-adv-x="630" 
d="M315 75q-114 0 -194.5 80.5t-80.5 194.5q0 113 80.5 194t194.5 81q113 0 194 -81t81 -194q0 -114 -81 -194.5t-194 -80.5z" />
    <glyph glyph-name="HeavyBlackHeart" unicode="&#x2764;" horiz-adv-x="646" 
d="M461 626q62 0 108.5 -37t46.5 -119q0 -43 -23.5 -80t-60.5 -68t-76 -63t-76.5 -80t-56.5 -105h-1q-19 57 -56.5 105t-76.5 80t-75.5 63t-60 68t-23.5 80q0 82 46.5 119t108.5 37q103 0 130 -104h15q27 104 131 104z" />
    <glyph glyph-name="i.TRK" horiz-adv-x="254" 
d="M184 0h-114v490h114v-490zM55 641q0 30 21 50.5t51 20.5t51 -20.5t21 -50.5t-21 -51t-51 -21t-51 21t-21 51z" />
    <glyph glyph-name="a.ordn" horiz-adv-x="408" 
d="M166 334q-58 0 -94 31t-36 81q0 55 41 84.5t104 29.5q35 0 87 -13v19q0 31 -21 49.5t-56 18.5q-27 0 -50 -13t-34 -29l-59 52q57 67 149 67q72 0 117 -37t45 -105v-227h-89v30q-40 -38 -104 -38zM126 450q0 -19 16 -30.5t42 -11.5q49 0 84 35v43q-1 0 -13 3t-27.5 5
t-29.5 2q-35 0 -53.5 -12.5t-18.5 -33.5z" />
    <glyph glyph-name="d.ordn" horiz-adv-x="470" 
d="M33 522q0 82 53 135.5t132 53.5q67 0 108 -41v187h90v-515h-88v35q-43 -43 -110 -43q-80 0 -132.5 53t-52.5 135zM328 522q0 48 -28 79.5t-73 31.5t-73.5 -31.5t-28.5 -79.5t28.5 -79t73.5 -31t73 31t28 79z" />
    <glyph glyph-name="e.ordn" horiz-adv-x="425" 
d="M391 499h-266q5 -39 31.5 -62.5t69.5 -23.5q60 0 98 46l61 -54q-62 -71 -157 -71q-86 0 -140.5 51.5t-54.5 134.5q0 82 50.5 136.5t131.5 54.5q85 0 131 -55t46 -128zM216 635q-36 0 -58.5 -20.5t-28.5 -53.5h169q-3 33 -25 53.5t-57 20.5z" />
    <glyph glyph-name="g.ordn" horiz-adv-x="463" 
d="M318 367v21q-36 -38 -104 -38q-78 0 -129 49.5t-51 130.5q0 82 52 131.5t128 49.5q66 0 106 -42v34h88v-327q0 -83 -52 -134t-143 -51q-108 0 -167 76l63 58q37 -55 103 -55q49 0 77.5 26.5t28.5 70.5zM320 530q0 46 -28 74.5t-70 28.5q-41 0 -68.5 -28.5t-27.5 -74.5
q0 -45 27.5 -73t68.5 -28q42 0 70 28t28 73z" />
    <glyph glyph-name="l.ordn" horiz-adv-x="197" 
d="M54 342v515h90v-515h-90z" />
    <glyph glyph-name="m.ordn" horiz-adv-x="666" 
d="M144 532v-190h-90v361h88v-32q40 40 98 40q68 0 108 -49q42 49 115 49q75 0 114.5 -41t39.5 -118v-210h-90v209q0 38 -17.5 59.5t-51.5 21.5q-37 0 -57.5 -25t-20.5 -70v-195h-90v207q0 83 -68 83q-38 0 -58 -26t-20 -74z" />
    <glyph glyph-name="o.ordn" horiz-adv-x="460" 
d="M33 522q0 80 56.5 134.5t140.5 54.5t140.5 -54.5t56.5 -134.5t-56.5 -134t-140.5 -54t-140.5 54t-56.5 134zM125 522q0 -47 29.5 -77.5t75.5 -30.5t75 30.5t29 77.5t-29 78t-75 31t-75.5 -31t-29.5 -78z" />
    <glyph glyph-name="r.ordn" horiz-adv-x="347" 
d="M272 707v-83q-13 1 -16 1q-112 0 -112 -131v-152h-90v361h88v-39q38 44 105 44q15 0 25 -1z" />
    <glyph glyph-name="s.ordn" horiz-adv-x="378" 
d="M214 477l-52 12q-118 27 -118 112q0 50 41.5 80t99.5 30q83 0 146 -57l-56 -57q-47 40 -94 40q-22 0 -35.5 -9.5t-13.5 -23.5q0 -23 38 -32l58 -12q117 -26 117 -113q0 -50 -41 -81.5t-111 -31.5q-51 0 -94 20t-67 49l56 55q50 -51 111 -51q26 0 42 10t16 26q0 24 -43 34
z" />
    <glyph glyph-name="t.ordn" horiz-adv-x="281" 
d="M193 341q-124 0 -124 120v162h-54v80h54v100h89v-100h86v-80h-86v-151q0 -29 12.5 -40.5t41.5 -11.5h31v-78q-24 -1 -50 -1z" />
    <glyph glyph-name="caron.alt" horiz-adv-x="500" 
d="M322 700l-59 -189h-85l27 189h117z" />
    <glyph glyph-name="revcommaaccent" horiz-adv-x="500" 
d="M332 700l-48 -137h-117l72 137h93z" />
    <glyph glyph-name="grave.cap" horiz-adv-x="500" 
d="M243 769l-109 103h146l86 -103h-123z" />
    <glyph glyph-name="acute.cap" horiz-adv-x="500" 
d="M134 769l86 103h146l-109 -103h-123z" />
    <glyph glyph-name="circumflex.cap" horiz-adv-x="500" 
d="M91 769l91 103h136l91 -103h-113l-46 44l-46 -44h-113z" />
    <glyph glyph-name="caron.cap" horiz-adv-x="500" 
d="M409 872l-91 -103h-136l-91 103h113l46 -44l46 44h113z" />
    <glyph glyph-name="tilde.cap" horiz-adv-x="500" 
d="M323 874h80q0 -49 -25 -81.5t-63 -32.5q-21 0 -42 7l-40 15q-27 8 -33 8q-22 0 -24 -24h-80q0 49 25 81.5t63 32.5q21 0 42 -7l40 -15q27 -8 33 -8q22 0 24 24z" />
    <glyph glyph-name="dieresis.cap" horiz-adv-x="500" 
d="M92 820q0 26 18.5 44.5t43.5 18.5q26 0 44.5 -18.5t18.5 -44.5t-18.5 -44.5t-44.5 -18.5q-25 0 -43.5 18.5t-18.5 44.5zM283 820q0 26 18.5 44.5t44.5 18.5q25 0 43.5 -18.5t18.5 -44.5t-18.5 -44.5t-43.5 -18.5q-26 0 -44.5 18.5t-18.5 44.5z" />
    <glyph glyph-name="macron.cap" horiz-adv-x="500" 
d="M130 772v95h239v-95h-239z" />
    <glyph glyph-name="breve.cap" horiz-adv-x="500" 
d="M249 746q-60 0 -96 34.5t-41 91.5h90q5 -38 47 -38t47 38h91q-5 -57 -41.5 -91.5t-96.5 -34.5z" />
    <glyph glyph-name="ring.cap" horiz-adv-x="500" 
d="M148 781q0 44 30 73t70 29q43 0 73.5 -29t30.5 -73q0 -42 -30 -72t-74 -30q-40 0 -70 30.5t-30 71.5zM210 781q0 -16 12 -27.5t28 -11.5t27.5 11.5t11.5 27.5t-11.5 27.5t-27.5 11.5t-28 -11.5t-12 -27.5z" />
    <glyph glyph-name="hungarumlaut.cap" horiz-adv-x="500" 
d="M40 769l81 103h138l-103 -103h-116zM238 769l83 103h138l-109 -103h-112z" />
    <glyph glyph-name="dotaccent.cap" horiz-adv-x="500" 
d="M178 821q0 30 21 51t51 21t51 -21t21 -51t-21 -51t-51 -21t-51 21t-21 51z" />
    <glyph glyph-name="cedilla.cap" horiz-adv-x="500" 
d="M339 11l-64 -148h-115l77 148h102z" />
    <glyph glyph-name="ogonek.cap" horiz-adv-x="500" 
d="M237 5l82 -5q-59 -35 -59 -76q0 -38 55 -38h4v-75q-22 -4 -43 -4q-49 0 -78 24.5t-29 66.5q0 63 68 107z" />
    <glyph glyph-name="commaaccent.cap" horiz-adv-x="500" 
d="M167 -194l48 137h117l-72 -137h-93z" />
    <glyph glyph-name="hyphen.cap" horiz-adv-x="290" 
d="M270 297h-250v105h250v-105z" />
    <glyph glyph-name="exclamdown.cap" horiz-adv-x="324" 
d="M103 490h118v-490h-118v490zM234 640q0 -30 -21 -51t-51 -21t-51 21t-21 51t21 51t51 21t51 -21t21 -51z" />
    <glyph glyph-name="questiondown.cap" horiz-adv-x="535" 
d="M367 641q0 -30 -20.5 -51t-50.5 -21t-51 21t-21 51q0 29 21 50t51 21t50.5 -21t20.5 -50zM236 403v87h118v-183h-33q-62 0 -106 -29t-44 -82q0 -45 32.5 -71.5t78.5 -26.5q99 0 154 98l76 -83q-39 -57 -98 -90.5t-131 -33.5q-100 0 -165.5 58.5t-65.5 150.5
q0 78 50.5 133t133.5 72z" />
    <glyph glyph-name="guilsinglleft.cap" horiz-adv-x="365" 
d="M190 105l-137 245l137 245h125l-139 -245l139 -245h-125z" />
    <glyph glyph-name="guilsinglright.cap" horiz-adv-x="365" 
d="M50 595h125l137 -245l-137 -245h-125l139 245z" />
    <glyph glyph-name="guillemotleft.cap" horiz-adv-x="633" 
d="M190 105l-137 245l137 245h125l-139 -245l139 -245h-125zM458 105l-137 245l137 245h125l-139 -245l139 -245h-125z" />
    <glyph glyph-name="guillemotright.cap" horiz-adv-x="633" 
d="M50 595h125l137 -245l-137 -245h-125l139 245zM318 595h125l137 -245l-137 -245h-125l139 245z" />
    <glyph glyph-name="slash.cap" horiz-adv-x="437" 
d="M133 0h-123l295 700h122z" />
    <glyph glyph-name="backslash.cap" horiz-adv-x="437" 
d="M427 0h-123l-294 700h122z" />
    <glyph glyph-name="endash.cap" horiz-adv-x="500" 
d="M480 298h-460v105h460v-105z" />
    <glyph glyph-name="emdash.cap" horiz-adv-x="1000" 
d="M980 298h-960v105h960v-105z" />
    <glyph glyph-name="periodcentered.cap" horiz-adv-x="290" 
d="M73 350q0 30 21 51t51 21t51 -21t21 -51q0 -29 -21 -50t-51 -21t-51 21t-21 50z" />
    <glyph glyph-name="parenleft.cap" horiz-adv-x="399" 
d="M199 350q0 -221 166 -389l-81 -76q-89 86 -146.5 205t-57.5 260q0 140 57.5 259t146.5 206l80 -75q-165 -157 -165 -390z" />
    <glyph glyph-name="parenright.cap" horiz-adv-x="399" 
d="M200 350q0 221 -166 389l81 76q89 -86 146.5 -205t57.5 -260q0 -140 -57.5 -259t-146.5 -206l-80 75q165 157 165 390z" />
    <glyph glyph-name="bracketleft.cap" horiz-adv-x="384" 
d="M350 -98h-259v895h259v-107h-140v-681h140v-107z" />
    <glyph glyph-name="bracketright.cap" horiz-adv-x="384" 
d="M34 797h259v-895h-259v107h140v681h-140v107z" />
    <glyph glyph-name="braceleft.cap" horiz-adv-x="417" 
d="M264 606v-512q0 -49 19.5 -70t63.5 -21h36v-106h-84q-78 0 -114.5 45t-36.5 114v239h-114v109h114v239q0 70 36.5 115t114.5 45h84v-106h-36q-44 0 -63.5 -21t-19.5 -70z" />
    <glyph glyph-name="braceright.cap" horiz-adv-x="417" 
d="M153 94v512q0 49 -19.5 70t-63.5 21h-36v106h84q78 0 114.5 -45t36.5 -115v-239h114v-109h-114v-239q0 -69 -36.5 -114t-114.5 -45h-84v106h36q44 0 63.5 21t19.5 70z" />
    <glyph glyph-name="numero_s" horiz-adv-x="1517" 
d="M547 0h120v700h-120v-495l-348 495h-119v-700h119v493zM740 522q0 80 56.5 134.5t140.5 54.5t140.5 -54.5t56.5 -134.5t-56.5 -134t-140.5 -54t-140.5 54t-56.5 134zM832 522q0 -47 29.5 -77.5t75.5 -30.5t75 30.5t29 77.5t-29 78t-75 31t-75.5 -31t-29.5 -78zM1353 477
l-52 12q-118 27 -118 112q0 50 41.5 80t99.5 30q83 0 146 -57l-56 -57q-47 40 -94 40q-22 0 -35.5 -9.5t-13.5 -23.5q0 -23 38 -32l58 -12q117 -26 117 -113q0 -50 -41 -81.5t-111 -31.5q-51 0 -94 20t-67 49l56 55q50 -51 111 -51q26 0 42 10t16 26q0 24 -43 34z" />
    <glyph glyph-name="numeroLC" horiz-adv-x="973" 
d="M184 271q0 59 28 93.5t80 34.5q46 0 71.5 -31t25.5 -83v-285h114v285q0 103 -51.5 160t-142.5 57q-81 0 -127 -52v40h-112v-490h114v271zM546 522q0 80 56.5 134.5t140.5 54.5t140.5 -54.5t56.5 -134.5t-56.5 -134t-140.5 -54t-140.5 54t-56.5 134zM638 522
q0 -47 29.5 -77.5t75.5 -30.5t75 30.5t29 77.5t-29 78t-75 31t-75.5 -31t-29.5 -78z" />
    <glyph glyph-name="numeroLC_s" horiz-adv-x="1323" 
d="M184 271q0 59 28 93.5t80 34.5q46 0 71.5 -31t25.5 -83v-285h114v285q0 103 -51.5 160t-142.5 57q-81 0 -127 -52v40h-112v-490h114v271zM546 522q0 80 56.5 134.5t140.5 54.5t140.5 -54.5t56.5 -134.5t-56.5 -134t-140.5 -54t-140.5 54t-56.5 134zM638 522
q0 -47 29.5 -77.5t75.5 -30.5t75 30.5t29 77.5t-29 78t-75 31t-75.5 -31t-29.5 -78zM1159 477l-52 12q-118 27 -118 112q0 50 41.5 80t99.5 30q83 0 146 -57l-56 -57q-47 40 -94 40q-22 0 -35.5 -9.5t-13.5 -23.5q0 -23 38 -32l58 -12q117 -26 117 -113q0 -50 -41 -81.5
t-111 -31.5q-51 0 -94 20t-67 49l56 55q50 -51 111 -51q26 0 42 10t16 26q0 24 -43 34z" />
    <glyph glyph-name="zero.osf" horiz-adv-x="712" 
d="M356 -11q-118 0 -204.5 80.5t-86.5 204.5t86.5 204.5t204.5 80.5t204.5 -80.5t86.5 -204.5t-86.5 -204.5t-204.5 -80.5zM356 450q-73 0 -122 -49.5t-49 -126.5q0 -78 49 -127.5t122 -49.5t122 49.5t49 127.5q0 77 -49 126.5t-122 49.5z" />
    <glyph glyph-name="one.osf" horiz-adv-x="523" 
d="M40 0v108h162v289q-63 -50 -162 -50v104q129 6 173 96h108v-439h162v-108h-443z" />
    <glyph glyph-name="two.osf" horiz-adv-x="548" 
d="M182 108h317v-108h-454v23q0 109 53.5 175t164.5 105l35 13q50 17 67 34t17 41q0 26 -23.5 42.5t-68.5 16.5q-107 0 -163 -103l-76 76q37 63 97.5 99.5t135.5 36.5q94 0 156.5 -45t62.5 -124q0 -112 -151 -169l-56 -20q-31 -11 -45 -17.5t-31.5 -17.5t-25.5 -24.5
t-12 -33.5z" />
    <glyph glyph-name="three.osf" horiz-adv-x="575" 
d="M425 213q41 -20 70.5 -63t29.5 -102q0 -100 -71 -156t-180 -56q-74 0 -138.5 31t-105.5 81l81 81q69 -85 168 -85q55 0 91 29t36 73q0 50 -39.5 76.5t-110.5 26.5h-52v110h41q71 0 107.5 27.5t36.5 74.5q0 45 -33.5 67.5t-80.5 22.5q-90 0 -151 -76l-77 77
q95 107 227 107q97 0 165.5 -49t68.5 -145q0 -97 -83 -152z" />
    <glyph glyph-name="four.osf" horiz-adv-x="602" 
d="M567 108v-108h-97v-153h-120v153h-320v97l329 450h111v-439h97zM350 374l-190 -266h190v266z" />
    <glyph glyph-name="five.osf" horiz-adv-x="591" 
d="M426 74q0 55 -37.5 91.5t-92.5 36.5q-88 0 -125 -79h-108l17 424h410v-108h-300l-9 -171q52 42 128 42q97 0 167 -60t70 -176q0 -105 -73 -171.5t-193 -66.5q-74 0 -133 30t-97 81l83 82q65 -85 156 -85q60 0 98.5 37t38.5 93z" />
    <glyph glyph-name="six.osf" horiz-adv-x="634" 
d="M335 -11q-129 0 -199.5 99t-70.5 269q0 159 79 257t206 98t204 -90l-77 -79q-54 61 -130 61q-66 0 -113.5 -56.5t-51.5 -163.5q61 70 164 70q96 0 164.5 -64t68.5 -168q0 -107 -71 -170t-173 -63zM335 345q-51 0 -87 -33.5t-36 -88.5q0 -53 35.5 -89.5t91.5 -36.5
q53 0 86.5 34t33.5 91q0 55 -34.5 89t-89.5 34z" />
    <glyph glyph-name="seven.osf" horiz-adv-x="549" 
d="M145 316h-115v231h489v-100q-213 -222 -242 -560l-3 -40h-121l3 39q30 330 213 553h-224v-123z" />
    <glyph glyph-name="eight.osf" horiz-adv-x="617" 
d="M309 -11q-111 0 -180 56t-69 150q0 113 99 166q-33 19 -57.5 57t-24.5 94q0 90 65 145t167 55t166.5 -55t64.5 -145q0 -56 -24.5 -94t-57.5 -57q99 -53 99 -166q0 -94 -69 -150t-179 -56zM309 304q-56 0 -92.5 -29t-36.5 -76q0 -49 37 -75.5t92 -26.5t91.5 26.5
t36.5 75.5q0 50 -36.5 77.5t-91.5 27.5zM309 604q-45 0 -78.5 -24.5t-33.5 -72.5q0 -43 30 -68.5t82 -25.5q51 0 81 25.5t30 68.5q0 48 -33.5 72.5t-77.5 24.5z" />
    <glyph glyph-name="nine.osf" horiz-adv-x="627" 
d="M296 560q128 0 197 -98.5t69 -269.5q0 -161 -76.5 -258t-208.5 -97q-127 0 -204 90l77 79q54 -61 130 -61q67 0 115.5 56.5t49.5 163.5q-61 -70 -161 -70q-96 0 -162.5 63.5t-66.5 168.5q0 108 70 170.5t171 62.5zM296 204q51 0 85 33t34 89q0 53 -34 89.5t-90 36.5
q-53 0 -84.5 -34t-31.5 -91q0 -55 32.5 -89t88.5 -34z" />
    <glyph glyph-name="Euro.osf" horiz-adv-x="640" 
d="M78 382h-68v99h83q29 107 103.5 169t182.5 62q135 0 217 -109l-76 -79q-56 80 -143 80q-52 0 -95 -31t-65 -92h214v-99h-234q-1 -11 -1 -33q0 -25 1 -36h234v-99h-214q45 -117 161 -117q86 0 153 76l75 -83q-96 -101 -228 -101q-109 0 -182.5 60t-101.5 165h-84v99h68
q0 6 -0.5 18t-0.5 18q0 22 1 33z" />
    <glyph glyph-name="dollar.osf" horiz-adv-x="661" 
d="M380 -114h-96v107q-138 17 -227 130l81 82q61 -82 146 -101v200q-100 18 -155 70.5t-55 137.5q0 82 59.5 135t150.5 62v106h96v-108q114 -18 200 -107l-83 -88q-54 64 -117 82v-186q113 -18 168.5 -74t55.5 -142q0 -82 -59.5 -136.5t-164.5 -64.5v-105zM484 190
q0 75 -104 98v-190q50 6 77 31t27 61zM194 515q0 -70 90 -90v176q-44 -7 -67 -31.5t-23 -54.5z" />
    <glyph glyph-name="cent.osf" horiz-adv-x="527" 
d="M331 -114h-97v110q-82 19 -135.5 87.5t-53.5 161.5q0 92 53.5 161t135.5 89v109h97v-105q94 -12 159 -95l-79 -76q-39 51 -80 64v-296q46 11 90 72l78 -73q-62 -90 -168 -103v-106zM161 245q0 -47 19.5 -83.5t53.5 -54.5v276q-34 -18 -53.5 -54.5t-19.5 -83.5z" />
    <glyph glyph-name="sterling.osf" horiz-adv-x="632" 
d="M142 309h-92v99h72q-8 41 -8 82q0 57 21 102t55 70t71 37.5t74 12.5q136 0 221 -115l-82 -83q-59 90 -132 90q-49 0 -79 -30.5t-30 -89.5q0 -40 8 -76h187v-99h-167l44 -195h152v123h105v-237h-512v114h134z" />
    <glyph glyph-name="florin.osf" horiz-adv-x="393" 
d="M370 388h-128v-407q0 -92 -50.5 -139t-147.5 -47l-55 1v103q26 -1 37 -1q53 0 78 23.5t25 76.5v390h-83v102h83v36q0 186 197 186l56 -1v-103q-26 1 -38 1q-53 0 -77.5 -23.5t-24.5 -76.5v-19h128v-102z" />
    <glyph glyph-name="yen.osf" horiz-adv-x="624" 
d="M258 283h-179v99h127l-183 318h128l168 -291l157 291h125l-174 -318h130v-99h-179v-69h179v-99h-179v-115h-120v115h-179v99h179v69z" />
    <glyph glyph-name="zero.to" 
d="M556 274q0 -124 -72.5 -204.5t-186.5 -80.5t-184 80t-70 205q0 124 70 204.5t184 80.5t186.5 -80.5t72.5 -204.5zM437 274q0 82 -39 129t-101 47q-63 0 -98.5 -46t-35.5 -130t35.5 -130.5t98.5 -46.5q62 0 101 47.5t39 129.5z" />
    <glyph glyph-name="one.to" 
d="M78 0v108h162v289q-63 -50 -162 -50v104q129 6 173 96h108v-439h162v-108h-443z" />
    <glyph glyph-name="two.to" 
d="M208 108h317v-108h-454v23q0 109 53.5 175t164.5 105l35 13q50 17 67 34t17 41q0 26 -23.5 42.5t-68.5 16.5q-107 0 -163 -103l-76 76q37 63 97.5 99.5t135.5 36.5q94 0 156.5 -45t62.5 -124q0 -112 -151 -169l-56 -20q-31 -11 -45 -17.5t-31.5 -17.5t-25.5 -24.5
t-12 -33.5z" />
    <glyph glyph-name="three.to" 
d="M447 214q41 -20 70.5 -63t29.5 -102q0 -100 -71 -156t-180 -56q-74 0 -138.5 31t-105.5 81l81 81q69 -85 168 -85q55 0 91 29t36 73q0 50 -39.5 76.5t-110.5 26.5h-52v110h41q71 0 107.5 27.5t36.5 74.5q0 45 -33.5 67.5t-80.5 22.5q-90 0 -151 -76l-77 77
q95 107 227 107q97 0 165.5 -49t68.5 -145q0 -97 -83 -152z" />
    <glyph glyph-name="four.to" 
d="M568 108v-108h-97v-153h-120v153h-320v97l329 450h111v-439h97zM351 374l-190 -266h190v266z" />
    <glyph glyph-name="five.to" 
d="M428 73q0 55 -37.5 91.5t-92.5 36.5q-88 0 -125 -79h-108l17 424h410v-108h-300l-9 -171q52 42 128 42q97 0 167 -60t70 -176q0 -105 -73 -171.5t-193 -66.5q-74 0 -133 30t-97 81l83 82q65 -85 156 -85q60 0 98.5 37t38.5 93z" />
    <glyph glyph-name="six.to" 
d="M313 -11q-129 0 -199.5 99t-70.5 269q0 159 79 257t206 98t204 -90l-77 -79q-54 61 -130 61q-66 0 -113.5 -56.5t-51.5 -163.5q61 70 164 70q96 0 164.5 -64t68.5 -168q0 -107 -71 -170t-173 -63zM313 345q-51 0 -87 -33.5t-36 -88.5q0 -53 35.5 -89.5t91.5 -36.5
q53 0 86.5 34t33.5 91q0 55 -34.5 89t-89.5 34z" />
    <glyph glyph-name="seven.to" 
d="M170 316h-115v231h489v-100q-213 -222 -242 -560l-3 -40h-121l3 39q30 330 213 553h-224v-123z" />
    <glyph glyph-name="eight.to" 
d="M300 -11q-111 0 -180 56t-69 150q0 113 99 166q-33 19 -57.5 57t-24.5 94q0 90 65 145t167 55t166.5 -55t64.5 -145q0 -56 -24.5 -94t-57.5 -57q99 -53 99 -166q0 -94 -69 -150t-179 -56zM300 304q-56 0 -92.5 -29t-36.5 -76q0 -49 37 -75.5t92 -26.5t91.5 26.5
t36.5 75.5q0 50 -36.5 77.5t-91.5 27.5zM300 604q-45 0 -78.5 -24.5t-33.5 -72.5q0 -43 30 -68.5t82 -25.5q51 0 81 25.5t30 68.5q0 48 -33.5 72.5t-77.5 24.5z" />
    <glyph glyph-name="nine.to" 
d="M287 560q128 0 197 -98.5t69 -269.5q0 -161 -76.5 -258t-208.5 -97q-127 0 -204 90l77 79q54 -61 130 -61q67 0 115.5 56.5t49.5 163.5q-61 -70 -161 -70q-96 0 -162.5 63.5t-66.5 168.5q0 108 70 170.5t171 62.5zM287 204q51 0 85 33t34 89q0 53 -34 89.5t-90 36.5
q-53 0 -84.5 -34t-31.5 -91q0 -55 32.5 -89t88.5 -34z" />
    <glyph glyph-name="Euro.to" 
d="M90 382h-68v99h83q22 106 83 168.5t162 62.5q136 0 218 -109l-76 -79q-56 80 -143 80q-45 0 -78.5 -34t-41.5 -89h184v-99h-204q-1 -11 -1 -33q0 -25 1 -36h204v-99h-184q11 -54 46.5 -85.5t88.5 -31.5q39 0 85 22t74 54l55 -83q-96 -101 -228 -101q-199 0 -244 225h-84
v99h68q0 6 -0.5 18t-0.5 18q0 22 1 33z" />
    <glyph glyph-name="dollar.to" 
d="M349 -114h-96v107q-126 16 -217 130l81 82q21 -28 35 -43.5t41 -32.5t60 -25v200q-200 50 -200 207q0 80 56 134.5t144 63.5v106h96v-108q62 -10 105 -36.5t85 -70.5l-83 -88q-20 24 -30.5 34.5t-31.5 25.5t-45 22v-186q102 -19 158 -74t56 -134q0 -83 -56 -141.5
t-158 -67.5v-105zM443 190q0 37 -20 61.5t-74 36.5v-190q48 6 71 31.5t23 60.5zM171 515q0 -33 21 -57t61 -33v176q-44 -7 -63 -31t-19 -55z" />
    <glyph glyph-name="cent.to" 
d="M359 -114h-97v110q-82 19 -135.5 87.5t-53.5 161.5q0 92 53.5 161t135.5 89v109h97v-105q94 -12 159 -95l-79 -76q-39 51 -80 64v-296q46 11 90 72l78 -73q-62 -90 -168 -103v-106zM189 245q0 -47 19.5 -83.5t53.5 -54.5v276q-34 -18 -53.5 -54.5t-19.5 -83.5z" />
    <glyph glyph-name="sterling.to" 
d="M136 309h-92v99h72q-8 41 -8 82q0 57 21 102t55 70t71 37.5t74 12.5q136 0 221 -115l-82 -83q-59 90 -132 90q-49 0 -79 -30.5t-30 -89.5q0 -40 8 -76h187v-99h-167l44 -195h152v123h105v-237h-512v114h134z" />
    <glyph glyph-name="florin.to" 
d="M484 388h-128v-407q0 -92 -50.5 -139t-147.5 -47l-55 1v103q26 -1 37 -1q53 0 78 23.5t25 76.5v390h-83v102h83v36q0 186 197 186l56 -1v-103q-26 1 -38 1q-53 0 -77.5 -23.5t-24.5 -76.5v-19h128v-102z" />
    <glyph glyph-name="yen.to" 
d="M246 283h-179v99h127l-183 319h128l168 -292l157 292h125l-174 -319h130v-99h-179v-69h179v-99h-179v-115h-120v115h-179v99h179v69z" />
    <glyph glyph-name="zero.tf" 
d="M425 351q0 253 -125 253t-125 -253q0 -254 125 -254t125 254zM55 351q0 163 62 262t183 99t183 -99t62 -262t-62 -262.5t-183 -99.5t-183 99.5t-62 262.5z" />
    <glyph glyph-name="one.tf" 
d="M66 0v108h174v442q-64 -51 -174 -51v105q60 3 111 26t74 70h108v-592h174v-108h-467z" />
    <glyph glyph-name="two.tf" 
d="M191 108h348v-108h-478v23q0 123 53 199t185 142l18 9q55 27 78.5 56t23.5 75q0 45 -32 72.5t-86 27.5q-56 0 -98.5 -32.5t-65.5 -89.5l-78 78q30 68 94 110t145 42q101 0 171.5 -56t70.5 -158q0 -138 -154 -216l-61 -31q-27 -14 -45.5 -26t-39.5 -29.5t-33 -39.5
t-16 -48z" />
    <glyph glyph-name="three.tf" 
d="M447 366q41 -20 70.5 -63t29.5 -102q0 -100 -71 -156t-180 -56q-74 0 -138.5 31t-105.5 81l81 81q69 -85 168 -85q55 0 91 29t36 73q0 50 -39.5 76.5t-110.5 26.5h-52v110h41q71 0 107.5 27.5t36.5 74.5q0 45 -33.5 67.5t-80.5 22.5q-90 0 -151 -76l-77 77
q95 107 227 107q97 0 165.5 -49t68.5 -145q0 -97 -83 -152z" />
    <glyph glyph-name="four.tf" 
d="M568 262v-108h-97v-154h-120v154h-320v97l329 449h111v-438h97zM351 527l-190 -265h190v265z" />
    <glyph glyph-name="five.tf" 
d="M428 227q0 55 -37.5 91.5t-92.5 36.5q-88 0 -125 -79h-108l17 424h410v-108h-300l-9 -171q52 42 128 42q97 0 167 -60t70 -176q0 -105 -73 -171.5t-193 -66.5q-74 0 -133 30t-97 81l83 82q65 -85 156 -85q60 0 98.5 37t38.5 93z" />
    <glyph glyph-name="six.tf" 
d="M313 -11q-129 0 -199.5 99t-70.5 269q0 159 79 257t206 98t204 -90l-77 -79q-54 61 -130 61q-66 0 -113.5 -56.5t-51.5 -163.5q61 70 164 70q96 0 164.5 -64t68.5 -168q0 -107 -71 -170t-173 -63zM313 345q-51 0 -87 -33.5t-36 -88.5q0 -53 35.5 -89.5t91.5 -36.5
q53 0 86.5 34t33.5 91q0 55 -34.5 89t-89.5 34z" />
    <glyph glyph-name="seven.tf" 
d="M170 469h-115v231h489v-100q-213 -222 -242 -560l-3 -40h-121l3 39q30 330 213 553h-224v-123z" />
    <glyph glyph-name="eight.tf" 
d="M300 -11q-111 0 -180 56t-69 150q0 113 99 166q-33 19 -57.5 57t-24.5 94q0 90 65 145t167 55t166.5 -55t64.5 -145q0 -56 -24.5 -94t-57.5 -57q99 -53 99 -166q0 -94 -69 -150t-179 -56zM300 304q-56 0 -92.5 -29t-36.5 -76q0 -49 37 -75.5t92 -26.5t91.5 26.5
t36.5 75.5q0 50 -36.5 77.5t-91.5 27.5zM300 604q-45 0 -78.5 -24.5t-33.5 -72.5q0 -43 30 -68.5t82 -25.5q51 0 81 25.5t30 68.5q0 48 -33.5 72.5t-77.5 24.5z" />
    <glyph glyph-name="nine.tf" 
d="M287 712q128 0 197 -98.5t69 -269.5q0 -161 -76.5 -258t-208.5 -97q-127 0 -204 90l77 79q54 -61 130 -61q67 0 115.5 56.5t49.5 163.5q-61 -70 -161 -70q-96 0 -162.5 63.5t-66.5 168.5q0 108 70 170.5t171 62.5zM287 356q51 0 85 33t34 89q0 53 -34 89.5t-90 36.5
q-53 0 -84.5 -34t-31.5 -91q0 -55 32.5 -89t88.5 -34z" />
    <glyph glyph-name="Euro.tf" 
d="M90 382h-68v99h83q22 106 83 168.5t162 62.5q136 0 218 -109l-76 -79q-56 80 -143 80q-45 0 -78.5 -34t-41.5 -89h184v-99h-204q-1 -11 -1 -33q0 -25 1 -36h204v-99h-184q11 -54 46.5 -85.5t88.5 -31.5q39 0 85 22t74 54l55 -83q-96 -101 -228 -101q-199 0 -244 225h-84
v99h68q0 6 -0.5 18t-0.5 18q0 22 1 33z" />
    <glyph glyph-name="dollar.tf" 
d="M349 -114h-96v107q-126 16 -217 130l81 82q21 -28 35 -43.5t41 -32.5t60 -25v200q-200 50 -200 207q0 80 56 134.5t144 63.5v106h96v-108q62 -10 105 -36.5t85 -70.5l-83 -88q-20 24 -30.5 34.5t-31.5 25.5t-45 22v-186q102 -19 158 -74t56 -134q0 -83 -56 -141.5
t-158 -67.5v-105zM443 190q0 37 -20 61.5t-74 36.5v-190q48 6 71 31.5t23 60.5zM171 515q0 -33 21 -57t61 -33v176q-44 -7 -63 -31t-19 -55z" />
    <glyph glyph-name="cent.tf" 
d="M359 -114h-97v110q-82 19 -135.5 87.5t-53.5 161.5q0 92 53.5 161t135.5 89v109h97v-105q94 -12 159 -95l-79 -76q-39 51 -80 64v-296q46 11 90 72l78 -73q-62 -90 -168 -103v-106zM189 245q0 -47 19.5 -83.5t53.5 -54.5v276q-34 -18 -53.5 -54.5t-19.5 -83.5z" />
    <glyph glyph-name="sterling.tf" 
d="M136 309h-92v99h72q-8 41 -8 82q0 57 21 102t55 70t71 37.5t74 12.5q136 0 221 -115l-82 -83q-59 90 -132 90q-49 0 -79 -30.5t-30 -89.5q0 -40 8 -76h187v-99h-167l44 -195h152v123h105v-237h-512v114h134z" />
    <glyph glyph-name="florin.tf" 
d="M484 388h-128v-407q0 -92 -50.5 -139t-147.5 -47l-55 1v103q26 -1 37 -1q53 0 78 23.5t25 76.5v390h-83v102h83v36q0 186 197 186l56 -1v-103q-26 1 -38 1q-53 0 -77.5 -23.5t-24.5 -76.5v-19h128v-102z" />
    <glyph glyph-name="yen.tf" 
d="M246 283h-179v99h127l-183 319h128l168 -292l157 292h125l-174 -319h130v-99h-179v-69h179v-99h-179v-115h-120v115h-179v99h179v69z" />
    <glyph glyph-name="A.ss01" horiz-adv-x="674" 
d="M219 700h236l189 -700h-121l-39 142h-294l-39 -142h-121zM366 596h-59l-90 -347h241z" />
    <glyph glyph-name="G.ss01" horiz-adv-x="754" 
d="M573 259h-161v108h279v-367h-118v28q-80 -39 -173 -39q-148 0 -251 101.5t-103 258.5q0 161 102.5 262t258.5 101q175 0 274 -132l-78 -80q-72 103 -194 103q-104 0 -172.5 -72t-68.5 -182q0 -108 69.5 -179.5t176.5 -71.5q93 0 159 58v103z" />
    <glyph glyph-name="I.ss01" horiz-adv-x="477" 
d="M179 592h-114v108h347v-108h-114v-484h114v-108h-347v108h114v484z" />
    <glyph glyph-name="J.ss01" horiz-adv-x="566" 
d="M377 592h-219v108h338v-459q0 -121 -58.5 -186.5t-170.5 -65.5q-108 0 -168.5 66t-60.5 174v21h120v-21q0 -68 31 -100t78 -32q59 0 84.5 35t25.5 109v351z" />
    <glyph glyph-name="K.ss01" horiz-adv-x="632" 
d="M197 0h-117v700h117v-279h77l190 279h127l-226 -330l232 -370h-127l-194 308h-79v-308z" />
    <glyph glyph-name="M.ss01" horiz-adv-x="871" 
d="M330 700l103 -505l106 505h252v-700h-120v591h-33l-130 -591h-150l-127 591h-32v-591h-119v700h250z" />
    <glyph glyph-name="Q.ss01" horiz-adv-x="803" 
d="M46 351q0 153 101.5 257t252.5 104t254 -104t103 -257q0 -154 -103 -258t-254 -104t-252.5 104t-101.5 258zM525 132l-141 141l79 81l140 -140q34 60 34 137q0 107 -66 179t-167 72q-103 0 -169.5 -72t-66.5 -179q0 -109 66.5 -181t169.5 -72q67 0 121 34z" />
    <glyph glyph-name="V.ss01" horiz-adv-x="674" 
d="M308 104h59l161 596h121l-194 -700h-236l-194 700h121z" />
    <glyph glyph-name="W.ss01" horiz-adv-x="972" 
d="M752 0h-211l-54 203l-56 -203h-211l-205 700h126l164 -592h43l76 275l-88 317h106l44 -153l40 153h110l-88 -317l76 -275h43l164 592h126z" />
    <glyph glyph-name="X.ss01" horiz-adv-x="656" 
d="M496 0l-136 304h-64l-136 -304h-125l159 359l-146 341h125l123 -285h64l123 285h125l-146 -341l159 -359h-125z" />
    <glyph glyph-name="a.ss01" horiz-adv-x="522" 
d="M340 390h-247v100h359v-490h-224q-81 0 -129.5 42.5t-48.5 113.5q0 70 49.5 113t128.5 43h112v78zM226 98h114v116h-114q-73 0 -73 -58t73 -58z" />
    <glyph glyph-name="e.ss01" horiz-adv-x="482" 
d="M251 151q-43 0 -74 15v-65h245v-101h-357v312q0 87 53.5 138.5t132.5 51.5t132.5 -50.5t53.5 -125.5t-54.5 -125t-131.5 -50zM251 255q33 0 54 21t21 50t-21 50.5t-54 21.5t-54 -21.5t-21 -50.5t21 -50t54 -21z" />
    <glyph glyph-name="f.ss01" horiz-adv-x="418" 
d="M93 388h-70v102h70v62q0 70 45 115t117 45q73 0 118 -43t45 -112v-11h-114v10q0 24 -13.5 38.5t-35.5 14.5t-35 -16t-13 -42v-61h211v-102h-211v-388h-114v388z" />
    <glyph glyph-name="g.ss01" horiz-adv-x="573" 
d="M282 490h241v-105h-57q39 -49 39 -111q0 -87 -53.5 -142t-123.5 -63l185 -163v-100h-443v102h282l-186 159q-106 90 -106 207q0 92 64.5 154t157.5 62zM392 274q0 46 -31 77.5t-79 31.5q-47 0 -78 -31.5t-31 -77.5t31 -77.5t79 -31.5q47 0 78 31.5t31 77.5z" />
    <glyph glyph-name="h.ss01" horiz-adv-x="562" 
d="M184 700v-210h308v-490h-114v382h-194v-382h-114v700h114z" />
    <glyph glyph-name="j.ss01" horiz-adv-x="293" 
d="M215 490v-684h-225v102h111v582h114zM85 641q0 30 21 50.5t51 20.5t51 -20.5t21 -50.5t-21 -51t-51 -21t-51 21t-21 51z" />
    <glyph glyph-name="k.ss01" horiz-adv-x="503" 
d="M184 0h-114v700h114v-400h73l101 190h121l-129 -245l138 -245h-121l-111 192h-72v-192z" />
    <glyph glyph-name="l.ss01" horiz-adv-x="253" 
d="M183 700v-700h-113v700h113z" />
    <glyph glyph-name="m.ss01" horiz-adv-x="861" 
d="M80 490h701v-490h-114v382h-180v-382h-113v382h-180v-382h-114v490z" />
    <glyph glyph-name="n.ss01" horiz-adv-x="562" 
d="M70 0v490h422v-490h-114v382h-194v-382h-114z" />
    <glyph glyph-name="r.ss01" horiz-adv-x="377" 
d="M342 382h-158v-382h-114v490h272v-108z" />
    <glyph glyph-name="s.ss01" horiz-adv-x="469" 
d="M232 502q115 0 184 -79l-65 -88q-61 64 -120 64q-56 0 -56 -36q0 -23 43 -49l215 -132q0 -80 -50.5 -136.5t-149.5 -56.5q-126 0 -197 92l63 86q66 -75 140 -75q54 0 68 43l-153 89q-94 53 -94 136q0 63 50.5 102.5t121.5 39.5z" />
    <glyph glyph-name="t.ss01" horiz-adv-x="393" 
d="M342 108v-108h-236v388h-83v102h83v137h113v-137h129v-102h-129v-280h123z" />
    <glyph glyph-name="u.ss01" horiz-adv-x="570" 
d="M490 490v-490h-410v490h114v-382h182v382h114z" />
    <glyph glyph-name="y.ss01" horiz-adv-x="530" 
d="M323 -9v-185h-118v185l-200 499h127l133 -357l133 357h127z" />
    <glyph glyph-name="a.ordn.ss01" horiz-adv-x="412" 
d="M74 624v79h283v-361h-179q-61 0 -98 32.5t-37 82.5t38 81.5t97 31.5h89v54h-193zM267 495h-90q-22 0 -35.5 -10.5t-13.5 -27.5t13.5 -27.5t35.5 -10.5h90v76z" />
    <glyph glyph-name="e.ordn.ss01" horiz-adv-x="375" 
d="M194 459q-29 0 -53 12v-52h186v-77h-276v233q0 64 41 100t102 36t102 -35.5t41 -90.5t-41.5 -90.5t-101.5 -35.5zM194 536q23 0 38.5 14.5t15.5 34.5t-15.5 34.5t-38.5 14.5q-24 0 -39 -14.5t-15 -34.5t15 -34.5t39 -14.5z" />
    <glyph glyph-name="g.ordn.ss01" horiz-adv-x="440" 
d="M408 703v-79h-46q31 -36 31 -81q0 -61 -39 -102.5t-101 -49.5l143 -116v-76h-344v79h217l-146 116q-84 65 -84 151q0 67 52 112.5t124 45.5h193zM302 545q0 34 -24.5 56t-62.5 22q-36 0 -61 -22.5t-25 -55.5q0 -34 25.5 -56.5t61.5 -22.5t61 22.5t25 56.5z" />
    <glyph glyph-name="m.ordn.ss01" horiz-adv-x="660" 
d="M607 703v-361h-90v281h-142v-281h-90v281h-141v-281h-90v361h553z" />
    <glyph glyph-name="r.ordn.ss01" horiz-adv-x="289" 
d="M144 623v-281h-90v361h208v-80h-118z" />
    <glyph glyph-name="s.ordn.ss01" horiz-adv-x="374" 
d="M183 711q82 0 142 -55l-51 -65q-5 4 -14.5 10t-13.5 8.5t-11 7t-10 6.5t-8.5 5t-8.5 4t-7.5 2t-8.5 1.5t-8 0.5q-17 0 -26.5 -8t-9.5 -19q0 -18 30 -36l162 -93q-2 -60 -42 -103t-111 -43q-88 0 -155 65l49 63q72 -49 105 -49q42 0 50 32l-117 64q-68 37 -68 98
q0 46 39.5 75t92.5 29z" />
    <glyph glyph-name="t.ordn.ss01" horiz-adv-x="319" 
d="M280 342h-193v281h-71v80h71v100h95v-100h102v-80h-108v-202h104v-79z" />
    <glyph glyph-name="Agrave.ss01" horiz-adv-x="674" 
d="M219 700h236l189 -700h-121l-39 142h-294l-39 -142h-121zM366 596h-59l-90 -347h241zM290 769l-109 103h146l86 -103h-123z" />
    <glyph glyph-name="Aacute.ss01" horiz-adv-x="674" 
d="M219 700h236l189 -700h-121l-39 142h-294l-39 -142h-121zM366 596h-59l-90 -347h241zM261 769l86 103h146l-109 -103h-123z" />
    <glyph glyph-name="Acircumflex.ss01" horiz-adv-x="674" 
d="M219 700h236l189 -700h-121l-39 142h-294l-39 -142h-121zM366 596h-59l-90 -347h241zM178 769l91 103h136l91 -103h-113l-46 44l-46 -44h-113z" />
    <glyph glyph-name="Atilde.ss01" horiz-adv-x="674" 
d="M219 700h236l189 -700h-121l-39 142h-294l-39 -142h-121zM366 596h-59l-90 -347h241zM410 874h80q0 -49 -25 -81.5t-63 -32.5q-21 0 -42 7l-40 15q-27 8 -33 8q-22 0 -24 -24h-80q0 49 25 81.5t63 32.5q21 0 42 -7l40 -15q27 -8 33 -8q22 0 24 24z" />
    <glyph glyph-name="Adieresis.ss01" horiz-adv-x="674" 
d="M219 700h236l189 -700h-121l-39 142h-294l-39 -142h-121zM366 596h-59l-90 -347h241zM179 820q0 26 18.5 44.5t43.5 18.5t44 -18.5t19 -44.5t-19 -44.5t-44 -18.5t-43.5 18.5t-18.5 44.5zM370 820q0 26 19 44.5t44 18.5t43.5 -18.5t18.5 -44.5t-18.5 -44.5t-43.5 -18.5
t-44 18.5t-19 44.5z" />
    <glyph glyph-name="Amacron.ss01" horiz-adv-x="674" 
d="M219 700h236l189 -700h-121l-39 142h-294l-39 -142h-121zM366 596h-59l-90 -347h241zM217 772v95h239v-95h-239z" />
    <glyph glyph-name="Abreve.ss01" horiz-adv-x="674" 
d="M219 700h236l189 -700h-121l-39 142h-294l-39 -142h-121zM366 596h-59l-90 -347h241zM336 746q-60 0 -96 34.5t-41 91.5h90q5 -38 47 -38t47 38h91q-5 -57 -41.5 -91.5t-96.5 -34.5z" />
    <glyph glyph-name="Aring.ss01" horiz-adv-x="674" 
d="M235 761q0 44 30 73t70 29q43 0 73.5 -29t30.5 -73q0 -34 -21 -61h37l189 -700h-121l-39 142h-294l-39 -142h-121l189 700h36q-20 26 -20 61zM366 596h-59l-90 -347h241zM297 761q0 -16 12 -27.5t28 -11.5t27.5 11.5t11.5 27.5t-11.5 27.5t-27.5 11.5t-28 -11.5
t-12 -27.5z" />
    <glyph glyph-name="Aringacute.ss01" horiz-adv-x="674" 
d="M235 761q0 44 30 73t70 29q43 0 73.5 -29t30.5 -73q0 -34 -21 -61h37l189 -700h-121l-39 142h-294l-39 -142h-121l189 700h36q-20 26 -20 61zM366 596h-59l-90 -347h241zM261 892l86 103h146l-109 -103h-123zM297 761q0 -16 12 -27.5t28 -11.5t27.5 11.5t11.5 27.5
t-11.5 27.5t-27.5 11.5t-28 -11.5t-12 -27.5z" />
    <glyph glyph-name="Aogonek.ss01" horiz-adv-x="674" 
d="M455 700l189 -700q-59 -35 -59 -76q0 -38 55 -38h4v-75q-22 -4 -43 -4q-49 0 -78 24.5t-29 66.5q0 59 60 102h-31l-39 142h-294l-39 -142h-121l189 700h236zM366 596h-59l-90 -347h241z" />
    <glyph glyph-name="AE.ss01" horiz-adv-x="893" 
d="M35 0l189 700h600v-107h-335l49 -181h269v-108h-240l53 -197h204v-107h-296l-39 142h-294l-39 -142h-121zM371 596h-59l-90 -347h241z" />
    <glyph glyph-name="AEacute.ss01" horiz-adv-x="893" 
d="M35 0l189 700h600v-107h-335l49 -181h269v-108h-240l53 -197h204v-107h-296l-39 142h-294l-39 -142h-121zM371 596h-59l-90 -347h241zM434 769l86 103h146l-109 -103h-123z" />
    <glyph glyph-name="Ccedilla.ss01" horiz-adv-x="725" 
d="M616 203l75 -82q-91 -113 -226 -129v-128h-112v129q-137 18 -222 115t-85 241q0 162 102.5 262.5t259.5 100.5q176 0 273 -132l-77 -80q-72 103 -194 103q-104 0 -173 -72t-69 -182q0 -108 70 -179.5t176 -71.5q123 0 202 105z" />
    <glyph glyph-name="Gcircumflex.ss01" horiz-adv-x="754" 
d="M573 259h-161v108h279v-367h-118v28q-80 -39 -173 -39q-148 0 -251 101.5t-103 258.5q0 161 102.5 262t258.5 101q175 0 274 -132l-78 -80q-72 103 -194 103q-104 0 -172.5 -72t-68.5 -182q0 -108 69.5 -179.5t176.5 -71.5q93 0 159 58v103zM238 769l91 103h136l91 -103
h-113l-46 44l-46 -44h-113z" />
    <glyph glyph-name="Gbreve.ss01" horiz-adv-x="754" 
d="M573 259h-161v108h279v-367h-118v28q-80 -39 -173 -39q-148 0 -251 101.5t-103 258.5q0 161 102.5 262t258.5 101q175 0 274 -132l-78 -80q-72 103 -194 103q-104 0 -172.5 -72t-68.5 -182q0 -108 69.5 -179.5t176.5 -71.5q93 0 159 58v103zM396 746q-60 0 -96 34.5
t-41 91.5h90q5 -38 47 -38t47 38h91q-5 -57 -41.5 -91.5t-96.5 -34.5z" />
    <glyph glyph-name="Gdotaccent.ss01" horiz-adv-x="754" 
d="M573 259h-161v108h279v-367h-118v28q-80 -39 -173 -39q-148 0 -251 101.5t-103 258.5q0 161 102.5 262t258.5 101q175 0 274 -132l-78 -80q-72 103 -194 103q-104 0 -172.5 -72t-68.5 -182q0 -108 69.5 -179.5t176.5 -71.5q93 0 159 58v103zM325 821q0 30 21 51t51 21
t51 -21t21 -51t-21 -51t-51 -21t-51 21t-21 51z" />
    <glyph glyph-name="Gcommaaccent.ss01" horiz-adv-x="754" 
d="M573 259h-161v108h279v-367h-118v28q-80 -39 -173 -39q-148 0 -251 101.5t-103 258.5q0 161 102.5 262t258.5 101q175 0 274 -132l-78 -80q-72 103 -194 103q-104 0 -172.5 -72t-68.5 -182q0 -108 69.5 -179.5t176.5 -71.5q93 0 159 58v103zM307 -194l48 137h117
l-72 -137h-93z" />
    <glyph glyph-name="Igrave.ss01" horiz-adv-x="477" 
d="M179 592h-114v108h347v-108h-114v-484h114v-108h-347v108h114v484zM189 769l-109 103h146l86 -103h-123z" />
    <glyph glyph-name="Iacute.ss01" horiz-adv-x="477" 
d="M179 592h-114v108h347v-108h-114v-484h114v-108h-347v108h114v484zM160 769l86 103h146l-109 -103h-123z" />
    <glyph glyph-name="Icircumflex.ss01" horiz-adv-x="477" 
d="M179 592h-114v108h347v-108h-114v-484h114v-108h-347v108h114v484zM77 769l91 103h136l91 -103h-113l-46 44l-46 -44h-113z" />
    <glyph glyph-name="Itilde.ss01" horiz-adv-x="477" 
d="M179 592h-114v108h347v-108h-114v-484h114v-108h-347v108h114v484zM309 874h80q0 -49 -25 -81.5t-63 -32.5q-21 0 -42 7l-40 15q-27 8 -33 8q-22 0 -24 -24h-80q0 49 25 81.5t63 32.5q21 0 42 -7l40 -15q27 -8 33 -8q22 0 24 24z" />
    <glyph glyph-name="Idieresis.ss01" horiz-adv-x="477" 
d="M179 592h-114v108h347v-108h-114v-484h114v-108h-347v108h114v484zM78 820q0 26 18.5 44.5t43.5 18.5q26 0 44.5 -18.5t18.5 -44.5t-18.5 -44.5t-44.5 -18.5q-25 0 -43.5 18.5t-18.5 44.5zM269 820q0 26 18.5 44.5t44.5 18.5q25 0 43.5 -18.5t18.5 -44.5t-18.5 -44.5
t-43.5 -18.5q-26 0 -44.5 18.5t-18.5 44.5z" />
    <glyph glyph-name="Imacron.ss01" horiz-adv-x="477" 
d="M179 592h-114v108h347v-108h-114v-484h114v-108h-347v108h114v484zM116 772v95h239v-95h-239z" />
    <glyph glyph-name="Ibreve.ss01" horiz-adv-x="477" 
d="M179 592h-114v108h347v-108h-114v-484h114v-108h-347v108h114v484zM235 746q-60 0 -96 34.5t-41 91.5h90q5 -38 47 -38t47 38h91q-5 -57 -41.5 -91.5t-96.5 -34.5z" />
    <glyph glyph-name="Idotaccent.ss01" horiz-adv-x="477" 
d="M179 592h-114v108h347v-108h-114v-484h114v-108h-347v108h114v484zM164 821q0 30 21 51t51 21t51 -21t21 -51t-21 -51t-51 -21t-51 21t-21 51z" />
    <glyph glyph-name="Iogonek.ss01" horiz-adv-x="477" 
d="M412 0h-98q-59 -35 -59 -76q0 -38 55 -38h4v-75q-22 -4 -43 -4q-49 0 -78 24.5t-29 66.5q0 59 60 102h-159v108h114v484h-114v108h347v-108h-114v-484h114v-108z" />
    <glyph glyph-name="IJ.ss01" horiz-adv-x="1043" 
d="M179 592h-114v108h347v-108h-114v-484h114v-108h-347v108h114v484zM854 592h-219v108h338v-459q0 -121 -58.5 -186.5t-170.5 -65.5q-108 0 -168.5 66t-60.5 174v21h120v-21q0 -68 31 -100t78 -32q59 0 84.5 35t25.5 109v351z" />
    <glyph glyph-name="Jcircumflex.ss01" horiz-adv-x="566" 
d="M377 592h-219v108h338v-459q0 -121 -58.5 -186.5t-170.5 -65.5q-108 0 -168.5 66t-60.5 174v21h120v-21q0 -68 31 -100t78 -32q59 0 84.5 35t25.5 109v351zM168 769l91 103h136l91 -103h-113l-46 44l-46 -44h-113z" />
    <glyph glyph-name="Kcommaaccent.ss01" horiz-adv-x="632" 
d="M197 0h-117v700h117v-279h77l190 279h127l-226 -330l232 -370h-127l-194 308h-79v-308zM223 -194l48 137h117l-72 -137h-93z" />
    <glyph glyph-name="Scedilla.ss01" horiz-adv-x="661" 
d="M374 290l-85 14q-97 16 -151 69.5t-54 137.5q0 91 72 146t175 55q153 0 259 -112l-83 -88q-76 92 -181 92q-60 0 -91 -27t-31 -63q0 -75 111 -94l70 -12q219 -38 219 -214q0 -78 -54 -132t-150 -68v-130h-112v128q-142 18 -231 131l81 82q38 -50 87.5 -79t125.5 -29
q64 0 98.5 26.5t34.5 68.5q0 79 -110 98z" />
    <glyph glyph-name="uni0162.ss01" horiz-adv-x="609" 
d="M35 592v108h539v-108h-210v-592h-3v-136h-112v136h-4v592h-210z" />
    <glyph glyph-name="Wgrave.ss01" horiz-adv-x="972" 
d="M752 0h-211l-54 203l-56 -203h-211l-205 700h126l164 -592h43l76 275l-88 317h106l44 -153l40 153h110l-88 -317l76 -275h43l164 592h126zM439 769l-109 103h146l86 -103h-123z" />
    <glyph glyph-name="Wacute.ss01" horiz-adv-x="972" 
d="M752 0h-211l-54 203l-56 -203h-211l-205 700h126l164 -592h43l76 275l-88 317h106l44 -153l40 153h110l-88 -317l76 -275h43l164 592h126zM410 769l86 103h146l-109 -103h-123z" />
    <glyph glyph-name="Wcircumflex.ss01" horiz-adv-x="972" 
d="M752 0h-211l-54 203l-56 -203h-211l-205 700h126l164 -592h43l76 275l-88 317h106l44 -153l40 153h110l-88 -317l76 -275h43l164 592h126zM327 769l91 103h136l91 -103h-113l-46 44l-46 -44h-113z" />
    <glyph glyph-name="Wdieresis.ss01" horiz-adv-x="972" 
d="M752 0h-211l-54 203l-56 -203h-211l-205 700h126l164 -592h43l76 275l-88 317h106l44 -153l40 153h110l-88 -317l76 -275h43l164 592h126zM328 820q0 26 18.5 44.5t43.5 18.5q26 0 44.5 -18.5t18.5 -44.5t-18.5 -44.5t-44.5 -18.5q-25 0 -43.5 18.5t-18.5 44.5zM519 820
q0 26 18.5 44.5t44.5 18.5q25 0 43.5 -18.5t18.5 -44.5t-18.5 -44.5t-43.5 -18.5q-26 0 -44.5 18.5t-18.5 44.5z" />
    <glyph glyph-name="agrave.ss01" horiz-adv-x="522" 
d="M340 390h-247v100h359v-490h-224q-81 0 -129.5 42.5t-48.5 113.5q0 70 49.5 113t128.5 43h112v78zM226 98h114v116h-114q-73 0 -73 -58t73 -58zM274 569l-119 131h140l91 -131h-112z" />
    <glyph glyph-name="aacute.ss01" horiz-adv-x="522" 
d="M340 390h-247v100h359v-490h-224q-81 0 -129.5 42.5t-48.5 113.5q0 70 49.5 113t128.5 43h112v78zM226 98h114v116h-114q-73 0 -73 -58t73 -58zM175 569l91 131h140l-119 -131h-112z" />
    <glyph glyph-name="acircumflex.ss01" horiz-adv-x="522" 
d="M340 390h-247v100h359v-490h-224q-81 0 -129.5 42.5t-48.5 113.5q0 70 49.5 113t128.5 43h112v78zM226 98h114v116h-114q-73 0 -73 -58t73 -58zM110 569l97 131h129l97 -131h-112l-50 60l-50 -60h-111z" />
    <glyph glyph-name="atilde.ss01" horiz-adv-x="522" 
d="M340 390h-247v100h359v-490h-224q-81 0 -129.5 42.5t-48.5 113.5q0 70 49.5 113t128.5 43h112v78zM226 98h114v116h-114q-73 0 -73 -58t73 -58zM344 700h80q0 -49 -25 -81.5t-63 -32.5q-21 0 -42 7l-40 15q-27 8 -33 8q-22 0 -24 -24h-80q0 49 25 81.5t63 32.5
q21 0 42 -7l40 -15q27 -8 33 -8q22 0 24 24z" />
    <glyph glyph-name="adieresis.ss01" horiz-adv-x="522" 
d="M340 390h-247v100h359v-490h-224q-81 0 -129.5 42.5t-48.5 113.5q0 70 49.5 113t128.5 43h112v78zM226 98h114v116h-114q-73 0 -73 -58t73 -58zM113 649q0 26 18.5 44.5t43.5 18.5t44 -19t19 -44t-19 -44t-44 -19t-43.5 18.5t-18.5 44.5zM304 649q0 25 19 44t44 19
t43.5 -18.5t18.5 -44.5t-18.5 -44.5t-43.5 -18.5t-44 19t-19 44z" />
    <glyph glyph-name="amacron.ss01" horiz-adv-x="522" 
d="M340 390h-247v100h359v-490h-224q-81 0 -129.5 42.5t-48.5 113.5q0 70 49.5 113t128.5 43h112v78zM226 98h114v116h-114q-73 0 -73 -58t73 -58zM151 605v95h239v-95h-239z" />
    <glyph glyph-name="abreve.ss01" horiz-adv-x="522" 
d="M340 390h-247v100h359v-490h-224q-81 0 -129.5 42.5t-48.5 113.5q0 70 49.5 113t128.5 43h112v78zM226 98h114v116h-114q-73 0 -73 -58t73 -58zM270 558q-61 0 -100.5 40t-43.5 102h89q5 -51 55 -51t56 51h89q-5 -63 -44 -102.5t-101 -39.5z" />
    <glyph glyph-name="aring.ss01" horiz-adv-x="522" 
d="M340 390h-247v100h359v-490h-224q-81 0 -129.5 42.5t-48.5 113.5q0 70 49.5 113t128.5 43h112v78zM226 98h114v116h-114q-73 0 -73 -58t73 -58zM271 712q34 0 57.5 -22.5t23.5 -57.5q0 -33 -24 -56t-57 -23t-57 23t-24 56q0 35 23.5 57.5t57.5 22.5zM271 609
q10 0 16.5 6.5t6.5 16.5t-6.5 16t-16.5 6t-16.5 -6t-6.5 -16t6.5 -16.5t16.5 -6.5z" />
    <glyph glyph-name="aringacute.ss01" horiz-adv-x="522" 
d="M340 390h-247v100h359v-490h-224q-81 0 -129.5 42.5t-48.5 113.5q0 70 49.5 113t128.5 43h112v78zM226 98h114v116h-114q-73 0 -73 -58t73 -58zM271 712q34 0 57.5 -22.5t23.5 -57.5q0 -33 -24 -56t-57 -23t-57 23t-24 56q0 35 23.5 57.5t57.5 22.5zM271 609
q10 0 16.5 6.5t6.5 16.5t-6.5 16t-16.5 6t-16.5 -6t-6.5 -16t6.5 -16.5t16.5 -6.5zM225 769l91 131h140l-119 -131h-112z" />
    <glyph glyph-name="aogonek.ss01" horiz-adv-x="522" 
d="M452 490v-490q-59 -35 -59 -76q0 -38 55 -38h4v-75q-22 -4 -43 -4q-49 0 -78 24.5t-29 66.5q0 59 60 102h-134q-81 0 -129.5 42.5t-48.5 113.5q0 70 49.5 113t128.5 43h112v78h-247v100h359zM226 98h114v116h-114q-73 0 -73 -58t73 -58z" />
    <glyph glyph-name="ae.ss01" horiz-adv-x="762" 
d="M452 101h245v-101h-484q-72 0 -117.5 39t-45.5 108q0 68 46.5 107.5t116.5 39.5h127v96h-247v100h461q72 0 117.5 -39t45.5 -108q0 -68 -46.5 -107.5t-116.5 -39.5h-102v-95zM340 98v98h-130q-27 0 -42 -13.5t-15 -35.5q0 -23 15 -36t42 -13h130zM557 391h-105v-97h105
q27 0 42 13.5t15 35.5q0 48 -57 48z" />
    <glyph glyph-name="aeacute.ss01" horiz-adv-x="762" 
d="M452 101h245v-101h-484q-72 0 -117.5 39t-45.5 108q0 68 46.5 107.5t116.5 39.5h127v96h-247v100h461q72 0 117.5 -39t45.5 -108q0 -68 -46.5 -107.5t-116.5 -39.5h-102v-95zM340 98v98h-130q-27 0 -42 -13.5t-15 -35.5q0 -23 15 -36t42 -13h130zM557 391h-105v-97h105
q27 0 42 13.5t15 35.5q0 48 -57 48zM291 568l91 131h140l-119 -131h-112z" />
    <glyph glyph-name="ccedilla.ss01" horiz-adv-x="527" 
d="M294 398q-58 0 -95.5 -43t-37.5 -110t38 -110t96 -43q43 0 70.5 18.5t55.5 57.5l78 -73q-56 -81 -152 -100v-131h-112v132q-83 19 -136.5 87.5t-53.5 161.5q0 109 72 183t174 74q123 0 199 -98l-79 -76q-53 70 -117 70z" />
    <glyph glyph-name="egrave.ss01" horiz-adv-x="482" 
d="M251 151q-43 0 -74 15v-65h245v-101h-357v312q0 87 53.5 138.5t132.5 51.5t132.5 -50.5t53.5 -125.5t-54.5 -125t-131.5 -50zM251 255q33 0 54 21t21 50t-21 50.5t-54 21.5t-54 -21.5t-21 -50.5t21 -50t54 -21zM254 569l-119 131h140l91 -131h-112z" />
    <glyph glyph-name="eacute.ss01" horiz-adv-x="482" 
d="M251 151q-43 0 -74 15v-65h245v-101h-357v312q0 87 53.5 138.5t132.5 51.5t132.5 -50.5t53.5 -125.5t-54.5 -125t-131.5 -50zM251 255q33 0 54 21t21 50t-21 50.5t-54 21.5t-54 -21.5t-21 -50.5t21 -50t54 -21zM155 569l91 131h140l-119 -131h-112z" />
    <glyph glyph-name="ecircumflex.ss01" horiz-adv-x="482" 
d="M251 151q-43 0 -74 15v-65h245v-101h-357v312q0 87 53.5 138.5t132.5 51.5t132.5 -50.5t53.5 -125.5t-54.5 -125t-131.5 -50zM251 255q33 0 54 21t21 50t-21 50.5t-54 21.5t-54 -21.5t-21 -50.5t21 -50t54 -21zM90 569l97 131h129l97 -131h-112l-50 60l-50 -60h-111z" />
    <glyph glyph-name="ecaron.ss01" horiz-adv-x="482" 
d="M251 151q-43 0 -74 15v-65h245v-101h-357v312q0 87 53.5 138.5t132.5 51.5t132.5 -50.5t53.5 -125.5t-54.5 -125t-131.5 -50zM251 255q33 0 54 21t21 50t-21 50.5t-54 21.5t-54 -21.5t-21 -50.5t21 -50t54 -21zM419 700l-97 -131h-140l-97 131h110l56 -65l56 65h112z" />
    <glyph glyph-name="edieresis.ss01" horiz-adv-x="482" 
d="M251 151q-43 0 -74 15v-65h245v-101h-357v312q0 87 53.5 138.5t132.5 51.5t132.5 -50.5t53.5 -125.5t-54.5 -125t-131.5 -50zM251 255q33 0 54 21t21 50t-21 50.5t-54 21.5t-54 -21.5t-21 -50.5t21 -50t54 -21zM93 649q0 26 18.5 44.5t43.5 18.5t44 -19t19 -44t-19 -44
t-44 -19t-43.5 18.5t-18.5 44.5zM284 649q0 25 19 44t44 19t43.5 -18.5t18.5 -44.5t-18.5 -44.5t-43.5 -18.5t-44 19t-19 44z" />
    <glyph glyph-name="emacron.ss01" horiz-adv-x="482" 
d="M251 151q-43 0 -74 15v-65h245v-101h-357v312q0 87 53.5 138.5t132.5 51.5t132.5 -50.5t53.5 -125.5t-54.5 -125t-131.5 -50zM251 255q33 0 54 21t21 50t-21 50.5t-54 21.5t-54 -21.5t-21 -50.5t21 -50t54 -21zM131 605v95h239v-95h-239z" />
    <glyph glyph-name="ebreve.ss01" horiz-adv-x="482" 
d="M251 151q-43 0 -74 15v-65h245v-101h-357v312q0 87 53.5 138.5t132.5 51.5t132.5 -50.5t53.5 -125.5t-54.5 -125t-131.5 -50zM251 255q33 0 54 21t21 50t-21 50.5t-54 21.5t-54 -21.5t-21 -50.5t21 -50t54 -21zM250 558q-61 0 -100.5 40t-43.5 102h89q5 -51 55 -51t56 51
h89q-5 -63 -44 -102.5t-101 -39.5z" />
    <glyph glyph-name="edotaccent.ss01" horiz-adv-x="482" 
d="M251 151q-43 0 -74 15v-65h245v-101h-357v312q0 87 53.5 138.5t132.5 51.5t132.5 -50.5t53.5 -125.5t-54.5 -125t-131.5 -50zM251 255q33 0 54 21t21 50t-21 50.5t-54 21.5t-54 -21.5t-21 -50.5t21 -50t54 -21zM179 640q0 30 21 51t51 21t51 -21t21 -51t-21 -51t-51 -21
t-51 21t-21 51z" />
    <glyph glyph-name="eogonek.ss01" horiz-adv-x="482" 
d="M422 101v-101q-59 -35 -59 -76q0 -38 55 -38h4v-75q-22 -4 -43 -4q-49 0 -78 24.5t-29 66.5q0 59 60 102h-267v312q0 87 53.5 138.5t132.5 51.5t132.5 -50.5t53.5 -125.5t-54.5 -125t-131.5 -50q-43 0 -74 15v-65h245zM251 255q33 0 54 21t21 50t-21 50.5t-54 21.5
t-54 -21.5t-21 -50.5t21 -50t54 -21z" />
    <glyph glyph-name="gcircumflex.ss01" horiz-adv-x="573" 
d="M282 490h241v-105h-57q39 -49 39 -111q0 -87 -53.5 -142t-123.5 -63l185 -163v-100h-443v102h282l-186 159q-106 90 -106 207q0 92 64.5 154t157.5 62zM392 274q0 46 -31 77.5t-79 31.5q-47 0 -78 -31.5t-31 -77.5t31 -77.5t79 -31.5q47 0 78 31.5t31 77.5zM145 569
l97 131h129l97 -131h-112l-50 60l-50 -60h-111z" />
    <glyph glyph-name="gbreve.ss01" horiz-adv-x="573" 
d="M282 490h241v-105h-57q39 -49 39 -111q0 -87 -53.5 -142t-123.5 -63l185 -163v-100h-443v102h282l-186 159q-106 90 -106 207q0 92 64.5 154t157.5 62zM392 274q0 46 -31 77.5t-79 31.5q-47 0 -78 -31.5t-31 -77.5t31 -77.5t79 -31.5q47 0 78 31.5t31 77.5zM305 558
q-61 0 -100.5 40t-43.5 102h89q5 -51 55 -51t56 51h89q-5 -63 -44 -102.5t-101 -39.5z" />
    <glyph glyph-name="gdotaccent.ss01" horiz-adv-x="573" 
d="M282 490h241v-105h-57q39 -49 39 -111q0 -87 -53.5 -142t-123.5 -63l185 -163v-100h-443v102h282l-186 159q-106 90 -106 207q0 92 64.5 154t157.5 62zM392 274q0 46 -31 77.5t-79 31.5q-47 0 -78 -31.5t-31 -77.5t31 -77.5t79 -31.5q47 0 78 31.5t31 77.5zM234 640
q0 30 21 51t51 21t51 -21t21 -51t-21 -51t-51 -21t-51 21t-21 51z" />
    <glyph glyph-name="gcommaaccent.ss01" horiz-adv-x="573" 
d="M282 490h241v-105h-57q39 -49 39 -111q0 -87 -53.5 -142t-123.5 -63l185 -163v-100h-443v102h282l-186 159q-106 90 -106 207q0 92 64.5 154t157.5 62zM392 274q0 46 -31 77.5t-79 31.5q-47 0 -78 -31.5t-31 -77.5t31 -77.5t79 -31.5q47 0 78 31.5t31 77.5zM412 700
l-48 -137h-117l72 137h93z" />
    <glyph glyph-name="hcircumflex.ss01" horiz-adv-x="562" 
d="M184 700v-210h308v-490h-114v382h-194v-382h-114v700h114zM-31 769l91 103h136l91 -103h-113l-46 44l-46 -44h-113z" />
    <glyph glyph-name="hbar.ss01" horiz-adv-x="562" 
d="M184 545v-55h308v-490h-114v382h-194v-382h-114v545h-62v89h62v66h114v-66h168v-89h-168z" />
    <glyph glyph-name="ij.ss01" horiz-adv-x="547" 
d="M184 0h-114v490h114v-490zM55 641q0 30 21 50.5t51 20.5t51 -20.5t21 -50.5t-21 -51t-51 -21t-51 21t-21 51zM469 490v-684h-225v102h111v582h114zM339 641q0 30 21 50.5t51 20.5t51 -20.5t21 -50.5t-21 -51t-51 -21t-51 21t-21 51z" />
    <glyph glyph-name="dotlessj.ss01" horiz-adv-x="293" 
d="M215 490v-684h-225v102h111v582h114z" />
    <glyph glyph-name="jcircumflex.ss01" horiz-adv-x="293" 
d="M215 490v-684h-225v102h111v582h114zM-2 569l97 131h129l97 -131h-112l-50 60l-50 -60h-111z" />
    <glyph glyph-name="kcommaaccent.ss01" horiz-adv-x="503" 
d="M184 0h-114v700h114v-400h73l101 190h121l-129 -245l138 -245h-121l-111 192h-72v-192zM169 -194l48 137h117l-72 -137h-93z" />
    <glyph glyph-name="kgreenlandic.ss01" horiz-adv-x="503" 
d="M184 0h-114v490h114v-190h73l101 190h121l-129 -245l138 -245h-121l-111 192h-72v-192z" />
    <glyph glyph-name="lacute.ss01" horiz-adv-x="253" 
d="M183 700v-700h-113v700h113zM66 769l86 103h146l-109 -103h-123z" />
    <glyph glyph-name="lcaron.ss01" horiz-adv-x="253" 
d="M183 700v-700h-113v700h113zM384 700l-59 -189h-85l27 189h117z" />
    <glyph glyph-name="lcommaaccent.ss01" horiz-adv-x="253" 
d="M183 700v-700h-113v700h113zM23 -194l48 137h117l-72 -137h-93z" />
    <glyph glyph-name="lslash.ss01" horiz-adv-x="254" 
d="M183 340v-340h-113v283l-75 -38v107l75 38v310h113v-253l76 39v-107z" />
    <glyph glyph-name="ldot.ss01" horiz-adv-x="336" 
d="M184 0h-114v700h114v-700zM225 349q0 30 21 51t51 21t51 -21t21 -51t-21 -51t-51 -21t-51 21t-21 51z" />
    <glyph glyph-name="nacute.ss01" horiz-adv-x="562" 
d="M70 0v490h422v-490h-114v382h-194v-382h-114zM185 569l91 131h140l-119 -131h-112z" />
    <glyph glyph-name="ncaron.ss01" horiz-adv-x="562" 
d="M70 0v490h422v-490h-114v382h-194v-382h-114zM449 700l-97 -131h-140l-97 131h110l56 -65l56 65h112z" />
    <glyph glyph-name="ntilde.ss01" horiz-adv-x="562" 
d="M70 0v490h422v-490h-114v382h-194v-382h-114zM354 700h80q0 -49 -25 -81.5t-63 -32.5q-21 0 -42 7l-40 15q-27 8 -33 8q-22 0 -24 -24h-80q0 49 25 81.5t63 32.5q21 0 42 -7l40 -15q27 -8 33 -8q22 0 24 24z" />
    <glyph glyph-name="ncommaaccent.ss01" horiz-adv-x="562" 
d="M70 0v490h422v-490h-114v382h-194v-382h-114zM179 -194l48 137h117l-72 -137h-93z" />
    <glyph glyph-name="oe.ss01" horiz-adv-x="848" 
d="M620 157q-46 0 -80 17q-12 -39 -35 -72h284v-102h-491q-108 0 -180.5 70.5t-72.5 179.5t73 180.5t180 71.5q102 0 176 -68q51 68 146 68q78 0 130.5 -49t52.5 -124q0 -73 -53.5 -122.5t-129.5 -49.5zM161 250q0 -66 38 -106.5t99 -40.5q60 0 98 40.5t38 106.5t-38 107
t-98 41t-98.5 -41t-38.5 -107zM620 261q30 0 49.5 20t19.5 48t-19.5 48.5t-49.5 20.5q-31 0 -50 -20t-19 -49t19 -48.5t50 -19.5z" />
    <glyph glyph-name="eng.ss01" horiz-adv-x="562" 
d="M70 0v490h422v-684h-225v102h111v474h-194v-382h-114z" />
    <glyph glyph-name="racute.ss01" horiz-adv-x="377" 
d="M342 382h-158v-382h-114v490h272v-108zM150 569l91 131h140l-119 -131h-112z" />
    <glyph glyph-name="rcaron.ss01" horiz-adv-x="377" 
d="M342 382h-158v-382h-114v490h272v-108zM372 700l-97 -131h-140l-97 131h110l56 -65l56 65h112z" />
    <glyph glyph-name="rcommaaccent.ss01" horiz-adv-x="377" 
d="M342 382h-158v-382h-114v490h272v-108zM23 -194l48 137h117l-72 -137h-93z" />
    <glyph glyph-name="sacute.ss01" horiz-adv-x="469" 
d="M232 502q115 0 184 -79l-65 -88q-61 64 -120 64q-56 0 -56 -36q0 -23 43 -49l215 -132q0 -80 -50.5 -136.5t-149.5 -56.5q-126 0 -197 92l63 86q66 -75 140 -75q54 0 68 43l-153 89q-94 53 -94 136q0 63 50.5 102.5t121.5 39.5zM143 569l91 131h140l-119 -131h-112z" />
    <glyph glyph-name="scircumflex.ss01" horiz-adv-x="469" 
d="M232 502q115 0 184 -79l-65 -88q-61 64 -120 64q-56 0 -56 -36q0 -23 43 -49l215 -132q0 -80 -50.5 -136.5t-149.5 -56.5q-126 0 -197 92l63 86q66 -75 140 -75q54 0 68 43l-153 89q-94 53 -94 136q0 63 50.5 102.5t121.5 39.5zM78 569l97 131h129l97 -131h-112l-50 60
l-50 -60h-111z" />
    <glyph glyph-name="scaron.ss01" horiz-adv-x="469" 
d="M232 502q115 0 184 -79l-65 -88q-61 64 -120 64q-56 0 -56 -36q0 -23 43 -49l215 -132q0 -80 -50.5 -136.5t-149.5 -56.5q-126 0 -197 92l63 86q66 -75 140 -75q54 0 68 43l-153 89q-94 53 -94 136q0 63 50.5 102.5t121.5 39.5zM407 700l-97 -131h-140l-97 131h110
l56 -65l56 65h112z" />
    <glyph glyph-name="scedilla.ss01" horiz-adv-x="469" 
d="M232 502q115 0 184 -79l-65 -88q-61 64 -120 64q-56 0 -56 -36q0 -23 43 -49l215 -132q0 -69 -38.5 -122.5t-114.5 -66.5v-129h-112v132q-81 18 -132 85l63 86q66 -75 140 -75q54 0 68 43l-153 89q-94 53 -94 136q0 63 50.5 102.5t121.5 39.5z" />
    <glyph glyph-name="scommaaccent.ss01" horiz-adv-x="469" 
d="M232 502q115 0 184 -79l-65 -88q-61 64 -120 64q-56 0 -56 -36q0 -23 43 -49l215 -132q0 -80 -50.5 -136.5t-149.5 -56.5q-126 0 -197 92l63 86q66 -75 140 -75q54 0 68 43l-153 89q-94 53 -94 136q0 63 50.5 102.5t121.5 39.5zM141 -194l48 137h117l-72 -137h-93z" />
    <glyph glyph-name="germandbls.ss01" horiz-adv-x="630" 
d="M341 307h-72v106l133 180h-215v-593h-117v700h469v-102l-140 -185q76 -6 131 -61t55 -139q0 -91 -63 -152t-165 -61h-88v116h72q57 0 90 24.5t33 72.5q0 47 -32.5 70.5t-90.5 23.5z" />
    <glyph glyph-name="tcaron.ss01" horiz-adv-x="393" 
d="M342 108v-108h-236v388h-83v102h83v137h113v-137h129v-102h-129v-280h123zM412 753l-59 -189h-85l27 189h117z" />
    <glyph glyph-name="tcommaaccent.ss01" horiz-adv-x="393" 
d="M342 108v-108h-236v388h-83v102h83v137h113v-137h129v-102h-129v-280h123zM130 -194l48 137h117l-72 -137h-93z" />
    <glyph glyph-name="tbar.ss01" horiz-adv-x="393" 
d="M342 108v-108h-236v213h-83v89h83v86h-83v102h83v137h113v-137h129v-102h-129v-86h129v-89h-129v-105h123z" />
    <glyph glyph-name="uni0163.ss01" horiz-adv-x="393" 
d="M342 108v-108h-73v-136h-112v136h-51v388h-83v102h83v137h113v-137h129v-102h-129v-280h123z" />
    <glyph glyph-name="ugrave.ss01" horiz-adv-x="570" 
d="M490 490v-490h-410v490h114v-382h182v382h114zM288 569l-119 131h140l91 -131h-112z" />
    <glyph glyph-name="uacute.ss01" horiz-adv-x="570" 
d="M490 490v-490h-410v490h114v-382h182v382h114zM189 569l91 131h140l-119 -131h-112z" />
    <glyph glyph-name="ucircumflex.ss01" horiz-adv-x="570" 
d="M490 490v-490h-410v490h114v-382h182v382h114zM124 569l97 131h129l97 -131h-112l-50 60l-50 -60h-111z" />
    <glyph glyph-name="utilde.ss01" horiz-adv-x="570" 
d="M490 490v-490h-410v490h114v-382h182v382h114zM358 700h80q0 -49 -25 -81.5t-63 -32.5q-21 0 -42 7l-40 15q-27 8 -33 8q-22 0 -24 -24h-80q0 49 25 81.5t63 32.5q21 0 42 -7l40 -15q27 -8 33 -8q22 0 24 24z" />
    <glyph glyph-name="udieresis.ss01" horiz-adv-x="570" 
d="M490 490v-490h-410v490h114v-382h182v382h114zM127 649q0 26 18.5 44.5t43.5 18.5t44 -19t19 -44t-19 -44t-44 -19t-43.5 18.5t-18.5 44.5zM318 649q0 25 19 44t44 19t43.5 -18.5t18.5 -44.5t-18.5 -44.5t-43.5 -18.5t-44 19t-19 44z" />
    <glyph glyph-name="umacron.ss01" horiz-adv-x="570" 
d="M490 490v-490h-410v490h114v-382h182v382h114zM165 605v95h239v-95h-239z" />
    <glyph glyph-name="ubreve.ss01" horiz-adv-x="570" 
d="M490 490v-490h-410v490h114v-382h182v382h114zM284 558q-61 0 -100.5 40t-43.5 102h89q5 -51 55 -51t56 51h89q-5 -63 -44 -102.5t-101 -39.5z" />
    <glyph glyph-name="uring.ss01" horiz-adv-x="570" 
d="M490 490v-490h-410v490h114v-382h182v382h114zM285 712q34 0 57.5 -22.5t23.5 -57.5q0 -33 -24 -56t-57 -23t-57 23t-24 56q0 35 23.5 57.5t57.5 22.5zM285 609q10 0 16.5 6.5t6.5 16.5t-6.5 16t-16.5 6t-16.5 -6t-6.5 -16t6.5 -16.5t16.5 -6.5z" />
    <glyph glyph-name="uhungarumlaut.ss01" horiz-adv-x="570" 
d="M490 490v-490h-410v490h114v-382h182v382h114zM120 569l91 131h140l-119 -131h-112zM318 569l91 131h140l-119 -131h-112z" />
    <glyph glyph-name="uogonek.ss01" horiz-adv-x="570" 
d="M490 0h-136q-59 -35 -59 -76q0 -38 55 -38h4v-75q-22 -4 -43 -4q-49 0 -78 24.5t-29 66.5q0 59 60 102h-184v490h114v-382h182v382h114v-490z" />
    <glyph glyph-name="ygrave.ss01" horiz-adv-x="530" 
d="M323 -9v-185h-118v185l-200 499h127l133 -357l133 357h127zM268 569l-119 131h140l91 -131h-112z" />
    <glyph glyph-name="yacute.ss01" horiz-adv-x="530" 
d="M323 -9v-185h-118v185l-200 499h127l133 -357l133 357h127zM169 569l91 131h140l-119 -131h-112z" />
    <glyph glyph-name="ycircumflex.ss01" horiz-adv-x="530" 
d="M323 -9v-185h-118v185l-200 499h127l133 -357l133 357h127zM104 569l97 131h129l97 -131h-112l-50 60l-50 -60h-111z" />
    <glyph glyph-name="ydieresis.ss01" horiz-adv-x="530" 
d="M323 -9v-185h-118v185l-200 499h127l133 -357l133 357h127zM107 649q0 26 18.5 44.5t43.5 18.5t44 -19t19 -44t-19 -44t-44 -19t-43.5 18.5t-18.5 44.5zM298 649q0 25 19 44t44 19t43.5 -18.5t18.5 -44.5t-18.5 -44.5t-43.5 -18.5t-44 19t-19 44z" />
    <glyph glyph-name="f_b.ss01" horiz-adv-x="943" 
d="M898 245q0 -111 -67 -183.5t-172 -72.5q-86 0 -139 55v-44h-112v388h-201v-388h-114v388h-70v102h70v62q0 70 45 115t117 45q55 0 95.5 -26t57.5 -71v85h114v-246q56 48 137 48q105 0 172 -73t67 -184zM520 245q0 -66 34 -111t97 -45q62 0 96.5 45t34.5 111t-34.5 111
t-96.5 45q-63 0 -97 -45t-34 -111zM304 546v10q0 24 -13.5 38.5t-35.5 14.5t-35 -16t-13 -42v-61h201v56h-104z" />
    <glyph glyph-name="f_f_b.ss01" horiz-adv-x="1258" 
d="M1213 245q0 -111 -67 -183.5t-172 -72.5q-86 0 -139 55v-44h-112v388h-201v-388h-114v388h-201v-388h-114v388h-70v102h70v62q0 70 45 115t117 45q61 0 103.5 -31.5t54.5 -84.5q14 53 55.5 84.5t101.5 31.5q55 0 95.5 -26t57.5 -71v85h114v-246q56 48 137 48
q105 0 172 -73t67 -184zM835 245q0 -66 34 -111t97 -45q62 0 96.5 45t34.5 111t-34.5 111t-96.5 45q-63 0 -97 -45t-34 -111zM207 490h201v56h-104v10q0 24 -13.5 38.5t-35.5 14.5t-35 -16t-13 -42v-61zM619 546v10q0 24 -13.5 38.5t-35.5 14.5t-35 -16t-13 -42v-61h201v56
h-104z" />
    <glyph glyph-name="f_f.ss01" horiz-adv-x="733" 
d="M93 388h-70v102h70v62q0 70 45 115t117 45q61 0 103.5 -31.5t54.5 -84.5q14 53 55.5 84.5t101.5 31.5q73 0 118 -43t45 -112v-11h-114v10q0 24 -13.5 38.5t-35.5 14.5t-35 -16t-13 -42v-61h211v-102h-211v-388h-114v388h-201v-388h-114v388zM207 490h201v56h-104v10
q0 24 -13.5 38.5t-35.5 14.5t-35 -16t-13 -42v-61z" />
    <glyph glyph-name="f_h.ss01" horiz-adv-x="900" 
d="M522 700v-210h308v-490h-114v382h-194v-382h-114v388h-201v-388h-114v388h-70v102h70v62q0 70 45 115t117 45q55 0 95.5 -26t57.5 -71v85h114zM304 546v10q0 24 -13.5 38.5t-35.5 14.5t-35 -16t-13 -42v-61h201v56h-104z" />
    <glyph glyph-name="f_f_h.ss01" horiz-adv-x="1215" 
d="M837 700v-210h308v-490h-114v382h-194v-382h-114v388h-201v-388h-114v388h-201v-388h-114v388h-70v102h70v62q0 70 45 115t117 45q61 0 103.5 -31.5t54.5 -84.5q14 53 55.5 84.5t101.5 31.5q55 0 95.5 -26t57.5 -71v85h114zM619 546v10q0 24 -13.5 38.5t-35.5 14.5
t-35 -16t-13 -42v-61h201v56h-104zM304 546v10q0 24 -13.5 38.5t-35.5 14.5t-35 -16t-13 -42v-61h201v56h-104z" />
    <glyph glyph-name="fi.ss01" horiz-adv-x="592" 
d="M522 0h-114v388h-201v-388h-114v388h-70v102h70v62q0 70 45 115t117 45q73 0 118 -43t45 -112v-11h-114v10q0 24 -13.5 38.5t-35.5 14.5t-35 -16t-13 -42v-61h315v-490z" />
    <glyph glyph-name="f_f_i.ss01" horiz-adv-x="907" 
d="M837 0h-114v388h-201v-388h-114v388h-201v-388h-114v388h-70v102h70v62q0 70 45 115t117 45q61 0 103.5 -31.5t54.5 -84.5q14 53 55.5 84.5t101.5 31.5q73 0 118 -43t45 -112v-11h-114v10q0 24 -13.5 38.5t-35.5 14.5t-35 -16t-13 -42v-61h315v-490zM304 546v10
q0 24 -13.5 38.5t-35.5 14.5t-35 -16t-13 -42v-61h201v56h-104z" />
    <glyph glyph-name="f_j.ss01" 
d="M522 490v-684h-225v102h111v480h-201v-388h-114v388h-70v102h70v62q0 70 45 115t117 45q73 0 118 -43t45 -112v-11h-114v10q0 24 -13.5 38.5t-35.5 14.5t-35 -16t-13 -42v-61h315z" />
    <glyph glyph-name="f_f_j.ss01" horiz-adv-x="915" 
d="M837 490v-684h-225v102h111v480h-201v-388h-114v388h-201v-388h-114v388h-70v102h70v62q0 70 45 115t117 45q61 0 103.5 -31.5t54.5 -84.5q14 53 55.5 84.5t101.5 31.5q73 0 118 -43t45 -112v-11h-114v10q0 24 -13.5 38.5t-35.5 14.5t-35 -16t-13 -42v-61h315zM304 546
v10q0 24 -13.5 38.5t-35.5 14.5t-35 -16t-13 -42v-61h201v56h-104z" />
    <glyph glyph-name="f_k.ss01" horiz-adv-x="841" 
d="M522 0h-114v388h-201v-388h-114v388h-70v102h70v62q0 70 45 115t117 45q55 0 95.5 -26t57.5 -71v85h114v-400h73l101 190h121l-129 -245l138 -245h-121l-111 192h-72v-192zM304 546v10q0 24 -13.5 38.5t-35.5 14.5t-35 -16t-13 -42v-61h201v56h-104z" />
    <glyph glyph-name="f_f_k.ss01" horiz-adv-x="1156" 
d="M837 0h-114v388h-201v-388h-114v388h-201v-388h-114v388h-70v102h70v62q0 70 45 115t117 45q61 0 103.5 -31.5t54.5 -84.5q14 53 55.5 84.5t101.5 31.5q55 0 95.5 -26t57.5 -71v85h114v-400h73l101 190h121l-129 -245l138 -245h-121l-111 192h-72v-192zM207 490h201v56
h-104v10q0 24 -13.5 38.5t-35.5 14.5t-35 -16t-13 -42v-61zM619 546v10q0 24 -13.5 38.5t-35.5 14.5t-35 -16t-13 -42v-61h201v56h-104z" />
    <glyph glyph-name="fl.ss01" horiz-adv-x="592" 
d="M522 0h-114v388h-201v-388h-114v388h-70v102h70v62q0 70 45 115t117 45q55 0 95.5 -26t57.5 -71v85h114v-700zM304 546v10q0 24 -13.5 38.5t-35.5 14.5t-35 -16t-13 -42v-61h201v56h-104z" />
    <glyph glyph-name="f_f_l.ss01" horiz-adv-x="906" 
d="M836 700v-700h-113v388h-201v-388h-114v388h-201v-388h-114v388h-70v102h70v62q0 70 45 115t117 45q61 0 103.5 -31.5t54.5 -84.5q14 53 55.5 84.5t101.5 31.5q55 0 95.5 -26t57.5 -71v85h113zM207 490h201v56h-104v10q0 24 -13.5 38.5t-35.5 14.5t-35 -16t-13 -42v-61z
M619 546v10q0 24 -13.5 38.5t-35.5 14.5t-35 -16t-13 -42v-61h201v56h-104z" />
    <glyph glyph-name="f_t.ss01" horiz-adv-x="695" 
d="M93 388h-70v102h70v62q0 70 45 115t117 45q55 0 95.5 -26t57.5 -71v12h113v-137h129v-102h-129v-280h123v-108h-236v388h-201v-388h-114v388zM207 490h201v56h-104v10q0 24 -13.5 38.5t-35.5 14.5t-35 -16t-13 -42v-61z" />
    <glyph glyph-name="f_f_t.ss01" horiz-adv-x="1010" 
d="M959 108v-108h-236v388h-201v-388h-114v388h-201v-388h-114v388h-70v102h70v62q0 70 45 115t117 45q61 0 103.5 -31.5t54.5 -84.5q14 53 55.5 84.5t101.5 31.5q55 0 95.5 -26t57.5 -71v12h113v-137h129v-102h-129v-280h123zM207 490h201v56h-104v10q0 24 -13.5 38.5
t-35.5 14.5t-35 -16t-13 -42v-61zM619 546v10q0 24 -13.5 38.5t-35.5 14.5t-35 -16t-13 -42v-61h201v56h-104z" />
    <glyph glyph-name="t_t.ss01" horiz-adv-x="707" 
d="M342 108v-108h-236v388h-83v102h83v137h113v-137h201v137h113v-137h129v-102h-129v-280h123v-108h-236v388h-201v-280h123z" />
    <glyph glyph-name="t_f.ss01" horiz-adv-x="745" 
d="M219 490h131h70v62q0 70 45 115t117 45q73 0 118 -43t45 -112v-11h-114v10q0 24 -13.5 38.5t-35.5 14.5t-35 -16t-13 -42v-61h211v-102h-211v-388h-114v388h-201v-280h123v-108h-236v388h-83v102h83v137h113v-137z" />
    <glyph glyph-name="cedilla.ss01" horiz-adv-x="500" 
d="M194 -136v148h112v-148h-112z" />
    <glyph glyph-name="cedilla.ss01.cap" horiz-adv-x="500" 
d="M194 -136v148h112v-148h-112z" />
    <glyph glyph-name="comma.ss01" horiz-adv-x="290" 
d="M228 76l-104 -224l-89 39l93 229z" />
    <glyph glyph-name="semicolon.ss01" horiz-adv-x="290" 
d="M209 76l-100 -226l-99 43l99 227zM64 419q0 35 24 59t59 24t59 -24t24 -59t-24 -59t-59 -24t-59 24t-24 59z" />
    <glyph glyph-name="colon.ss01" horiz-adv-x="290" 
d="M62 72q0 35 24 59t59 24t59 -24t24 -59t-24 -59t-59 -24t-59 24t-24 59zM62 419q0 35 24 59t59 24t59 -24t24 -59t-24 -59t-59 -24t-59 24t-24 59z" />
    <glyph glyph-name="period.ss01" horiz-adv-x="290" 
d="M62 72q0 35 24 59t59 24t59 -24t24 -59t-24 -59t-59 -24t-59 24t-24 59z" />
    <glyph glyph-name="ellipsis.ss01" horiz-adv-x="801" 
d="M62 72q0 35 24 59t59 24t59 -24t24 -59t-24 -59t-59 -24t-59 24t-24 59zM317 72q0 35 24 59t59 24t59 -24t24 -59t-24 -59t-59 -24t-59 24t-24 59zM573 72q0 35 24 59t59 24t59 -24t24 -59t-24 -59t-59 -24t-59 24t-24 59z" />
    <glyph glyph-name="exclam.ss01" horiz-adv-x="326" 
d="M221 228h-118v473h118v-473zM80 72q0 35 24 59t59 24t59 -24t24 -59t-24 -59t-59 -24t-59 24t-24 59z" />
    <glyph glyph-name="exclamdown.ss01" horiz-adv-x="326" 
d="M104 262h118v-456h-118v456zM80 418q0 35 24 59.5t59 24.5t59 -24.5t24 -59.5t-24 -59t-59 -24t-59 24t-24 59z" />
    <glyph glyph-name="exclamdown.cap.ss01" horiz-adv-x="324" 
d="M103 490h118v-490h-118v490zM234 640q0 -30 -21 -51t-51 -21t-51 21t-21 51t21 51t51 21t51 -21t21 -51z" />
    <glyph glyph-name="question.ss01" horiz-adv-x="535" 
d="M225 270h-18v102h13q61 0 105 32.5t44 90.5q0 52 -31.5 80t-78.5 28q-79 0 -158 -93l-73 78q86 124 230 124q106 0 168.5 -57.5t62.5 -151.5q0 -41 -15.5 -81t-45.5 -74.5t-83 -56t-120 -21.5zM163 72q0 35 24 59t59 24t59 -24t24 -59t-24 -59t-59 -24t-59 24t-24 59z
" />
    <glyph glyph-name="questiondown.ss01" horiz-adv-x="535" 
d="M292 227h18v-102h-13q-63 0 -106 -28t-43 -85q0 -52 31.5 -80t78.5 -28q79 0 158 93l73 -78q-86 -124 -240 -124q-99 0 -160 58t-61 151q0 41 15.5 79.5t45.5 71t82.5 52.5t120.5 20zM354 419q0 -35 -24 -59t-59 -24t-59 24t-24 59t24 59t59 24t59 -24t24 -59z" />
    <glyph glyph-name="questiondown.cap.ss01" horiz-adv-x="535" 
d="M310 431h18v-102h-13q-61 0 -105 -32.5t-44 -90.5q0 -52 31.5 -80t78.5 -28q79 0 158 93l73 -78q-86 -124 -230 -124q-106 0 -168.5 57.5t-62.5 151.5q0 41 15.5 81t45.5 74.5t83 56t120 21.5zM372 629q0 -35 -24 -59t-59 -24t-59 24t-24 59t24 59t59 24t59 -24t24 -59z
" />
    <glyph glyph-name="quoteleft.ss01" horiz-adv-x="290" 
d="M242 671l-93 -229l-99 44l104 224z" />
    <glyph glyph-name="quoteright.ss01" horiz-adv-x="290" 
d="M50 482l93 229l99 -44l-104 -224z" />
    <glyph glyph-name="quotedblleft.ss01" horiz-adv-x="465" 
d="M242 671l-93 -229l-99 44l104 224zM417 671l-94 -229l-99 44l105 224z" />
    <glyph glyph-name="quotedblright.ss01" horiz-adv-x="465" 
d="M223 484l93 229l99 -44l-104 -224zM48 484l94 229l99 -44l-105 -224z" />
    <glyph glyph-name="quotesinglbase.ss01" horiz-adv-x="290" 
d="M40 -115l93 229l99 -44l-104 -224z" />
    <glyph glyph-name="quotedblbase.ss01" horiz-adv-x="465" 
d="M215 -109l93 229l99 -44l-104 -224zM40 -109l94 229l99 -44l-105 -224z" />
    <glyph glyph-name="periodcentered.ss01" horiz-adv-x="290" 
d="M62 262q0 35 24 59t59 24t59 -24t24 -59t-24 -59t-59 -24t-59 24t-24 59z" />
    <glyph glyph-name="periodcentered.cap.ss01" horiz-adv-x="290" 
d="M62 342q0 35 24 59t59 24t59 -24t24 -59t-24 -59t-59 -24t-59 24t-24 59z" />
    <glyph glyph-name="ordfeminine.ss01" horiz-adv-x="412" 
d="M74 624v79h283v-361h-179q-61 0 -98 32.5t-37 82.5t38 81.5t97 31.5h89v54h-193zM267 495h-90q-22 0 -35.5 -10.5t-13.5 -27.5t13.5 -27.5t35.5 -10.5h90v76z" />
    <glyph glyph-name="numeroLC.ss01" horiz-adv-x="973" 
d="M70 490v-490h114v382h194v-382h114v490h-422zM546 522q0 80 56.5 134.5t140.5 54.5t140.5 -54.5t56.5 -134.5t-56.5 -134t-140.5 -54t-140.5 54t-56.5 134zM638 522q0 -47 29.5 -77.5t75.5 -30.5t75 30.5t29 77.5t-29 78t-75 31t-75.5 -31t-29.5 -78z" />
    <glyph glyph-name="numeroLC_s.ss01" horiz-adv-x="1318" 
d="M546 522q0 80 56.5 134.5t140.5 54.5t140.5 -54.5t56.5 -134.5t-56.5 -134t-140.5 -54t-140.5 54t-56.5 134zM638 522q0 -47 29.5 -77.5t75.5 -30.5t75 30.5t29 77.5t-29 78t-75 31t-75.5 -31t-29.5 -78zM70 490v-490h114v382h194v-382h114v490h-422zM1128 711
q82 0 142 -55l-51 -65q-5 4 -14.5 10t-13.5 8.5t-11 7t-10 6.5t-8.5 5t-8.5 4t-7.5 2t-8.5 1.5t-8 0.5q-17 0 -26.5 -8t-9.5 -19q0 -18 30 -36l162 -93q-2 -60 -42 -103t-111 -43q-88 0 -155 65l49 63q72 -49 105 -49q42 0 50 32l-117 64q-68 37 -68 98q0 46 39.5 75
t92.5 29z" />
    <glyph glyph-name="ampersand.ss01" horiz-adv-x="687" 
d="M359 701v-107h-40q-54 0 -82 -25t-28 -65t27.5 -64t82.5 -24h108v285h114v-285h114v-106h-114v-310h-245q-98 0 -165.5 52t-67.5 149q0 109 89 168q-59 56 -59 137q0 87 69 141t163 54h34zM182 206q0 -44 34 -71t87 -27h124v202h-121q-56 0 -90 -26.5t-34 -77.5z" />
    <glyph glyph-name="zero.osf.ss01" horiz-adv-x="712" 
d="M356 -11q-118 0 -204.5 80.5t-86.5 204.5t86.5 204.5t204.5 80.5t204.5 -80.5t86.5 -204.5t-86.5 -204.5t-204.5 -80.5zM356 450q-73 0 -122 -49.5t-49 -126.5q0 -46 19 -86l243 237q-41 25 -91 25zM356 97q73 0 122 49.5t49 127.5q0 40 -16 77l-240 -233q37 -21 85 -21z
" />
    <glyph glyph-name="one.osf.ss01" horiz-adv-x="547" 
d="M40 0v108h174v331h-162v108h281v-439h174v-108h-467z" />
    <glyph glyph-name="two.osf.ss01" horiz-adv-x="516" 
d="M169 386q0 -31 24.5 -52t58.5 -21t58 21.5t24 52.5q0 32 -23.5 52.5t-57.5 20.5q-35 0 -59.5 -21t-24.5 -53zM51 386q0 80 61.5 126.5t140.5 46.5q77 0 139 -49t62 -124q0 -99 -109 -187l-113 -91h239v-108h-426v80l172 138q-69 7 -117.5 54t-48.5 114z" />
    <glyph glyph-name="three.osf.ss01" horiz-adv-x="575" 
d="M497 547v-103l-158 -174q81 -18 133.5 -74.5t52.5 -142.5q0 -101 -71 -159t-180 -58q-74 0 -138.5 31t-105.5 81l81 81q69 -85 168 -85q56 0 91.5 29t35.5 79t-40 79t-110 29h-69v104l156 175h-291v108h445z" />
    <glyph glyph-name="four.osf.ss01" horiz-adv-x="589" 
d="M307 260h120v-152h127v-108h-127v-153h-120v153h-267v197l250 350h138l-272 -383v-56h151v152z" />
    <glyph glyph-name="five.osf.ss01" horiz-adv-x="591" 
d="M426 74q0 56 -35.5 92t-94.5 36q-40 0 -72 -22t-45 -57h-107v424h418v-108h-300v-160q53 31 118 31q98 0 168 -60t70 -176q0 -105 -74 -171.5t-197 -66.5q-143 0 -225 111l83 82q63 -85 151 -85q66 0 104 36t38 94z" />
    <glyph glyph-name="six.osf.ss01" horiz-adv-x="601" 
d="M303 -11q-106 0 -174.5 70t-68.5 175q0 90 84 211l178 255h140l-177 -250q11 4 29 4q96 0 164 -64t68 -168q0 -107 -70.5 -170t-172.5 -63zM180 221q0 -55 36 -89.5t87 -34.5t87 34.5t36 89.5t-36 89.5t-87 34.5t-87 -34.5t-36 -89.5z" />
    <glyph glyph-name="seven.osf.ss01" horiz-adv-x="538" 
d="M144 316h-114v231h478v-108l-257 -592h-128l259 592h-238v-123z" />
    <glyph glyph-name="eight.osf.ss01" horiz-adv-x="594" 
d="M297 -11q-107 0 -172 59t-65 147q0 111 88 166q-30 22 -50.5 61.5t-20.5 89.5q0 87 60.5 143.5t159.5 56.5q100 0 160 -56t60 -144q0 -50 -20.5 -89.5t-50.5 -61.5q88 -55 88 -166q0 -92 -64.5 -149t-172.5 -57zM297 304q-53 0 -85 -30t-32 -75q0 -47 32.5 -74.5
t84.5 -27.5t85 27.5t33 74.5q0 48 -32.5 76.5t-85.5 28.5zM297 604q-41 0 -70.5 -25.5t-29.5 -71.5q0 -41 25.5 -67.5t74.5 -26.5q48 0 74 26.5t26 67.5q0 46 -29.5 71.5t-70.5 25.5z" />
    <glyph glyph-name="nine.osf.ss01" horiz-adv-x="601" 
d="M298 560q106 0 174.5 -70t68.5 -175q0 -90 -84 -211l-178 -256h-139l176 250q-12 -3 -29 -3q-96 0 -164 64t-68 168q0 107 70.5 170t172.5 63zM421 328q0 55 -36 89.5t-87 34.5t-87 -34.5t-36 -89.5t36 -89.5t87 -34.5t87 34.5t36 89.5z" />
    <glyph glyph-name="zero.to.ss01" 
d="M556 274q0 -124 -72.5 -204.5t-186.5 -80.5t-184 80t-70 205q0 124 70 204.5t184 80.5t186.5 -80.5t72.5 -204.5zM297 450q-63 0 -98.5 -46t-35.5 -130q0 -35 6 -62l213 208q-34 30 -85 30zM437 274q0 31 -6 58l-214 -209q32 -26 80 -26q62 0 101 47.5t39 129.5z" />
    <glyph glyph-name="one.to.ss01" 
d="M66 0v108h174v331h-162v108h281v-439h174v-108h-467z" />
    <glyph glyph-name="two.to.ss01" 
d="M211 386q0 -31 24.5 -52t58.5 -21t58 21.5t24 52.5q0 32 -23.5 52.5t-57.5 20.5q-35 0 -59.5 -21t-24.5 -53zM93 386q0 80 61.5 126.5t140.5 46.5q77 0 139 -49t62 -124q0 -99 -109 -187l-113 -91h239v-108h-426v80l172 138q-69 7 -117.5 54t-48.5 114z" />
    <glyph glyph-name="three.to.ss01" 
d="M519 547v-103l-158 -174q81 -18 133.5 -74.5t52.5 -142.5q0 -101 -71 -159t-180 -58q-74 0 -138.5 31t-105.5 81l81 81q69 -85 168 -85q56 0 91.5 29t35.5 79t-40 79t-110 29h-69v104l156 175h-291v108h445z" />
    <glyph glyph-name="four.to.ss01" 
d="M310 260h120v-152h127v-108h-127v-153h-120v153h-267v197l250 350h138l-272 -383v-56h151v152z" />
    <glyph glyph-name="five.to.ss01" 
d="M428 74q0 56 -35.5 92t-94.5 36q-40 0 -72 -22t-45 -57h-107v424h418v-108h-300v-160q53 31 118 31q98 0 168 -60t70 -176q0 -105 -74 -171.5t-197 -66.5q-143 0 -225 111l83 82q63 -85 151 -85q66 0 104 36t38 94z" />
    <glyph glyph-name="six.to.ss01" 
d="M300 -11q-106 0 -174.5 70t-68.5 175q0 90 84 211l178 255h140l-177 -250q11 4 29 4q96 0 164 -64t68 -168q0 -107 -70.5 -170t-172.5 -63zM177 221q0 -55 36 -89.5t87 -34.5t87 34.5t36 89.5t-36 89.5t-87 34.5t-87 -34.5t-36 -89.5z" />
    <glyph glyph-name="seven.to.ss01" 
d="M175 316h-114v231h478v-108l-257 -592h-128l259 592h-238v-123z" />
    <glyph glyph-name="eight.to.ss01" 
d="M300 -11q-107 0 -172 59t-65 147q0 111 88 166q-30 22 -50.5 61.5t-20.5 89.5q0 87 60.5 143.5t159.5 56.5q100 0 160 -56t60 -144q0 -50 -20.5 -89.5t-50.5 -61.5q88 -55 88 -166q0 -92 -64.5 -149t-172.5 -57zM300 304q-53 0 -85 -30t-32 -75q0 -47 32.5 -74.5
t84.5 -27.5t85 27.5t33 74.5q0 48 -32.5 76.5t-85.5 28.5zM300 604q-41 0 -70.5 -25.5t-29.5 -71.5q0 -41 25.5 -67.5t74.5 -26.5q48 0 74 26.5t26 67.5q0 46 -29.5 71.5t-70.5 25.5z" />
    <glyph glyph-name="nine.to.ss01" 
d="M300 560q106 0 174.5 -70t68.5 -175q0 -90 -84 -211l-178 -256h-139l176 250q-12 -3 -29 -3q-96 0 -164 64t-68 168q0 107 70.5 170t172.5 63zM423 328q0 55 -36 89.5t-87 34.5t-87 -34.5t-36 -89.5t36 -89.5t87 -34.5t87 34.5t36 89.5z" />
    <glyph glyph-name="zero.ss01" horiz-adv-x="654" 
d="M65 351q0 71 15 134t45.5 115t82 82t119.5 30t119.5 -30t82 -82t45.5 -115t15 -134t-15 -134t-45.5 -115t-82.5 -82.5t-119 -30.5t-119 30.5t-82.5 82.5t-45.5 115t-15 134zM327 607q-70 0 -108 -67.5t-38 -188.5q0 -44 4 -73l256 249q-39 80 -114 80zM472 351
q0 25 -4 67l-254 -247q37 -77 113 -77q70 0 107.5 67.5t37.5 189.5z" />
    <glyph glyph-name="one.ss01" horiz-adv-x="547" 
d="M40 0v108h174v485h-162v108h281v-593h174v-108h-467z" />
    <glyph glyph-name="two.ss01" horiz-adv-x="550" 
d="M171 503q0 -42 30.5 -70.5t72.5 -28.5q43 0 73 28.5t30 70.5t-30 70.5t-72 28.5q-43 0 -73.5 -28.5t-30.5 -70.5zM52 502q0 88 65 149t158 61q94 0 157.5 -58.5t63.5 -149.5q0 -106 -98 -204l-192 -192h299v-108h-460v102l193 194q-75 4 -130.5 62.5t-55.5 143.5z" />
    <glyph glyph-name="three.ss01" horiz-adv-x="575" 
d="M497 700v-103l-158 -174q81 -18 133.5 -74.5t52.5 -142.5q0 -101 -71 -159t-180 -58q-74 0 -138.5 31t-105.5 81l81 81q69 -85 168 -85q56 0 91.5 29t35.5 79t-40 79t-110 29h-69v104l156 175h-291v108h445z" />
    <glyph glyph-name="four.ss01" horiz-adv-x="589" 
d="M307 413h120v-146h127v-108h-127v-159h-120v159h-267v197l250 344h138l-272 -377v-56h151v146z" />
    <glyph glyph-name="five.ss01" horiz-adv-x="591" 
d="M426 227q0 56 -35.5 92t-94.5 36q-40 0 -72 -22t-45 -57h-107v424h418v-108h-300v-160q53 31 118 31q98 0 168 -60t70 -176q0 -105 -74 -171.5t-197 -66.5q-143 0 -225 111l83 82q63 -85 151 -85q66 0 104 36t38 94z" />
    <glyph glyph-name="six.ss01" horiz-adv-x="601" 
d="M303 -11q-106 0 -174.5 70t-68.5 175q0 90 84 211l178 255h140l-177 -250q11 4 29 4q96 0 164 -64t68 -168q0 -107 -70.5 -170t-172.5 -63zM180 221q0 -55 36 -89.5t87 -34.5t87 34.5t36 89.5t-36 89.5t-87 34.5t-87 -34.5t-36 -89.5z" />
    <glyph glyph-name="seven.ss01" horiz-adv-x="538" 
d="M144 469h-114v231h478v-108l-257 -592h-128l259 592h-238v-123z" />
    <glyph glyph-name="eight.ss01" horiz-adv-x="594" 
d="M297 -11q-107 0 -172 59t-65 147q0 111 88 166q-30 22 -50.5 61.5t-20.5 89.5q0 87 60.5 143.5t159.5 56.5q100 0 160 -56t60 -144q0 -50 -20.5 -89.5t-50.5 -61.5q88 -55 88 -166q0 -92 -64.5 -149t-172.5 -57zM297 304q-53 0 -85 -30t-32 -75q0 -47 32.5 -74.5
t84.5 -27.5t85 27.5t33 74.5q0 48 -32.5 76.5t-85.5 28.5zM297 604q-41 0 -70.5 -25.5t-29.5 -71.5q0 -41 25.5 -67.5t74.5 -26.5q48 0 74 26.5t26 67.5q0 46 -29.5 71.5t-70.5 25.5z" />
    <glyph glyph-name="nine.ss01" horiz-adv-x="601" 
d="M298 712q106 0 174.5 -70t68.5 -175q0 -90 -84 -211l-178 -256h-139l176 250q-12 -3 -29 -3q-96 0 -164 64t-68 168q0 107 70.5 170t172.5 63zM421 480q0 55 -36 89.5t-87 34.5t-87 -34.5t-36 -89.5t36 -89.5t87 -34.5t87 34.5t36 89.5z" />
    <glyph glyph-name="dollar.ss01" horiz-adv-x="661" 
d="M369 290l-85 14q-100 18 -155 70.5t-55 137.5q0 82 59.5 135t150.5 62v106h108v-110q107 -20 188 -105l-83 -88q-76 92 -181 92q-60 0 -91 -26.5t-31 -62.5q0 -75 116 -95l70 -12q113 -18 168.5 -74t55.5 -142q0 -79 -56.5 -133t-155.5 -66v-107h-108v107
q-138 17 -227 130l81 82q38 -50 87.5 -79t125.5 -29q64 0 98.5 26t34.5 67q0 80 -115 100z" />
    <glyph glyph-name="zero.tf.ss01" 
d="M38 351q0 71 15 134t45.5 115t82 82t119.5 30t119.5 -30t82 -82t45.5 -115t15 -134t-15 -134t-45.5 -115t-82.5 -82.5t-119 -30.5t-119 30.5t-82.5 82.5t-45.5 115t-15 134zM300 607q-70 0 -108 -67.5t-38 -188.5q0 -44 4 -73l256 249q-39 80 -114 80zM445 351
q0 25 -4 67l-254 -247q37 -77 113 -77q70 0 107.5 67.5t37.5 189.5z" />
    <glyph glyph-name="one.tf.ss01" 
d="M66 0v108h174v485h-162v108h281v-593h174v-108h-467z" />
    <glyph glyph-name="two.tf.ss01" 
d="M196 503q0 -42 30.5 -70.5t72.5 -28.5q43 0 73 28.5t30 70.5t-30 70.5t-72 28.5q-43 0 -73.5 -28.5t-30.5 -70.5zM77 502q0 88 65 149t158 61q94 0 157.5 -58.5t63.5 -149.5q0 -106 -98 -204l-192 -192h299v-108h-460v102l193 194q-75 4 -130.5 62.5t-55.5 143.5z" />
    <glyph glyph-name="three.tf.ss01" 
d="M519 700v-103l-158 -174q81 -18 133.5 -74.5t52.5 -142.5q0 -101 -71 -159t-180 -58q-74 0 -138.5 31t-105.5 81l81 81q69 -85 168 -85q56 0 91.5 29t35.5 79t-40 79t-110 29h-69v104l156 175h-291v108h445z" />
    <glyph glyph-name="four.tf.ss01" 
d="M310 413h120v-146h127v-108h-127v-159h-120v159h-267v197l250 344h138l-272 -377v-56h151v146z" />
    <glyph glyph-name="five.tf.ss01" 
d="M428 227q0 56 -35.5 92t-94.5 36q-40 0 -72 -22t-45 -57h-107v424h418v-108h-300v-160q53 31 118 31q98 0 168 -60t70 -176q0 -105 -74 -171.5t-197 -66.5q-143 0 -225 111l83 82q63 -85 151 -85q66 0 104 36t38 94z" />
    <glyph glyph-name="six.tf.ss01" 
d="M300 -11q-106 0 -174.5 70t-68.5 175q0 90 84 211l178 255h140l-177 -250q11 4 29 4q96 0 164 -64t68 -168q0 -107 -70.5 -170t-172.5 -63zM177 221q0 -55 36 -89.5t87 -34.5t87 34.5t36 89.5t-36 89.5t-87 34.5t-87 -34.5t-36 -89.5z" />
    <glyph glyph-name="seven.tf.ss01" 
d="M175 469h-114v231h478v-108l-257 -592h-128l259 592h-238v-123z" />
    <glyph glyph-name="eight.tf.ss01" 
d="M300 -11q-107 0 -172 59t-65 147q0 111 88 166q-30 22 -50.5 61.5t-20.5 89.5q0 87 60.5 143.5t159.5 56.5q100 0 160 -56t60 -144q0 -50 -20.5 -89.5t-50.5 -61.5q88 -55 88 -166q0 -92 -64.5 -149t-172.5 -57zM300 304q-53 0 -85 -30t-32 -75q0 -47 32.5 -74.5
t84.5 -27.5t85 27.5t33 74.5q0 48 -32.5 76.5t-85.5 28.5zM300 604q-41 0 -70.5 -25.5t-29.5 -71.5q0 -41 25.5 -67.5t74.5 -26.5q48 0 74 26.5t26 67.5q0 46 -29.5 71.5t-70.5 25.5z" />
    <glyph glyph-name="nine.tf.ss01" 
d="M300 712q106 0 174.5 -70t68.5 -175q0 -90 -84 -211l-178 -256h-139l176 250q-12 -3 -29 -3q-96 0 -164 64t-68 168q0 107 70.5 170t172.5 63zM423 480q0 55 -36 89.5t-87 34.5t-87 -34.5t-36 -89.5t36 -89.5t87 -34.5t87 34.5t36 89.5z" />
    <glyph glyph-name="dollar.tf.ss01" 
d="M314 294l-61 10q-95 15 -142.5 69.5t-47.5 133.5q0 78 52 135.5t138 66.5v106h108v-110q39 -7 72 -25.5t49.5 -33t46.5 -46.5l-83 -88q-20 24 -30.5 35t-31 27.5t-44.5 23t-55 6.5q-51 0 -76.5 -26.5t-25.5 -62.5q0 -79 108 -97l58 -10q204 -33 204 -205
q0 -74 -49.5 -136.5t-142.5 -73.5v-107h-108v107q-70 9 -116 41.5t-91 88.5l81 82q22 -29 33.5 -42t34.5 -32t51 -26.5t64 -7.5q61 0 92 27t31 68q0 82 -119 102z" />
    <glyph glyph-name="zerosuperior.ss01" horiz-adv-x="383" 
d="M354 504q0 -91 -44 -146.5t-118 -55.5t-118.5 55.5t-44.5 146.5q0 92 44 147.5t119 55.5q74 0 118 -56t44 -147zM119 504q0 -13 1 -21l123 115q-20 28 -51 28q-73 0 -73 -122zM264 504v18l-123 -113q19 -26 51 -26q72 0 72 121z" />
    <glyph glyph-name="onesuperior.ss01" horiz-adv-x="314" 
d="M33 386h83v236h-76v78h173v-314h84v-78h-264v78z" />
    <glyph glyph-name="twosuperior.ss01" horiz-adv-x="339" 
d="M34 375l86 89q-46 16 -69 48t-23 73q0 48 40.5 85t98.5 37t96 -35.5t38 -85.5q0 -31 -16 -56.5t-51 -63.5l-76 -79h143v-79h-267v67zM212 583q0 19 -13.5 32t-33.5 13t-34.5 -13t-14.5 -33q0 -19 14 -32t34 -13t34 13t14 33z" />
    <glyph glyph-name="threesuperior.ss01" horiz-adv-x="338" 
d="M289 627l-92 -82q49 -8 79 -39.5t30 -76.5q0 -55 -43 -91t-112 -36q-84 0 -138 63l60 58q32 -44 76 -44q60 0 60 47q0 49 -69 49h-47v76l79 73h-146v76h263v-73z" />
    <glyph glyph-name="foursuperior.ss01" horiz-adv-x="375" 
d="M281 539v-74h70v-75h-70v-82h-89v82h-163v118l145 192h102l-151 -200v-35h67v74h89z" />
    <glyph glyph-name="zeroinferior.ss01" horiz-adv-x="383" 
d="M354 196q0 -91 -44 -146.5t-118 -55.5t-118.5 55.5t-44.5 146.5q0 92 44 147.5t119 55.5q74 0 118 -56t44 -147zM119 196q0 -13 1 -21l123 115q-20 28 -51 28q-73 0 -73 -122zM264 196v18l-123 -113q19 -26 51 -26q72 0 72 121z" />
    <glyph glyph-name="oneinferior.ss01" horiz-adv-x="314" 
d="M33 78h83v236h-76v78h173v-314h84v-78h-264v78z" />
    <glyph glyph-name="twoinferior.ss01" horiz-adv-x="339" 
d="M34 67l86 89q-46 16 -69 48t-23 73q0 48 40.5 85t98.5 37t96 -35.5t38 -85.5q0 -31 -16 -56.5t-51 -63.5l-76 -79h143v-79h-267v67zM212 275q0 19 -13.5 32t-33.5 13t-34.5 -13t-14.5 -33q0 -19 14 -32t34 -13t34 13t14 33z" />
    <glyph glyph-name="threeinferior.ss01" horiz-adv-x="338" 
d="M289 319l-92 -82q49 -8 79 -39.5t30 -76.5q0 -55 -43 -91t-112 -36q-84 0 -138 63l60 58q32 -44 76 -44q60 0 60 47q0 49 -69 49h-47v76l79 73h-146v76h263v-73z" />
    <glyph glyph-name="fourinferior.ss01" horiz-adv-x="375" 
d="M281 231v-74h70v-75h-70v-82h-89v82h-163v118l145 192h102l-151 -200v-35h67v74h89z" />
    <glyph glyph-name="onehalf.ss01" horiz-adv-x="895" 
d="M590 67l86 89q-46 16 -69 48t-23 73q0 48 40.5 85t98.5 37t96 -35.5t38 -85.5q0 -31 -16 -56.5t-51 -63.5l-76 -79h143v-79h-267v67zM296 0h-117l432 700h117zM33 386h83v236h-76v78h173v-314h84v-78h-264v78zM768 275q0 19 -13.5 32t-33.5 13t-34.5 -13t-14.5 -33
q0 -19 14 -32t34 -13t34 13t14 33z" />
    <glyph glyph-name="onequarter.ss01" horiz-adv-x="875" 
d="M781 231v-74h70v-75h-70v-82h-89v82h-163v118l145 192h102l-151 -200v-35h67v74h89zM33 386h83v236h-76v78h173v-314h84v-78h-264v78zM179 0h117l432 700h-117z" />
    <glyph glyph-name="threequarters.ss01" horiz-adv-x="855" 
d="M289 627l-92 -82q49 -8 79 -39.5t30 -76.5q0 -55 -43 -91t-112 -36q-84 0 -138 63l60 58q32 -44 76 -44q60 0 60 47q0 49 -69 49h-47v76l79 73h-146v76h263v-73zM761 231v-74h70v-75h-70v-82h-89v82h-163v118l145 192h102l-151 -200v-35h67v74h89zM159 0h117l432 700
h-117z" />
    <glyph glyph-name="A.ss02" horiz-adv-x="691" 
d="M338 718h14l327 -718h-127l-71 149h-273l-68 -149h-128zM438 259l-93 206l-92 -206h185z" />
    <glyph glyph-name="K.ss02" horiz-adv-x="623" 
d="M451 0l-251 306v-306h-120v700h120v-286l236 286h148l-280 -339l296 -361h-149z" />
    <glyph glyph-name="M.ss02" horiz-adv-x="832" 
d="M424 98h-14l-211 284v-382h-119v718h13l323 -431l323 431h13v-718h-119v382z" />
    <glyph glyph-name="N.ss02" horiz-adv-x="747" 
d="M667 -17h-14l-454 452v-435h-119v718h13l454 -455v437h120v-717z" />
    <glyph glyph-name="Q.ss02" horiz-adv-x="803" 
d="M46 351q0 153 101.5 257t252.5 104t254 -104t103 -257q0 -127 -74 -225l84 -83l-81 -81l-86 86q-88 -59 -200 -59q-151 0 -252.5 104t-101.5 258zM168 351q0 -109 66.5 -181t169.5 -72q101 0 167 72.5t66 180.5q0 107 -66 179t-167 72q-103 0 -169.5 -72t-66.5 -179z" />
    <glyph glyph-name="R.ss02" horiz-adv-x="672" 
d="M632 0h-144l-194 239h-95v-239h-119v700h267q124 0 195.5 -60t71.5 -168q0 -88 -48 -146.5t-134 -77.5zM332 592h-133v-244h133q163 0 163 123q0 121 -163 121z" />
    <glyph glyph-name="S.ss02" horiz-adv-x="597" 
d="M340 290l-103 41q-154 61 -154 190q0 89 63 140t158 51q127 0 211 -103l-78 -79q-55 76 -139 76q-47 0 -73 -24.5t-26 -57.5q0 -31 21 -53t75 -43l79 -32q93 -38 133.5 -85t40.5 -120q0 -86 -67.5 -144t-181.5 -58q-83 0 -147 35t-101 93l77 79q64 -102 180 -102
q56 0 90 26t34 68q0 34 -21 58t-71 44z" />
    <glyph glyph-name="V.ss02" horiz-adv-x="666" 
d="M152 700l182 -442l181 442h123l-297 -717h-14l-299 717h124z" />
    <glyph glyph-name="W.ss02" horiz-adv-x="935" 
d="M475 718l184 -426l125 408h128l-228 -717h-14l-203 456l-203 -456h-13l-228 717h127l127 -408l185 426h13z" />
    <glyph glyph-name="Z.ss02" horiz-adv-x="686" 
d="M81 592v108h560v-14l-394 -578h377v-108h-578v14l394 578h-359z" />
    <glyph glyph-name="a.ss02" horiz-adv-x="610" 
d="M50 245q0 111 67 184t172 73q85 0 139 -56v44h112v-490h-114v36q-59 -47 -137 -47q-105 0 -172 72.5t-67 183.5zM166 245q0 -66 33.5 -112t96.5 -46t97.5 46t34.5 112q0 65 -34.5 109t-97.5 44t-96.5 -43.5t-33.5 -109.5z" />
    <glyph glyph-name="k.ss02" horiz-adv-x="506" 
d="M184 0h-114v700h114v-397l162 187h138l-205 -235l215 -255h-142l-168 202v-202z" />
    <glyph glyph-name="v.ss02" horiz-adv-x="472" 
d="M337 490h124l-218 -507h-14l-218 507h124l101 -252z" />
    <glyph glyph-name="w.ss02" horiz-adv-x="725" 
d="M140 490l78 -253l138 270h13l144 -270l72 253h123l-163 -507h-14l-168 308l-169 -308h-14l-163 507h123z" />
    <glyph glyph-name="z.ss02" horiz-adv-x="528" 
d="M71 385v105h417v-13l-256 -372h252v-105h-439v14l252 371h-226z" />
    <glyph glyph-name="a.ordn.ss02" horiz-adv-x="483" 
d="M33 522q0 80 56 134.5t138 54.5q73 0 112 -41v33h91v-361h-91v34q-44 -42 -112 -42q-82 0 -138 54t-56 134zM126 524q0 -46 30 -78t76 -32q48 0 78 32t30 78q0 45 -30 76t-78 31q-45 0 -75.5 -31t-30.5 -76z" />
    <glyph glyph-name="Agrave.ss02" horiz-adv-x="691" 
d="M338 718h14l327 -718h-127l-71 149h-273l-68 -149h-128zM438 259l-93 206l-92 -206h185zM297 769l-109 103h146l86 -103h-123z" />
    <glyph glyph-name="Aacute.ss02" horiz-adv-x="691" 
d="M338 718h14l327 -718h-127l-71 149h-273l-68 -149h-128zM438 259l-93 206l-92 -206h185zM268 769l86 103h146l-109 -103h-123z" />
    <glyph glyph-name="Acircumflex.ss02" horiz-adv-x="691" 
d="M338 718h14l327 -718h-127l-71 149h-273l-68 -149h-128zM438 259l-93 206l-92 -206h185zM185 769l91 103h136l91 -103h-113l-46 44l-46 -44h-113z" />
    <glyph glyph-name="Atilde.ss02" horiz-adv-x="691" 
d="M338 718h14l327 -718h-127l-71 149h-273l-68 -149h-128zM438 259l-93 206l-92 -206h185zM417 874h80q0 -49 -25 -81.5t-63 -32.5q-21 0 -42 7l-40 15q-27 8 -33 8q-22 0 -24 -24h-80q0 49 25 81.5t63 32.5q21 0 42 -7l40 -15q27 -8 33 -8q22 0 24 24z" />
    <glyph glyph-name="Adieresis.ss02" horiz-adv-x="691" 
d="M338 718h14l327 -718h-127l-71 149h-273l-68 -149h-128zM438 259l-93 206l-92 -206h185zM186 820q0 26 18.5 44.5t43.5 18.5q26 0 44.5 -18.5t18.5 -44.5t-18.5 -44.5t-44.5 -18.5q-25 0 -43.5 18.5t-18.5 44.5zM377 820q0 26 18.5 44.5t44.5 18.5q25 0 43.5 -18.5
t18.5 -44.5t-18.5 -44.5t-43.5 -18.5q-26 0 -44.5 18.5t-18.5 44.5z" />
    <glyph glyph-name="Amacron.ss02" horiz-adv-x="691" 
d="M338 718h14l327 -718h-127l-71 149h-273l-68 -149h-128zM438 259l-93 206l-92 -206h185zM224 772v95h239v-95h-239z" />
    <glyph glyph-name="Abreve.ss02" horiz-adv-x="691" 
d="M338 718h14l327 -718h-127l-71 149h-273l-68 -149h-128zM438 259l-93 206l-92 -206h185zM343 746q-60 0 -96 34.5t-41 91.5h90q5 -38 47 -38t47 38h91q-5 -57 -41.5 -91.5t-96.5 -34.5z" />
    <glyph glyph-name="Aring.ss02" horiz-adv-x="691" 
d="M241 761q0 44 30 73t70 29q43 0 73.5 -29t30.5 -73q0 -33 -19 -59t-50 -37l303 -665h-127l-71 149h-273l-68 -149h-128l301 663q-31 9 -51.5 36.5t-20.5 61.5zM438 259l-93 206l-92 -206h185zM303 761q0 -16 12 -27.5t28 -11.5t27.5 11.5t11.5 27.5t-11.5 27.5
t-27.5 11.5t-28 -11.5t-12 -27.5z" />
    <glyph glyph-name="Aringacute.ss02" horiz-adv-x="691" 
d="M242 761q0 44 30 73t70 29q43 0 73.5 -29t30.5 -73q0 -33 -19.5 -59.5t-50.5 -37.5l303 -664h-127l-71 149h-273l-68 -149h-128l301 663q-31 10 -51 37t-20 61zM438 259l-93 206l-92 -206h185zM268 892l86 103h146l-109 -103h-123zM304 761q0 -16 12 -27.5t28 -11.5
t27.5 11.5t11.5 27.5t-11.5 27.5t-27.5 11.5t-28 -11.5t-12 -27.5z" />
    <glyph glyph-name="Aogonek.ss02" horiz-adv-x="691" 
d="M679 0h2q-59 -35 -59 -76q0 -38 55 -38h4v-75q-22 -4 -43 -4q-49 0 -78 24.5t-29 66.5q0 59 60 102h-39l-71 149h-273l-68 -149h-128l326 718h14zM438 259l-93 206l-92 -206h185z" />
    <glyph glyph-name="AE.ss02" horiz-adv-x="921" 
d="M329 700h524v-108h-445l82 -180h346v-109h-296l89 -195h224v-108h-302l-71 149h-273l-68 -149h-128zM437 259l-93 205l-92 -205h185z" />
    <glyph glyph-name="AEacute.ss02" horiz-adv-x="921" 
d="M329 700h524v-108h-445l82 -180h346v-109h-296l89 -195h224v-108h-302l-71 149h-273l-68 -149h-128zM437 259l-93 205l-92 -205h185zM506 769l86 103h146l-109 -103h-123z" />
    <glyph glyph-name="Kcommaaccent.ss02" horiz-adv-x="623" 
d="M451 0l-251 306v-306h-120v700h120v-286l236 286h148l-280 -339l296 -361h-149zM228 -194l48 137h117l-72 -137h-93z" />
    <glyph glyph-name="Nacute.ss02" horiz-adv-x="747" 
d="M667 -17h-14l-454 452v-435h-119v718h13l454 -455v437h120v-717zM297 769l86 103h146l-109 -103h-123z" />
    <glyph glyph-name="Ncaron.ss02" horiz-adv-x="747" 
d="M667 -17h-14l-454 452v-435h-119v718h13l454 -455v437h120v-717zM532 872l-91 -103h-136l-91 103h113l46 -44l46 44h113z" />
    <glyph glyph-name="Ntilde.ss02" horiz-adv-x="747" 
d="M667 -17h-14l-454 452v-435h-119v718h13l454 -455v437h120v-717zM446 874h80q0 -49 -25 -81.5t-63 -32.5q-21 0 -42 7l-40 15q-27 8 -33 8q-22 0 -24 -24h-80q0 49 25 81.5t63 32.5q21 0 42 -7l40 -15q27 -8 33 -8q22 0 24 24z" />
    <glyph glyph-name="Ncommaaccent.ss02" horiz-adv-x="747" 
d="M667 -17h-14l-454 452v-435h-119v718h13l454 -455v437h120v-717zM290 -194l48 137h117l-72 -137h-93z" />
    <glyph glyph-name="Eng.ss02" horiz-adv-x="747" 
d="M470 -205l-46 1v114q16 -1 27 -1q56 0 76 18.5t20 74.5v86l-348 347v-435h-119v718h13l454 -455v437h120v-722q0 -97 -47.5 -140t-149.5 -43z" />
    <glyph glyph-name="Racute.ss02" horiz-adv-x="672" 
d="M632 0h-144l-194 239h-95v-239h-119v700h267q124 0 195.5 -60t71.5 -168q0 -88 -48 -146.5t-134 -77.5zM332 592h-133v-244h133q163 0 163 123q0 121 -163 121zM270 769l86 103h146l-109 -103h-123z" />
    <glyph glyph-name="Rcaron.ss02" horiz-adv-x="672" 
d="M632 0h-144l-194 239h-95v-239h-119v700h267q124 0 195.5 -60t71.5 -168q0 -88 -48 -146.5t-134 -77.5zM332 592h-133v-244h133q163 0 163 123q0 121 -163 121zM505 872l-91 -103h-136l-91 103h113l46 -44l46 44h113z" />
    <glyph glyph-name="Rcommaaccent.ss02" horiz-adv-x="672" 
d="M632 0h-144l-194 239h-95v-239h-119v700h267q124 0 195.5 -60t71.5 -168q0 -88 -48 -146.5t-134 -77.5zM332 592h-133v-244h133q163 0 163 123q0 121 -163 121zM253 -194l48 137h117l-72 -137h-93z" />
    <glyph glyph-name="Sacute.ss02" horiz-adv-x="597" 
d="M340 290l-103 41q-154 61 -154 190q0 89 63 140t158 51q127 0 211 -103l-78 -79q-55 76 -139 76q-47 0 -73 -24.5t-26 -57.5q0 -31 21 -53t75 -43l79 -32q93 -38 133.5 -85t40.5 -120q0 -86 -67.5 -144t-181.5 -58q-83 0 -147 35t-101 93l77 79q64 -102 180 -102
q56 0 90 26t34 68q0 34 -21 58t-71 44zM232 769l86 103h146l-109 -103h-123z" />
    <glyph glyph-name="Scircumflex.ss02" horiz-adv-x="597" 
d="M340 290l-103 41q-154 61 -154 190q0 89 63 140t158 51q127 0 211 -103l-78 -79q-55 76 -139 76q-47 0 -73 -24.5t-26 -57.5q0 -31 21 -53t75 -43l79 -32q93 -38 133.5 -85t40.5 -120q0 -86 -67.5 -144t-181.5 -58q-83 0 -147 35t-101 93l77 79q64 -102 180 -102
q56 0 90 26t34 68q0 34 -21 58t-71 44zM149 769l91 103h136l91 -103h-113l-46 44l-46 -44h-113z" />
    <glyph glyph-name="Scaron.ss02" horiz-adv-x="597" 
d="M340 290l-103 41q-154 61 -154 190q0 89 63 140t158 51q127 0 211 -103l-78 -79q-55 76 -139 76q-47 0 -73 -24.5t-26 -57.5q0 -31 21 -53t75 -43l79 -32q93 -38 133.5 -85t40.5 -120q0 -86 -67.5 -144t-181.5 -58q-83 0 -147 35t-101 93l77 79q64 -102 180 -102
q56 0 90 26t34 68q0 34 -21 58t-71 44zM467 872l-91 -103h-136l-91 103h113l46 -44l46 44h113z" />
    <glyph glyph-name="Scedilla.ss02" horiz-adv-x="597" 
d="M381 -1l-58 -136h-115l66 127q-150 12 -223 127l77 79q64 -102 180 -102q56 0 90 26t34 68q0 34 -21 58t-71 44l-103 41q-154 61 -154 190q0 89 63 140t158 51q127 0 211 -103l-78 -79q-55 76 -139 76q-47 0 -73 -24.5t-26 -57.5q0 -31 21 -53t75 -43l79 -32
q93 -38 133.5 -85t40.5 -120q0 -69 -44 -121.5t-123 -70.5z" />
    <glyph glyph-name="Scommaaccent.ss02" horiz-adv-x="597" 
d="M340 290l-103 41q-154 61 -154 190q0 89 63 140t158 51q127 0 211 -103l-78 -79q-55 76 -139 76q-47 0 -73 -24.5t-26 -57.5q0 -31 21 -53t75 -43l79 -32q93 -38 133.5 -85t40.5 -120q0 -86 -67.5 -144t-181.5 -58q-83 0 -147 35t-101 93l77 79q64 -102 180 -102
q56 0 90 26t34 68q0 34 -21 58t-71 44zM215 -194l48 137h117l-72 -137h-93z" />
    <glyph glyph-name="Wgrave.ss02" horiz-adv-x="935" 
d="M475 718l184 -426l125 408h128l-228 -717h-14l-203 456l-203 -456h-13l-228 717h127l127 -408l185 426h13zM420 769l-109 103h146l86 -103h-123z" />
    <glyph glyph-name="Wacute.ss02" horiz-adv-x="935" 
d="M475 718l184 -426l125 408h128l-228 -717h-14l-203 456l-203 -456h-13l-228 717h127l127 -408l185 426h13zM391 769l86 103h146l-109 -103h-123z" />
    <glyph glyph-name="Wcircumflex.ss02" horiz-adv-x="935" 
d="M475 718l184 -426l125 408h128l-228 -717h-14l-203 456l-203 -456h-13l-228 717h127l127 -408l185 426h13zM308 769l91 103h136l91 -103h-113l-46 44l-46 -44h-113z" />
    <glyph glyph-name="Wdieresis.ss02" horiz-adv-x="935" 
d="M475 718l184 -426l125 408h128l-228 -717h-14l-203 456l-203 -456h-13l-228 717h127l127 -408l185 426h13zM309 820q0 26 18.5 44.5t43.5 18.5t44 -18.5t19 -44.5t-19 -44.5t-44 -18.5t-43.5 18.5t-18.5 44.5zM500 820q0 26 19 44.5t44 18.5t43.5 -18.5t18.5 -44.5
t-18.5 -44.5t-43.5 -18.5t-44 18.5t-19 44.5z" />
    <glyph glyph-name="Zacute.ss02" horiz-adv-x="686" 
d="M81 592v108h560v-14l-394 -578h377v-108h-578v14l394 578h-359zM267 769l86 103h146l-109 -103h-123z" />
    <glyph glyph-name="Zcaron.ss02" horiz-adv-x="686" 
d="M81 592v108h560v-14l-394 -578h377v-108h-578v14l394 578h-359zM502 872l-91 -103h-136l-91 103h113l46 -44l46 44h113z" />
    <glyph glyph-name="Zdotaccent.ss02" horiz-adv-x="686" 
d="M81 592v108h560v-14l-394 -578h377v-108h-578v14l394 578h-359zM271 821q0 30 21 51t51 21t51 -21t21 -51t-21 -51t-51 -21t-51 21t-21 51z" />
    <glyph glyph-name="agrave.ss02" horiz-adv-x="610" 
d="M50 245q0 111 67 184t172 73q85 0 139 -56v44h112v-490h-114v36q-59 -47 -137 -47q-105 0 -172 72.5t-67 183.5zM166 245q0 -66 33.5 -112t96.5 -46t97.5 46t34.5 112q0 65 -34.5 109t-97.5 44t-96.5 -43.5t-33.5 -109.5zM313 569l-119 131h140l91 -131h-112z" />
    <glyph glyph-name="aacute.ss02" horiz-adv-x="610" 
d="M50 245q0 111 67 184t172 73q85 0 139 -56v44h112v-490h-114v36q-59 -47 -137 -47q-105 0 -172 72.5t-67 183.5zM166 245q0 -66 33.5 -112t96.5 -46t97.5 46t34.5 112q0 65 -34.5 109t-97.5 44t-96.5 -43.5t-33.5 -109.5zM214 569l91 131h140l-119 -131h-112z" />
    <glyph glyph-name="acircumflex.ss02" horiz-adv-x="610" 
d="M50 245q0 111 67 184t172 73q85 0 139 -56v44h112v-490h-114v36q-59 -47 -137 -47q-105 0 -172 72.5t-67 183.5zM166 245q0 -66 33.5 -112t96.5 -46t97.5 46t34.5 112q0 65 -34.5 109t-97.5 44t-96.5 -43.5t-33.5 -109.5zM149 569l97 131h129l97 -131h-112l-50 60
l-50 -60h-111z" />
    </font>
</defs>
</svg>
