<?xml version="1.0" standalone="no"?>
<!DOCTYPE svg PUBLIC "-//W3C//DTD SVG 1.1//EN" "http://www.w3.org/Graphics/SVG/1.1/DTD/svg11.dtd" >
<svg xmlns="http://www.w3.org/2000/svg" xmlns:xlink="http://www.w3.org/1999/xlink" version="1.1">
<metadata>
Created by FontForge 20190801 at Mon Feb 27 11:28:11 2017
 By Jimmy Wärting
Copyright (c) 2012-2016, Damien Gautier, 205TF. All rights reserved.
</metadata>
<defs>
<font id="Maax-Bold" horiz-adv-x="600" >
  <font-face 
    font-family="Maax Regular"
    font-weight="700"
    font-stretch="normal"
    units-per-em="1000"
    panose-1="2 0 0 0 0 0 0 0 0 0"
    ascent="750"
    descent="-250"
    x-height="490"
    cap-height="700"
    bbox="-47 -220 1539 1008"
    underline-thickness="128"
    underline-position="-386"
    unicode-range="U+0020-FB05"
  />
<missing-glyph horiz-adv-x="649" 
d="M323 202q13 0 21.5 -9t8.5 -22q0 -14 -8.5 -23t-21.5 -9t-22 9t-9 23q0 13 9 22t22 9zM332 153h8l-9 13q8 3 8 12q0 12 -13 12h-17v-37h8v12h7zM175 400q7 -12 3 -25t-16 -21q-30 -16 -47 12q-15 28 13 46q13 8 26.5 4.5t20.5 -16.5zM324 184q8 0 8 -6q0 -7 -8 -7h-7v13
h7zM290 412q19 12 42 -6l-29 -92q-7 7 -15 20q-33 58 2 78zM344 394q10 -12 14 -20q32 -57 -1 -78q-21 -11 -41 6zM324 684l285 -164v-328l-285 -164l-284 164v328zM338 561v-75h8v34h36v8h-36v25h39v8h-47zM260 561v-8h23v-67h8v67h24v8h-55zM157 259l89 51l-8 15l-68 -40
l20 69q11 35 -1 55q-10 18 -30 23t-39 -6q-18 -11 -23.5 -30.5t4.5 -37.5t29.5 -23.5t35.5 4.5l4 3l-20 -70zM323 130q17 0 28.5 12t11.5 29t-11.5 28.5t-28.5 11.5t-28.5 -11.5t-11.5 -28.5t11.5 -29t28.5 -12zM365 282q25 15 25 45t-17 56q-17 30 -41.5 43.5t-49.5 -0.5
t-25.5 -44t16.5 -56q17 -30 42 -44t50 0zM523 281q23 13 28.5 35.5t-6.5 39.5q-11 21 -32.5 25.5t-37.5 -6.5q-17 -10 -23 -27l-26 46l63 37l-8 14l-78 -45l47 -82l14 8q-4 22 18 34q13 8 27 4.5t22 -16.5q8 -15 3.5 -29.5t-18.5 -22.5q-22 -12 -43 -1l-5 -17q30 -12 55 3z
" />
    <glyph glyph-name="f_f" unicode="ff" horiz-adv-x="697" 
d="M303 712l37 -1v-134h-24q-47 0 -67.5 -17t-20.5 -54v-16h193v24q0 99 58.5 148.5t157.5 49.5l37 -1v-134h-24q-47 0 -67.5 -17t-20.5 -54v-16h108v-131h-108v-359h-141v359h-193v-359h-141v359h-64v131h64v24q0 99 58.5 148.5t157.5 49.5z" />
    <glyph glyph-name="fi" unicode="fi" horiz-adv-x="621" 
d="M410 0v359h-182v-359h-141v359h-64v131h64v24q0 99 58.5 148.5t157.5 49.5l25 -1v-134h-12q-47 0 -67.5 -17t-20.5 -54v-16h325v-490h-143zM399 629q0 35 24 59t58 24q35 0 59 -24t24 -59q0 -34 -24.5 -58t-58.5 -24t-58 24t-24 58z" />
    <glyph glyph-name="fl" unicode="fl" horiz-adv-x="627" 
d="M411 0v566h-95q-47 0 -67.5 -17t-20.5 -54v-5h108v-131h-108v-359h-141v359h-64v131h64v13q0 98 58.5 147.5t157.5 49.5h250v-700h-142z" />
    <glyph glyph-name="f_f_i" unicode="ffi" horiz-adv-x="955" 
d="M744 0v359h-182v-359h-141v359h-193v-359h-141v359h-64v131h64v24q0 99 58.5 148.5t157.5 49.5l37 -1v-134h-24q-47 0 -67.5 -17t-20.5 -54v-16h108h85v24q0 99 58.5 148.5t157.5 49.5l25 -1v-134h-12q-47 0 -67.5 -17t-20.5 -54v-16h325v-490h-143zM733 629q0 35 24 59
t58 24q35 0 59 -24t24 -59q0 -34 -24.5 -58t-58.5 -24t-58 24t-24 58z" />
    <glyph glyph-name="f_f_l" unicode="ffl" horiz-adv-x="950" 
d="M745 0v566h-95q-47 0 -67.5 -17t-20.5 -54v-5h108v-131h-108v-359h-141v359h-193v-359h-141v359h-64v131h64v24q0 99 58.5 148.5t157.5 49.5l37 -1v-134h-24q-47 0 -67.5 -17t-20.5 -54v-16h193v13q0 98 58.5 147.5t157.5 49.5h250v-700h-142z" />
    <glyph glyph-name="f_t" unicode="ft" horiz-adv-x="706" 
d="M303 712l37 -1v-134h-24q-47 0 -67 -17t-20 -54v-16h107h75v137h141v-137h109v-131h-109v-169q0 -35 16 -47.5t49 -12.5h42v-130q-38 -2 -77 -2q-171 0 -171 175v186h-182v-359h-142v359h-64v131h64v24q0 99 58.5 148.5t157.5 49.5z" />
    <glyph glyph-name="f_b" unicode="fb" horiz-adv-x="959" 
d="M924 245q0 -116 -70.5 -186t-174.5 -70q-78 0 -126 46v-35h-142v566h-95q-47 0 -67.5 -17t-20.5 -54v-5h108v-131h-108v-359h-141v359h-64v131h64v13q0 98 58.5 147.5t157.5 49.5h252v-241q49 43 124 43q104 0 174.5 -71.5t70.5 -185.5zM553 245q0 -57 31.5 -92.5
t80.5 -35.5t81.5 36t32.5 92t-32.5 92t-81.5 36t-80.5 -35.5t-31.5 -92.5z" />
    <glyph glyph-name="f_f_b" unicode="ffb" horiz-adv-x="1293" 
d="M1258 245q0 -116 -70.5 -186t-174.5 -70q-78 0 -126 46v-35h-142v566h-95q-47 0 -67.5 -17t-20.5 -54v-5h108v-131h-108v-359h-141v359h-193v-359h-141v359h-64v131h64v24q0 99 58.5 148.5t157.5 49.5l37 -1v-134h-24q-47 0 -67.5 -17t-20.5 -54v-16h193v13
q0 98 58.5 147.5t157.5 49.5h252v-241q49 43 124 43q104 0 174.5 -71.5t70.5 -185.5zM887 245q0 -57 31.5 -92.5t80.5 -35.5t81.5 36t32.5 92t-32.5 92t-81.5 36t-80.5 -35.5t-31.5 -92.5z" />
    <glyph glyph-name="f_h" unicode="fh" horiz-adv-x="925" 
d="M553 245v-245h-142v566h-95q-47 0 -67.5 -17t-20.5 -54v-5h108v-131h-108v-359h-141v359h-64v131h64v13q0 98 58.5 147.5t157.5 49.5h250l-1 -1v-237q44 40 115 40q91 0 145.5 -57t54.5 -160v-285h-142v274q0 42 -20.5 69t-61.5 27q-90 0 -90 -125z" />
    <glyph glyph-name="f_f_h" unicode="ffh" horiz-adv-x="1259" 
d="M887 245v-245h-142v566h-95q-47 0 -67.5 -17t-20.5 -54v-5h108v-131h-108v-359h-141v359h-193v-359h-141v359h-64v131h64v24q0 99 58.5 148.5t157.5 49.5l37 -1v-134h-24q-47 0 -67.5 -17t-20.5 -54v-16h193v13q0 98 58.5 147.5t157.5 49.5h250l-1 -1v-237q44 40 115 40
q91 0 145.5 -57t54.5 -160v-285h-142v274q0 42 -20.5 69t-61.5 27q-90 0 -90 -125z" />
    <glyph glyph-name="f_j" unicode="fj" horiz-adv-x="616" 
d="M411 -13v372h-183v-359h-141v359h-64v131h64v24q0 99 58.5 148.5t157.5 49.5l25 -1v-134h-12q-47 0 -67.5 -17t-20.5 -54v-16h325v-520q0 -175 -172 -175l-66 2v130h31q33 0 49 12.5t16 47.5zM400 629q0 35 24 59t58 24t58.5 -24.5t24.5 -58.5t-24.5 -58t-58.5 -24
t-58 24t-24 58z" />
    <glyph glyph-name="f_f_j" unicode="ffj" horiz-adv-x="950" 
d="M745 -13v372h-183v-359h-141v359h-193v-359h-141v359h-64v131h64v24q0 99 58.5 148.5t157.5 49.5l37 -1v-134h-24q-47 0 -67.5 -17t-20.5 -54v-16h193v24q0 99 58.5 148.5t157.5 49.5l25 -1v-134h-12q-47 0 -67.5 -17t-20.5 -54v-16h325v-520q0 -175 -172 -175l-66 2v130
h31q33 0 49 12.5t16 47.5zM734 629q0 35 24 59t58 24t58.5 -24.5t24.5 -58.5t-24.5 -58t-58.5 -24t-58 24t-24 58z" />
    <glyph glyph-name="f_k" unicode="fk" horiz-adv-x="896" 
d="M411 0v566h-95q-47 0 -67.5 -17t-20.5 -54v-5h108v-131h-108v-359h-141v359h-64v131h64v13q0 98 58.5 147.5t157.5 49.5h250v-365l136 155h179l-181 -202l189 -288h-173l-117 186l-33 -36v-150h-142z" />
    <glyph glyph-name="f_f_k" unicode="ffk" horiz-adv-x="1230" 
d="M745 0v566h-95q-47 0 -67.5 -17t-20.5 -54v-5h108v-131h-108v-359h-141v359h-193v-359h-141v359h-64v131h64v24q0 99 58.5 148.5t157.5 49.5l37 -1v-134h-24q-47 0 -67.5 -17t-20.5 -54v-16h108h85v13q0 98 58.5 147.5t157.5 49.5h250v-365l136 155h179l-181 -202
l189 -288h-173l-117 186l-33 -36v-150h-142z" />
    <glyph glyph-name="f_f_t" unicode="fft" horiz-adv-x="1040" 
d="M303 712l37 -1v-134h-24q-47 0 -67.5 -17t-20.5 -54v-16h108h85v24q0 99 58.5 148.5t157.5 49.5l37 -1v-134h-24q-47 0 -67.5 -17t-20.5 -54v-16h108h75v137h141v-137h109v-131h-109v-169q0 -35 16 -47.5t49 -12.5h42v-130q-38 -2 -77 -2q-171 0 -171 175v186h-183v-359
h-141v359h-193v-359h-141v359h-64v131h64v24q0 99 58.5 148.5t157.5 49.5z" />
    <glyph glyph-name="t_t" unicode="tt" horiz-adv-x="700" 
d="M252 -2q-171 0 -171 175v186h-64v131h64v137h142v-137h182v137h141v-137h109v-131h-109v-169q0 -35 16 -47.5t49 -12.5h42v-130q-38 -2 -77 -2q-171 0 -171 175v186h-182v-169q0 -35 15.5 -47.5t48.5 -12.5h42v-130q-38 -2 -77 -2z" />
    <glyph glyph-name="t_f" unicode="tf" horiz-adv-x="691" 
d="M252 -2q-171 0 -171 175v186h-64v131h64v137h142v-137h192v24q0 99 58.5 148.5t157.5 49.5l37 -1v-134h-24q-47 0 -67.5 -17t-20.5 -54v-16h108v-131h-108v-359h-141v359h-192v-169q0 -35 15.5 -47.5t48.5 -12.5h42v-130q-38 -2 -77 -2z" />
    <glyph glyph-name=".notdef" horiz-adv-x="649" 
d="M323 202q13 0 21.5 -9t8.5 -22q0 -14 -8.5 -23t-21.5 -9t-22 9t-9 23q0 13 9 22t22 9zM332 153h8l-9 13q8 3 8 12q0 12 -13 12h-17v-37h8v12h7zM175 400q7 -12 3 -25t-16 -21q-30 -16 -47 12q-15 28 13 46q13 8 26.5 4.5t20.5 -16.5zM324 184q8 0 8 -6q0 -7 -8 -7h-7v13
h7zM290 412q19 12 42 -6l-29 -92q-7 7 -15 20q-33 58 2 78zM344 394q10 -12 14 -20q32 -57 -1 -78q-21 -11 -41 6zM324 684l285 -164v-328l-285 -164l-284 164v328zM338 561v-75h8v34h36v8h-36v25h39v8h-47zM260 561v-8h23v-67h8v67h24v8h-55zM157 259l89 51l-8 15l-68 -40
l20 69q11 35 -1 55q-10 18 -30 23t-39 -6q-18 -11 -23.5 -30.5t4.5 -37.5t29.5 -23.5t35.5 4.5l4 3l-20 -70zM323 130q17 0 28.5 12t11.5 29t-11.5 28.5t-28.5 11.5t-28.5 -11.5t-11.5 -28.5t11.5 -29t28.5 -12zM365 282q25 15 25 45t-17 56q-17 30 -41.5 43.5t-49.5 -0.5
t-25.5 -44t16.5 -56q17 -30 42 -44t50 0zM523 281q23 13 28.5 35.5t-6.5 39.5q-11 21 -32.5 25.5t-37.5 -6.5q-17 -10 -23 -27l-26 46l63 37l-8 14l-78 -45l47 -82l14 8q-4 22 18 34q13 8 27 4.5t22 -16.5q8 -15 3.5 -29.5t-18.5 -22.5q-22 -12 -43 -1l-5 -17q30 -12 55 3z
" />
    <glyph glyph-name=".null" horiz-adv-x="0" 
 />
    <glyph glyph-name="nonmarkingreturn" horiz-adv-x="333" 
 />
    <glyph glyph-name="NULL" horiz-adv-x="0" 
 />
    <glyph glyph-name="NULL" horiz-adv-x="0" 
 />
    <glyph glyph-name="space" unicode=" " horiz-adv-x="280" 
 />
    <glyph glyph-name="exclam" unicode="!" horiz-adv-x="332" 
d="M92 226v474h147v-474h-147zM80 75q0 36 24.5 61t60.5 25t61.5 -25.5t25.5 -60.5q0 -36 -25.5 -61t-61.5 -25t-60.5 25t-24.5 61z" />
    <glyph glyph-name="quotedbl" unicode="&#x22;" horiz-adv-x="502" 
d="M69 700h142v-279h-142v279zM291 700h142v-279h-142v279z" />
    <glyph glyph-name="numbersign" unicode="#" horiz-adv-x="806" 
d="M30 291h143l36 121h-127v132h163l46 156h141l-45 -156h142l44 156h143l-46 -156h106v-132h-142l-35 -121h125v-134h-162l-44 -157h-143l46 157h-143l-45 -157h-142l46 157h-107v134zM350 412l-35 -121h142l36 121h-143z" />
    <glyph glyph-name="dollar" unicode="$" horiz-adv-x="667" 
d="M279 -114v107q-74 10 -134.5 45.5t-99.5 84.5l102 103q53 -70 132 -92v156q-101 18 -159 71t-58 139q0 87 62 142.5t155 66.5v106h111v-109q120 -22 201 -106l-100 -105q-45 47 -101 67v-142q225 -41 225 -217q0 -85 -60.5 -142t-164.5 -69v-106h-111zM467 201
q0 50 -77 69v-141q36 7 56.5 26.5t20.5 45.5zM210 507q0 -48 69 -67v133q-32 -7 -50.5 -24t-18.5 -42z" />
    <glyph glyph-name="percent" unicode="%" horiz-adv-x="841" 
d="M51 561q0 64 44 107.5t108 43.5q63 0 106.5 -43.5t43.5 -107.5q0 -63 -43.5 -107t-106.5 -44q-64 0 -108 44t-44 107zM160 561q0 -20 12.5 -32.5t30.5 -12.5q16 0 28.5 13t12.5 32q0 20 -12.5 32.5t-28.5 12.5q-18 0 -30.5 -12.5t-12.5 -32.5zM488 139q0 65 44 108.5
t108 43.5q63 0 106.5 -44t43.5 -108q0 -63 -43.5 -106.5t-106.5 -43.5q-64 0 -108 43.5t-44 106.5zM596 139q0 -20 13 -32t31 -12q16 0 28.5 12.5t12.5 31.5q0 21 -12.5 33.5t-28.5 12.5q-18 0 -31 -12.5t-13 -33.5zM129 0l431 700h152l-430 -700h-153z" />
    <glyph glyph-name="ampersand" unicode="&#x26;" horiz-adv-x="701" 
d="M500 0l-37 43q-75 -54 -176 -54q-116 0 -176.5 62t-60.5 148q0 67 34 119t93 82l7 4q-57 74 -57 143q0 71 54 118t141 47q82 0 136 -49t54 -119q0 -54 -26.5 -92.5t-83.5 -76.5l-14 -10l83 -102q23 47 36 102h149q-25 -131 -95 -224l110 -141h-171zM290 121q50 0 87 29
l-112 148l-5 -3q-66 -34 -66 -89q0 -35 27 -60t69 -25zM320 579q-19 0 -32 -13t-13 -32q0 -27 28 -61l5 -6l11 6q49 27 49 64q0 18 -13 30t-35 12z" />
    <glyph glyph-name="quotesingle" unicode="'" horiz-adv-x="280" 
d="M69 700h142v-279h-142v279z" />
    <glyph glyph-name="parenleft" unicode="(" horiz-adv-x="390" 
d="M199 260q0 -222 162 -377l-92 -88q-94 83 -153 202.5t-59 262.5t58.5 262t153.5 203l92 -88q-162 -154 -162 -377z" />
    <glyph glyph-name="parenright" unicode=")" horiz-adv-x="390" 
d="M191 260q0 223 -162 377l92 88q94 -83 153 -202.5t59 -262.5t-58.5 -262t-153.5 -203l-92 88q162 155 162 377z" />
    <glyph glyph-name="asterisk" unicode="*" horiz-adv-x="481" 
d="M327 560l73 -88l-93 -72l-66 95l-65 -95l-94 74l72 86l-108 26l27 107l112 -30l-4 112h118l-4 -112l112 30l28 -107z" />
    <glyph glyph-name="plus" unicode="+" horiz-adv-x="610" 
d="M60 180v132h178v178h132v-178h180v-132h-180v-180h-132v180h-178z" />
    <glyph glyph-name="comma" unicode="," horiz-adv-x="280" 
d="M122 -138h-132l97 258h156z" />
    <glyph glyph-name="hyphen" unicode="-" horiz-adv-x="280" 
d="M20 198v128h240v-128h-240z" />
    <glyph glyph-name="period" unicode="." horiz-adv-x="280" 
d="M54 75q0 36 24.5 61t60.5 25t61.5 -25t25.5 -61t-25.5 -61t-61.5 -25t-60.5 25t-24.5 61z" />
    <glyph glyph-name="slash" unicode="/" horiz-adv-x="523" 
d="M159 -92h-149l355 842h148z" />
    <glyph glyph-name="zero" unicode="0" horiz-adv-x="648" 
d="M454 351q0 105 -33.5 165t-96.5 60t-96.5 -60t-33.5 -165t33.5 -165.5t96.5 -60.5t96.5 60.5t33.5 165.5zM46 351q0 162 74 261.5t204 99.5t204 -100t74 -261q0 -162 -74 -262t-204 -100t-204 100t-74 262z" />
    <glyph glyph-name="one" unicode="1" horiz-adv-x="570" 
d="M60 137h171v378q-66 -44 -171 -44v133q60 3 111 26t74 70h134v-563h165v-137h-484v137z" />
    <glyph glyph-name="two" unicode="2" horiz-adv-x="618" 
d="M221 137h331v-137h-501v23q0 128 51 211.5t178 147.5l39 19q52 26 69.5 50t17.5 51q0 32 -26 53t-71 21q-106 0 -162 -112l-96 96q32 67 100.5 109.5t150.5 42.5q104 0 178.5 -55t74.5 -153q0 -77 -42.5 -128.5t-124.5 -93.5l-61 -31q-49 -25 -74 -50t-32 -64z" />
    <glyph glyph-name="three" unicode="3" horiz-adv-x="593" 
d="M441 366q40 -20 67.5 -63t27.5 -102q0 -100 -75 -156t-189 -56q-74 0 -141 31t-108 81l100 101q61 -77 155 -77q49 0 79.5 21t30.5 59q0 82 -133 82h-58v138h47q126 0 126 79q0 31 -25 51.5t-67 20.5q-87 0 -141 -68l-97 97q95 107 234 107q102 0 173.5 -49t71.5 -145
q0 -100 -78 -152z" />
    <glyph glyph-name="four" unicode="4" horiz-adv-x="628" 
d="M588 148h-97v-148h-148v148h-315v122l300 430h163v-421h97v-131zM182 279h161v234z" />
    <glyph glyph-name="five" unicode="5" horiz-adv-x="621" 
d="M431 228q0 47 -32.5 78t-82.5 31q-78 0 -106 -67h-137l17 430h433v-137h-294l-6 -128q48 32 117 32q97 0 168 -63.5t71 -167.5q0 -111 -77.5 -179t-199.5 -68q-76 0 -140.5 30.5t-101.5 80.5l106 105q60 -80 147 -80q50 0 84 28.5t34 74.5z" />
    <glyph glyph-name="six" unicode="6" horiz-adv-x="632" 
d="M330 -11q-131 0 -206.5 98.5t-75.5 269.5q0 161 80.5 258t218.5 97q64 0 122 -26.5t95 -68.5l-96 -99q-48 58 -127 58q-63 0 -107 -48.5t-45 -126.5q56 64 152 64q100 0 171.5 -66t71.5 -171q0 -108 -74.5 -173.5t-179.5 -65.5zM436 229q0 46 -30 75t-75 29t-75 -29
t-30 -75q0 -45 30 -74.5t75 -29.5t75 29.5t30 74.5z" />
    <glyph glyph-name="seven" unicode="7" horiz-adv-x="566" 
d="M39 457v243h512v-129q-209 -217 -236 -531l-3 -40h-151l4 39q26 305 206 524h-188v-106h-144z" />
    <glyph glyph-name="eight" unicode="8" 
d="M300 -11q-111 0 -182.5 57.5t-71.5 154.5q0 55 25 96.5t63 63.5q-71 58 -71 139q0 94 67.5 153t169.5 59t169.5 -59t67.5 -153q0 -81 -70 -139q37 -22 62 -63.5t25 -96.5q0 -97 -71.5 -154.5t-182.5 -57.5zM389 500q0 35 -26 55.5t-63 20.5q-36 0 -62.5 -20.5
t-26.5 -55.5t26.5 -55.5t62.5 -20.5q37 0 63 20.5t26 55.5zM194 209q0 -39 29.5 -61.5t76.5 -22.5q48 0 77 22.5t29 61.5t-29 62t-77 23q-47 0 -76.5 -23t-29.5 -62z" />
    <glyph glyph-name="nine" unicode="9" horiz-adv-x="627" 
d="M300 712q131 0 206 -98.5t75 -269.5q0 -161 -80.5 -258t-217.5 -97q-64 0 -122 26.5t-95 68.5l96 100q46 -59 126 -59q63 0 107.5 48.5t45.5 126.5q-56 -64 -153 -64q-99 0 -170.5 66t-71.5 171q0 108 74.5 173.5t179.5 65.5zM194 472q0 -46 29.5 -75t75.5 -29
q45 0 75 29t30 75t-30 75t-75 29q-46 0 -75.5 -29t-29.5 -75z" />
    <glyph glyph-name="colon" unicode=":" horiz-adv-x="280" 
d="M54 75q0 36 24.5 61t60.5 25t61.5 -25t25.5 -61t-25.5 -61t-61.5 -25t-60.5 25t-24.5 61zM54 416q0 36 24.5 61t60.5 25t61.5 -25t25.5 -61t-25.5 -61t-61.5 -25t-60.5 25t-24.5 61z" />
    <glyph glyph-name="semicolon" unicode=";" horiz-adv-x="280" 
d="M62 415q0 36 25 61.5t61 25.5t61.5 -25.5t25.5 -61.5t-25.5 -61t-61.5 -25t-61 25t-25 61zM111 -138h-132l97 258h156z" />
    <glyph glyph-name="less" unicode="&#x3c;" horiz-adv-x="603" 
d="M40 172v148l503 183v-150l-320 -107l320 -107v-149z" />
    <glyph glyph-name="equal" unicode="=" horiz-adv-x="622" 
d="M60 297v132h502v-132h-502zM60 82v132h502v-132h-502z" />
    <glyph glyph-name="greater" unicode="&#x3e;" horiz-adv-x="603" 
d="M563 319v-148l-503 -182v149l320 107l-320 107v150z" />
    <glyph glyph-name="question" unicode="?" horiz-adv-x="552" 
d="M326 226h-146v180h47q58 0 96.5 26t38.5 68q0 33 -26.5 54t-67.5 21q-89 0 -142 -81l-94 100q37 55 99 86.5t136 31.5q102 0 172.5 -60t70.5 -155q0 -79 -50.5 -136.5t-133.5 -74.5v-60zM169 75q0 35 25 60.5t60 25.5q36 0 61.5 -25.5t25.5 -60.5q0 -36 -25.5 -61
t-61.5 -25q-35 0 -60 25t-25 61z" />
    <glyph glyph-name="at" unicode="@" horiz-adv-x="1065" 
d="M668 48q-64 -59 -154 -59q-107 0 -176 71t-69 185q0 111 67 184t172 73q78 0 126 -45v33h137v-321q0 -33 8.5 -49.5t33.5 -16.5q34 0 61 47.5t27 113.5q0 153 -92.5 246.5t-264.5 93.5q-161 0 -268 -96.5t-107 -260.5q0 -161 108 -252.5t284 -91.5q94 0 193 26v-106
q-92 -28 -199 -28q-227 0 -365.5 122t-138.5 330q0 214 140 339.5t353 125.5q215 0 345 -119t130 -317q0 -122 -66.5 -204.5t-165.5 -82.5q-81 0 -119 59zM414 243q0 -52 28.5 -90t79.5 -38t79.5 38t28.5 90t-28.5 89t-79.5 37t-79.5 -37t-28.5 -89z" />
    <glyph glyph-name="A" unicode="A" horiz-adv-x="712" 
d="M427 700l274 -700h-154l-56 138h-271l-55 -138h-154l274 700h142zM356 498l-87 -228h174z" />
    <glyph glyph-name="B" unicode="B" horiz-adv-x="689" 
d="M70 0v700h315q111 0 176.5 -49.5t65.5 -143.5q0 -86 -72 -142q89 -63 89 -160q0 -92 -66.5 -148.5t-175.5 -56.5h-332zM219 137h149q62 0 94 18.5t32 62.5q0 77 -122 77h-153v-158zM355 563h-136v-143h142q116 0 116 72q0 40 -28.5 55.5t-93.5 15.5z" />
    <glyph glyph-name="C" unicode="C" horiz-adv-x="733" 
d="M600 226l99 -105q-108 -132 -285 -132q-161 0 -266.5 99t-105.5 261q0 164 105 263.5t262 99.5q172 0 279 -132l-100 -102q-31 44 -79.5 69.5t-106.5 25.5q-82 0 -145 -59.5t-63 -161.5q0 -104 62 -164t154 -60q118 0 190 98z" />
    <glyph glyph-name="D" unicode="D" horiz-adv-x="734" 
d="M70 0v700h231q75 0 141.5 -19t124 -57.5t91.5 -108t34 -160.5q0 -92 -34 -162.5t-91 -111t-124.5 -61t-141.5 -20.5h-231zM278 563h-59v-426h60q261 0 261 218q0 208 -262 208z" />
    <glyph glyph-name="E" unicode="E" horiz-adv-x="650" 
d="M70 0v700h517v-137h-368v-138h351v-135h-351v-153h368v-137h-517z" />
    <glyph glyph-name="F" unicode="F" horiz-adv-x="598" 
d="M219 0h-149v700h483v-137h-334v-151h311v-136h-311v-276z" />
    <glyph glyph-name="G" unicode="G" horiz-adv-x="756" 
d="M414 253v137h285v-281q-51 -53 -126.5 -86.5t-164.5 -33.5q-155 0 -260.5 101t-105.5 259q0 164 105 263.5t262 99.5q172 0 279 -132l-100 -102q-31 44 -79.5 69.5t-106.5 25.5q-82 0 -145 -59.5t-63 -161.5q0 -101 62.5 -162.5t153.5 -61.5q85 0 143 42v83h-139z" />
    <glyph glyph-name="H" unicode="H" horiz-adv-x="731" 
d="M513 0v290h-294v-290h-149v700h149v-274h294v274h148v-700h-148z" />
    <glyph glyph-name="I" unicode="I" horiz-adv-x="288" 
d="M71 0v700h148v-700h-148z" />
    <glyph glyph-name="J" unicode="J" horiz-adv-x="531" 
d="M25 98l100 99q37 -72 99 -72q45 0 70.5 29t25.5 81v465h148v-459q0 -122 -63 -187t-177 -65q-138 0 -203 109z" />
    <glyph glyph-name="K" unicode="K" horiz-adv-x="670" 
d="M70 0v700h149v-285l226 285h177l-240 -299l263 -401h-171l-187 286l-68 -87v-199h-149z" />
    <glyph glyph-name="L" unicode="L" horiz-adv-x="574" 
d="M70 0v700h149v-563h320v-137h-469z" />
    <glyph glyph-name="M" unicode="M" horiz-adv-x="836" 
d="M352 141l-133 256v-397h-149v700h149l199 -393l200 393h148v-700h-148v397l-134 -256h-132z" />
    <glyph glyph-name="N" unicode="N" horiz-adv-x="750" 
d="M502 0l-283 472v-472h-149v700h179l283 -474v474h148v-700h-178z" />
    <glyph glyph-name="O" unicode="O" horiz-adv-x="807" 
d="M42 351q0 156 104 258.5t256 102.5q153 0 258 -102.5t105 -258.5q0 -157 -105 -259.5t-258 -102.5q-152 0 -256 102.5t-104 259.5zM194 351q0 -94 57 -158t154 -64q95 0 151.5 64t56.5 158q0 92 -58.5 156.5t-149.5 64.5q-96 0 -153.5 -64t-57.5 -157z" />
    <glyph glyph-name="P" unicode="P" horiz-adv-x="658" 
d="M354 222h-135v-222h-149v700h284q124 0 199 -63t75 -171q0 -109 -76 -176.5t-198 -67.5zM328 563h-109v-204h109q152 0 152 104q0 52 -37.5 76t-114.5 24z" />
    <glyph glyph-name="Q" unicode="Q" horiz-adv-x="807" 
d="M42 351q0 156 104 258.5t256 102.5q153 0 258 -102.5t105 -258.5q0 -117 -64 -210l75 -75l-95 -94l-76 75q-91 -58 -203 -58q-152 0 -256 102.5t-104 259.5zM417 236l95 95l81 -82q20 44 20 102q0 92 -58 156.5t-149 64.5q-97 0 -154.5 -64t-57.5 -157q0 -94 57.5 -158
t154.5 -64q56 0 96 21z" />
    <glyph glyph-name="R" unicode="R" horiz-adv-x="679" 
d="M476 0l-138 225h-119v-225h-149v700h290q118 0 193 -60.5t75 -167.5q0 -74 -37.5 -131.5t-100.5 -87.5l155 -253h-169zM334 563h-115v-202h115q146 0 146 103q0 51 -35 75t-111 24z" />
    <glyph glyph-name="S" unicode="S" horiz-adv-x="654" 
d="M368 275l-86 15q-103 17 -162 70t-59 140q0 97 76.5 154.5t182.5 57.5q164 0 270 -112l-100 -105q-79 81 -178 81q-47 0 -75 -19t-28 -50q0 -56 100 -74l69 -11q236 -38 236 -219q0 -96 -76.5 -155t-202.5 -59q-92 0 -168 37.5t-123 96.5l102 103q78 -101 198 -101
q57 0 89.5 21.5t32.5 54.5q0 56 -98 74z" />
    <glyph glyph-name="T" unicode="T" horiz-adv-x="610" 
d="M30 700h550v-137h-201v-563h-148v563h-201v137z" />
    <glyph glyph-name="U" unicode="U" horiz-adv-x="714" 
d="M503 306v394h148v-389q0 -157 -78 -239.5t-216 -82.5t-216 82.5t-78 239.5v389h148v-396q0 -80 37 -129.5t109 -49.5q146 0 146 181z" />
    <glyph glyph-name="V" unicode="V" horiz-adv-x="664" 
d="M333 193l164 507h152l-240 -700h-154l-240 700h151z" />
    <glyph glyph-name="W" unicode="W" horiz-adv-x="959" 
d="M179 700l108 -448l113 448h159l113 -448l108 448h159l-187 -700h-152l-120 462l-121 -462h-152l-187 700h159z" />
    <glyph glyph-name="X" unicode="X" horiz-adv-x="689" 
d="M212 700l132 -221l133 221h174l-218 -341l231 -359h-173l-147 236l-146 -236h-173l231 359l-218 341h174z" />
    <glyph glyph-name="Y" unicode="Y" horiz-adv-x="633" 
d="M172 700l144 -294l145 294h162l-234 -455v-245h-147v245l-232 455h162z" />
    <glyph glyph-name="Z" unicode="Z" horiz-adv-x="655" 
d="M61 700h539v-131l-354 -432h365v-137h-553v131l354 432h-351v137z" />
    <glyph glyph-name="bracketleft" unicode="[" horiz-adv-x="375" 
d="M68 -194v894h279v-130h-137v-634h137v-130h-279z" />
    <glyph glyph-name="backslash" unicode="\" horiz-adv-x="523" 
d="M513 -92h-149l-354 842h148z" />
    <glyph glyph-name="bracketright" unicode="]" horiz-adv-x="375" 
d="M307 700v-894h-279v130h137v634h-137v130h279z" />
    <glyph glyph-name="asciicircum" unicode="^" horiz-adv-x="605" 
d="M368 428l217 -365h-152l-131 221l-131 -221h-151l216 365h132z" />
    <glyph glyph-name="underscore" unicode="_" horiz-adv-x="500" 
d="M0 -194v128h500v-128h-500z" />
    <glyph glyph-name="grave" unicode="`" horiz-adv-x="500" 
d="M123 700h180l74 -142h-134z" />
    <glyph glyph-name="a" unicode="a" horiz-adv-x="533" 
d="M210 -11q-78 0 -124 43.5t-46 111.5q0 77 56 117.5t138 40.5q49 0 97 -14v8q0 35 -22 57.5t-59 22.5q-67 0 -105 -57l-90 86q81 97 205 97q93 0 154 -52.5t61 -143.5v-306h-142v32q-49 -43 -123 -43zM183 153q0 -19 17 -31.5t44 -12.5q47 0 87 30v56q-38 9 -65 9
q-40 0 -61.5 -14t-21.5 -37z" />
    <glyph glyph-name="b" unicode="b" horiz-adv-x="611" 
d="M576 245q0 -116 -70.5 -186t-174.5 -70q-78 0 -126 46v-35h-142v700h144v-241q49 43 124 43q104 0 174.5 -71.5t70.5 -185.5zM205 245q0 -57 31.5 -92.5t80.5 -35.5t81.5 36t32.5 92t-32.5 92t-81.5 36t-80.5 -35.5t-31.5 -92.5z" />
    <glyph glyph-name="c" unicode="c" horiz-adv-x="537" 
d="M413 186l96 -93q-79 -104 -215 -104q-111 0 -185 73t-74 183t74.5 183.5t184.5 73.5q117 0 205 -98l-96 -93q-47 57 -104 57q-51 0 -85 -34.5t-34 -88.5t34 -88.5t85 -34.5q64 0 114 64z" />
    <glyph glyph-name="d" unicode="d" horiz-adv-x="611" 
d="M35 245q0 114 70.5 185.5t174.5 71.5q75 0 124 -43v241h144v-700h-142v35q-48 -46 -126 -46q-104 0 -174.5 70t-70.5 186zM406 245q0 57 -31.5 92.5t-80.5 35.5t-81.5 -36t-32.5 -92t32.5 -92t81.5 -36t80.5 35.5t31.5 92.5z" />
    <glyph glyph-name="e" unicode="e" horiz-adv-x="546" 
d="M511 209h-332q6 -40 35 -65t75 -25q75 0 120 57l94 -88q-79 -99 -210 -99q-112 0 -185 69.5t-73 183.5q0 112 67.5 186t173.5 74q112 0 174 -75t62 -176zM279 377q-38 0 -62 -20.5t-31 -52.5h176q-2 31 -25 52t-58 21z" />
    <glyph glyph-name="f" unicode="f" horiz-adv-x="363" 
d="M303 712l37 -1v-134h-24q-47 0 -67 -17t-20 -54v-16h107v-131h-107v-359h-142v359h-64v131h64v24q0 99 58.5 148.5t157.5 49.5z" />
    <glyph glyph-name="g" unicode="g" horiz-adv-x="601" 
d="M396 35v13q-42 -37 -120 -37q-105 0 -172.5 66t-67.5 179q0 114 70 180t170 66q72 0 123 -47v35h139v-439q0 -114 -70.5 -185t-194.5 -71q-144 0 -223 99l99 95q44 -63 123 -63q56 0 90 30t34 79zM399 256q0 52 -32 84.5t-78 32.5q-45 0 -76.5 -32.5t-31.5 -84.5
q0 -51 31.5 -83.5t76.5 -32.5q46 0 78 32.5t32 83.5z" />
    <glyph glyph-name="h" unicode="h" horiz-adv-x="577" 
d="M205 245v-245h-142v700h141v-238q44 40 115 40q91 0 145.5 -57t54.5 -160v-285h-142v274q0 42 -20.5 69t-61.5 27q-90 0 -90 -125z" />
    <glyph glyph-name="i" unicode="i" horiz-adv-x="279" 
d="M68 0v490h142v-490h-142zM57 629q0 35 24 59t58 24q35 0 59 -24t24 -59q0 -34 -24.5 -58t-58.5 -24t-58 24t-24 58z" />
    <glyph glyph-name="j" unicode="j" horiz-adv-x="271" 
d="M55 629q0 35 24 59t58 24t58.5 -24.5t24.5 -58.5t-24.5 -58t-58.5 -24t-58 24t-24 58zM66 -13v503h142v-520q0 -175 -172 -175l-66 2v130h31q33 0 49 12.5t16 47.5z" />
    <glyph glyph-name="k" unicode="k" horiz-adv-x="548" 
d="M63 0v700h142v-365l136 155h179l-181 -202l189 -288h-173l-117 186l-33 -36v-150h-142z" />
    <glyph glyph-name="l" unicode="l" horiz-adv-x="268" 
d="M63 0v700h142v-700h-142z" />
    <glyph glyph-name="m" unicode="m" horiz-adv-x="867" 
d="M205 251v-251h-142v490h140v-34q48 46 118 46q85 0 136 -59q59 59 147 59q98 0 151.5 -56.5t53.5 -160.5v-285h-142v279q0 41 -19 66t-56 25q-40 0 -62.5 -29t-22.5 -80v-261h-142v279q0 41 -19 66t-56 25q-42 0 -63.5 -31t-21.5 -88z" />
    <glyph glyph-name="n" unicode="n" horiz-adv-x="577" 
d="M205 245v-245h-142v490h140v-34q48 46 116 46q91 0 145.5 -57t54.5 -160v-285h-142v274q0 42 -20.5 69t-61.5 27q-90 0 -90 -125z" />
    <glyph glyph-name="o" unicode="o" horiz-adv-x="588" 
d="M35 245q0 110 74.5 183.5t184.5 73.5t184.5 -73.5t74.5 -183.5t-74 -183t-185 -73t-185 73t-74 183zM180 245q0 -54 32 -89t82 -35t82 35t32 89t-32 89t-82 35t-82 -35t-32 -89z" />
    <glyph glyph-name="p" unicode="p" horiz-adv-x="611" 
d="M576 245q0 -114 -70.5 -185t-174.5 -71q-78 0 -126 42v-225h-142v684h140v-35q49 47 128 47q104 0 174.5 -70.5t70.5 -186.5zM203 245q0 -56 32.5 -92t81.5 -36t81.5 36t32.5 92t-32.5 92t-81.5 36t-81.5 -36t-32.5 -92z" />
    <glyph glyph-name="q" unicode="q" horiz-adv-x="611" 
d="M35 245q0 116 70.5 186.5t174.5 70.5q79 0 128 -47v35h140v-684h-142v225q-48 -42 -126 -42q-104 0 -174.5 71t-70.5 185zM408 245q0 56 -32.5 92t-81.5 36t-81.5 -36t-32.5 -92t32.5 -92t81.5 -36t81.5 36t32.5 92z" />
    <glyph glyph-name="r" unicode="r" horiz-adv-x="385" 
d="M363 496v-137h-22q-62 0 -99 -39.5t-37 -114.5v-205h-142v490h140v-44q43 51 122 51q24 0 38 -1z" />
    <glyph glyph-name="s" unicode="s" horiz-adv-x="488" 
d="M272 171l-65 16q-160 40 -160 160q0 70 55.5 112.5t134.5 42.5q111 0 197 -77l-87 -92q-58 48 -116 48q-21 0 -33.5 -8.5t-12.5 -20.5q0 -18 35 -26l73 -17q161 -38 161 -162q0 -70 -55.5 -114t-149.5 -44q-68 0 -126 28t-89 67l87 89q66 -65 140 -65q22 0 38.5 9
t16.5 23q0 20 -44 31z" />
    <glyph glyph-name="t" unicode="t" horiz-adv-x="376" 
d="M252 -2q-171 0 -171 175v186h-64v131h64v137h142v-137h108v-131h-108v-169q0 -35 15.5 -47.5t48.5 -12.5h42v-130q-38 -2 -77 -2z" />
    <glyph glyph-name="u" unicode="u" horiz-adv-x="566" 
d="M360 239v251h143v-490h-140v34q-44 -45 -122 -45q-86 0 -134.5 56.5t-48.5 159.5v285h143v-279q0 -41 19 -66t56 -25q84 0 84 119z" />
    <glyph glyph-name="v" unicode="v" horiz-adv-x="506" 
d="M500 490l-174 -490h-146l-174 490h151l96 -303l96 303h151z" />
    <glyph glyph-name="w" unicode="w" horiz-adv-x="792" 
d="M475 490l81 -293l69 293h152l-138 -490h-155l-88 302l-88 -302h-155l-138 490h152l70 -293l80 293h158z" />
    <glyph glyph-name="x" unicode="x" horiz-adv-x="524" 
d="M188 490l74 -125l74 125h160l-154 -238l165 -252h-159l-86 139l-85 -139h-160l165 252l-154 238h160z" />
    <glyph glyph-name="y" unicode="y" horiz-adv-x="546" 
d="M267 -194h-150l80 194l-191 490h158l110 -303l114 303h152z" />
    <glyph glyph-name="z" unicode="z" horiz-adv-x="515" 
d="M60 490h396v-114l-216 -248h227v-128h-413v114l213 249h-207v127z" />
    <glyph glyph-name="braceleft" unicode="{" horiz-adv-x="434" 
d="M293 504v-501q0 -40 17.5 -57t53.5 -17h42v-128h-67q-96 0 -143.5 43t-47.5 145v197h-108v135h108v198q0 102 47.5 145t143.5 43h67v-129h-42q-36 0 -53.5 -17t-17.5 -57z" />
    <glyph glyph-name="bar" unicode="|" horiz-adv-x="379" 
d="M120 -194v894h139v-894h-139z" />
    <glyph glyph-name="braceright" unicode="}" horiz-adv-x="434" 
d="M141 3v501q0 40 -17.5 57t-53.5 17h-42v129h67q96 0 143.5 -43t47.5 -145v-198h108v-135h-108v-197q0 -102 -47.5 -145t-143.5 -43h-67v128h42q36 0 53.5 17t17.5 57z" />
    <glyph glyph-name="asciitilde" unicode="~" horiz-adv-x="513" 
d="M359 336h103q5 -77 -24.5 -124t-90.5 -47q-33 0 -55 8l-68 21q-24 8 -39 8q-31 0 -31 -37h-103q-4 77 25.5 124t90.5 47q25 0 54 -8l69 -22q24 -8 38 -8q31 0 31 38z" />
    <glyph glyph-name="nbspace" unicode="&#xa0;" horiz-adv-x="280" 
 />
    <glyph glyph-name="exclamdown" unicode="&#xa1;" horiz-adv-x="332" 
d="M239 268v-462h-147v462h147zM252 416q0 -36 -25 -61.5t-61 -25.5q-35 0 -60.5 25.5t-25.5 61.5t25.5 61t60.5 25q36 0 61 -25t25 -61z" />
    <glyph glyph-name="cent" unicode="&#xa2;" horiz-adv-x="562" 
d="M435 186l96 -93q-64 -84 -163 -100v-107h-110v109q-89 18 -145 86.5t-56 163.5q0 94 56 163t145 88v108h110v-107q82 -15 153 -93l-96 -93q-29 34 -57 47v-228q35 15 67 56zM202 245q0 -73 56 -106v212q-56 -35 -56 -106z" />
    <glyph glyph-name="sterling" unicode="&#xa3;" horiz-adv-x="646" 
d="M65 301v122h68q-4 31 -4 57q0 112 70.5 172t161.5 60q148 0 230 -111l-102 -104q-46 79 -119 79q-44 0 -68.5 -29.5t-24.5 -72.5q0 -29 5 -51h173v-122h-147l35 -162h123v110h133v-249h-534v139h128l-38 162h-90z" />
    <glyph glyph-name="currency" unicode="&#xa4;" horiz-adv-x="590" 
d="M40 405l101 96l62 -65q45 21 91 21q47 0 91 -21l64 65l101 -96l-66 -69q21 -44 21 -90t-21 -91l66 -67l-102 -98l-63 66q-42 -21 -91 -21q-48 0 -90 20l-62 -65l-102 98l64 66q-21 42 -21 92t21 91zM223 246q0 -29 20.5 -50t50.5 -21t50.5 21t20.5 50q0 30 -20.5 52
t-50.5 22q-31 0 -51 -21.5t-20 -52.5z" />
    <glyph glyph-name="yen" unicode="&#xa5;" horiz-adv-x="663" 
d="M187 700l144 -294l145 294h162l-144 -279h75v-122h-165v-47h165v-122h-165v-130h-147v130h-165v122h165v47h-165v122h75l-142 279h162z" />
    <glyph glyph-name="brokenbar" unicode="&#xa6;" horiz-adv-x="379" 
d="M120 336v364h139v-364h-139zM120 -194v365h139v-365h-139z" />
    <glyph glyph-name="section" unicode="&#xa7;" horiz-adv-x="633" 
d="M576 218q0 -76 -57 -140q33 -45 33 -102q0 -75 -63.5 -128t-163.5 -53q-155 0 -241 139l96 92q62 -98 148 -98q36 0 57.5 12.5t21.5 35.5t-19 38.5t-65 31.5l-82 28q-90 32 -137 81.5t-47 131.5q0 93 72 146q-34 46 -34 106q0 75 61 124t154 49q123 0 220 -110l-95 -95
q-31 36 -60.5 54t-71.5 18q-29 0 -46.5 -13.5t-17.5 -33.5q0 -44 76 -74l62 -24q100 -37 149.5 -85t49.5 -131zM287 201l126 -47q19 23 19 55q0 60 -85 93l-122 48q-23 -18 -23 -56q0 -62 85 -93z" />
    <glyph glyph-name="dieresis" unicode="&#xa8;" horiz-adv-x="500" 
d="M69 638q0 30 21.5 52t52.5 22q30 0 52.5 -22t22.5 -52t-22.5 -52t-52.5 -22q-31 0 -52.5 21.5t-21.5 52.5zM281 638q0 30 21.5 52t52.5 22q30 0 52.5 -22t22.5 -52t-22.5 -52t-52.5 -22q-31 0 -52.5 21.5t-21.5 52.5z" />
    <glyph glyph-name="copyright" unicode="&#xa9;" horiz-adv-x="826" 
d="M51 351q0 152 105.5 256.5t256.5 104.5t256.5 -104.5t105.5 -256.5q0 -154 -105.5 -258t-256.5 -104q-152 0 -257 104t-105 258zM139 351q0 -117 77.5 -196.5t196.5 -79.5q118 0 196 79.5t78 196.5q0 115 -78 195t-196 80q-119 0 -196.5 -79.5t-77.5 -195.5zM506 301
l77 -72q-68 -79 -162 -79q-87 0 -145 56t-58 144t59 143.5t146 55.5q92 0 152 -71l-77 -77q-30 40 -75 40q-35 0 -61 -25.5t-26 -65.5q0 -39 25.5 -65.5t63.5 -26.5q48 0 81 43z" />
    <glyph glyph-name="ordfeminine" unicode="&#xaa;" horiz-adv-x="413" 
d="M161 334q-61 0 -96 32t-35 82q0 57 43.5 87t107.5 30q36 0 72 -9v2q0 25 -16 40.5t-43 15.5q-51 0 -81 -41l-72 66q64 72 161 72q71 0 119 -39t48 -105v-225h-114v22q-36 -30 -94 -30zM145 456q0 -13 12.5 -21.5t32.5 -8.5q34 0 63 19v40q-21 6 -45 6q-63 0 -63 -35z" />
    <glyph glyph-name="guillemotleft" unicode="&#xab;" horiz-adv-x="661" 
d="M40 245l137 245h154l-139 -245l139 -245h-154zM330 245l137 245h154l-139 -245l139 -245h-154z" />
    <glyph glyph-name="logicalnot" unicode="&#xac;" 
d="M50 164v132h490v-264h-137v132h-353z" />
    <glyph glyph-name="uni00AD" unicode="&#xad;" horiz-adv-x="280" 
d="M20 198v128h240v-128h-240z" />
    <glyph glyph-name="registered" unicode="&#xae;" horiz-adv-x="648" 
d="M51 435q0 115 79 196t193 81t193.5 -81t79.5 -196q0 -114 -79.5 -194.5t-193.5 -80.5t-193 80.5t-79 194.5zM129 435q0 -83 55.5 -141t138.5 -58t139 58t56 141q0 84 -56 142.5t-139 58.5t-138.5 -58.5t-55.5 -142.5zM365 316l-37 64h-27v-64h-86v251h125
q44 0 75.5 -24.5t31.5 -70.5q0 -50 -41 -76l48 -80h-89zM326 497h-25v-46h25q35 0 35 24q0 22 -35 22z" />
    <glyph glyph-name="macron" unicode="&#xaf;" horiz-adv-x="500" 
d="M125 700h250v-117h-250v117z" />
    <glyph glyph-name="degree" unicode="&#xb0;" horiz-adv-x="402" 
d="M30 541q0 72 50 121.5t121 49.5q72 0 121.5 -49.5t49.5 -121.5q0 -71 -49.5 -121t-121.5 -50q-71 0 -121 50t-50 121zM143 541q0 -25 16.5 -42t41.5 -17q23 0 40 17t17 42q0 26 -16.5 43.5t-40.5 17.5q-25 0 -41.5 -17.5t-16.5 -43.5z" />
    <glyph glyph-name="plusminus" unicode="&#xb1;" horiz-adv-x="622" 
d="M60 -139v128h502v-128h-502zM66 251v132h178v177h132v-177h180v-132h-180v-179h-132v179h-178z" />
    <glyph glyph-name="twosuperior" unicode="&#xb2;" horiz-adv-x="379" 
d="M190 707q62 0 108.5 -31t46.5 -86q0 -47 -23.5 -75.5t-74.5 -52.5l-19 -9q-40 -19 -51 -26.5t-15 -17.5h181v-101h-315v13q1 76 31.5 125.5t101.5 80.5l25 11q26 12 34.5 20.5t8.5 19.5q0 12 -11.5 20t-30.5 8q-55 0 -86 -54l-73 70q19 36 64 60.5t98 24.5z" />
    <glyph glyph-name="threesuperior" unicode="&#xb3;" horiz-adv-x="358" 
d="M274 513q55 -28 55 -90q0 -56 -47.5 -88.5t-120.5 -32.5q-47 0 -88.5 19t-65.5 48l77 74q33 -41 81 -41q22 0 35.5 9.5t13.5 20.5q0 31 -63 31h-36v88h33q55 0 55 28q0 11 -11.5 19t-31.5 8q-42 0 -68 -35l-75 71q59 65 151 65q63 0 107 -27.5t44 -83.5q0 -55 -45 -83z
" />
    <glyph glyph-name="acute" unicode="&#xb4;" horiz-adv-x="500" 
d="M197 700h180l-120 -142h-134z" />
    <glyph glyph-name="mu" unicode="&#xb5;" horiz-adv-x="576" 
d="M211 5v-199h-143v684h143v-279q0 -41 19 -66t56 -25q84 0 84 119v251h143v-490h-140v34q-43 -45 -101 -45q-32 0 -61 16z" />
    <glyph glyph-name="paragraph" unicode="&#xb6;" horiz-adv-x="767" 
d="M291 700h406v-894h-145v761h-93v-761h-144v451h-24q-118 0 -187.5 60t-69.5 161t69.5 161.5t187.5 60.5z" />
    <glyph glyph-name="periodcentered" unicode="&#xb7;" horiz-adv-x="280" 
d="M54 257q0 36 24.5 61t60.5 25t61.5 -25t25.5 -61t-25.5 -61t-61.5 -25t-60.5 25t-24.5 61z" />
    <glyph glyph-name="cedilla" unicode="&#xb8;" horiz-adv-x="500" 
d="M292 -137h-143l77 148h125z" />
    <glyph glyph-name="onesuperior" unicode="&#xb9;" horiz-adv-x="352" 
d="M32 409h98v161q-39 -22 -98 -22v98q82 4 107 54h106v-291h95v-101h-308v101z" />
    <glyph glyph-name="ordmasculine" unicode="&#xba;" horiz-adv-x="452" 
d="M25 522q0 81 57.5 135t143.5 54t143.5 -54t57.5 -135t-57.5 -134.5t-143.5 -53.5t-143.5 53.5t-57.5 134.5zM143 522q0 -37 23.5 -61.5t59.5 -24.5q37 0 60.5 24t23.5 62t-23.5 62.5t-60.5 24.5q-36 0 -59.5 -24.5t-23.5 -62.5z" />
    <glyph glyph-name="guillemotright" unicode="&#xbb;" horiz-adv-x="661" 
d="M194 490l137 -245l-137 -245h-154l139 245l-139 245h154zM484 490l137 -245l-137 -245h-154l139 245l-139 245h154z" />
    <glyph glyph-name="onequarter" unicode="&#xbc;" horiz-adv-x="899" 
d="M32 409h98v161q-39 -22 -98 -22v98q82 4 107 54h106v-291h95v-101h-308v101zM878 72h-58v-72h-115v72h-181v89l165 231h131v-225h58v-95zM643 167h62v94zM200 0l431 700h133l-431 -700h-133z" />
    <glyph glyph-name="onehalf" unicode="&#xbd;" horiz-adv-x="930" 
d="M32 409h98v161q-39 -22 -98 -22v98q82 4 107 54h106v-291h95v-101h-308v101zM200 0l431 700h133l-431 -700h-133zM746 399q62 0 108.5 -31t46.5 -86q0 -47 -23.5 -75.5t-74.5 -52.5l-19 -9q-40 -19 -51 -26.5t-15 -17.5h181v-101h-315v13q1 76 31.5 125.5t101.5 80.5
l25 11q26 12 34.5 20.5t8.5 19.5q0 12 -11.5 20t-30.5 8q-55 0 -86 -54l-73 70q19 36 64 60.5t98 24.5z" />
    <glyph glyph-name="threequarters" unicode="&#xbe;" horiz-adv-x="869" 
d="M274 513q55 -28 55 -90q0 -56 -47.5 -88.5t-120.5 -32.5q-47 0 -88.5 19t-65.5 48l77 74q33 -41 81 -41q22 0 35.5 9.5t13.5 20.5q0 31 -63 31h-36v88h33q55 0 55 28q0 11 -11.5 19t-31.5 8q-42 0 -68 -35l-75 71q59 65 151 65q63 0 107 -27.5t44 -83.5q0 -55 -45 -83z
M848 72h-58v-72h-115v72h-181v89l165 231h131v-225h58v-95zM613 167h62v94zM170 0l431 700h133l-431 -700h-133z" />
    <glyph glyph-name="questiondown" unicode="&#xbf;" horiz-adv-x="552" 
d="M386 268h-145v-58q-84 -17 -134 -72.5t-50 -132.5q0 -95 70 -152.5t173 -57.5q149 0 235 113l-94 100q-50 -75 -142 -75q-41 0 -67.5 20.5t-26.5 53.5q0 41 37 62t98 21h46v178zM398 416q0 -36 -25 -61.5t-61 -25.5t-61 25.5t-25 61.5t25 61t61 25t61 -25t25 -61z" />
    <glyph glyph-name="Agrave" unicode="&#xc0;" horiz-adv-x="712" 
d="M427 700l274 -700h-154l-56 138h-271l-55 -138h-154l274 700h142zM356 498l-87 -228h174zM194 872h170l74 -103h-146z" />
    <glyph glyph-name="Aacute" unicode="&#xc1;" horiz-adv-x="712" 
d="M427 700l274 -700h-154l-56 138h-271l-55 -138h-154l274 700h142zM356 498l-87 -228h174zM348 872h170l-98 -103h-146z" />
    <glyph glyph-name="Acircumflex" unicode="&#xc2;" horiz-adv-x="712" 
d="M427 700l274 -700h-154l-56 138h-271l-55 -138h-154l274 700h142zM356 498l-87 -228h174zM270 872h174l85 -103h-134l-38 40l-38 -40h-135z" />
    <glyph glyph-name="Atilde" unicode="&#xc3;" horiz-adv-x="712" 
d="M427 700l274 -700h-154l-56 138h-271l-55 -138h-154l274 700h142zM356 498l-87 -228h174zM430 894h91q0 -51 -26.5 -88t-70.5 -37q-7 0 -43 8l-41 13q-17 5 -30 5q-26 0 -27 -26h-91q0 51 26 88t71 37q11 0 43 -7l41 -13q20 -6 30 -6q26 0 27 26z" />
    <glyph glyph-name="Adieresis" unicode="&#xc4;" horiz-adv-x="712" 
d="M427 700l274 -700h-154l-56 138h-271l-55 -138h-154l274 700h142zM356 498l-87 -228h174zM176 833q0 30 21.5 52t52.5 22q30 0 52.5 -22t22.5 -52t-22.5 -52t-52.5 -22q-31 0 -52.5 21.5t-21.5 52.5zM388 833q0 30 21.5 52t52.5 22q30 0 52.5 -22t22.5 -52t-22.5 -52
t-52.5 -22q-31 0 -52.5 21.5t-21.5 52.5z" />
    <glyph glyph-name="Aring" unicode="&#xc5;" horiz-adv-x="712" 
d="M258 774q0 40 28.5 68.5t69.5 28.5q40 0 69 -28.5t29 -68.5q0 -45 -37 -74h10l274 -700h-154l-56 138h-271l-55 -138h-154l274 700h9q-36 28 -36 74zM356 498l-87 -228h174zM380 774q0 10 -7 17t-17 7t-17 -7t-7 -17t7 -17t17 -7t17 7t7 17z" />
    <glyph glyph-name="AE" unicode="&#xc6;" horiz-adv-x="939" 
d="M876 701v-137h-396l55 -139h324v-135h-272l60 -153h229v-137h-329l-56 138h-271l-55 -138h-154l274 701h591zM356 499l-87 -229h174z" />
    <glyph glyph-name="Ccedilla" unicode="&#xc7;" horiz-adv-x="733" 
d="M417 -137h-143l68 132q-133 21 -216.5 116t-83.5 238q0 164 105 263.5t262 99.5q172 0 279 -132l-100 -102q-31 44 -79.5 69.5t-106.5 25.5q-82 0 -145 -59.5t-63 -161.5q0 -104 62 -164t154 -60q118 0 190 98l99 -105q-91 -112 -231 -128z" />
    <glyph glyph-name="Egrave" unicode="&#xc8;" horiz-adv-x="650" 
d="M70 0v700h517v-137h-368v-138h351v-135h-351v-153h368v-137h-517zM166 872h170l74 -103h-146z" />
    <glyph glyph-name="Eacute" unicode="&#xc9;" horiz-adv-x="650" 
d="M70 0v700h517v-137h-368v-138h351v-135h-351v-153h368v-137h-517zM320 872h170l-98 -103h-146z" />
    <glyph glyph-name="Ecircumflex" unicode="&#xca;" horiz-adv-x="650" 
d="M70 0v700h517v-137h-368v-138h351v-135h-351v-153h368v-137h-517zM242 872h174l85 -103h-134l-38 40l-38 -40h-135z" />
    <glyph glyph-name="Edieresis" unicode="&#xcb;" horiz-adv-x="650" 
d="M70 0v700h517v-137h-368v-138h351v-135h-351v-153h368v-137h-517zM148 833q0 30 21.5 52t52.5 22q30 0 52.5 -22t22.5 -52t-22.5 -52t-52.5 -22q-31 0 -52.5 21.5t-21.5 52.5zM360 833q0 30 21.5 52t52.5 22q30 0 52.5 -22t22.5 -52t-22.5 -52t-52.5 -22
q-31 0 -52.5 21.5t-21.5 52.5z" />
    <glyph glyph-name="Igrave" unicode="&#xcc;" horiz-adv-x="288" 
d="M71 0v700h148v-700h-148zM-18 872h170l74 -103h-146z" />
    <glyph glyph-name="Iacute" unicode="&#xcd;" horiz-adv-x="288" 
d="M71 0v700h148v-700h-148zM136 872h170l-98 -103h-146z" />
    <glyph glyph-name="Icircumflex" unicode="&#xce;" horiz-adv-x="288" 
d="M71 0v700h148v-700h-148zM58 872h174l85 -103h-134l-38 40l-38 -40h-135z" />
    <glyph glyph-name="Idieresis" unicode="&#xcf;" horiz-adv-x="288" 
d="M71 0v700h148v-700h-148zM-36 833q0 30 21.5 52t52.5 22q30 0 52.5 -22t22.5 -52t-22.5 -52t-52.5 -22q-31 0 -52.5 21.5t-21.5 52.5zM176 833q0 30 21.5 52t52.5 22q30 0 52.5 -22t22.5 -52t-22.5 -52t-52.5 -22q-31 0 -52.5 21.5t-21.5 52.5z" />
    <glyph glyph-name="Eth" unicode="&#xd0;" horiz-adv-x="734" 
d="M70 0v292h-74v131h74v277h231q75 0 141.5 -19t124 -57.5t91.5 -108t34 -160.5q0 -92 -34 -162.5t-91 -111t-124.5 -61t-141.5 -20.5h-231zM278 563h-59v-140h114v-131h-114v-155h60q262 0 262 218q0 208 -263 208z" />
    <glyph glyph-name="Ntilde" unicode="&#xd1;" horiz-adv-x="750" 
d="M502 0l-283 472v-472h-149v700h179l283 -474v474h148v-700h-178zM449 894h91q0 -51 -26.5 -88t-70.5 -37q-7 0 -43 8l-41 13q-17 5 -30 5q-26 0 -27 -26h-91q0 51 26 88t71 37q12 0 43 -7l41 -13q20 -6 30 -6q26 0 27 26z" />
    <glyph glyph-name="Ograve" unicode="&#xd2;" horiz-adv-x="807" 
d="M42 351q0 156 104 258.5t256 102.5q153 0 258 -102.5t105 -258.5q0 -157 -105 -259.5t-258 -102.5q-152 0 -256 102.5t-104 259.5zM194 351q0 -94 57 -158t154 -64q95 0 151.5 64t56.5 158q0 92 -58.5 156.5t-149.5 64.5q-96 0 -153.5 -64t-57.5 -157zM241 872h170
l74 -103h-146z" />
    <glyph glyph-name="Oacute" unicode="&#xd3;" horiz-adv-x="807" 
d="M42 351q0 156 104 258.5t256 102.5q153 0 258 -102.5t105 -258.5q0 -157 -105 -259.5t-258 -102.5q-152 0 -256 102.5t-104 259.5zM194 351q0 -94 57 -158t154 -64q95 0 151.5 64t56.5 158q0 92 -58.5 156.5t-149.5 64.5q-96 0 -153.5 -64t-57.5 -157zM395 872h170
l-98 -103h-146z" />
    <glyph glyph-name="Ocircumflex" unicode="&#xd4;" horiz-adv-x="807" 
d="M42 351q0 156 104 258.5t256 102.5q153 0 258 -102.5t105 -258.5q0 -157 -105 -259.5t-258 -102.5q-152 0 -256 102.5t-104 259.5zM194 351q0 -94 57 -158t154 -64q95 0 151.5 64t56.5 158q0 92 -58.5 156.5t-149.5 64.5q-96 0 -153.5 -64t-57.5 -157zM317 872h174
l85 -103h-134l-38 40l-38 -40h-135z" />
    <glyph glyph-name="Otilde" unicode="&#xd5;" horiz-adv-x="807" 
d="M42 351q0 156 104 258.5t256 102.5q153 0 258 -102.5t105 -258.5q0 -157 -105 -259.5t-258 -102.5q-152 0 -256 102.5t-104 259.5zM194 351q0 -94 57 -158t154 -64q95 0 151.5 64t56.5 158q0 92 -58.5 156.5t-149.5 64.5q-96 0 -153.5 -64t-57.5 -157zM477 894h91
q0 -51 -26.5 -88t-70.5 -37q-7 0 -43 8l-41 13q-17 5 -30 5q-26 0 -27 -26h-91q0 51 26 88t71 37q12 0 43 -7l41 -13q20 -6 30 -6q26 0 27 26z" />
    <glyph glyph-name="Odieresis" unicode="&#xd6;" horiz-adv-x="807" 
d="M42 351q0 156 104 258.5t256 102.5q153 0 258 -102.5t105 -258.5q0 -157 -105 -259.5t-258 -102.5q-152 0 -256 102.5t-104 259.5zM194 351q0 -94 57 -158t154 -64q95 0 151.5 64t56.5 158q0 92 -58.5 156.5t-149.5 64.5q-96 0 -153.5 -64t-57.5 -157zM223 833
q0 30 21.5 52t52.5 22q30 0 52.5 -22t22.5 -52t-22.5 -52t-52.5 -22q-31 0 -52.5 21.5t-21.5 52.5zM435 833q0 30 21.5 52t52.5 22q30 0 52.5 -22t22.5 -52t-22.5 -52t-52.5 -22q-31 0 -52.5 21.5t-21.5 52.5z" />
    <glyph glyph-name="multiply" unicode="&#xd7;" horiz-adv-x="577" 
d="M52 389l95 94l142 -142l141 142l95 -94l-141 -143l143 -143l-94 -95l-144 144l-145 -144l-94 95l144 143z" />
    <glyph glyph-name="Oslash" unicode="&#xd8;" horiz-adv-x="807" 
d="M42 351q0 156 104 258.5t256 102.5q78 0 153 -32l42 60l97 -70l-39 -56q110 -104 110 -263q0 -157 -105 -259.5t-258 -102.5q-88 0 -161 35l-42 -60l-96 69l41 59q-102 104 -102 259zM614 351q0 80 -46 140l-243 -348q37 -14 81 -14q95 0 151.5 64t56.5 158zM195 351
q0 -76 37 -133l240 343q-33 11 -66 11q-96 0 -153.5 -64t-57.5 -157z" />
    <glyph glyph-name="Ugrave" unicode="&#xd9;" horiz-adv-x="714" 
d="M503 306v394h148v-389q0 -157 -78 -239.5t-216 -82.5t-216 82.5t-78 239.5v389h148v-396q0 -80 37 -129.5t109 -49.5q146 0 146 181zM195 872h170l74 -103h-146z" />
    <glyph glyph-name="Uacute" unicode="&#xda;" horiz-adv-x="714" 
d="M503 306v394h148v-389q0 -157 -78 -239.5t-216 -82.5t-216 82.5t-78 239.5v389h148v-396q0 -80 37 -129.5t109 -49.5q146 0 146 181zM349 872h170l-98 -103h-146z" />
    <glyph glyph-name="Ucircumflex" unicode="&#xdb;" horiz-adv-x="714" 
d="M503 306v394h148v-389q0 -157 -78 -239.5t-216 -82.5t-216 82.5t-78 239.5v389h148v-396q0 -80 37 -129.5t109 -49.5q146 0 146 181zM271 872h174l85 -103h-134l-38 40l-38 -40h-135z" />
    <glyph glyph-name="Udieresis" unicode="&#xdc;" horiz-adv-x="714" 
d="M503 306v394h148v-389q0 -157 -78 -239.5t-216 -82.5t-216 82.5t-78 239.5v389h148v-396q0 -80 37 -129.5t109 -49.5q146 0 146 181zM177 833q0 30 21.5 52t52.5 22q30 0 52.5 -22t22.5 -52t-22.5 -52t-52.5 -22q-31 0 -52.5 21.5t-21.5 52.5zM389 833q0 30 21.5 52
t52.5 22q30 0 52.5 -22t22.5 -52t-22.5 -52t-52.5 -22q-31 0 -52.5 21.5t-21.5 52.5z" />
    <glyph glyph-name="Yacute" unicode="&#xdd;" horiz-adv-x="633" 
d="M172 700l144 -294l145 294h162l-234 -455v-245h-147v245l-232 455h162zM308 872h170l-98 -103h-146z" />
    <glyph glyph-name="Thorn" unicode="&#xde;" horiz-adv-x="641" 
d="M337 120h-118v-120h-149v700h149v-102h118q124 0 199 -63t75 -171q0 -109 -76 -176.5t-198 -67.5zM311 462h-92v-206h92q152 0 152 104q0 102 -152 102z" />
    <glyph glyph-name="germandbls" unicode="&#xdf;" horiz-adv-x="634" 
d="M282 131h68q106 0 106 76q0 78 -106 78h-68v131h48q44 0 69 23.5t25 59.5t-26.5 59t-70.5 23q-122 0 -122 -151v-430h-142v430q0 130 73 206t195 76q96 0 166.5 -59t70.5 -147q0 -44 -18 -83t-46 -60q95 -57 95 -162q0 -88 -62 -144.5t-172 -56.5h-83v131z" />
    <glyph glyph-name="agrave" unicode="&#xe0;" horiz-adv-x="533" 
d="M210 -11q-78 0 -124 43.5t-46 111.5q0 77 56 117.5t138 40.5q49 0 97 -14v8q0 35 -22 57.5t-59 22.5q-67 0 -105 -57l-90 86q81 97 205 97q93 0 154 -52.5t61 -143.5v-306h-142v32q-49 -43 -123 -43zM183 153q0 -19 17 -31.5t44 -12.5q47 0 87 30v56q-38 9 -65 9
q-40 0 -61.5 -14t-21.5 -37zM90 700h180l74 -142h-134z" />
    <glyph glyph-name="aacute" unicode="&#xe1;" horiz-adv-x="533" 
d="M210 -11q-78 0 -124 43.5t-46 111.5q0 77 56 117.5t138 40.5q49 0 97 -14v8q0 35 -22 57.5t-59 22.5q-67 0 -105 -57l-90 86q81 97 205 97q93 0 154 -52.5t61 -143.5v-306h-142v32q-49 -43 -123 -43zM183 153q0 -19 17 -31.5t44 -12.5q47 0 87 30v56q-38 9 -65 9
q-40 0 -61.5 -14t-21.5 -37zM244 700h180l-120 -142h-134z" />
    <glyph glyph-name="acircumflex" unicode="&#xe2;" horiz-adv-x="533" 
d="M210 -11q-78 0 -124 43.5t-46 111.5q0 77 56 117.5t138 40.5q49 0 97 -14v8q0 35 -22 57.5t-59 22.5q-67 0 -105 -57l-90 86q81 97 205 97q93 0 154 -52.5t61 -143.5v-306h-142v32q-49 -43 -123 -43zM183 153q0 -19 17 -31.5t44 -12.5q47 0 87 30v56q-38 9 -65 9
q-40 0 -61.5 -14t-21.5 -37zM176 700h163l91 -142h-123l-50 59l-49 -59h-123z" />
    <glyph glyph-name="atilde" unicode="&#xe3;" horiz-adv-x="533" 
d="M210 -11q-78 0 -124 43.5t-46 111.5q0 77 56 117.5t138 40.5q49 0 97 -14v8q0 35 -22 57.5t-59 22.5q-67 0 -105 -57l-90 86q81 97 205 97q93 0 154 -52.5t61 -143.5v-306h-142v32q-49 -43 -123 -43zM183 153q0 -19 17 -31.5t44 -12.5q47 0 87 30v56q-38 9 -65 9
q-40 0 -61.5 -14t-21.5 -37zM331 700h91q0 -51 -26.5 -88t-70.5 -37q-7 0 -43 8l-41 13q-17 5 -30 5q-26 0 -27 -26h-91q0 51 26 88t71 37q11 0 43 -7l41 -13q20 -6 30 -6q26 0 27 26z" />
    <glyph glyph-name="adieresis" unicode="&#xe4;" horiz-adv-x="533" 
d="M210 -11q-78 0 -124 43.5t-46 111.5q0 77 56 117.5t138 40.5q49 0 97 -14v8q0 35 -22 57.5t-59 22.5q-67 0 -105 -57l-90 86q81 97 205 97q93 0 154 -52.5t61 -143.5v-306h-142v32q-49 -43 -123 -43zM183 153q0 -19 17 -31.5t44 -12.5q47 0 87 30v56q-38 9 -65 9
q-40 0 -61.5 -14t-21.5 -37zM77 638q0 30 21.5 52t52.5 22q30 0 52.5 -22t22.5 -52t-22.5 -52t-52.5 -22q-31 0 -52.5 21.5t-21.5 52.5zM289 638q0 30 21.5 52t52.5 22q30 0 52.5 -22t22.5 -52t-22.5 -52t-52.5 -22q-31 0 -52.5 21.5t-21.5 52.5z" />
    <glyph glyph-name="aring" unicode="&#xe5;" horiz-adv-x="533" 
d="M210 -11q-78 0 -124 43.5t-46 111.5q0 77 56 117.5t138 40.5q49 0 97 -14v8q0 35 -22 57.5t-59 22.5q-67 0 -105 -57l-90 86q81 97 205 97q93 0 154 -52.5t61 -143.5v-306h-142v32q-49 -43 -123 -43zM183 153q0 -19 17 -31.5t44 -12.5q47 0 87 30v56q-38 9 -65 9
q-40 0 -61.5 -14t-21.5 -37zM159 631q0 40 28.5 68.5t69.5 28.5q40 0 69 -28.5t29 -68.5q0 -39 -29 -67t-69 -28t-69 28t-29 67zM281 631q0 10 -7 17t-17 7t-17 -7t-7 -17t7 -17t17 -7t17 7t7 17z" />
    <glyph glyph-name="ae" unicode="&#xe6;" horiz-adv-x="836" 
d="M801 209h-325q4 -40 33 -65t76 -25q69 0 108 62l100 -93q-79 -99 -207 -99q-108 0 -178 64q-81 -64 -180 -64q-86 0 -137 43.5t-51 111.5q0 77 56 117.5t138 40.5h101q0 33 -24 50.5t-61 17.5q-67 0 -105 -53l-90 85q74 100 205 100q91 0 148 -63q66 63 161 63
q112 0 172.5 -74.5t60.5 -176.5zM335 199h-75q-77 0 -77 -47q0 -19 15.5 -31t42.5 -12q59 0 105 40q-8 27 -11 50zM573 377q-74 0 -90 -73h169q-2 32 -23.5 52.5t-55.5 20.5z" />
    <glyph glyph-name="ccedilla" unicode="&#xe7;" horiz-adv-x="537" 
d="M308 -137h-143l69 133q-88 18 -143.5 86.5t-55.5 162.5q0 110 74.5 183.5t184.5 73.5q117 0 205 -98l-96 -93q-47 57 -104 57q-51 0 -85 -34.5t-34 -88.5t34 -88.5t85 -34.5q64 0 114 64l96 -93q-58 -77 -148 -97z" />
    <glyph glyph-name="egrave" unicode="&#xe8;" horiz-adv-x="546" 
d="M511 209h-332q6 -40 35 -65t75 -25q75 0 120 57l94 -88q-79 -99 -210 -99q-112 0 -185 69.5t-73 183.5q0 112 67.5 186t173.5 74q112 0 174 -75t62 -176zM279 377q-38 0 -62 -20.5t-31 -52.5h176q-2 31 -25 52t-58 21zM115 700h180l74 -142h-134z" />
    <glyph glyph-name="eacute" unicode="&#xe9;" horiz-adv-x="546" 
d="M511 209h-332q6 -40 35 -65t75 -25q75 0 120 57l94 -88q-79 -99 -210 -99q-112 0 -185 69.5t-73 183.5q0 112 67.5 186t173.5 74q112 0 174 -75t62 -176zM279 377q-38 0 -62 -20.5t-31 -52.5h176q-2 31 -25 52t-58 21zM269 700h180l-120 -142h-134z" />
    <glyph glyph-name="ecircumflex" unicode="&#xea;" horiz-adv-x="546" 
d="M511 209h-332q6 -40 35 -65t75 -25q75 0 120 57l94 -88q-79 -99 -210 -99q-112 0 -185 69.5t-73 183.5q0 112 67.5 186t173.5 74q112 0 174 -75t62 -176zM279 377q-38 0 -62 -20.5t-31 -52.5h176q-2 31 -25 52t-58 21zM201 700h163l91 -142h-123l-50 59l-49 -59h-123z
" />
    <glyph glyph-name="edieresis" unicode="&#xeb;" horiz-adv-x="546" 
d="M511 209h-332q6 -40 35 -65t75 -25q75 0 120 57l94 -88q-79 -99 -210 -99q-112 0 -185 69.5t-73 183.5q0 112 67.5 186t173.5 74q112 0 174 -75t62 -176zM279 377q-38 0 -62 -20.5t-31 -52.5h176q-2 31 -25 52t-58 21zM102 638q0 30 21.5 52t52.5 22q30 0 52.5 -22
t22.5 -52t-22.5 -52t-52.5 -22q-31 0 -52.5 21.5t-21.5 52.5zM314 638q0 30 21.5 52t52.5 22q30 0 52.5 -22t22.5 -52t-22.5 -52t-52.5 -22q-31 0 -52.5 21.5t-21.5 52.5z" />
    <glyph glyph-name="igrave" unicode="&#xec;" horiz-adv-x="279" 
d="M68 0v490h143v-490h-143zM-28 700h180l74 -142h-134z" />
    <glyph glyph-name="iacute" unicode="&#xed;" horiz-adv-x="279" 
d="M68 0v490h143v-490h-143zM126 700h180l-120 -142h-134z" />
    <glyph glyph-name="icircumflex" unicode="&#xee;" horiz-adv-x="279" 
d="M68 0v490h143v-490h-143zM58 700h163l91 -142h-123l-50 59l-49 -59h-123z" />
    <glyph glyph-name="idieresis" unicode="&#xef;" horiz-adv-x="279" 
d="M68 0v490h143v-490h-143zM-41 638q0 30 21.5 52t52.5 22q30 0 52.5 -22t22.5 -52t-22.5 -52t-52.5 -22q-31 0 -52.5 21.5t-21.5 52.5zM171 638q0 30 21.5 52t52.5 22q30 0 52.5 -22t22.5 -52t-22.5 -52t-52.5 -22q-31 0 -52.5 21.5t-21.5 52.5z" />
    <glyph glyph-name="eth" unicode="&#xf0;" horiz-adv-x="558" 
d="M152 456v108l53 30l-79 106h156l32 -44l97 56v-108l-42 -24l64 -88q90 -124 90 -247q0 -104 -65 -180t-178 -76q-108 0 -176 67.5t-68 168.5q0 105 68 168.5t161 63.5q30 0 49 -8l-52 70zM181 222q0 -42 26 -71t69 -29q44 0 70 29t26 71q0 43 -26 72t-70 29
q-43 0 -69 -29t-26 -72z" />
    <glyph glyph-name="ntilde" unicode="&#xf1;" horiz-adv-x="577" 
d="M205 245v-245h-142v490h140v-34q48 46 116 46q91 0 145.5 -57t54.5 -160v-285h-142v274q0 42 -20.5 69t-61.5 27q-90 0 -90 -125zM370 700h91q0 -51 -26.5 -88t-70.5 -37q-7 0 -43 8l-41 13q-17 5 -30 5q-26 0 -27 -26h-91q0 51 26 88t71 37q11 0 43 -7l41 -13
q20 -6 30 -6q26 0 27 26z" />
    <glyph glyph-name="ograve" unicode="&#xf2;" horiz-adv-x="588" 
d="M35 245q0 110 74.5 183.5t184.5 73.5t184.5 -73.5t74.5 -183.5t-74 -183t-185 -73t-185 73t-74 183zM180 245q0 -54 32 -89t82 -35t82 35t32 89t-32 89t-82 35t-82 -35t-32 -89zM127 700h180l74 -142h-134z" />
    <glyph glyph-name="oacute" unicode="&#xf3;" horiz-adv-x="588" 
d="M35 245q0 110 74.5 183.5t184.5 73.5t184.5 -73.5t74.5 -183.5t-74 -183t-185 -73t-185 73t-74 183zM180 245q0 -54 32 -89t82 -35t82 35t32 89t-32 89t-82 35t-82 -35t-32 -89zM281 700h180l-120 -142h-134z" />
    <glyph glyph-name="ocircumflex" unicode="&#xf4;" horiz-adv-x="588" 
d="M35 245q0 110 74.5 183.5t184.5 73.5t184.5 -73.5t74.5 -183.5t-74 -183t-185 -73t-185 73t-74 183zM180 245q0 -54 32 -89t82 -35t82 35t32 89t-32 89t-82 35t-82 -35t-32 -89zM213 700h163l91 -142h-123l-50 59l-49 -59h-123z" />
    <glyph glyph-name="otilde" unicode="&#xf5;" horiz-adv-x="588" 
d="M35 245q0 110 74.5 183.5t184.5 73.5t184.5 -73.5t74.5 -183.5t-74 -183t-185 -73t-185 73t-74 183zM180 245q0 -54 32 -89t82 -35t82 35t32 89t-32 89t-82 35t-82 -35t-32 -89zM368 700h91q0 -51 -26.5 -88t-70.5 -37q-7 0 -43 8l-41 13q-17 5 -30 5q-26 0 -27 -26h-91
q0 51 26 88t71 37q11 0 43 -7l41 -13q20 -6 30 -6q26 0 27 26z" />
    <glyph glyph-name="odieresis" unicode="&#xf6;" horiz-adv-x="588" 
d="M35 245q0 110 74.5 183.5t184.5 73.5t184.5 -73.5t74.5 -183.5t-74 -183t-185 -73t-185 73t-74 183zM180 245q0 -54 32 -89t82 -35t82 35t32 89t-32 89t-82 35t-82 -35t-32 -89zM114 638q0 30 21.5 52t52.5 22q30 0 52.5 -22t22.5 -52t-22.5 -52t-52.5 -22
q-31 0 -52.5 21.5t-21.5 52.5zM326 638q0 30 21.5 52t52.5 22q30 0 52.5 -22t22.5 -52t-22.5 -52t-52.5 -22q-31 0 -52.5 21.5t-21.5 52.5z" />
    <glyph glyph-name="divide" unicode="&#xf7;" horiz-adv-x="621" 
d="M230 452q0 34 23 57.5t57 23.5q33 0 57 -23.5t24 -57.5q0 -33 -24 -56t-57 -23q-34 0 -57 23t-23 56zM230 68q0 34 23 57.5t57 23.5q33 0 57 -23.5t24 -57.5q0 -33 -24 -56t-57 -23q-34 0 -57 23t-23 56zM60 194v132h501v-132h-501z" />
    <glyph glyph-name="oslash" unicode="&#xf8;" horiz-adv-x="588" 
d="M35 245q0 110 74.5 183.5t184.5 73.5q44 0 88 -14l34 49l101 -73l-31 -44q67 -72 67 -175q0 -110 -74 -183t-185 -73q-52 0 -98 17l-35 -49l-100 72l34 48q-60 69 -60 168zM408 245q0 27 -9 51l-122 -174q5 -1 17 -1q50 0 82 35t32 89zM180 245q0 -24 5 -39l114 163h-5
q-50 0 -82 -35t-32 -89z" />
    <glyph glyph-name="ugrave" unicode="&#xf9;" horiz-adv-x="566" 
d="M360 239v251h143v-490h-140v34q-44 -45 -122 -45q-86 0 -134.5 56.5t-48.5 159.5v285h143v-279q0 -41 19 -66t56 -25q84 0 84 119zM113 700h180l74 -142h-134z" />
    <glyph glyph-name="uacute" unicode="&#xfa;" horiz-adv-x="566" 
d="M360 239v251h143v-490h-140v34q-44 -45 -122 -45q-86 0 -134.5 56.5t-48.5 159.5v285h143v-279q0 -41 19 -66t56 -25q84 0 84 119zM267 700h180l-120 -142h-134z" />
    <glyph glyph-name="ucircumflex" unicode="&#xfb;" horiz-adv-x="566" 
d="M360 239v251h143v-490h-140v34q-44 -45 -122 -45q-86 0 -134.5 56.5t-48.5 159.5v285h143v-279q0 -41 19 -66t56 -25q84 0 84 119zM199 700h163l91 -142h-123l-50 59l-49 -59h-123z" />
    <glyph glyph-name="udieresis" unicode="&#xfc;" horiz-adv-x="566" 
d="M360 239v251h143v-490h-140v34q-44 -45 -122 -45q-86 0 -134.5 56.5t-48.5 159.5v285h143v-279q0 -41 19 -66t56 -25q84 0 84 119zM100 638q0 30 21.5 52t52.5 22q30 0 52.5 -22t22.5 -52t-22.5 -52t-52.5 -22q-31 0 -52.5 21.5t-21.5 52.5zM312 638q0 30 21.5 52
t52.5 22q30 0 52.5 -22t22.5 -52t-22.5 -52t-52.5 -22q-31 0 -52.5 21.5t-21.5 52.5z" />
    <glyph glyph-name="yacute" unicode="&#xfd;" horiz-adv-x="546" 
d="M267 -194h-150l80 194l-191 490h158l110 -303l114 303h152zM260 700h180l-120 -142h-134z" />
    <glyph glyph-name="thorn" unicode="&#xfe;" horiz-adv-x="611" 
d="M576 245q0 -114 -70.5 -185t-174.5 -71q-78 0 -126 42v-225h-142v894h140v-245q49 47 128 47q104 0 174.5 -70.5t70.5 -186.5zM203 245q0 -56 32.5 -92t81.5 -36t81.5 36t32.5 92t-32.5 92t-81.5 36t-81.5 -36t-32.5 -92z" />
    <glyph glyph-name="ydieresis" unicode="&#xff;" horiz-adv-x="546" 
d="M267 -194h-150l80 194l-191 490h158l110 -303l114 303h152zM93 638q0 30 21.5 52t52.5 22q30 0 52.5 -22t22.5 -52t-22.5 -52t-52.5 -22q-31 0 -52.5 21.5t-21.5 52.5zM305 638q0 30 21.5 52t52.5 22q30 0 52.5 -22t22.5 -52t-22.5 -52t-52.5 -22q-31 0 -52.5 21.5
t-21.5 52.5z" />
    <glyph glyph-name="Amacron" unicode="&#x100;" horiz-adv-x="712" 
d="M427 700l274 -700h-154l-56 138h-271l-55 -138h-154l274 700h142zM356 498l-87 -228h174zM231 886h250v-117h-250v117z" />
    <glyph glyph-name="amacron" unicode="&#x101;" horiz-adv-x="533" 
d="M210 -11q-78 0 -124 43.5t-46 111.5q0 77 56 117.5t138 40.5q49 0 97 -14v8q0 35 -22 57.5t-59 22.5q-67 0 -105 -57l-90 86q81 97 205 97q93 0 154 -52.5t61 -143.5v-306h-142v32q-49 -43 -123 -43zM183 153q0 -19 17 -31.5t44 -12.5q47 0 87 30v56q-38 9 -65 9
q-40 0 -61.5 -14t-21.5 -37zM132 700h250v-117h-250v117z" />
    <glyph glyph-name="Abreve" unicode="&#x102;" horiz-adv-x="712" 
d="M427 700l274 -700h-154l-56 138h-271l-55 -138h-154l274 700h142zM356 498l-87 -228h174zM356 740q-63 0 -104.5 39t-45.5 107h106q4 -40 44 -40q39 0 45 40h106q-4 -68 -45.5 -107t-105.5 -39z" />
    <glyph glyph-name="abreve" unicode="&#x103;" horiz-adv-x="533" 
d="M210 -11q-78 0 -124 43.5t-46 111.5q0 77 56 117.5t138 40.5q49 0 97 -14v8q0 35 -22 57.5t-59 22.5q-67 0 -105 -57l-90 86q81 97 205 97q93 0 154 -52.5t61 -143.5v-306h-142v32q-49 -43 -123 -43zM183 153q0 -19 17 -31.5t44 -12.5q47 0 87 30v56q-38 9 -65 9
q-40 0 -61.5 -14t-21.5 -37zM257 552q-64 0 -103.5 40t-36.5 108h96q4 -40 44 -40q39 0 45 40h96q3 -68 -37 -108t-104 -40z" />
    <glyph glyph-name="Aogonek" unicode="&#x104;" horiz-adv-x="712" 
d="M427 700l274 -700h2q-61 -36 -61 -71t57 -35h4v-83q-27 -5 -62 -5q-49 0 -78 24.5t-29 67.5q0 59 60 102h-47l-56 138h-271l-55 -138h-154l274 700h142zM356 498l-87 -228h174z" />
    <glyph glyph-name="aogonek" unicode="&#x105;" horiz-adv-x="533" 
d="M210 -11q-78 0 -124 43.5t-46 111.5q0 77 56 117.5t138 40.5q49 0 97 -14v8q0 35 -22 57.5t-59 22.5q-67 0 -105 -57l-90 86q81 97 205 97q93 0 154 -52.5t61 -143.5v-306q-61 -36 -61 -71t57 -35h4v-83q-27 -5 -62 -5q-49 0 -78 24.5t-29 67.5q0 59 60 102h-33v32
q-49 -43 -123 -43zM183 153q0 -19 17 -31.5t44 -12.5q47 0 87 30v56q-38 9 -65 9q-40 0 -61.5 -14t-21.5 -37z" />
    <glyph glyph-name="Cacute" unicode="&#x106;" horiz-adv-x="733" 
d="M600 226l99 -105q-108 -132 -285 -132q-161 0 -266.5 99t-105.5 261q0 164 105 263.5t262 99.5q172 0 279 -132l-100 -102q-31 44 -79.5 69.5t-106.5 25.5q-82 0 -145 -59.5t-63 -161.5q0 -104 62 -164t154 -60q118 0 190 98zM395 872h170l-98 -103h-146z" />
    <glyph glyph-name="cacute" unicode="&#x107;" horiz-adv-x="537" 
d="M413 186l96 -93q-79 -104 -215 -104q-111 0 -185 73t-74 183t74.5 183.5t184.5 73.5q117 0 205 -98l-96 -93q-47 57 -104 57q-51 0 -85 -34.5t-34 -88.5t34 -88.5t85 -34.5q64 0 114 64zM283 700h180l-120 -142h-134z" />
    <glyph glyph-name="Ccircumflex" unicode="&#x108;" horiz-adv-x="733" 
d="M600 226l99 -105q-108 -132 -285 -132q-161 0 -266.5 99t-105.5 261q0 164 105 263.5t262 99.5q172 0 279 -132l-100 -102q-31 44 -79.5 69.5t-106.5 25.5q-82 0 -145 -59.5t-63 -161.5q0 -104 62 -164t154 -60q118 0 190 98zM317 872h174l85 -103h-134l-38 40l-38 -40
h-135z" />
    <glyph glyph-name="ccircumflex" unicode="&#x109;" horiz-adv-x="537" 
d="M413 186l96 -93q-79 -104 -215 -104q-111 0 -185 73t-74 183t74.5 183.5t184.5 73.5q117 0 205 -98l-96 -93q-47 57 -104 57q-51 0 -85 -34.5t-34 -88.5t34 -88.5t85 -34.5q64 0 114 64zM215 700h163l91 -142h-123l-50 59l-49 -59h-123z" />
    <glyph glyph-name="Cdotaccent" unicode="&#x10a;" horiz-adv-x="733" 
d="M600 226l99 -105q-108 -132 -285 -132q-161 0 -266.5 99t-105.5 261q0 164 105 263.5t262 99.5q172 0 279 -132l-100 -102q-31 44 -79.5 69.5t-106.5 25.5q-82 0 -145 -59.5t-63 -161.5q0 -104 62 -164t154 -60q118 0 190 98zM321 831q0 35 24 59t58 24t58.5 -24.5
t24.5 -58.5t-24.5 -58t-58.5 -24t-58 24t-24 58z" />
    <glyph glyph-name="cdotaccent" unicode="&#x10b;" horiz-adv-x="537" 
d="M413 186l96 -93q-79 -104 -215 -104q-111 0 -185 73t-74 183t74.5 183.5t184.5 73.5q117 0 205 -98l-96 -93q-47 57 -104 57q-51 0 -85 -34.5t-34 -88.5t34 -88.5t85 -34.5q64 0 114 64zM214 629q0 35 24 59t58 24t58.5 -24.5t24.5 -58.5t-24.5 -58t-58.5 -24t-58 24
t-24 58z" />
    <glyph glyph-name="Ccaron" unicode="&#x10c;" horiz-adv-x="733" 
d="M600 226l99 -105q-108 -132 -285 -132q-161 0 -266.5 99t-105.5 261q0 164 105 263.5t262 99.5q172 0 279 -132l-100 -102q-31 44 -79.5 69.5t-106.5 25.5q-82 0 -145 -59.5t-63 -161.5q0 -104 62 -164t154 -60q118 0 190 98zM491 769h-174l-86 103h135l38 -41l38 41h134
z" />
    <glyph glyph-name="ccaron" unicode="&#x10d;" horiz-adv-x="537" 
d="M413 186l96 -93q-79 -104 -215 -104q-111 0 -185 73t-74 183t74.5 183.5t184.5 73.5q117 0 205 -98l-96 -93q-47 57 -104 57q-51 0 -85 -34.5t-34 -88.5t34 -88.5t85 -34.5q64 0 114 64zM378 558h-163l-91 142h123l49 -59l50 59h123z" />
    <glyph glyph-name="Dcaron" unicode="&#x10e;" horiz-adv-x="734" 
d="M70 0v700h231q75 0 141.5 -19t124 -57.5t91.5 -108t34 -160.5q0 -92 -34 -162.5t-91 -111t-124.5 -61t-141.5 -20.5h-231zM278 563h-59v-426h60q261 0 261 218q0 208 -262 208zM469 769h-174l-86 103h135l38 -41l38 41h134z" />
    <glyph glyph-name="dcaron" unicode="&#x10f;" horiz-adv-x="611" 
d="M35 245q0 114 70.5 185.5t174.5 71.5q75 0 124 -43v241h144v-700h-142v35q-48 -46 -126 -46q-104 0 -174.5 70t-70.5 186zM406 245q0 57 -31.5 92.5t-80.5 35.5t-81.5 -36t-32.5 -92t32.5 -92t81.5 -36t80.5 35.5t31.5 92.5zM706 511l59 189h-137l-27 -189h105z" />
    <glyph glyph-name="Dcroat" unicode="&#x110;" horiz-adv-x="734" 
d="M70 0v292h-74v131h74v277h231q75 0 141.5 -19t124 -57.5t91.5 -108t34 -160.5q0 -92 -34 -162.5t-91 -111t-124.5 -61t-141.5 -20.5h-231zM278 563h-59v-140h114v-131h-114v-155h60q262 0 262 218q0 208 -263 208z" />
    <glyph glyph-name="dcroat" unicode="&#x111;" horiz-adv-x="611" 
d="M243 530v128h161v42h144v-42h53v-128h-53v-530h-142v35q-48 -46 -126 -46q-104 0 -174.5 70t-70.5 186q0 114 70.5 185.5t174.5 71.5q75 0 124 -43v71h-161zM406 245q0 57 -31.5 92.5t-80.5 35.5t-81.5 -36t-32.5 -92t32.5 -92t81.5 -36t80.5 35.5t31.5 92.5z" />
    <glyph glyph-name="Emacron" unicode="&#x112;" horiz-adv-x="650" 
d="M70 0v700h517v-137h-368v-138h351v-135h-351v-153h368v-137h-517zM203 886h250v-117h-250v117z" />
    <glyph glyph-name="emacron" unicode="&#x113;" horiz-adv-x="546" 
d="M511 209h-332q6 -40 35 -65t75 -25q75 0 120 57l94 -88q-79 -99 -210 -99q-112 0 -185 69.5t-73 183.5q0 112 67.5 186t173.5 74q112 0 174 -75t62 -176zM279 377q-38 0 -62 -20.5t-31 -52.5h176q-2 31 -25 52t-58 21zM157 700h250v-117h-250v117z" />
    <glyph glyph-name="Ebreve" unicode="&#x114;" horiz-adv-x="650" 
d="M70 0v700h517v-137h-368v-138h351v-135h-351v-153h368v-137h-517zM328 740q-63 0 -104.5 39t-45.5 107h106q4 -40 44 -40q39 0 45 40h106q-4 -68 -45.5 -107t-105.5 -39z" />
    <glyph glyph-name="ebreve" unicode="&#x115;" horiz-adv-x="546" 
d="M511 209h-332q6 -40 35 -65t75 -25q75 0 120 57l94 -88q-79 -99 -210 -99q-112 0 -185 69.5t-73 183.5q0 112 67.5 186t173.5 74q112 0 174 -75t62 -176zM279 377q-38 0 -62 -20.5t-31 -52.5h176q-2 31 -25 52t-58 21zM282 552q-64 0 -103.5 40t-36.5 108h96
q4 -40 44 -40q39 0 45 40h96q3 -68 -37 -108t-104 -40z" />
    <glyph glyph-name="Edotaccent" unicode="&#x116;" horiz-adv-x="650" 
d="M70 0v700h517v-137h-368v-138h351v-135h-351v-153h368v-137h-517zM246 831q0 35 24 59t58 24t58.5 -24.5t24.5 -58.5t-24.5 -58t-58.5 -24t-58 24t-24 58z" />
    <glyph glyph-name="edotaccent" unicode="&#x117;" horiz-adv-x="546" 
d="M511 209h-332q6 -40 35 -65t75 -25q75 0 120 57l94 -88q-79 -99 -210 -99q-112 0 -185 69.5t-73 183.5q0 112 67.5 186t173.5 74q112 0 174 -75t62 -176zM279 377q-38 0 -62 -20.5t-31 -52.5h176q-2 31 -25 52t-58 21zM200 629q0 35 24 59t58 24t58.5 -24.5t24.5 -58.5
t-24.5 -58t-58.5 -24t-58 24t-24 58z" />
    <glyph glyph-name="Eogonek" unicode="&#x118;" horiz-adv-x="650" 
d="M70 0v700h517v-137h-368v-138h351v-135h-351v-153h368v-137h-1q-61 -36 -61 -71t57 -35h4v-83q-27 -5 -62 -5q-49 0 -78 24.5t-29 67.5q0 59 60 102h-407z" />
    <glyph glyph-name="eogonek" unicode="&#x119;" horiz-adv-x="546" 
d="M511 209h-332q6 -40 35 -65t75 -25q75 0 120 57l94 -88q-53 -65 -124 -87l15 -1q-61 -36 -61 -71t57 -35h4v-83q-28 -5 -62 -5q-49 0 -78 24.5t-29 67.5q0 50 47 92q-104 6 -170.5 74.5t-66.5 177.5q0 112 67.5 186t173.5 74q112 0 174 -75t62 -176zM279 377
q-38 0 -62 -20.5t-31 -52.5h176q-2 31 -25 52t-58 21z" />
    <glyph glyph-name="Ecaron" unicode="&#x11a;" horiz-adv-x="650" 
d="M70 0v700h517v-137h-368v-138h351v-135h-351v-153h368v-137h-517zM416 769h-174l-86 103h135l38 -41l38 41h134z" />
    <glyph glyph-name="ecaron" unicode="&#x11b;" horiz-adv-x="546" 
d="M511 209h-332q6 -40 35 -65t75 -25q75 0 120 57l94 -88q-79 -99 -210 -99q-112 0 -185 69.5t-73 183.5q0 112 67.5 186t173.5 74q112 0 174 -75t62 -176zM279 377q-38 0 -62 -20.5t-31 -52.5h176q-2 31 -25 52t-58 21zM364 558h-163l-91 142h123l49 -59l50 59h123z" />
    <glyph glyph-name="Gcircumflex" unicode="&#x11c;" horiz-adv-x="756" 
d="M414 253v137h285v-281q-51 -53 -126.5 -86.5t-164.5 -33.5q-155 0 -260.5 101t-105.5 259q0 164 105 263.5t262 99.5q172 0 279 -132l-100 -102q-31 44 -79.5 69.5t-106.5 25.5q-82 0 -145 -59.5t-63 -161.5q0 -101 62.5 -162.5t153.5 -61.5q85 0 143 42v83h-139z
M322 872h174l85 -103h-134l-38 40l-38 -40h-135z" />
    <glyph glyph-name="gcircumflex" unicode="&#x11d;" horiz-adv-x="601" 
d="M396 35v13q-42 -37 -120 -37q-105 0 -172.5 66t-67.5 179q0 114 70 180t170 66q72 0 123 -47v35h139v-439q0 -114 -70.5 -185t-194.5 -71q-144 0 -223 99l99 95q44 -63 123 -63q56 0 90 30t34 79zM399 256q0 52 -32 84.5t-78 32.5q-45 0 -76.5 -32.5t-31.5 -84.5
q0 -51 31.5 -83.5t76.5 -32.5q46 0 78 32.5t32 83.5zM219 700h163l91 -142h-123l-50 59l-49 -59h-123z" />
    <glyph glyph-name="Gbreve" unicode="&#x11e;" horiz-adv-x="756" 
d="M414 253v137h285v-281q-51 -53 -126.5 -86.5t-164.5 -33.5q-155 0 -260.5 101t-105.5 259q0 164 105 263.5t262 99.5q172 0 279 -132l-100 -102q-31 44 -79.5 69.5t-106.5 25.5q-82 0 -145 -59.5t-63 -161.5q0 -101 62.5 -162.5t153.5 -61.5q85 0 143 42v83h-139z
M408 740q-63 0 -104.5 39t-45.5 107h106q4 -40 44 -40q39 0 45 40h106q-4 -68 -45.5 -107t-105.5 -39z" />
    <glyph glyph-name="gbreve" unicode="&#x11f;" horiz-adv-x="601" 
d="M396 35v13q-42 -37 -120 -37q-105 0 -172.5 66t-67.5 179q0 114 70 180t170 66q72 0 123 -47v35h139v-439q0 -114 -70.5 -185t-194.5 -71q-144 0 -223 99l99 95q44 -63 123 -63q56 0 90 30t34 79zM399 256q0 52 -32 84.5t-78 32.5q-45 0 -76.5 -32.5t-31.5 -84.5
q0 -51 31.5 -83.5t76.5 -32.5q46 0 78 32.5t32 83.5zM300 552q-64 0 -103.5 40t-36.5 108h96q4 -40 44 -40q39 0 45 40h96q3 -68 -37 -108t-104 -40z" />
    <glyph glyph-name="Gdotaccent" unicode="&#x120;" horiz-adv-x="756" 
d="M414 253v137h285v-281q-51 -53 -126.5 -86.5t-164.5 -33.5q-155 0 -260.5 101t-105.5 259q0 164 105 263.5t262 99.5q172 0 279 -132l-100 -102q-31 44 -79.5 69.5t-106.5 25.5q-82 0 -145 -59.5t-63 -161.5q0 -101 62.5 -162.5t153.5 -61.5q85 0 143 42v83h-139z
M326 831q0 35 24 59t58 24t58.5 -24.5t24.5 -58.5t-24.5 -58t-58.5 -24t-58 24t-24 58z" />
    <glyph glyph-name="gdotaccent" unicode="&#x121;" horiz-adv-x="601" 
d="M396 35v13q-42 -37 -120 -37q-105 0 -172.5 66t-67.5 179q0 114 70 180t170 66q72 0 123 -47v35h139v-439q0 -114 -70.5 -185t-194.5 -71q-144 0 -223 99l99 95q44 -63 123 -63q56 0 90 30t34 79zM399 256q0 52 -32 84.5t-78 32.5q-45 0 -76.5 -32.5t-31.5 -84.5
q0 -51 31.5 -83.5t76.5 -32.5q46 0 78 32.5t32 83.5zM218 629q0 35 24 59t58 24t58.5 -24.5t24.5 -58.5t-24.5 -58t-58.5 -24t-58 24t-24 58z" />
    <glyph glyph-name="Gcommaaccent" unicode="&#x122;" horiz-adv-x="756" 
d="M414 253v137h285v-281q-51 -53 -126.5 -86.5t-164.5 -33.5q-155 0 -260.5 101t-105.5 259q0 164 105 263.5t262 99.5q172 0 279 -132l-100 -102q-31 44 -79.5 69.5t-106.5 25.5q-82 0 -145 -59.5t-63 -161.5q0 -101 62.5 -162.5t153.5 -61.5q85 0 143 42v83h-139z
M328 -57h152l-72 -137h-126z" />
    <glyph glyph-name="gcommaaccent" unicode="&#x123;" horiz-adv-x="601" 
d="M396 35v13q-42 -37 -120 -37q-105 0 -172.5 66t-67.5 179q0 114 70 180t170 66q72 0 123 -47v35h139v-439q0 -114 -70.5 -185t-194.5 -71q-144 0 -223 99l99 95q44 -63 123 -63q56 0 90 30t34 79zM399 256q0 52 -32 84.5t-78 32.5q-45 0 -76.5 -32.5t-31.5 -84.5
q0 -51 31.5 -83.5t76.5 -32.5q46 0 78 32.5t32 83.5zM369 563h-141l72 137h115z" />
    <glyph glyph-name="Hcircumflex" unicode="&#x124;" horiz-adv-x="731" 
d="M513 0v290h-294v-290h-149v700h149v-274h294v274h148v-700h-148zM279 872h174l85 -103h-134l-38 40l-38 -40h-135z" />
    <glyph glyph-name="hcircumflex" unicode="&#x125;" horiz-adv-x="577" 
d="M205 245v-245h-142v700h141v-238q44 40 115 40q91 0 145.5 -57t54.5 -160v-285h-142v274q0 42 -20.5 69t-61.5 27q-90 0 -90 -125zM50 872h174l85 -103h-134l-38 40l-38 -40h-135z" />
    <glyph glyph-name="Hbar" unicode="&#x126;" horiz-adv-x="731" 
d="M513 0v290h-294v-290h-149v505h-70v117h70v78h149v-78h294v78h148v-78h70v-117h-70v-505h-148zM219 426h294v79h-294v-79z" />
    <glyph glyph-name="hbar" unicode="&#x127;" horiz-adv-x="577" 
d="M10 530v128h53v42h141v-42h164v-128h-164v-68q44 40 115 40q91 0 145.5 -57t54.5 -160v-285h-142v274q0 42 -20.5 69t-61.5 27q-90 0 -90 -125v-245h-142v530h-53z" />
    <glyph glyph-name="Itilde" unicode="&#x128;" horiz-adv-x="288" 
d="M71 0v700h148v-700h-148zM218 894h91q0 -51 -26.5 -88t-70.5 -37q-7 0 -43 8l-41 13q-17 5 -30 5q-26 0 -27 -26h-91q0 51 26 88t71 37q11 0 43 -7l41 -13q20 -6 30 -6q26 0 27 26z" />
    <glyph glyph-name="itilde" unicode="&#x129;" horiz-adv-x="279" 
d="M68 0v490h143v-490h-143zM213 700h91q0 -51 -26.5 -88t-70.5 -37q-7 0 -43 8l-41 13q-17 5 -30 5q-26 0 -27 -26h-91q0 51 26 88t71 37q12 0 43 -7l41 -13q20 -6 30 -6q26 0 27 26z" />
    <glyph glyph-name="Imacron" unicode="&#x12a;" horiz-adv-x="288" 
d="M71 0v700h148v-700h-148zM19 886h250v-117h-250v117z" />
    <glyph glyph-name="imacron" unicode="&#x12b;" horiz-adv-x="279" 
d="M68 0v490h143v-490h-143zM14 700h250v-117h-250v117z" />
    <glyph glyph-name="Ibreve" unicode="&#x12c;" horiz-adv-x="288" 
d="M71 0v700h148v-700h-148zM144 740q-63 0 -104.5 39t-45.5 107h106q4 -40 44 -40q39 0 45 40h106q-4 -68 -45.5 -107t-105.5 -39z" />
    <glyph glyph-name="ibreve" unicode="&#x12d;" horiz-adv-x="279" 
d="M68 0v490h143v-490h-143zM139 552q-64 0 -103.5 40t-36.5 108h96q4 -40 44 -40q39 0 45 40h96q3 -68 -37 -108t-104 -40z" />
    <glyph glyph-name="Iogonek" unicode="&#x12e;" horiz-adv-x="288" 
d="M71 0v700h148v-700h1q-61 -36 -61 -71t57 -35h4v-83q-28 -5 -62 -5q-49 0 -78 24.5t-29 67.5q0 59 60 102h-40z" />
    <glyph glyph-name="iogonek" unicode="&#x12f;" horiz-adv-x="279" 
d="M68 0v490h142v-490h1q-61 -36 -61 -71t57 -35h4v-83q-27 -5 -62 -5q-49 0 -78 24.5t-29 67.5q0 59 60 102h-34zM57 629q0 35 24 59t58 24q35 0 59 -24t24 -59q0 -34 -24.5 -58t-58.5 -24t-58 24t-24 58z" />
    <glyph glyph-name="Idotaccent" unicode="&#x130;" horiz-adv-x="288" 
d="M71 0v700h148v-700h-148zM62 831q0 35 24 59t58 24t58.5 -24.5t24.5 -58.5t-24.5 -58t-58.5 -24t-58 24t-24 58z" />
    <glyph glyph-name="dotlessi" unicode="&#x131;" horiz-adv-x="279" 
d="M68 0v490h143v-490h-143z" />
    <glyph glyph-name="IJ" unicode="&#x132;" horiz-adv-x="819" 
d="M71 0v700h148v-700h-148zM313 98l100 99q37 -72 99 -72q45 0 70.5 29t25.5 81v465h148v-459q0 -122 -63 -187t-177 -65q-138 0 -203 109z" />
    <glyph glyph-name="ij" unicode="&#x133;" horiz-adv-x="550" 
d="M68 0v490h142v-490h-142zM57 629q0 35 24 59t58 24q35 0 59 -24t24 -59q0 -34 -24.5 -58t-58.5 -24t-58 24t-24 58zM334 629q0 35 24 59t58 24t58.5 -24.5t24.5 -58.5t-24.5 -58t-58.5 -24t-58 24t-24 58zM345 -13v503h142v-520q0 -175 -172 -175l-66 2v130h31
q33 0 49 12.5t16 47.5z" />
    <glyph glyph-name="Jcircumflex" unicode="&#x134;" horiz-adv-x="531" 
d="M25 98l100 99q37 -72 99 -72q45 0 70.5 29t25.5 81v465h148v-459q0 -122 -63 -187t-177 -65q-138 0 -203 109zM308 872h174l85 -103h-134l-38 40l-38 -40h-135z" />
    <glyph glyph-name="jcircumflex" unicode="&#x135;" horiz-adv-x="271" 
d="M66 -13v503h142v-520q0 -175 -172 -175l-66 2v130h31q33 0 49 12.5t16 47.5zM56 700h163l91 -142h-123l-50 59l-49 -59h-123z" />
    <glyph glyph-name="Kcommaaccent" unicode="&#x136;" horiz-adv-x="670" 
d="M70 0v700h149v-285l226 285h177l-240 -299l263 -401h-171l-187 286l-68 -87v-199h-149zM262 -57h152l-72 -137h-126z" />
    <glyph glyph-name="kcommaaccent" unicode="&#x137;" horiz-adv-x="548" 
d="M63 0v700h142v-365l136 155h179l-181 -202l189 -288h-173l-117 186l-33 -36v-150h-142zM217 -57h151l-72 -137h-125z" />
    <glyph glyph-name="kgreenlandic" unicode="&#x138;" horiz-adv-x="548" 
d="M63 0v490h142v-155l136 155h179l-181 -202l189 -288h-173l-117 186l-33 -36v-150h-142z" />
    <glyph glyph-name="Lacute" unicode="&#x139;" horiz-adv-x="574" 
d="M70 0v700h149v-563h320v-137h-469zM138 872h170l-98 -103h-146z" />
    <glyph glyph-name="lacute" unicode="&#x13a;" horiz-adv-x="268" 
d="M63 0v700h142v-700h-142zM139 872h170l-98 -103h-146z" />
    <glyph glyph-name="Lcommaaccent" unicode="&#x13b;" horiz-adv-x="574" 
d="M70 0v700h149v-563h320v-137h-469zM225 -57h152l-72 -137h-126z" />
    <glyph glyph-name="lcommaaccent" unicode="&#x13c;" horiz-adv-x="268" 
d="M63 0v700h142v-700h-142zM56 -57h151l-72 -137h-125z" />
    <glyph glyph-name="Lcaron" unicode="&#x13d;" horiz-adv-x="574" 
d="M70 0v700h149v-563h320v-137h-469zM389 511l59 189h-137l-27 -189h105z" />
    <glyph glyph-name="lcaron" unicode="&#x13e;" horiz-adv-x="268" 
d="M63 0v700h142v-700h-142zM363 511l59 189h-137l-27 -189h105z" />
    <glyph glyph-name="Ldot" unicode="&#x13f;" horiz-adv-x="574" 
d="M70 0v700h149v-563h320v-137h-469zM335 347q0 35 24 59t58 24t58.5 -24.5t24.5 -58.5t-24.5 -58t-58.5 -24t-58 24t-24 58z" />
    <glyph glyph-name="ldot" unicode="&#x140;" horiz-adv-x="422" 
d="M63 0v700h142v-700h-142zM264 345q0 35 24 59t58 24t58.5 -24.5t24.5 -58.5t-24.5 -58t-58.5 -24t-58 24t-24 58z" />
    <glyph glyph-name="Lslash" unicode="&#x141;" horiz-adv-x="574" 
d="M376 370l-157 -70v-163h320v-137h-469v234l-80 -35v139l80 35v327h149v-261l157 70v-139z" />
    <glyph glyph-name="lslash" unicode="&#x142;" horiz-adv-x="268" 
d="M274 377l-69 -35v-342h-142v270l-69 -35v127l69 35v303h142v-231l69 35v-127z" />
    <glyph glyph-name="Nacute" unicode="&#x143;" horiz-adv-x="750" 
d="M502 0l-283 472v-472h-149v700h179l283 -474v474h148v-700h-178zM367 872h170l-98 -103h-146z" />
    <glyph glyph-name="nacute" unicode="&#x144;" horiz-adv-x="577" 
d="M205 245v-245h-142v490h140v-34q48 46 116 46q91 0 145.5 -57t54.5 -160v-285h-142v274q0 42 -20.5 69t-61.5 27q-90 0 -90 -125zM283 700h180l-120 -142h-134z" />
    <glyph glyph-name="Ncommaaccent" unicode="&#x145;" horiz-adv-x="750" 
d="M502 0l-283 472v-472h-149v700h179l283 -474v474h148v-700h-178zM333 -57h152l-72 -137h-126z" />
    <glyph glyph-name="ncommaaccent" unicode="&#x146;" horiz-adv-x="577" 
d="M205 245v-245h-142v490h140v-34q48 46 116 46q91 0 145.5 -57t54.5 -160v-285h-142v274q0 42 -20.5 69t-61.5 27q-90 0 -90 -125zM218 -57h151l-72 -137h-125z" />
    <glyph glyph-name="Ncaron" unicode="&#x147;" horiz-adv-x="750" 
d="M502 0l-283 472v-472h-149v700h179l283 -474v474h148v-700h-178zM463 769h-174l-86 103h135l38 -41l38 41h134z" />
    <glyph glyph-name="ncaron" unicode="&#x148;" horiz-adv-x="577" 
d="M205 245v-245h-142v490h140v-34q48 46 116 46q91 0 145.5 -57t54.5 -160v-285h-142v274q0 42 -20.5 69t-61.5 27q-90 0 -90 -125zM378 558h-163l-91 142h123l49 -59l50 59h123z" />
    <glyph glyph-name="Eng" unicode="&#x14a;" horiz-adv-x="750" 
d="M532 -5v5l-313 472v-472h-149v700h179l283 -438v438h148v-722q0 -183 -179 -183l-69 2v136h32q35 0 51.5 13t16.5 49z" />
    <glyph glyph-name="eng" unicode="&#x14b;" horiz-adv-x="577" 
d="M376 -13v287q0 42 -20 69t-61 27q-90 0 -90 -125v-245h-142v490h140v-34q48 46 116 46q91 0 145.5 -57t54.5 -160v-315q0 -175 -172 -175l-66 2v130h31q33 0 48.5 12.5t15.5 47.5z" />
    <glyph glyph-name="Omacron" unicode="&#x14c;" horiz-adv-x="807" 
d="M42 351q0 156 104 258.5t256 102.5q153 0 258 -102.5t105 -258.5q0 -157 -105 -259.5t-258 -102.5q-152 0 -256 102.5t-104 259.5zM194 351q0 -94 57 -158t154 -64q95 0 151.5 64t56.5 158q0 92 -58.5 156.5t-149.5 64.5q-96 0 -153.5 -64t-57.5 -157zM278 886h250v-117
h-250v117z" />
    <glyph glyph-name="omacron" unicode="&#x14d;" horiz-adv-x="588" 
d="M35 245q0 110 74.5 183.5t184.5 73.5t184.5 -73.5t74.5 -183.5t-74 -183t-185 -73t-185 73t-74 183zM180 245q0 -54 32 -89t82 -35t82 35t32 89t-32 89t-82 35t-82 -35t-32 -89zM169 700h250v-117h-250v117z" />
    <glyph glyph-name="Obreve" unicode="&#x14e;" horiz-adv-x="807" 
d="M42 351q0 156 104 258.5t256 102.5q153 0 258 -102.5t105 -258.5q0 -157 -105 -259.5t-258 -102.5q-152 0 -256 102.5t-104 259.5zM194 351q0 -94 57 -158t154 -64q95 0 151.5 64t56.5 158q0 92 -58.5 156.5t-149.5 64.5q-96 0 -153.5 -64t-57.5 -157zM403 740
q-63 0 -104.5 39t-45.5 107h106q4 -40 44 -40q39 0 45 40h106q-4 -68 -45.5 -107t-105.5 -39z" />
    <glyph glyph-name="obreve" unicode="&#x14f;" horiz-adv-x="588" 
d="M35 245q0 110 74.5 183.5t184.5 73.5t184.5 -73.5t74.5 -183.5t-74 -183t-185 -73t-185 73t-74 183zM180 245q0 -54 32 -89t82 -35t82 35t32 89t-32 89t-82 35t-82 -35t-32 -89zM294 552q-64 0 -103.5 40t-36.5 108h96q4 -40 44 -40q39 0 45 40h96q3 -68 -37 -108
t-104 -40z" />
    <glyph glyph-name="Ohungarumlaut" unicode="&#x150;" horiz-adv-x="807" 
d="M42 351q0 156 104 258.5t256 102.5q153 0 258 -102.5t105 -258.5q0 -157 -105 -259.5t-258 -102.5q-152 0 -256 102.5t-104 259.5zM194 351q0 -94 57 -158t154 -64q95 0 151.5 64t56.5 158q0 92 -58.5 156.5t-149.5 64.5q-96 0 -153.5 -64t-57.5 -157zM270 872h138
l-68 -103h-128zM455 872h139l-68 -103h-129z" />
    <glyph glyph-name="ohungarumlaut" unicode="&#x151;" horiz-adv-x="588" 
d="M35 245q0 110 74.5 183.5t184.5 73.5t184.5 -73.5t74.5 -183.5t-74 -183t-185 -73t-185 73t-74 183zM180 245q0 -54 32 -89t82 -35t82 35t32 89t-32 89t-82 35t-82 -35t-32 -89zM200 700h140l-86 -131h-128zM385 700h141l-86 -131h-129z" />
    <glyph glyph-name="OE" unicode="&#x152;" horiz-adv-x="968" 
d="M402 0q-154 0 -257 97.5t-103 253.5q0 155 103 252t257 97h503v-137h-311v-138h294v-135h-294v-153h311v-137h-503zM195 351q0 -93 57 -153.5t154 -60.5h39v426h-39q-97 0 -154 -60t-57 -152z" />
    <glyph glyph-name="oe" unicode="&#x153;" horiz-adv-x="918" 
d="M883 209h-331q4 -40 34.5 -65t77.5 -25q73 0 112 62l99 -93q-77 -99 -209 -99q-117 0 -188 83q-71 -83 -184 -83q-111 0 -185 73t-74 183t74.5 183.5t184.5 73.5t184 -84q68 84 171 84q112 0 173.5 -75t61.5 -176zM180 245q0 -54 32 -89t82 -35q49 0 80.5 34t33.5 87v8
q-1 52 -33.5 85.5t-80.5 33.5q-50 0 -82 -35t-32 -89zM652 377q-38 0 -62 -20.5t-32 -52.5h177q-2 31 -25 52t-58 21z" />
    <glyph glyph-name="Racute" unicode="&#x154;" horiz-adv-x="679" 
d="M476 0l-138 225h-119v-225h-149v700h290q118 0 193 -60.5t75 -167.5q0 -74 -37.5 -131.5t-100.5 -87.5l155 -253h-169zM334 563h-115v-202h115q146 0 146 103q0 51 -35 75t-111 24zM341 872h170l-98 -103h-146z" />
    <glyph glyph-name="racute" unicode="&#x155;" horiz-adv-x="385" 
d="M363 496v-137h-22q-62 0 -99 -39.5t-37 -114.5v-205h-142v490h140v-44q43 51 122 51q24 0 38 -1zM200 700h180l-120 -142h-134z" />
    <glyph glyph-name="Rcommaaccent" unicode="&#x156;" horiz-adv-x="679" 
d="M476 0l-138 225h-119v-225h-149v700h290q118 0 193 -60.5t75 -167.5q0 -74 -37.5 -131.5t-100.5 -87.5l155 -253h-169zM334 563h-115v-202h115q146 0 146 103q0 51 -35 75t-111 24zM270 -57h152l-72 -137h-126z" />
    <glyph glyph-name="rcommaaccent" unicode="&#x157;" horiz-adv-x="385" 
d="M363 496v-137h-22q-62 0 -99 -39.5t-37 -114.5v-205h-142v490h140v-44q43 51 122 51q24 0 38 -1zM57 -57h151l-72 -137h-125z" />
    <glyph glyph-name="Rcaron" unicode="&#x158;" horiz-adv-x="679" 
d="M476 0l-138 225h-119v-225h-149v700h290q118 0 193 -60.5t75 -167.5q0 -74 -37.5 -131.5t-100.5 -87.5l155 -253h-169zM334 563h-115v-202h115q146 0 146 103q0 51 -35 75t-111 24zM437 769h-174l-86 103h135l38 -41l38 41h134z" />
    <glyph glyph-name="rcaron" unicode="&#x159;" horiz-adv-x="385" 
d="M363 496v-137h-22q-62 0 -99 -39.5t-37 -114.5v-205h-142v490h140v-44q43 51 122 51q24 0 38 -1zM295 558h-163l-91 142h123l49 -59l50 59h123z" />
    <glyph glyph-name="Sacute" unicode="&#x15a;" horiz-adv-x="654" 
d="M368 275l-86 15q-103 17 -162 70t-59 140q0 97 76.5 154.5t182.5 57.5q164 0 270 -112l-100 -105q-79 81 -178 81q-47 0 -75 -19t-28 -50q0 -56 100 -74l69 -11q236 -38 236 -219q0 -96 -76.5 -155t-202.5 -59q-92 0 -168 37.5t-123 96.5l102 103q78 -101 198 -101
q57 0 89.5 21.5t32.5 54.5q0 56 -98 74zM321 872h170l-98 -103h-146z" />
    <glyph glyph-name="sacute" unicode="&#x15b;" horiz-adv-x="488" 
d="M272 171l-65 16q-160 40 -160 160q0 70 55.5 112.5t134.5 42.5q111 0 197 -77l-87 -92q-58 48 -116 48q-21 0 -33.5 -8.5t-12.5 -20.5q0 -18 35 -26l73 -17q161 -38 161 -162q0 -70 -55.5 -114t-149.5 -44q-68 0 -126 28t-89 67l87 89q66 -65 140 -65q22 0 38.5 9
t16.5 23q0 20 -44 31zM231 700h180l-120 -142h-134z" />
    <glyph glyph-name="Scircumflex" unicode="&#x15c;" horiz-adv-x="654" 
d="M368 275l-86 15q-103 17 -162 70t-59 140q0 97 76.5 154.5t182.5 57.5q164 0 270 -112l-100 -105q-79 81 -178 81q-47 0 -75 -19t-28 -50q0 -56 100 -74l69 -11q236 -38 236 -219q0 -96 -76.5 -155t-202.5 -59q-92 0 -168 37.5t-123 96.5l102 103q78 -101 198 -101
q57 0 89.5 21.5t32.5 54.5q0 56 -98 74zM243 872h174l85 -103h-134l-38 40l-38 -40h-135z" />
    <glyph glyph-name="scircumflex" unicode="&#x15d;" horiz-adv-x="488" 
d="M272 171l-65 16q-160 40 -160 160q0 70 55.5 112.5t134.5 42.5q111 0 197 -77l-87 -92q-58 48 -116 48q-21 0 -33.5 -8.5t-12.5 -20.5q0 -18 35 -26l73 -17q161 -38 161 -162q0 -70 -55.5 -114t-149.5 -44q-68 0 -126 28t-89 67l87 89q66 -65 140 -65q22 0 38.5 9
t16.5 23q0 20 -44 31zM163 700h163l91 -142h-123l-50 59l-49 -59h-123z" />
    <glyph glyph-name="Scedilla" unicode="&#x15e;" horiz-adv-x="654" 
d="M351 -137h-143l68 131q-146 20 -232 129l102 103q78 -101 198 -101q57 0 89.5 21.5t32.5 54.5q0 56 -98 74l-86 15q-103 17 -162 70t-59 140q0 97 76.5 154.5t182.5 57.5q164 0 270 -112l-100 -105q-79 81 -178 81q-47 0 -75 -19t-28 -50q0 -56 100 -74l69 -11
q236 -38 236 -219q0 -82 -56.5 -138t-154.5 -71z" />
    <glyph glyph-name="scedilla" unicode="&#x15f;" horiz-adv-x="488" 
d="M264 -137h-143l68 132q-49 10 -90 34.5t-65 54.5l87 89q66 -65 140 -65q22 0 38.5 9t16.5 23q0 20 -44 31l-65 16q-160 40 -160 160q0 70 55.5 112.5t134.5 42.5q111 0 197 -77l-87 -92q-58 48 -116 48q-21 0 -33.5 -8.5t-12.5 -20.5q0 -18 35 -26l73 -17
q161 -38 161 -162q0 -56 -36.5 -96.5t-100.5 -54.5z" />
    <glyph glyph-name="Scaron" unicode="&#x160;" horiz-adv-x="654" 
d="M368 275l-86 15q-103 17 -162 70t-59 140q0 97 76.5 154.5t182.5 57.5q164 0 270 -112l-100 -105q-79 81 -178 81q-47 0 -75 -19t-28 -50q0 -56 100 -74l69 -11q236 -38 236 -219q0 -96 -76.5 -155t-202.5 -59q-92 0 -168 37.5t-123 96.5l102 103q78 -101 198 -101
q57 0 89.5 21.5t32.5 54.5q0 56 -98 74zM417 769h-174l-86 103h135l38 -41l38 41h134z" />
    <glyph glyph-name="scaron" unicode="&#x161;" horiz-adv-x="488" 
d="M272 171l-65 16q-160 40 -160 160q0 70 55.5 112.5t134.5 42.5q111 0 197 -77l-87 -92q-58 48 -116 48q-21 0 -33.5 -8.5t-12.5 -20.5q0 -18 35 -26l73 -17q161 -38 161 -162q0 -70 -55.5 -114t-149.5 -44q-68 0 -126 28t-89 67l87 89q66 -65 140 -65q22 0 38.5 9
t16.5 23q0 20 -44 31zM326 558h-163l-91 142h123l49 -59l50 59h123z" />
    <glyph glyph-name="uni0162" unicode="&#x162;" horiz-adv-x="610" 
d="M317 -137h-143l71 137h-14v563h-201v137h550v-137h-201v-563h-8z" />
    <glyph glyph-name="uni0163" unicode="&#x163;" horiz-adv-x="376" 
d="M231 -137h-143l77 148h7q-91 34 -91 162v186h-64v131h64v137h142v-137h108v-131h-108v-169q0 -35 15.5 -47.5t48.5 -12.5h42v-130q-20 -1 -44 -2z" />
    <glyph glyph-name="Tcaron" unicode="&#x164;" horiz-adv-x="610" 
d="M30 700h550v-137h-201v-563h-148v563h-201v137zM393 769h-174l-86 103h135l38 -41l38 41h134z" />
    <glyph glyph-name="tcaron" unicode="&#x165;" horiz-adv-x="376" 
d="M252 -2q-171 0 -171 175v186h-64v131h64v137h142v-137h108v-131h-108v-169q0 -35 15.5 -47.5t48.5 -12.5h42v-130q-38 -2 -77 -2zM443 749l-59 -189h-105l27 189h137z" />
    <glyph glyph-name="Tbar" unicode="&#x166;" horiz-adv-x="610" 
d="M30 700h550v-137h-201v-190h126v-117h-126v-256h-148v256h-126v117h126v190h-201v137z" />
    <glyph glyph-name="tbar" unicode="&#x167;" horiz-adv-x="376" 
d="M252 -2q-171 0 -171 175v21h-64v117h64v48h-64v131h64v137h142v-137h108v-131h-108v-48h108v-117h-108v-4q0 -35 15.5 -47.5t48.5 -12.5h42v-130q-38 -2 -77 -2z" />
    <glyph glyph-name="Utilde" unicode="&#x168;" horiz-adv-x="714" 
d="M503 306v394h148v-389q0 -157 -78 -239.5t-216 -82.5t-216 82.5t-78 239.5v389h148v-396q0 -80 37 -129.5t109 -49.5q146 0 146 181zM431 894h91q0 -51 -26.5 -88t-70.5 -37q-7 0 -43 8l-41 13q-17 5 -30 5q-26 0 -27 -26h-91q0 51 26 88t71 37q12 0 43 -7l41 -13
q20 -6 30 -6q26 0 27 26z" />
    <glyph glyph-name="utilde" unicode="&#x169;" horiz-adv-x="566" 
d="M360 239v251h143v-490h-140v34q-44 -45 -122 -45q-86 0 -134.5 56.5t-48.5 159.5v285h143v-279q0 -41 19 -66t56 -25q84 0 84 119zM354 700h91q0 -51 -26.5 -88t-70.5 -37q-7 0 -43 8l-41 13q-17 5 -30 5q-26 0 -27 -26h-91q0 51 26 88t71 37q11 0 43 -7l41 -13
q20 -6 30 -6q26 0 27 26z" />
    <glyph glyph-name="Umacron" unicode="&#x16a;" horiz-adv-x="714" 
d="M503 306v394h148v-389q0 -157 -78 -239.5t-216 -82.5t-216 82.5t-78 239.5v389h148v-396q0 -80 37 -129.5t109 -49.5q146 0 146 181zM232 886h250v-117h-250v117z" />
    <glyph glyph-name="umacron" unicode="&#x16b;" horiz-adv-x="566" 
d="M360 239v251h143v-490h-140v34q-44 -45 -122 -45q-86 0 -134.5 56.5t-48.5 159.5v285h143v-279q0 -41 19 -66t56 -25q84 0 84 119zM155 700h250v-117h-250v117z" />
    <glyph glyph-name="Ubreve" unicode="&#x16c;" horiz-adv-x="714" 
d="M503 306v394h148v-389q0 -157 -78 -239.5t-216 -82.5t-216 82.5t-78 239.5v389h148v-396q0 -80 37 -129.5t109 -49.5q146 0 146 181zM357 740q-63 0 -104.5 39t-45.5 107h106q4 -40 44 -40q39 0 45 40h106q-4 -68 -45.5 -107t-105.5 -39z" />
    <glyph glyph-name="ubreve" unicode="&#x16d;" horiz-adv-x="566" 
d="M360 239v251h143v-490h-140v34q-44 -45 -122 -45q-86 0 -134.5 56.5t-48.5 159.5v285h143v-279q0 -41 19 -66t56 -25q84 0 84 119zM280 552q-64 0 -103.5 40t-36.5 108h96q4 -40 44 -40q39 0 45 40h96q3 -68 -37 -108t-104 -40z" />
    <glyph glyph-name="Uring" unicode="&#x16e;" horiz-adv-x="714" 
d="M503 306v394h148v-389q0 -157 -78 -239.5t-216 -82.5t-216 82.5t-78 239.5v389h148v-396q0 -80 37 -129.5t109 -49.5q146 0 146 181zM259 774q0 40 28.5 68.5t69.5 28.5q40 0 69 -28.5t29 -68.5q0 -39 -29 -67t-69 -28t-69 28t-29 67zM381 774q0 10 -7 17t-17 7t-17 -7
t-7 -17t7 -17t17 -7t17 7t7 17z" />
    <glyph glyph-name="uring" unicode="&#x16f;" horiz-adv-x="566" 
d="M360 239v251h143v-490h-140v34q-44 -45 -122 -45q-86 0 -134.5 56.5t-48.5 159.5v285h143v-279q0 -41 19 -66t56 -25q84 0 84 119zM182 631q0 40 28.5 68.5t69.5 28.5q40 0 69 -28.5t29 -68.5q0 -39 -29 -67t-69 -28t-69 28t-29 67zM304 631q0 10 -7 17t-17 7t-17 -7
t-7 -17t7 -17t17 -7t17 7t7 17z" />
    <glyph glyph-name="Uhungarumlaut" unicode="&#x170;" horiz-adv-x="714" 
d="M503 306v394h148v-389q0 -157 -78 -239.5t-216 -82.5t-216 82.5t-78 239.5v389h148v-396q0 -80 37 -129.5t109 -49.5q146 0 146 181zM224 872h138l-68 -103h-128zM409 872h139l-68 -103h-129z" />
    <glyph glyph-name="uhungarumlaut" unicode="&#x171;" horiz-adv-x="566" 
d="M360 239v251h143v-490h-140v34q-44 -45 -122 -45q-86 0 -134.5 56.5t-48.5 159.5v285h143v-279q0 -41 19 -66t56 -25q84 0 84 119zM154 700h140l-86 -131h-128zM339 700h141l-86 -131h-129z" />
    <glyph glyph-name="Uogonek" unicode="&#x172;" horiz-adv-x="714" 
d="M503 306v394h148v-389q0 -133 -56 -212.5t-158 -100.5q-56 -35 -56 -69q0 -35 57 -35h4v-83q-27 -5 -62 -5q-49 0 -78 24.5t-29 67.5q0 51 49 93q-122 10 -190.5 91.5t-68.5 228.5v389h148v-396q0 -80 37 -129.5t109 -49.5q146 0 146 181z" />
    <glyph glyph-name="uogonek" unicode="&#x173;" horiz-adv-x="566" 
d="M360 239v251h143v-490h4q-61 -36 -61 -71t57 -35h4v-83q-27 -5 -62 -5q-49 0 -78 24.5t-29 67.5q0 59 60 102h-35v34q-44 -45 -122 -45q-86 0 -134.5 56.5t-48.5 159.5v285h143v-279q0 -41 19 -66t56 -25q84 0 84 119z" />
    <glyph glyph-name="Wcircumflex" unicode="&#x174;" horiz-adv-x="959" 
d="M179 700l108 -448l113 448h159l113 -448l108 448h159l-187 -700h-152l-120 462l-121 -462h-152l-187 700h159zM393 872h174l85 -103h-134l-38 40l-38 -40h-135z" />
    <glyph glyph-name="wcircumflex" unicode="&#x175;" horiz-adv-x="792" 
d="M475 490l81 -293l69 293h152l-138 -490h-155l-88 302l-88 -302h-155l-138 490h152l70 -293l80 293h158zM315 700h163l91 -142h-123l-50 59l-49 -59h-123z" />
    <glyph glyph-name="Ycircumflex" unicode="&#x176;" horiz-adv-x="633" 
d="M172 700l144 -294l145 294h162l-234 -455v-245h-147v245l-232 455h162zM230 872h174l85 -103h-134l-38 40l-38 -40h-135z" />
    <glyph glyph-name="ycircumflex" unicode="&#x177;" horiz-adv-x="546" 
d="M267 -194h-150l80 194l-191 490h158l110 -303l114 303h152zM192 700h163l91 -142h-123l-50 59l-49 -59h-123z" />
    <glyph glyph-name="Ydieresis" unicode="&#x178;" horiz-adv-x="633" 
d="M172 700l144 -294l145 294h162l-234 -455v-245h-147v245l-232 455h162zM136 833q0 30 21.5 52t52.5 22q30 0 52.5 -22t22.5 -52t-22.5 -52t-52.5 -22q-31 0 -52.5 21.5t-21.5 52.5zM348 833q0 30 21.5 52t52.5 22q30 0 52.5 -22t22.5 -52t-22.5 -52t-52.5 -22
q-31 0 -52.5 21.5t-21.5 52.5z" />
    <glyph glyph-name="Zacute" unicode="&#x179;" horiz-adv-x="655" 
d="M61 700h539v-131l-354 -432h365v-137h-553v131l354 432h-351v137zM326 872h170l-98 -103h-146z" />
    <glyph glyph-name="zacute" unicode="&#x17a;" horiz-adv-x="515" 
d="M60 490h396v-114l-216 -248h227v-128h-413v114l213 249h-207v127zM262 700h180l-120 -142h-134z" />
    <glyph glyph-name="Zdotaccent" unicode="&#x17b;" horiz-adv-x="655" 
d="M61 700h539v-131l-354 -432h365v-137h-553v131l354 432h-351v137zM252 831q0 35 24 59t58 24t58.5 -24.5t24.5 -58.5t-24.5 -58t-58.5 -24t-58 24t-24 58z" />
    <glyph glyph-name="zdotaccent" unicode="&#x17c;" horiz-adv-x="515" 
d="M60 490h396v-114l-216 -248h227v-128h-413v114l213 249h-207v127zM178 629q0 35 24 59t58 24t58.5 -24.5t24.5 -58.5t-24.5 -58t-58.5 -24t-58 24t-24 58z" />
    <glyph glyph-name="Zcaron" unicode="&#x17d;" horiz-adv-x="655" 
d="M61 700h539v-131l-354 -432h365v-137h-553v131l354 432h-351v137zM422 769h-174l-86 103h135l38 -41l38 41h134z" />
    <glyph glyph-name="zcaron" unicode="&#x17e;" horiz-adv-x="515" 
d="M60 490h396v-114l-216 -248h227v-128h-413v114l213 249h-207v127zM342 558h-163l-91 142h123l49 -59l50 59h123z" />
    <glyph glyph-name="florin" unicode="&#x192;" horiz-adv-x="427" 
d="M54 -205l-37 1v135h24q48 0 68 16.5t20 53.5v358h-64v131h64v24q0 99 58.5 148.5t157.5 49.5l37 -1v-134h-24q-47 0 -67.5 -17t-20.5 -54v-16h108v-131h-108v-369q0 -96 -58.5 -145.5t-157.5 -49.5z" />
    <glyph glyph-name="Aringacute" unicode="&#x1fa;" horiz-adv-x="712" 
d="M258 770q0 40 28.5 68.5t69.5 28.5q40 0 69 -28.5t29 -68.5q0 -42 -33 -70h6l274 -700h-154l-56 138h-271l-55 -138h-154l274 700h5q-32 27 -32 70zM356 498l-87 -228h174zM348 1008h170l-98 -103h-146zM380 770q0 10 -7 17t-17 7t-17 -7t-7 -17t7 -17t17 -7t17 7t7 17z
" />
    <glyph glyph-name="aringacute" unicode="&#x1fb;" horiz-adv-x="533" 
d="M210 -11q-78 0 -124 43.5t-46 111.5q0 77 56 117.5t138 40.5q49 0 97 -14v8q0 35 -22 57.5t-59 22.5q-67 0 -105 -57l-90 86q81 97 205 97q93 0 154 -52.5t61 -143.5v-306h-142v32q-49 -43 -123 -43zM183 153q0 -19 17 -31.5t44 -12.5q47 0 87 30v56q-38 9 -65 9
q-40 0 -61.5 -14t-21.5 -37zM159 631q0 40 28.5 68.5t69.5 28.5q40 0 69 -28.5t29 -68.5q0 -39 -29 -67t-69 -28t-69 28t-29 67zM281 631q0 10 -7 17t-17 7t-17 -7t-7 -17t7 -17t17 -7t17 7t7 17zM264 911h180l-120 -142h-134z" />
    <glyph glyph-name="AEacute" unicode="&#x1fc;" horiz-adv-x="939" 
d="M876 701v-137h-396l55 -139h324v-135h-272l60 -153h229v-137h-329l-56 138h-271l-55 -138h-154l274 701h591zM356 499l-87 -229h174zM615 872h170l-98 -103h-146z" />
    <glyph glyph-name="aeacute" unicode="&#x1fd;" horiz-adv-x="836" 
d="M801 209h-325q4 -40 33 -65t76 -25q69 0 108 62l100 -93q-79 -99 -207 -99q-108 0 -178 64q-81 -64 -180 -64q-86 0 -137 43.5t-51 111.5q0 77 56 117.5t138 40.5h101q0 33 -24 50.5t-61 17.5q-67 0 -105 -53l-90 85q74 100 205 100q91 0 148 -63q66 63 161 63
q112 0 172.5 -74.5t60.5 -176.5zM335 199h-75q-77 0 -77 -47q0 -19 15.5 -31t42.5 -12q59 0 105 40q-8 27 -11 50zM573 377q-74 0 -90 -73h169q-2 32 -23.5 52.5t-55.5 20.5zM408 700h180l-120 -142h-134z" />
    <glyph glyph-name="Oslashacute" unicode="&#x1fe;" horiz-adv-x="807" 
d="M42 351q0 156 104 258.5t256 102.5q78 0 153 -32l42 60l97 -70l-39 -56q110 -104 110 -263q0 -157 -105 -259.5t-258 -102.5q-88 0 -161 35l-42 -60l-96 69l41 59q-102 104 -102 259zM614 351q0 80 -46 140l-243 -348q37 -14 81 -14q95 0 151.5 64t56.5 158zM195 351
q0 -76 37 -133l240 343q-33 11 -66 11q-96 0 -153.5 -64t-57.5 -157zM395 872h170l-98 -103h-146z" />
    <glyph glyph-name="oslashacute" unicode="&#x1ff;" horiz-adv-x="588" 
d="M35 245q0 110 74.5 183.5t184.5 73.5q44 0 88 -14l34 49l101 -73l-31 -44q67 -72 67 -175q0 -110 -74 -183t-185 -73q-52 0 -98 17l-35 -49l-100 72l34 48q-60 69 -60 168zM281 700h180l-120 -142h-134zM408 245q0 27 -9 51l-122 -174q5 -1 17 -1q50 0 82 35t32 89z
M180 245q0 -24 5 -39l114 163h-5q-50 0 -82 -35t-32 -89z" />
    <glyph glyph-name="Scommaaccent" unicode="&#x218;" horiz-adv-x="654" 
d="M368 275l-86 15q-103 17 -162 70t-59 140q0 97 76.5 154.5t182.5 57.5q164 0 270 -112l-100 -105q-79 81 -178 81q-47 0 -75 -19t-28 -50q0 -56 100 -74l69 -11q236 -38 236 -219q0 -96 -76.5 -155t-202.5 -59q-92 0 -168 37.5t-123 96.5l102 103q78 -101 198 -101
q57 0 89.5 21.5t32.5 54.5q0 56 -98 74zM260 -57h152l-72 -137h-126z" />
    <glyph glyph-name="scommaaccent" unicode="&#x219;" horiz-adv-x="488" 
d="M272 171l-65 16q-160 40 -160 160q0 70 55.5 112.5t134.5 42.5q111 0 197 -77l-87 -92q-58 48 -116 48q-21 0 -33.5 -8.5t-12.5 -20.5q0 -18 35 -26l73 -17q161 -38 161 -162q0 -70 -55.5 -114t-149.5 -44q-68 0 -126 28t-89 67l87 89q66 -65 140 -65q22 0 38.5 9
t16.5 23q0 20 -44 31zM174 -57h151l-72 -137h-125z" />
    <glyph glyph-name="Tcommaaccent" unicode="&#x21a;" horiz-adv-x="610" 
d="M30 700h550v-137h-201v-563h-148v563h-201v137zM226 -57h152l-72 -137h-126z" />
    <glyph glyph-name="tcommaaccent" unicode="&#x21b;" horiz-adv-x="376" 
d="M252 -2q-171 0 -171 175v186h-64v131h64v137h142v-137h108v-131h-108v-169q0 -35 15.5 -47.5t48.5 -12.5h42v-130q-38 -2 -77 -2zM141 -57h151l-72 -137h-125z" />
    <glyph glyph-name="dotlessj" unicode="&#x237;" horiz-adv-x="271" 
d="M66 -13v503h142v-520q0 -175 -172 -175l-66 2v130h31q33 0 49 12.5t16 47.5z" />
    <glyph glyph-name="circumflex" unicode="&#x2c6;" horiz-adv-x="500" 
d="M168 700h163l91 -142h-123l-50 59l-49 -59h-123z" />
    <glyph glyph-name="caron" unicode="&#x2c7;" horiz-adv-x="500" 
d="M331 558h-163l-91 142h123l49 -59l50 59h123z" />
    <glyph glyph-name="uni02C9" unicode="&#x2c9;" horiz-adv-x="500" 
d="M125 700h250v-117h-250v117z" />
    <glyph glyph-name="breve" unicode="&#x2d8;" horiz-adv-x="500" 
d="M249 552q-64 0 -103.5 40t-36.5 108h96q4 -40 44 -40q39 0 45 40h96q3 -68 -37 -108t-104 -40z" />
    <glyph glyph-name="dotaccent" unicode="&#x2d9;" horiz-adv-x="500" 
d="M167 629q0 35 24 59t58 24t58.5 -24.5t24.5 -58.5t-24.5 -58t-58.5 -24t-58 24t-24 58z" />
    <glyph glyph-name="ring" unicode="&#x2da;" horiz-adv-x="500" 
d="M152 631q0 40 28.5 68.5t69.5 28.5q40 0 69 -28.5t29 -68.5q0 -39 -29 -67t-69 -28t-69 28t-29 67zM274 631q0 10 -7 17t-17 7t-17 -7t-7 -17t7 -17t17 -7t17 7t7 17z" />
    <glyph glyph-name="ogonek" unicode="&#x2db;" horiz-adv-x="500" 
d="M233 5l101 -5q-61 -36 -61 -71t57 -35h4v-83q-28 -5 -62 -5q-49 0 -78 24.5t-29 67.5q0 63 68 107z" />
    <glyph glyph-name="tilde" unicode="&#x2dc;" horiz-adv-x="500" 
d="M323 700h91q0 -51 -26.5 -88t-70.5 -37q-7 0 -43 8l-41 13q-17 5 -30 5q-26 0 -27 -26h-91q0 51 26 88t71 37q12 0 43 -7l41 -13q20 -6 30 -6q26 0 27 26z" />
    <glyph glyph-name="hungarumlaut" unicode="&#x2dd;" horiz-adv-x="500" 
d="M124 700h140l-86 -131h-128zM309 700h141l-86 -131h-129z" />
    <glyph glyph-name="commaaccent" unicode="&#x326;" horiz-adv-x="500" 
d="M197 -57h151l-72 -137h-125z" />
    <glyph glyph-name="Deltagreek" unicode="&#x394;" horiz-adv-x="666" 
d="M261 700h144l221 -572v-128h-586v128zM333 531l-150 -398h301z" />
    <glyph glyph-name="Omegagreek" unicode="&#x3a9;" horiz-adv-x="784" 
d="M663 129v-129h-248v246q63 13 102 57.5t39 110.5q0 76 -54 120.5t-132 44.5t-132.5 -44.5t-54.5 -120.5q0 -66 39.5 -110.5t102.5 -57.5v-246h-249v129h120v36q-68 29 -112 94.5t-44 154.5q0 92 48 161t121.5 103t159.5 34q132 0 231 -81t99 -217q0 -88 -44 -153.5
t-111 -95.5v-36h119z" />
    <glyph glyph-name="mugreek" unicode="&#x3bc;" horiz-adv-x="576" 
d="M211 5v-199h-143v684h143v-279q0 -41 19 -66t56 -25q84 0 84 119v251h143v-490h-140v34q-43 -45 -101 -45q-32 0 -61 16z" />
    <glyph glyph-name="pi" unicode="&#x3c0;" horiz-adv-x="633" 
d="M390 0v359h-147v-359h-139v359h-74v131h573v-131h-74v-359h-139z" />
    <glyph glyph-name="Wgrave" unicode="&#x1e80;" horiz-adv-x="959" 
d="M179 700l108 -448l113 448h159l113 -448l108 448h159l-187 -700h-152l-120 462l-121 -462h-152l-187 700h159zM317 872h170l74 -103h-146z" />
    <glyph glyph-name="wgrave" unicode="&#x1e81;" horiz-adv-x="792" 
d="M475 490l81 -293l69 293h152l-138 -490h-155l-88 302l-88 -302h-155l-138 490h152l70 -293l80 293h158zM229 700h180l74 -142h-134z" />
    <glyph glyph-name="Wacute" unicode="&#x1e82;" horiz-adv-x="959" 
d="M179 700l108 -448l113 448h159l113 -448l108 448h159l-187 -700h-152l-120 462l-121 -462h-152l-187 700h159zM471 872h170l-98 -103h-146z" />
    <glyph glyph-name="wacute" unicode="&#x1e83;" horiz-adv-x="792" 
d="M475 490l81 -293l69 293h152l-138 -490h-155l-88 302l-88 -302h-155l-138 490h152l70 -293l80 293h158zM383 700h180l-120 -142h-134z" />
    <glyph glyph-name="Wdieresis" unicode="&#x1e84;" horiz-adv-x="959" 
d="M179 700l108 -448l113 448h159l113 -448l108 448h159l-187 -700h-152l-120 462l-121 -462h-152l-187 700h159zM299 833q0 30 21.5 52t52.5 22q30 0 52.5 -22t22.5 -52t-22.5 -52t-52.5 -22q-31 0 -52.5 21.5t-21.5 52.5zM511 833q0 30 21.5 52t52.5 22q30 0 52.5 -22
t22.5 -52t-22.5 -52t-52.5 -22q-31 0 -52.5 21.5t-21.5 52.5z" />
    <glyph glyph-name="wdieresis" unicode="&#x1e85;" horiz-adv-x="792" 
d="M475 490l81 -293l69 293h152l-138 -490h-155l-88 302l-88 -302h-155l-138 490h152l70 -293l80 293h158zM216 638q0 30 21.5 52t52.5 22q30 0 52.5 -22t22.5 -52t-22.5 -52t-52.5 -22q-31 0 -52.5 21.5t-21.5 52.5zM428 638q0 30 21.5 52t52.5 22q30 0 52.5 -22t22.5 -52
t-22.5 -52t-52.5 -22q-31 0 -52.5 21.5t-21.5 52.5z" />
    <glyph glyph-name="Ygrave" unicode="&#x1ef2;" horiz-adv-x="633" 
d="M172 700l144 -294l145 294h162l-234 -455v-245h-147v245l-232 455h162zM154 872h170l74 -103h-146z" />
    <glyph glyph-name="ygrave" unicode="&#x1ef3;" horiz-adv-x="546" 
d="M267 -194h-150l80 194l-191 490h158l110 -303l114 303h152zM106 700h180l74 -142h-134z" />
    <glyph glyph-name="thinspace" unicode="&#x2009;" horiz-adv-x="105" 
 />
    <glyph glyph-name="endash" unicode="&#x2013;" horiz-adv-x="500" 
d="M20 198v128h460v-128h-460z" />
    <glyph glyph-name="emdash" unicode="&#x2014;" horiz-adv-x="1000" 
d="M20 198v128h960v-128h-960z" />
    <glyph glyph-name="quoteleft" unicode="&#x2018;" horiz-adv-x="280" 
d="M15 700h152l95 -234h-138z" />
    <glyph glyph-name="quoteright" unicode="&#x2019;" horiz-adv-x="280" 
d="M113 700h152l-109 -234h-138z" />
    <glyph glyph-name="quotesinglbase" unicode="&#x201a;" horiz-adv-x="280" 
d="M90 114h155l-109 -237h-141z" />
    <glyph glyph-name="quotedblleft" unicode="&#x201c;" horiz-adv-x="501" 
d="M15 700h152l95 -234h-138zM237 700h151l95 -234h-138z" />
    <glyph glyph-name="quotedblright" unicode="&#x201d;" horiz-adv-x="501" 
d="M334 700h152l-109 -234h-138zM113 700h151l-108 -234h-138z" />
    <glyph glyph-name="quotedblbase" unicode="&#x201e;" horiz-adv-x="500" 
d="M90 114h155l-109 -237h-141zM310 114h155l-109 -237h-141z" />
    <glyph glyph-name="dagger" unicode="&#x2020;" horiz-adv-x="594" 
d="M51 490h174v210h139v-210h179v-134h-179v-550h-139v550h-174v134z" />
    <glyph glyph-name="daggerdbl" unicode="&#x2021;" horiz-adv-x="599" 
d="M542 51h-173v-245h-139v245h-179v135h179v170h-174v134h174v210h139v-210h179v-134h-179v-170h173v-135z" />
    <glyph glyph-name="bullet" unicode="&#x2022;" horiz-adv-x="438" 
d="M74 262q0 61 42 103t103 42t103 -42t42 -103t-42 -103t-103 -42t-103 42t-42 103z" />
    <glyph glyph-name="ellipsis" unicode="&#x2026;" horiz-adv-x="806" 
d="M54 75q0 36 24.5 61t60.5 25t61.5 -25t25.5 -61t-25.5 -61t-61.5 -25t-60.5 25t-24.5 61zM317 75q0 36 24.5 61t60.5 25t61.5 -25t25.5 -61t-25.5 -61t-61.5 -25t-60.5 25t-24.5 61zM580 75q0 36 24.5 61t60.5 25t61.5 -25t25.5 -61t-25.5 -61t-61.5 -25t-60.5 25
t-24.5 61z" />
    <glyph glyph-name="perthousand" unicode="&#x2030;" horiz-adv-x="1200" 
d="M847 139q0 65 43.5 108.5t108.5 43.5q63 0 106.5 -44t43.5 -108q0 -63 -43.5 -106.5t-106.5 -43.5q-64 0 -108 43.5t-44 106.5zM955 139q0 -20 13 -32t31 -12q16 0 28.5 12.5t12.5 31.5q0 21 -12.5 33.5t-28.5 12.5q-18 0 -31 -12.5t-13 -33.5zM51 561q0 64 44 107.5
t108 43.5q63 0 106.5 -43.5t43.5 -107.5q0 -63 -43.5 -107t-106.5 -44q-64 0 -108 44t-44 107zM160 561q0 -20 12.5 -32.5t30.5 -12.5q16 0 28.5 13t12.5 32q0 20 -12.5 32.5t-28.5 12.5q-18 0 -30.5 -12.5t-12.5 -32.5zM488 139q0 65 44 108.5t108 43.5q63 0 106.5 -44
t43.5 -108q0 -63 -43.5 -106.5t-106.5 -43.5q-64 0 -108 43.5t-44 106.5zM596 139q0 -20 13 -32t31 -12q16 0 28.5 12.5t12.5 31.5q0 21 -12.5 33.5t-28.5 12.5q-18 0 -31 -12.5t-13 -33.5zM129 0l431 700h152l-430 -700h-153z" />
    <glyph glyph-name="guilsinglleft" unicode="&#x2039;" horiz-adv-x="371" 
d="M40 245l137 245h154l-139 -245l139 -245h-154z" />
    <glyph glyph-name="guilsinglright" unicode="&#x203a;" horiz-adv-x="371" 
d="M194 490l137 -245l-137 -245h-154l139 245l-139 245h154z" />
    <glyph glyph-name="fraction" unicode="&#x2044;" horiz-adv-x="604" 
d="M20 0l431 700h133l-431 -700h-133z" />
    <glyph glyph-name="zerosuperior" unicode="&#x2070;" horiz-adv-x="403" 
d="M201 406q27 0 41 22t14 77t-14 76.5t-41 21.5t-40.5 -22t-13.5 -76q0 -56 13.5 -77.5t40.5 -21.5zM201 302q-78 0 -126 55.5t-48 147.5t48 147t126 55t126.5 -55t48.5 -147t-48.5 -147.5t-126.5 -55.5z" />
    <glyph glyph-name="foursuperior" unicode="&#x2074;" horiz-adv-x="387" 
d="M366 380h-58v-72h-115v72h-181v89l165 231h131v-225h58v-95zM131 475h62v94z" />
    <glyph glyph-name="zeroinferior" unicode="&#x2080;" horiz-adv-x="403" 
d="M201 98q27 0 41 22t14 77t-14 76.5t-41 21.5t-40.5 -22t-13.5 -76q0 -56 13.5 -77.5t40.5 -21.5zM201 -6q-78 0 -126 55.5t-48 147.5t48 147t126 55t126.5 -55t48.5 -147t-48.5 -147.5t-126.5 -55.5z" />
    <glyph glyph-name="oneinferior" unicode="&#x2081;" horiz-adv-x="352" 
d="M32 101h98v161q-39 -22 -98 -22v98q82 4 107 54h106v-291h95v-101h-308v101z" />
    <glyph glyph-name="twoinferior" unicode="&#x2082;" horiz-adv-x="379" 
d="M190 399q62 0 108.5 -31t46.5 -86q0 -47 -23.5 -75.5t-74.5 -52.5l-19 -9q-40 -19 -51 -26.5t-15 -17.5h181v-101h-315v13q1 76 31.5 125.5t101.5 80.5l25 11q26 12 34.5 20.5t8.5 19.5q0 12 -11.5 20t-30.5 8q-55 0 -86 -54l-73 70q19 36 64 60.5t98 24.5z" />
    <glyph glyph-name="threeinferior" unicode="&#x2083;" horiz-adv-x="358" 
d="M274 205q55 -28 55 -90q0 -56 -47.5 -88.5t-120.5 -32.5q-47 0 -88.5 19t-65.5 48l77 74q33 -41 81 -41q22 0 35.5 9.5t13.5 20.5q0 31 -63 31h-36v88h33q55 0 55 28q0 11 -11.5 19t-31.5 8q-42 0 -68 -35l-75 71q59 65 151 65q63 0 107 -27.5t44 -83.5q0 -55 -45 -83z
" />
    <glyph glyph-name="fourinferior" unicode="&#x2084;" horiz-adv-x="387" 
d="M366 72h-58v-72h-115v72h-181v89l165 231h131v-225h58v-95zM131 167h62v94z" />
    <glyph glyph-name="Euro" unicode="&#x20ac;" horiz-adv-x="700" 
d="M57 371v122h84q27 99 105 159t186 60q76 0 135 -28.5t93 -74.5l-98 -102q-48 69 -131 69q-41 0 -77.5 -22t-53.5 -61h190v-122h-223q-1 -9 -1 -22q0 -16 1 -25h223v-122h-189q15 -36 51.5 -56.5t79.5 -20.5q48 0 79.5 15.5t60.5 49.5l98 -106q-91 -95 -239 -95
q-107 0 -181.5 55.5t-107.5 157.5h-85v122h63q-1 10 -1 25v22h-62z" />
    <glyph glyph-name="numero" unicode="&#x2116;" horiz-adv-x="1187" 
d="M502 0l-283 472v-472h-149v700h179l283 -474v474h148v-700h-178zM760 522q0 81 57.5 135t143.5 54t143.5 -54t57.5 -135t-57.5 -134.5t-143.5 -53.5t-143.5 53.5t-57.5 134.5zM878 522q0 -37 23.5 -61.5t59.5 -24.5q37 0 60.5 24t23.5 62t-23.5 62.5t-60.5 24.5
q-36 0 -59.5 -24.5t-23.5 -62.5z" />
    <glyph glyph-name="published" unicode="&#x2117;" horiz-adv-x="826" 
d="M51 351q0 152 105.5 256.5t256.5 104.5t256.5 -104.5t105.5 -256.5q0 -154 -105.5 -258t-256.5 -104q-152 0 -257 104t-105 258zM139 351q0 -117 77.5 -196.5t196.5 -79.5q118 0 196 79.5t78 196.5q0 115 -78 195t-196 80q-119 0 -196.5 -79.5t-77.5 -195.5zM457 282h-73
v-120h-111v375h184q64 0 104.5 -34t40.5 -92q0 -56 -41 -92.5t-104 -36.5zM447 441h-63v-64h63q44 0 44 32t-44 32z" />
    <glyph glyph-name="trademark" unicode="&#x2122;" horiz-adv-x="870" 
d="M20 700h312v-101h-102v-292h-110v292h-100v101zM548 365l-56 150v-208h-109v393h136l78 -211l78 211h135v-393h-108v208l-55 -150h-99z" />
    <glyph glyph-name="Omega" unicode="&#x2126;" horiz-adv-x="739" 
d="M663 129v-129h-248v246q63 13 102 57.5t39 110.5q0 76 -54 120.5t-132 44.5t-132.5 -44.5t-54.5 -120.5q0 -66 39.5 -110.5t102.5 -57.5v-246h-249v129h120v36q-68 29 -112 94.5t-44 154.5q0 92 48 161t121.5 103t159.5 34q132 0 231 -81t99 -217q0 -88 -44 -153.5
t-111 -95.5v-36h119z" />
    <glyph glyph-name="LeftArrow" unicode="&#x2190;" horiz-adv-x="815" 
d="M454 511l-155 -153h465v-137h-462l152 -146l-90 -98l-313 313l313 312z" />
    <glyph glyph-name="UpArrow" unicode="&#x2191;" horiz-adv-x="727" 
d="M585 310l-153 153v-463h-137v461l-146 -151l-98 90l313 312l312 -312z" />
    <glyph glyph-name="RightArrow" unicode="&#x2192;" horiz-adv-x="815" 
d="M505 358l-155 153l90 91l313 -312l-313 -313l-90 98l152 146h-462v137h465z" />
    <glyph glyph-name="DownwArrow" unicode="&#x2193;" horiz-adv-x="727" 
d="M432 238l153 153l91 -90l-312 -312l-313 312l98 90l146 -151v461h137v-463z" />
    <glyph glyph-name="NorthWestArrow" unicode="&#x2196;" horiz-adv-x="681" 
d="M527 390h-214l319 -318l-97 -97l-318 317v-212h-132v441h442v-131z" />
    <glyph glyph-name="NorthEastArrow" unicode="&#x2197;" horiz-adv-x="681" 
d="M356 390h-214v131h442v-441h-132v212l-318 -317l-97 97z" />
    <glyph glyph-name="SouthEastArrow" unicode="&#x2198;" horiz-adv-x="681" 
d="M176 131h214l-319 318l97 97l318 -317v212h132v-441h-442v131z" />
    <glyph glyph-name="SouthWestArrow" unicode="&#x2199;" horiz-adv-x="681" 
d="M313 131h214v-131h-442v441h132v-212l318 317l97 -97z" />
    <glyph glyph-name="partialdiff" unicode="&#x2202;" horiz-adv-x="632" 
d="M303 -11q-106 0 -180.5 65.5t-74.5 173.5q0 105 71.5 171t171.5 66q88 0 141 -52q-1 77 -42.5 120t-105.5 43q-73 0 -119 -58l-96 99q37 42 94 68.5t121 26.5q132 0 216 -98.5t84 -256.5q0 -171 -75 -269.5t-206 -98.5zM196 227q0 -46 29 -74t74 -28q46 0 74.5 28
t28.5 74t-28.5 73.5t-74.5 27.5q-45 0 -74 -28t-29 -73z" />
    <glyph glyph-name="Delta" unicode="&#x2206;" horiz-adv-x="666" 
d="M261 700h144l221 -572v-128h-586v128zM333 531l-150 -398h301z" />
    <glyph glyph-name="product" unicode="&#x220f;" horiz-adv-x="642" 
d="M440 -194v763h-238v-763h-139v894h516v-894h-139z" />
    <glyph glyph-name="summation" unicode="&#x2211;" horiz-adv-x="525" 
d="M212 566l180 -312l-180 -313h283v-135h-445v129l187 319l-187 317v129h445v-134h-283z" />
    <glyph glyph-name="minus" unicode="&#x2212;" horiz-adv-x="610" 
d="M60 194v132h490v-132h-490z" />
    <glyph glyph-name="radical" unicode="&#x221a;" horiz-adv-x="709" 
d="M30 490h214l109 -298l187 508h149l-263 -700h-144l-136 359h-116v131z" />
    <glyph glyph-name="infinity" unicode="&#x221e;" horiz-adv-x="1101" 
d="M798 502q115 0 191.5 -73.5t76.5 -183.5t-76.5 -183t-191.5 -73q-47 0 -86 12t-69 34.5t-50 43.5t-42 51q-31 -41 -59 -68t-78.5 -50t-110.5 -23q-115 0 -191.5 73t-76.5 183t76.5 183.5t191.5 73.5q87 0 143.5 -38t103.5 -102q109 140 248 140zM303 368q-52 0 -89 -35.5
t-37 -87.5q0 -51 37 -87t89 -36q41 0 73 22.5t66 69.5l23 31l-24 32q-34 46 -65.5 68.5t-72.5 22.5zM636 245l24 -32q34 -46 65.5 -68.5t72.5 -22.5q52 0 89 36t37 87q0 52 -37 87.5t-89 35.5q-41 0 -72.5 -22.5t-65.5 -68.5z" />
    <glyph glyph-name="integral" unicode="&#x222b;" horiz-adv-x="384" 
d="M263 506v-516q0 -96 -59 -145.5t-158 -49.5l-36 1v135h24q47 0 67 16.5t20 53.5v513q0 99 58.5 148.5t158.5 49.5l36 -1v-134h-23q-47 0 -67.5 -17t-20.5 -54z" />
    <glyph glyph-name="approxequal" unicode="&#x2248;" horiz-adv-x="626" 
d="M455 448h120q5 -73 -28 -116.5t-99 -43.5q-26 0 -74 10l-118 27q-37 7 -46 7q-40 0 -40 -38h-119q-5 72 27.5 116t98.5 44q30 0 74 -11l119 -26q37 -7 45 -7q40 0 40 38zM455 226h120q5 -73 -28 -116.5t-99 -43.5q-34 0 -74 10l-118 26q-28 7 -46 7q-40 0 -40 -37h-119
q-5 72 27.5 115.5t98.5 43.5q34 0 74 -10l119 -26q28 -7 45 -7q40 0 40 38z" />
    <glyph glyph-name="notequal" unicode="&#x2260;" horiz-adv-x="622" 
d="M60 297v132h274l37 73h137l-37 -73h91v-132h-159l-42 -83h201v-132h-268l-47 -93h-138l47 93h-96v132h164l42 83h-206z" />
    <glyph glyph-name="lessequal" unicode="&#x2264;" horiz-adv-x="603" 
d="M40 -128v128h503v-128h-503zM40 213v148l503 153v-150l-320 -77l320 -77v-149z" />
    <glyph glyph-name="greaterequal" unicode="&#x2265;" horiz-adv-x="603" 
d="M563 0v-128h-503v128h503zM563 361v-148l-503 -152v149l320 77l-320 77v150z" />
    <glyph glyph-name="BlackSquare" unicode="&#x25a0;" horiz-adv-x="651" 
d="M80 137v491h491v-491h-491z" />
    <glyph glyph-name="UpTriangle" unicode="&#x25b2;" horiz-adv-x="760" 
d="M40 80l340 540l340 -540h-680z" />
    <glyph glyph-name="RightTriangle" unicode="&#x25ba;" horiz-adv-x="660" 
d="M620 350l-540 -340v680z" />
    <glyph glyph-name="DownTriangle" unicode="&#x25bc;" horiz-adv-x="760" 
d="M380 80l-340 540h680z" />
    <glyph glyph-name="LeftTriangle" unicode="&#x25c0;" horiz-adv-x="660" 
d="M580 10l-540 340l540 340v-680z" />
    <glyph glyph-name="Diamond" unicode="&#x25c6;" horiz-adv-x="718" 
d="M40 385l319 319l319 -319l-319 -319z" />
    <glyph glyph-name="lozenge" unicode="&#x25ca;" horiz-adv-x="639" 
d="M253 700h133l213 -453l-213 -452h-133l-213 452zM188 247l132 -285l131 285l-131 286z" />
    <glyph glyph-name="BlackCircle" unicode="&#x25cf;" horiz-adv-x="630" 
d="M315 75q-114 0 -194.5 80.5t-80.5 194.5q0 113 80.5 194t194.5 81q113 0 194 -81t81 -194q0 -114 -81 -194.5t-194 -80.5z" />
    <glyph glyph-name="HeavyBlackHeart" unicode="&#x2764;" horiz-adv-x="646" 
d="M461 626q62 0 108.5 -37t46.5 -119q0 -43 -23.5 -80t-60.5 -68t-76 -63t-76.5 -80t-56.5 -105h-1q-19 57 -56.5 105t-76.5 80t-75.5 63t-60 68t-23.5 80q0 82 46.5 119t108.5 37q103 0 130 -104h15q27 104 131 104z" />
    <glyph glyph-name="i.TRK" horiz-adv-x="279" 
d="M68 0v490h142v-490h-142zM57 629q0 35 24 59t58 24q35 0 59 -24t24 -59q0 -34 -24.5 -58t-58.5 -24t-58 24t-24 58z" />
    <glyph glyph-name="a.ordn" horiz-adv-x="413" 
d="M161 334q-61 0 -96 32t-35 82q0 57 43.5 87t107.5 30q36 0 72 -9v2q0 25 -16 40.5t-43 15.5q-51 0 -81 -41l-72 66q64 72 161 72q71 0 119 -39t48 -105v-225h-114v22q-36 -30 -94 -30zM145 456q0 -13 12.5 -21.5t32.5 -8.5q34 0 63 19v40q-21 6 -45 6q-63 0 -63 -35z" />
    <glyph glyph-name="d.ordn" horiz-adv-x="473" 
d="M25 522q0 84 55.5 136.5t135.5 52.5q57 0 94 -29v175h115v-515h-113v23q-37 -31 -96 -31q-81 0 -136 51.5t-55 136.5zM312 522q0 40 -24 65t-61 25q-36 0 -60 -25t-24 -65t24 -65t60 -25q37 0 61 25t24 65z" />
    <glyph glyph-name="e.ordn" horiz-adv-x="421" 
d="M396 495h-254q5 -27 26 -44t55 -17q56 0 91 41l76 -68q-60 -73 -164 -73q-87 0 -144 51t-57 135q0 82 53 136.5t135 54.5q86 0 135 -55t49 -130zM215 615q-27 0 -44.5 -13.5t-22.5 -34.5h127q-2 21 -18.5 34.5t-41.5 13.5z" />
    <glyph glyph-name="g.ordn" horiz-adv-x="465" 
d="M302 368v7q-32 -25 -89 -25q-82 0 -134.5 48t-52.5 132q0 85 54.5 133t132.5 48q51 0 91 -32v24h114v-323q0 -84 -55.5 -136.5t-152.5 -52.5q-113 0 -173 72l80 73q33 -44 92 -44q42 0 67.5 21t25.5 55zM304 530q0 37 -23 59.5t-58 22.5q-33 0 -56 -22.5t-23 -59.5
q0 -36 23 -58.5t56 -22.5q34 0 57.5 22.5t23.5 58.5z" />
    <glyph glyph-name="l.ordn" horiz-adv-x="209" 
d="M47 342v515h115v-515h-115z" />
    <glyph glyph-name="m.ordn" horiz-adv-x="671" 
d="M162 525v-183h-115v361h114v-24q35 32 89 32q66 0 104 -41q48 41 114 41q76 0 117.5 -41.5t41.5 -117.5v-210h-115v204q0 29 -14 46.5t-41 17.5q-29 0 -45.5 -20.5t-16.5 -56.5v-191h-115v205q0 28 -14 45.5t-41 17.5q-63 0 -63 -85z" />
    <glyph glyph-name="o.ordn" horiz-adv-x="452" 
d="M25 522q0 81 57.5 135t143.5 54t143.5 -54t57.5 -135t-57.5 -134.5t-143.5 -53.5t-143.5 53.5t-57.5 134.5zM143 522q0 -37 23.5 -61.5t59.5 -24.5q37 0 60.5 24t23.5 62t-23.5 62.5t-60.5 24.5q-36 0 -59.5 -24.5t-23.5 -62.5z" />
    <glyph glyph-name="r.ordn" horiz-adv-x="301" 
d="M283 707v-106h-18q-45 0 -74 -28t-29 -80v-151h-115v361h114v-31q31 36 91 36q20 0 31 -1z" />
    <glyph glyph-name="s.ordn" horiz-adv-x="377" 
d="M209 465l-50 12q-125 29 -125 119q0 52 43 83.5t105 31.5q88 0 154 -56l-70 -71q-41 34 -88 34q-32 0 -32 -18q0 -10 24 -16l56 -12q126 -30 126 -121q0 -52 -43.5 -84.5t-116.5 -32.5q-53 0 -98 20.5t-69 49.5l70 68q52 -47 107 -47q15 0 27 6t12 15q0 12 -32 19z" />
    <glyph glyph-name="t.ordn" horiz-adv-x="293" 
d="M195 341q-134 0 -134 130v130h-48v102h48v100h114v-100h84v-102h-84v-117q0 -25 12 -33.5t37 -8.5h33v-100q-31 -1 -62 -1z" />
    <glyph glyph-name="caron.alt" horiz-adv-x="500" 
d="M332 700l-59 -189h-105l27 189h137z" />
    <glyph glyph-name="revcommaaccent" horiz-adv-x="500" 
d="M297 563h-141l72 137h115z" />
    <glyph glyph-name="grave.cap" horiz-adv-x="500" 
d="M128 872h170l74 -103h-146z" />
    <glyph glyph-name="acute.cap" horiz-adv-x="500" 
d="M202 872h170l-98 -103h-146z" />
    <glyph glyph-name="circumflex.cap" horiz-adv-x="500" 
d="M163 872h174l85 -103h-134l-38 40l-38 -40h-135z" />
    <glyph glyph-name="caron.cap" horiz-adv-x="500" 
d="M337 769h-174l-86 103h135l38 -41l38 41h134z" />
    <glyph glyph-name="tilde.cap" horiz-adv-x="500" 
d="M323 894h91q0 -51 -26.5 -88t-70.5 -37q-7 0 -43 8l-41 13q-17 5 -30 5q-26 0 -27 -26h-91q0 51 26 88t71 37q12 0 43 -7l41 -13q20 -6 30 -6q26 0 27 26z" />
    <glyph glyph-name="dieresis.cap" horiz-adv-x="500" 
d="M69 833q0 30 21.5 52t52.5 22q30 0 52.5 -22t22.5 -52t-22.5 -52t-52.5 -22q-31 0 -52.5 21.5t-21.5 52.5zM281 833q0 30 21.5 52t52.5 22q30 0 52.5 -22t22.5 -52t-22.5 -52t-52.5 -22q-31 0 -52.5 21.5t-21.5 52.5z" />
    <glyph glyph-name="macron.cap" horiz-adv-x="500" 
d="M125 886h250v-117h-250v117z" />
    <glyph glyph-name="breve.cap" horiz-adv-x="500" 
d="M249 740q-63 0 -104.5 39t-45.5 107h106q4 -40 44 -40q39 0 45 40h106q-4 -68 -45.5 -107t-105.5 -39z" />
    <glyph glyph-name="ring.cap" horiz-adv-x="500" 
d="M152 774q0 40 28.5 68.5t69.5 28.5q40 0 69 -28.5t29 -68.5q0 -39 -29 -67t-69 -28t-69 28t-29 67zM274 774q0 10 -7 17t-17 7t-17 -7t-7 -17t7 -17t17 -7t17 7t7 17z" />
    <glyph glyph-name="hungarumlaut.cap" horiz-adv-x="500" 
d="M117 872h138l-68 -103h-128zM302 872h139l-68 -103h-129z" />
    <glyph glyph-name="dotaccent.cap" horiz-adv-x="500" 
d="M167 831q0 35 24 59t58 24t58.5 -24.5t24.5 -58.5t-24.5 -58t-58.5 -24t-58 24t-24 58z" />
    <glyph glyph-name="cedilla.cap" horiz-adv-x="500" 
d="M292 -137h-143l77 148h125z" />
    <glyph glyph-name="ogonek.cap" horiz-adv-x="500" 
d="M233 5l101 -5q-61 -36 -61 -71t57 -35h4v-83q-28 -5 -62 -5q-49 0 -78 24.5t-29 67.5q0 63 68 107z" />
    <glyph glyph-name="commaaccent.cap" horiz-adv-x="500" 
d="M196 -57h152l-72 -137h-126z" />
    <glyph glyph-name="hyphen.cap" horiz-adv-x="280" 
d="M20 286v128h240v-128h-240z" />
    <glyph glyph-name="exclamdown.cap" horiz-adv-x="332" 
d="M92 -11v474h147v-474h-147zM80 614q0 36 24.5 61t60.5 25t61.5 -25t25.5 -61q0 -35 -25.5 -60.5t-61.5 -25.5t-60.5 25t-24.5 61z" />
    <glyph glyph-name="questiondown.cap" horiz-adv-x="552" 
d="M226 475h146v-180h-47q-58 0 -96.5 -26t-38.5 -68q0 -33 26.5 -54t67.5 -21q89 0 142 81l94 -100q-37 -55 -99 -86.5t-136 -31.5q-102 0 -172.5 60t-70.5 155q0 79 50.5 136.5t133.5 74.5v60zM383 626q0 -35 -25 -60.5t-60 -25.5q-36 0 -61.5 25.5t-25.5 60.5
q0 36 25.5 61t61.5 25q35 0 60 -25t25 -61z" />
    <glyph glyph-name="guilsinglleft.cap" horiz-adv-x="371" 
d="M40 350l137 245h154l-139 -245l139 -245h-154z" />
    <glyph glyph-name="guilsinglright.cap" horiz-adv-x="371" 
d="M194 595l137 -245l-137 -245h-154l139 245l-139 245h154z" />
    <glyph glyph-name="guillemotleft.cap" horiz-adv-x="661" 
d="M40 350l137 245h154l-139 -245l139 -245h-154zM330 350l137 245h154l-139 -245l139 -245h-154z" />
    <glyph glyph-name="guillemotright.cap" horiz-adv-x="661" 
d="M194 595l137 -245l-137 -245h-154l139 245l-139 245h154zM484 595l137 -245l-137 -245h-154l139 245l-139 245h154z" />
    <glyph glyph-name="slash.cap" horiz-adv-x="462" 
d="M10 0l295 700h147l-293 -700h-149z" />
    <glyph glyph-name="backslash.cap" horiz-adv-x="462" 
d="M157 700l295 -700h-149l-293 700h147z" />
    <glyph glyph-name="endash.cap" horiz-adv-x="500" 
d="M20 286v128h460v-128h-460z" />
    <glyph glyph-name="emdash.cap" horiz-adv-x="1000" 
d="M20 286v128h960v-128h-960z" />
    <glyph glyph-name="periodcentered.cap" horiz-adv-x="280" 
d="M54 350q0 36 24.5 61t60.5 25t61.5 -25t25.5 -61t-25.5 -61t-61.5 -25t-60.5 25t-24.5 61z" />
    <glyph glyph-name="parenleft.cap" horiz-adv-x="390" 
d="M199 350q0 -222 162 -377l-92 -88q-94 83 -153 202.5t-59 262.5t58.5 262t153.5 203l92 -88q-162 -155 -162 -377z" />
    <glyph glyph-name="parenright.cap" horiz-adv-x="390" 
d="M191 350q0 222 -162 377l92 88q94 -83 153 -202.5t59 -262.5t-58.5 -262t-153.5 -203l-92 88q162 155 162 377z" />
    <glyph glyph-name="bracketleft.cap" horiz-adv-x="375" 
d="M68 -97v894h279v-130h-137v-634h137v-130h-279z" />
    <glyph glyph-name="bracketright.cap" horiz-adv-x="375" 
d="M307 797v-894h-279v130h137v634h-137v130h279z" />
    <glyph glyph-name="braceleft.cap" horiz-adv-x="434" 
d="M293 600v-501q0 -40 17.5 -57t53.5 -17h42v-128h-67q-96 0 -143.5 43t-47.5 145v197h-108v135h108v198q0 102 47.5 145t143.5 43h67v-129h-42q-36 0 -53.5 -17t-17.5 -57z" />
    <glyph glyph-name="braceright.cap" horiz-adv-x="434" 
d="M141 99v501q0 40 -17.5 57t-53.5 17h-42v129h67q96 0 143.5 -43t47.5 -145v-198h108v-135h-108v-197q0 -102 -47.5 -145t-143.5 -43h-67v128h42q36 0 53.5 17t17.5 57z" />
    <glyph glyph-name="numero_s" horiz-adv-x="1564" 
d="M502 0l-283 472v-472h-149v700h179l283 -474v474h148v-700h-178zM760 522q0 81 57.5 135t143.5 54t143.5 -54t57.5 -135t-57.5 -134.5t-143.5 -53.5t-143.5 53.5t-57.5 134.5zM878 522q0 -37 23.5 -61.5t59.5 -24.5q37 0 60.5 24t23.5 62t-23.5 62.5t-60.5 24.5
q-36 0 -59.5 -24.5t-23.5 -62.5zM1396 465l-50 12q-125 29 -125 119q0 52 43 83.5t105 31.5q88 0 154 -56l-70 -71q-41 34 -88 34q-32 0 -32 -18q0 -10 24 -16l56 -12q126 -30 126 -121q0 -52 -43.5 -84.5t-116.5 -32.5q-53 0 -98 20.5t-69 49.5l70 68q52 -47 107 -47
q15 0 27 6t12 15q0 12 -32 19z" />
    <glyph glyph-name="numeroLC" horiz-adv-x="976" 
d="M205 245v-245h-142v490h140v-34q48 46 116 46q91 0 145.5 -57t54.5 -160v-285h-142v274q0 42 -20.5 69t-61.5 27q-90 0 -90 -125zM549 522q0 81 57.5 135t143.5 54t143.5 -54t57.5 -135t-57.5 -134.5t-143.5 -53.5t-143.5 53.5t-57.5 134.5zM667 522q0 -37 23.5 -61.5
t59.5 -24.5q37 0 60.5 24t23.5 62t-23.5 62.5t-60.5 24.5q-36 0 -59.5 -24.5t-23.5 -62.5z" />
    <glyph glyph-name="numeroLC_s" horiz-adv-x="1353" 
d="M205 245v-245h-142v490h140v-34q48 46 116 46q91 0 145.5 -57t54.5 -160v-285h-142v274q0 42 -20.5 69t-61.5 27q-90 0 -90 -125zM549 522q0 81 57.5 135t143.5 54t143.5 -54t57.5 -135t-57.5 -134.5t-143.5 -53.5t-143.5 53.5t-57.5 134.5zM667 522q0 -37 23.5 -61.5
t59.5 -24.5q37 0 60.5 24t23.5 62t-23.5 62.5t-60.5 24.5q-36 0 -59.5 -24.5t-23.5 -62.5zM1185 465l-50 12q-125 29 -125 119q0 52 43 83.5t105 31.5q88 0 154 -56l-70 -71q-41 34 -88 34q-32 0 -32 -18q0 -10 24 -16l56 -12q126 -30 126 -121q0 -52 -43.5 -84.5
t-116.5 -32.5q-53 0 -98 20.5t-69 49.5l70 68q52 -47 107 -47q15 0 27 6t12 15q0 12 -32 19z" />
    <glyph glyph-name="zero.osf" horiz-adv-x="684" 
d="M342 -11q-120 0 -208 79t-88 206t88 206t208 79t208 -79t88 -206t-88 -206t-208 -79zM342 422q-64 0 -106 -41.5t-42 -106.5t42 -107t106 -42t106 42t42 107t-42 106.5t-106 41.5z" />
    <glyph glyph-name="one.osf" horiz-adv-x="545" 
d="M61 137h160v226q-65 -45 -160 -45v133q129 5 173 96h135v-410h151v-137h-459v137z" />
    <glyph glyph-name="two.osf" horiz-adv-x="618" 
d="M305 178q-41 -10 -56 -41h303v-137h-501v23q0 108 56 181t160 99l84 21q55 13 55 48q0 51 -87 51q-116 0 -172 -112l-96 96q33 69 103.5 110.5t167.5 41.5q95 0 164 -48.5t69 -133.5q0 -72 -37.5 -113t-129.5 -65z" />
    <glyph glyph-name="three.osf" horiz-adv-x="593" 
d="M441 214q40 -20 67.5 -63t27.5 -102q0 -100 -75 -156t-189 -56q-74 0 -141 31t-108 81l100 101q61 -77 155 -77q49 0 79.5 21t30.5 59q0 82 -133 82h-58v138h47q126 0 126 79q0 31 -25 51.5t-67 20.5q-87 0 -141 -68l-97 97q95 107 234 107q102 0 173.5 -49t71.5 -145
q0 -100 -78 -152z" />
    <glyph glyph-name="four.osf" horiz-adv-x="628" 
d="M588 0h-91v-153h-148v153h-309v122l294 425h163v-416h91v-131zM189 131h160v229z" />
    <glyph glyph-name="five.osf" horiz-adv-x="621" 
d="M431 75q0 47 -32.5 78t-82.5 31q-78 0 -106 -67h-137l17 430h433v-137h-294l-6 -128q48 32 117 32q97 0 168 -63.5t71 -167.5q0 -111 -77.5 -179t-199.5 -68q-76 0 -140.5 30.5t-101.5 80.5l106 105q60 -80 147 -80q50 0 84 28.5t34 74.5z" />
    <glyph glyph-name="six.osf" horiz-adv-x="632" 
d="M330 -11q-131 0 -206.5 98.5t-75.5 269.5q0 161 80.5 258t218.5 97q64 0 122 -26.5t95 -68.5l-96 -99q-48 58 -127 58q-63 0 -107 -48.5t-45 -126.5q56 64 152 64q100 0 171.5 -66t71.5 -171q0 -108 -74.5 -173.5t-179.5 -65.5zM436 229q0 46 -30 75t-75 29t-75 -29
t-30 -75q0 -45 30 -74.5t75 -29.5t75 29.5t30 74.5z" />
    <glyph glyph-name="seven.osf" horiz-adv-x="566" 
d="M39 304v243h512v-129q-209 -217 -236 -531l-3 -40h-151l4 39q26 305 206 524h-188v-106h-144z" />
    <glyph glyph-name="eight.osf" 
d="M300 -11q-111 0 -182.5 57.5t-71.5 154.5q0 55 25 96.5t63 63.5q-71 58 -71 139q0 94 67.5 153t169.5 59t169.5 -59t67.5 -153q0 -81 -70 -139q37 -22 62 -63.5t25 -96.5q0 -97 -71.5 -154.5t-182.5 -57.5zM389 500q0 35 -26 55.5t-63 20.5q-36 0 -62.5 -20.5
t-26.5 -55.5t26.5 -55.5t62.5 -20.5q37 0 63 20.5t26 55.5zM194 209q0 -39 29.5 -61.5t76.5 -22.5q48 0 77 22.5t29 61.5t-29 62t-77 23q-47 0 -76.5 -23t-29.5 -62z" />
    <glyph glyph-name="nine.osf" horiz-adv-x="627" 
d="M300 560q131 0 206 -98.5t75 -269.5q0 -161 -80.5 -258t-217.5 -97q-64 0 -122 26.5t-95 68.5l96 100q46 -59 126 -59q63 0 107.5 48.5t45.5 126.5q-56 -64 -153 -64q-99 0 -170.5 66t-71.5 171q0 108 74.5 173.5t179.5 65.5zM194 320q0 -46 29.5 -75t75.5 -29
q45 0 75 29t30 75t-30 75t-75 29q-46 0 -75.5 -29t-29.5 -75z" />
    <glyph glyph-name="Euro.osf" horiz-adv-x="700" 
d="M57 371v122h84q27 99 105 159t186 60q76 0 135 -28.5t93 -74.5l-98 -102q-48 69 -131 69q-41 0 -77.5 -22t-53.5 -61h190v-122h-223q-1 -9 -1 -22q0 -16 1 -25h223v-122h-189q15 -36 51.5 -56.5t79.5 -20.5q48 0 79.5 15.5t60.5 49.5l98 -106q-91 -95 -239 -95
q-107 0 -181.5 55.5t-107.5 157.5h-85v122h63q-1 10 -1 25v22h-62z" />
    <glyph glyph-name="dollar.osf" horiz-adv-x="667" 
d="M279 -114v107q-74 10 -134.5 45.5t-99.5 84.5l102 103q53 -70 132 -92v156q-101 18 -159 71t-58 139q0 87 62 142.5t155 66.5v106h111v-109q120 -22 201 -106l-100 -105q-45 47 -101 67v-142q225 -41 225 -217q0 -85 -60.5 -142t-164.5 -69v-106h-111zM467 201
q0 50 -77 69v-141q36 7 56.5 26.5t20.5 45.5zM210 507q0 -48 69 -67v133q-32 -7 -50.5 -24t-18.5 -42z" />
    <glyph glyph-name="cent.osf" horiz-adv-x="562" 
d="M435 186l96 -93q-64 -84 -163 -100v-107h-110v109q-89 18 -145 86.5t-56 163.5q0 94 56 163t145 88v108h110v-107q82 -15 153 -93l-96 -93q-29 34 -57 47v-228q35 15 67 56zM202 245q0 -73 56 -106v212q-56 -35 -56 -106z" />
    <glyph glyph-name="sterling.osf" horiz-adv-x="646" 
d="M65 301v122h68q-4 31 -4 57q0 112 70.5 172t161.5 60q148 0 230 -111l-102 -104q-46 79 -119 79q-44 0 -68.5 -29.5t-24.5 -72.5q0 -29 5 -51h173v-122h-147l35 -162h123v110h133v-249h-534v139h128l-38 162h-90z" />
    <glyph glyph-name="florin.osf" horiz-adv-x="427" 
d="M54 -205l-37 1v135h24q48 0 68 16.5t20 53.5v358h-64v131h64v24q0 99 58.5 148.5t157.5 49.5l37 -1v-134h-24q-47 0 -67.5 -17t-20.5 -54v-16h108v-131h-108v-369q0 -96 -58.5 -145.5t-157.5 -49.5z" />
    <glyph glyph-name="yen.osf" horiz-adv-x="663" 
d="M187 700l144 -294l145 294h162l-144 -279h75v-122h-165v-47h165v-122h-165v-130h-147v130h-165v122h165v47h-165v122h75l-142 279h162z" />
    <glyph glyph-name="zero.to" 
d="M300 -11q-117 0 -191.5 77.5t-74.5 207.5q0 129 74.5 207t191.5 78t191.5 -78t74.5 -207q0 -130 -74.5 -207.5t-191.5 -77.5zM300 422q-55 0 -86.5 -41t-31.5 -107q0 -67 31.5 -108t86.5 -41t86.5 41t31.5 108q0 66 -31.5 107t-86.5 41z" />
    <glyph glyph-name="one.to" 
d="M70 137h160v226q-65 -45 -160 -45v133q129 5 173 96h135v-410h151v-137h-459v137z" />
    <glyph glyph-name="two.to" 
d="M302 178q-41 -10 -56 -41h303v-137h-501v23q0 108 56 181t160 99l84 21q55 13 55 48q0 51 -87 51q-116 0 -172 -112l-96 96q33 69 103.5 110.5t167.5 41.5q95 0 164 -48.5t69 -133.5q0 -72 -37.5 -113t-129.5 -65z" />
    <glyph glyph-name="three.to" 
d="M461 214q40 -20 67.5 -63t27.5 -102q0 -100 -75 -156t-189 -56q-74 0 -141 31t-108 81l100 101q61 -77 155 -77q49 0 79.5 21t30.5 59q0 82 -133 82h-58v138h47q126 0 126 79q0 31 -25 51.5t-67 20.5q-87 0 -141 -68l-97 97q95 107 234 107q102 0 173.5 -49t71.5 -145
q0 -100 -78 -152z" />
    <glyph glyph-name="four.to" 
d="M574 0h-91v-153h-148v153h-309v122l294 425h163v-416h91v-131zM175 131h160v229z" />
    <glyph glyph-name="five.to" 
d="M411 75q0 47 -32.5 78t-82.5 31q-78 0 -106 -67h-137l17 430h433v-137h-294l-6 -128q48 32 117 32q97 0 168 -63.5t71 -167.5q0 -111 -77.5 -179t-199.5 -68q-76 0 -140.5 30.5t-101.5 80.5l106 105q60 -80 147 -80q50 0 84 28.5t34 74.5z" />
    <glyph glyph-name="six.to" 
d="M314 -11q-131 0 -206.5 98.5t-75.5 269.5q0 161 80.5 258t218.5 97q64 0 122 -26.5t95 -68.5l-96 -99q-48 58 -127 58q-63 0 -107 -48.5t-45 -126.5q56 64 152 64q100 0 171.5 -66t71.5 -171q0 -108 -74.5 -173.5t-179.5 -65.5zM420 229q0 46 -30 75t-75 29t-75 -29
t-30 -75q0 -45 30 -74.5t75 -29.5t75 29.5t30 74.5z" />
    <glyph glyph-name="seven.to" 
d="M44 304v243h512v-129q-209 -217 -236 -531l-3 -40h-151l4 39q26 305 206 524h-188v-106h-144z" />
    <glyph glyph-name="eight.to" 
d="M300 -11q-111 0 -182.5 57.5t-71.5 154.5q0 55 25 96.5t63 63.5q-71 58 -71 139q0 94 67.5 153t169.5 59t169.5 -59t67.5 -153q0 -81 -70 -139q37 -22 62 -63.5t25 -96.5q0 -97 -71.5 -154.5t-182.5 -57.5zM389 500q0 35 -26 55.5t-63 20.5q-36 0 -62.5 -20.5
t-26.5 -55.5t26.5 -55.5t62.5 -20.5q37 0 63 20.5t26 55.5zM194 209q0 -39 29.5 -61.5t76.5 -22.5q48 0 77 22.5t29 61.5t-29 62t-77 23q-47 0 -76.5 -23t-29.5 -62z" />
    <glyph glyph-name="nine.to" 
d="M286 560q131 0 206 -98.5t75 -269.5q0 -161 -80.5 -258t-217.5 -97q-64 0 -122 26.5t-95 68.5l96 100q46 -59 126 -59q63 0 107.5 48.5t45.5 126.5q-56 -64 -153 -64q-99 0 -170.5 66t-71.5 171q0 108 74.5 173.5t179.5 65.5zM180 320q0 -46 29.5 -75t75.5 -29
q45 0 75 29t30 75t-30 75t-75 29q-46 0 -75.5 -29t-29.5 -75z" />
    <glyph glyph-name="Euro.to" 
d="M416 202h-177q41 -78 122 -78q87 0 147 80l92 -99q-92 -116 -250 -116q-109 0 -178.5 56.5t-97.5 156.5h-60v122h42v27v20h-42v122h61q30 101 101.5 160t175.5 59q150 0 242 -114l-90 -97q-34 40 -66 58t-82 18q-80 0 -120 -84h180v-122h-208v-20q0 -18 1 -27h207v-122z
" />
    <glyph glyph-name="dollar.to" 
d="M249 -114v107q-136 18 -224 130l102 103q55 -73 122 -92v156q-97 17 -152 72t-55 138q0 88 58 143t149 66v106h111v-109q108 -20 191 -106l-100 -105q-51 53 -91 67v-142q110 -20 162.5 -73t52.5 -144q0 -83 -57 -141t-158 -70v-106h-111zM427 201q0 52 -67 69v-141
q67 14 67 72zM190 510q0 -55 59 -70v133q-59 -11 -59 -63z" />
    <glyph glyph-name="cent.to" 
d="M441 186l96 -93q-64 -84 -163 -100v-107h-110v109q-89 18 -145 86.5t-56 163.5q0 94 56 163t145 88v108h110v-107q82 -15 153 -93l-96 -93q-29 34 -57 47v-228q35 15 67 56zM208 245q0 -73 56 -106v212q-56 -35 -56 -106z" />
    <glyph glyph-name="sterling.to" 
d="M32 301v122h68q-4 31 -4 57q0 112 70.5 172t161.5 60q148 0 230 -111l-102 -104q-46 79 -119 79q-44 0 -68.5 -29.5t-24.5 -72.5q0 -29 5 -51h173v-122h-147l35 -162h123v110h133v-249h-534v139h128l-38 162h-90z" />
    <glyph glyph-name="florin.to" 
d="M154 -205l-37 1v135h24q48 0 68 16.5t20 53.5v358h-64v131h64v24q0 99 58.5 148.5t157.5 49.5l37 -1v-134h-24q-47 0 -67.5 -17t-20.5 -54v-16h108v-131h-108v-369q0 -96 -58.5 -145.5t-157.5 -49.5z" />
    <glyph glyph-name="yen.to" 
d="M185 700l114 -240l115 240h162l-142 -279h103v-122h-165v-47h165v-122h-165v-130h-147v130h-165v122h165v47h-165v122h104l-141 279h162z" />
    <glyph glyph-name="zero.tf" 
d="M415 351q0 106 -28.5 165.5t-86.5 59.5t-86.5 -59.5t-28.5 -165.5t28.5 -166t86.5 -60t86.5 60t28.5 166zM37 351q0 164 67 262.5t196 98.5q128 0 195.5 -98.5t67.5 -262.5t-67.5 -263t-195.5 -99q-129 0 -196 99t-67 263z" />
    <glyph glyph-name="one.tf" 
d="M58 137h171v378q-66 -44 -171 -44v133q60 3 111 26t74 70h134v-563h165v-137h-484v137z" />
    <glyph glyph-name="two.tf" 
d="M218 137h331v-137h-501v23q0 128 51 211.5t178 147.5l39 19q52 26 69.5 50t17.5 51q0 32 -26 53t-71 21q-106 0 -162 -112l-96 96q32 67 100.5 109.5t150.5 42.5q104 0 178.5 -55t74.5 -153q0 -77 -42.5 -128.5t-124.5 -93.5l-61 -31q-49 -25 -74 -50t-32 -64z" />
    <glyph glyph-name="three.tf" 
d="M461 366q40 -20 67.5 -63t27.5 -102q0 -100 -75 -156t-189 -56q-74 0 -141 31t-108 81l100 101q61 -77 155 -77q49 0 79.5 21t30.5 59q0 82 -133 82h-58v138h47q126 0 126 79q0 31 -25 51.5t-67 20.5q-87 0 -141 -68l-97 97q95 107 234 107q102 0 173.5 -49t71.5 -145
q0 -100 -78 -152z" />
    <glyph glyph-name="four.tf" 
d="M580 148h-97v-148h-148v148h-315v122l300 430h163v-421h97v-131zM174 279h161v234z" />
    <glyph glyph-name="five.tf" 
d="M411 228q0 47 -32.5 78t-82.5 31q-78 0 -106 -67h-137l17 430h433v-137h-294l-6 -128q48 32 117 32q97 0 168 -63.5t71 -167.5q0 -111 -77.5 -179t-199.5 -68q-76 0 -140.5 30.5t-101.5 80.5l106 105q60 -80 147 -80q50 0 84 28.5t34 74.5z" />
    <glyph glyph-name="six.tf" 
d="M314 -11q-131 0 -206.5 98.5t-75.5 269.5q0 161 80.5 258t218.5 97q64 0 122 -26.5t95 -68.5l-96 -99q-48 58 -127 58q-63 0 -107 -48.5t-45 -126.5q56 64 152 64q100 0 171.5 -66t71.5 -171q0 -108 -74.5 -173.5t-179.5 -65.5zM420 229q0 46 -30 75t-75 29t-75 -29
t-30 -75q0 -45 30 -74.5t75 -29.5t75 29.5t30 74.5z" />
    <glyph glyph-name="seven.tf" 
d="M44 457v243h512v-129q-209 -217 -236 -531l-3 -40h-151l4 39q26 305 206 524h-188v-106h-144z" />
    <glyph glyph-name="eight.tf" 
d="M300 -11q-111 0 -182.5 57.5t-71.5 154.5q0 55 25 96.5t63 63.5q-71 58 -71 139q0 94 67.5 153t169.5 59t169.5 -59t67.5 -153q0 -81 -70 -139q37 -22 62 -63.5t25 -96.5q0 -97 -71.5 -154.5t-182.5 -57.5zM389 500q0 35 -26 55.5t-63 20.5q-36 0 -62.5 -20.5
t-26.5 -55.5t26.5 -55.5t62.5 -20.5q37 0 63 20.5t26 55.5zM194 209q0 -39 29.5 -61.5t76.5 -22.5q48 0 77 22.5t29 61.5t-29 62t-77 23q-47 0 -76.5 -23t-29.5 -62z" />
    <glyph glyph-name="nine.tf" 
d="M286 712q131 0 206 -98.5t75 -269.5q0 -161 -80.5 -258t-217.5 -97q-64 0 -122 26.5t-95 68.5l96 100q46 -59 126 -59q63 0 107.5 48.5t45.5 126.5q-56 -64 -153 -64q-99 0 -170.5 66t-71.5 171q0 108 74.5 173.5t179.5 65.5zM180 472q0 -46 29.5 -75t75.5 -29
q45 0 75 29t30 75t-30 75t-75 29q-46 0 -75.5 -29t-29.5 -75z" />
    <glyph glyph-name="Euro.tf" 
d="M416 202h-177q41 -78 122 -78q87 0 147 80l92 -99q-92 -116 -250 -116q-109 0 -178.5 56.5t-97.5 156.5h-60v122h42v27v20h-42v122h61q30 101 101.5 160t175.5 59q150 0 242 -114l-90 -97q-34 40 -66 58t-82 18q-80 0 -120 -84h180v-122h-208v-20q0 -18 1 -27h207v-122z
" />
    <glyph glyph-name="dollar.tf" 
d="M249 -114v107q-136 18 -224 130l102 103q55 -73 122 -92v156q-97 17 -152 72t-55 138q0 88 58 143t149 66v106h111v-109q108 -20 191 -106l-100 -105q-51 53 -91 67v-142q110 -20 162.5 -73t52.5 -144q0 -83 -57 -141t-158 -70v-106h-111zM427 201q0 52 -67 69v-141
q67 14 67 72zM190 510q0 -55 59 -70v133q-59 -11 -59 -63z" />
    <glyph glyph-name="cent.tf" 
d="M441 186l96 -93q-64 -84 -163 -100v-107h-110v109q-89 18 -145 86.5t-56 163.5q0 94 56 163t145 88v108h110v-107q82 -15 153 -93l-96 -93q-29 34 -57 47v-228q35 15 67 56zM208 245q0 -73 56 -106v212q-56 -35 -56 -106z" />
    <glyph glyph-name="sterling.tf" 
d="M33 301v122h68q-4 31 -4 57q0 112 70.5 172t161.5 60q148 0 230 -111l-102 -104q-46 79 -119 79q-44 0 -68.5 -29.5t-24.5 -72.5q0 -29 5 -51h173v-122h-147l35 -162h123v110h133v-249h-534v139h128l-38 162h-90z" />
    <glyph glyph-name="florin.tf" 
d="M154 -205l-37 1v135h24q48 0 68 16.5t20 53.5v358h-64v131h64v24q0 99 58.5 148.5t157.5 49.5l37 -1v-134h-24q-47 0 -67.5 -17t-20.5 -54v-16h108v-131h-108v-369q0 -96 -58.5 -145.5t-157.5 -49.5z" />
    <glyph glyph-name="yen.tf" 
d="M185 700l114 -240l115 240h162l-142 -279h103v-122h-165v-47h165v-122h-165v-130h-147v130h-165v122h165v47h-165v122h104l-141 279h162z" />
    <glyph glyph-name="A.ss01" horiz-adv-x="704" 
d="M328 563l-77 -300h203l-79 300h-47zM485 700l189 -700h-151l-35 128h-272l-35 -128h-151l189 700h266z" />
    <glyph glyph-name="G.ss01" horiz-adv-x="759" 
d="M407 712q87 0 161.5 -35.5t122.5 -96.5l-100 -102q-25 36 -73.5 65t-108.5 29q-92 0 -155 -64t-63 -157q0 -95 63 -159t155 -64q85 0 147 42v83h-139v137h285v-390h-146v19q-73 -30 -149 -30q-154 0 -259.5 101.5t-105.5 260.5q0 158 106 259.5t259 101.5z" />
    <glyph glyph-name="I.ss01" horiz-adv-x="488" 
d="M70 564v136h348v-136h-101v-428h101v-136h-348v136h100v428h-100z" />
    <glyph glyph-name="J.ss01" horiz-adv-x="562" 
d="M161 564v136h338v-459q0 -117 -65.5 -184.5t-173.5 -67.5t-169 63t-61 177v21h147v-21q0 -104 85 -104q90 0 90 117v322h-191z" />
    <glyph glyph-name="K.ss01" horiz-adv-x="632" 
d="M70 0v700h147v-267h44l183 267h157l-226 -330l232 -370h-160l-184 295h-46v-295h-147z" />
    <glyph glyph-name="M.ss01" horiz-adv-x="911" 
d="M453 265l86 435h302v-700h-150v561h-30l-123 -561h-170l-120 561h-29v-561h-149v700h300z" />
    <glyph glyph-name="Q.ss01" horiz-adv-x="805" 
d="M42 351q0 153 104 257t255 104t256.5 -104.5t105.5 -256.5q0 -154 -105 -258t-257 -104q-151 0 -255 104t-104 258zM372 266l99 101l118 -118q23 46 23 102q0 91 -60.5 156t-146.5 65q-88 0 -149 -65t-61 -156q0 -93 61 -158t149 -65q44 0 85 19z" />
    <glyph glyph-name="V.ss01" horiz-adv-x="704" 
d="M171 700l158 -563h47l157 563h151l-199 -700h-266l-199 700h151z" />
    <glyph glyph-name="W.ss01" horiz-adv-x="994" 
d="M498 168l-49 -168h-234l-200 700h156l152 -563h30l69 231l-105 332h146l34 -128l34 128h146l-105 -332l69 -231h30l152 563h156l-195 -700h-239z" />
    <glyph glyph-name="X.ss01" horiz-adv-x="668" 
d="M359 290h-49l-129 -290h-156l159 359l-146 341h156l116 -270h49l116 270h155l-146 -341l159 -359h-155z" />
    <glyph glyph-name="a.ss01" horiz-adv-x="535" 
d="M83 360v130h389v-490h-244q-81 0 -129.5 44t-48.5 115q0 70 49.5 111.5t128.5 41.5h102v48h-247zM330 190h-107q-40 0 -40 -31t40 -31h107v62z" />
    <glyph glyph-name="e.ss01" horiz-adv-x="470" 
d="M244 161q-27 0 -44 4v-37h218v-128h-360v317q0 87 53.5 136t132.5 49q80 0 133 -48t53 -123q0 -74 -54.5 -122t-131.5 -48zM244 287q20 0 33 13t13 31t-13 31t-33 13t-33 -13t-13 -31t13 -31t33 -13z" />
    <glyph glyph-name="f.ss01" horiz-adv-x="453" 
d="M25 359v131h53v57q0 74 52 119.5t127 45.5t126.5 -46t51.5 -121v-10h-144v8q0 36 -34 36q-33 0 -33 -41v-48h211v-131h-211v-359h-146v359h-53z" />
    <glyph glyph-name="g.ss01" horiz-adv-x="568" 
d="M538 490v-128h-56q28 -40 28 -90q0 -84 -45 -134t-114 -64l162 -142v-126h-448v130h250l-162 136q-108 91 -108 205q0 91 69 152t163 61h261zM367 276q0 37 -26 60t-64 23t-63.5 -23t-25.5 -60t26 -60.5t64 -23.5q37 0 63 23.5t26 60.5z" />
    <glyph glyph-name="h.ss01" horiz-adv-x="582" 
d="M63 0v700h142v-210h314v-490h-143v359h-171v-359h-142z" />
    <glyph glyph-name="j.ss01" horiz-adv-x="293" 
d="M229 -194h-249v130h106v554h143v-684zM75 629q0 35 24 59t58 24q35 0 59 -24t24 -59q0 -34 -24.5 -58t-58.5 -24t-58 24t-24 58z" />
    <glyph glyph-name="k.ss01" horiz-adv-x="521" 
d="M63 0v700h142v-391h42l94 181h151l-129 -245l138 -245h-151l-102 178h-43v-178h-142z" />
    <glyph glyph-name="l.ss01" horiz-adv-x="268" 
d="M205 700v-700h-142v700h142z" />
    <glyph glyph-name="m.ss01" horiz-adv-x="872" 
d="M809 490v-490h-142v359h-160v-359h-142v359h-160v-359h-142v490h746z" />
    <glyph glyph-name="n.ss01" horiz-adv-x="582" 
d="M63 490h456v-490h-143v359h-171v-359h-142v490z" />
    <glyph glyph-name="r.ss01" horiz-adv-x="380" 
d="M205 359v-359h-142v490h282v-131h-140z" />
    <glyph glyph-name="s.ss01" horiz-adv-x="484" 
d="M240 502q109 0 189 -74l-75 -108l-75 47q-20 13 -35 13q-11 0 -17.5 -7t-6.5 -16q0 -17 23 -31l203 -124q0 -52 -19.5 -98.5t-67 -80.5t-113.5 -34q-113 0 -207 87l71 106l59 -34q48 -27 77 -27q28 0 34 24l-133 74q-84 47 -84 136q0 63 53 105t124 42z" />
    <glyph glyph-name="t.ss01" horiz-adv-x="431" 
d="M381 0h-277v359h-84v131h84v137h154v-137h128v-131h-140v-228h135v-131z" />
    <glyph glyph-name="u.ss01" horiz-adv-x="582" 
d="M519 0h-456v490h142v-359h171v359h143v-490z" />
    <glyph glyph-name="y.ss01" horiz-adv-x="570" 
d="M358 -194h-148v194l-195 490h157l113 -307l113 307h157l-197 -490v-194z" />
    <glyph glyph-name="a.ordn.ss01" horiz-adv-x="414" 
d="M61 602v101h306v-361h-191q-63 0 -101 32.5t-38 84.5t38.5 82.5t100.5 30.5h76v30h-191zM252 478h-81q-26 0 -26 -19q0 -18 26 -18h81v37z" />
    <glyph glyph-name="e.ordn.ss01" horiz-adv-x="360" 
d="M187 461h-29v-20h164v-99h-279v233q0 64 41 100t103 36t103 -35t41 -90t-42 -90t-102 -35zM187 558q14 0 22.5 8t8.5 20q0 11 -8.5 19.5t-22.5 8.5t-22.5 -8.5t-8.5 -19.5q0 -12 8.5 -20t22.5 -8z" />
    <glyph glyph-name="g.ordn.ss01" horiz-adv-x="437" 
d="M418 703v-99h-46q22 -26 22 -66q0 -55 -31.5 -91.5t-87.5 -49.5l121 -101v-97h-346v101h187l-120 95q-83 67 -83 151q0 67 53.5 112t126.5 45h204zM278 545q0 26 -18.5 41.5t-45.5 15.5q-28 0 -46 -15.5t-18 -41.5q0 -25 18.5 -41t45.5 -16t45.5 16t18.5 41z" />
    <glyph glyph-name="m.ordn.ss01" horiz-adv-x="677" 
d="M630 703v-361h-115v259h-119v-259h-115v259h-119v-259h-115v361h583z" />
    <glyph glyph-name="r.ordn.ss01" horiz-adv-x="295" 
d="M162 601v-259h-115v361h221v-102h-106z" />
    <glyph glyph-name="s.ordn.ss01" horiz-adv-x="374" 
d="M186 711q86 0 147 -54l-60 -83l-53 31q-22 13 -30 13q-14 0 -14 -15q0 -11 14 -19l156 -90q1 -61 -38.5 -110.5t-116.5 -49.5q-88 0 -161 64l56 82q81 -44 106 -44q12 0 12 10q0 8 -12 14l-80 42q-64 34 -64 100q0 47 40 78t98 31z" />
    <glyph glyph-name="t.ordn.ss01" horiz-adv-x="337" 
d="M298 342h-220v259h-63v102h63v100h126v-100h98v-102h-108v-158h104v-101z" />
    <glyph glyph-name="Agrave.ss01" horiz-adv-x="704" 
d="M328 563l-77 -300h203l-79 300h-47zM485 700l189 -700h-151l-35 128h-272l-35 -128h-151l189 700h266zM190 872h170l74 -103h-146z" />
    <glyph glyph-name="Aacute.ss01" horiz-adv-x="704" 
d="M328 563l-77 -300h203l-79 300h-47zM485 700l189 -700h-151l-35 128h-272l-35 -128h-151l189 700h266zM344 872h170l-98 -103h-146z" />
    <glyph glyph-name="Acircumflex.ss01" horiz-adv-x="704" 
d="M328 563l-77 -300h203l-79 300h-47zM485 700l189 -700h-151l-35 128h-272l-35 -128h-151l189 700h266zM266 872h174l85 -103h-134l-38 40l-38 -40h-135z" />
    <glyph glyph-name="Atilde.ss01" horiz-adv-x="704" 
d="M328 563l-77 -300h203l-79 300h-47zM485 700l189 -700h-151l-35 128h-272l-35 -128h-151l189 700h266zM426 894h91q0 -51 -26.5 -88t-70.5 -37q-7 0 -43 8l-41 13q-17 5 -30 5q-26 0 -27 -26h-91q0 51 26 88t71 37q11 0 43 -7l41 -13q20 -6 30 -6q26 0 27 26z" />
    <glyph glyph-name="Adieresis.ss01" horiz-adv-x="704" 
d="M328 563l-77 -300h203l-79 300h-47zM485 700l189 -700h-151l-35 128h-272l-35 -128h-151l189 700h266zM172 833q0 30 21.5 52t52.5 22q30 0 52.5 -22t22.5 -52t-22.5 -52t-52.5 -22q-31 0 -52.5 21.5t-21.5 52.5zM384 833q0 30 21.5 52t52.5 22q30 0 52.5 -22t22.5 -52
t-22.5 -52t-52.5 -22q-31 0 -52.5 21.5t-21.5 52.5z" />
    <glyph glyph-name="Amacron.ss01" horiz-adv-x="704" 
d="M328 563l-77 -300h203l-79 300h-47zM485 700l189 -700h-151l-35 128h-272l-35 -128h-151l189 700h266zM227 886h250v-117h-250v117z" />
    <glyph glyph-name="Abreve.ss01" horiz-adv-x="704" 
d="M328 563l-77 -300h203l-79 300h-47zM485 700l189 -700h-151l-35 128h-272l-35 -128h-151l189 700h266zM352 740q-63 0 -104.5 39t-45.5 107h106q4 -40 44 -40q39 0 45 40h106q-4 -68 -45.5 -107t-105.5 -39z" />
    <glyph glyph-name="Aring.ss01" horiz-adv-x="704" 
d="M254 770q0 40 28.5 68.5t69.5 28.5q40 0 69 -28.5t29 -68.5q0 -42 -33 -70h68l189 -700h-151l-35 128h-272l-35 -128h-151l189 700h67q-32 27 -32 70zM328 563l-77 -300h203l-79 300h-47zM376 770q0 10 -7 17t-17 7t-17 -7t-7 -17t7 -17t17 -7t17 7t7 17z" />
    <glyph glyph-name="Aringacute.ss01" horiz-adv-x="704" 
d="M254 770q0 40 28.5 68.5t69.5 28.5q40 0 69 -28.5t29 -68.5q0 -42 -33 -70h68l189 -700h-151l-35 128h-272l-35 -128h-151l189 700h67q-32 27 -32 70zM328 563l-77 -300h203l-79 300h-47zM344 1008h170l-98 -103h-146zM376 770q0 10 -7 17t-17 7t-17 -7t-7 -17t7 -17
t17 -7t17 7t7 17z" />
    <glyph glyph-name="Aogonek.ss01" horiz-adv-x="704" 
d="M485 700l189 -700h-1q-61 -36 -61 -71t57 -35h4v-83q-27 -5 -62 -5q-49 0 -78 24.5t-29 67.5q0 59 60 102h-41l-35 128h-272l-35 -128h-151l189 700h266zM328 563l-77 -300h203l-79 300h-47z" />
    <glyph glyph-name="AE.ss01" horiz-adv-x="902" 
d="M822 290h-226l41 -153h202v-137h-316l-35 128h-272l-35 -128h-151l189 700h620v-137h-317l37 -138h263v-135zM328 563l-77 -300h203l-79 300h-47z" />
    <glyph glyph-name="AEacute.ss01" horiz-adv-x="902" 
d="M822 290h-226l41 -153h202v-137h-316l-35 128h-272l-35 -128h-151l189 700h620v-137h-317l37 -138h263v-135zM328 563l-77 -300h203l-79 300h-47zM510 872h170l-98 -103h-146z" />
    <glyph glyph-name="Ccedilla.ss01" horiz-adv-x="733" 
d="M600 226l99 -105q-91 -112 -230 -128v-130h-127v132q-133 21 -216.5 116t-83.5 238q0 164 105 263.5t262 99.5q172 0 279 -132l-100 -102q-31 44 -79.5 69.5t-106.5 25.5q-82 0 -145 -59.5t-63 -161.5q0 -104 62 -164t154 -60q118 0 190 98z" />
    <glyph glyph-name="Gcircumflex.ss01" horiz-adv-x="759" 
d="M407 712q87 0 161.5 -35.5t122.5 -96.5l-100 -102q-25 36 -73.5 65t-108.5 29q-92 0 -155 -64t-63 -157q0 -95 63 -159t155 -64q85 0 147 42v83h-139v137h285v-390h-146v19q-73 -30 -149 -30q-154 0 -259.5 101.5t-105.5 260.5q0 158 106 259.5t259 101.5zM321 872h174
l85 -103h-134l-38 40l-38 -40h-135z" />
    <glyph glyph-name="Gbreve.ss01" horiz-adv-x="759" 
d="M407 712q87 0 161.5 -35.5t122.5 -96.5l-100 -102q-25 36 -73.5 65t-108.5 29q-92 0 -155 -64t-63 -157q0 -95 63 -159t155 -64q85 0 147 42v83h-139v137h285v-390h-146v19q-73 -30 -149 -30q-154 0 -259.5 101.5t-105.5 260.5q0 158 106 259.5t259 101.5zM407 740
q-63 0 -104.5 39t-45.5 107h106q4 -40 44 -40q39 0 45 40h106q-4 -68 -45.5 -107t-105.5 -39z" />
    <glyph glyph-name="Gdotaccent.ss01" horiz-adv-x="759" 
d="M407 712q87 0 161.5 -35.5t122.5 -96.5l-100 -102q-25 36 -73.5 65t-108.5 29q-92 0 -155 -64t-63 -157q0 -95 63 -159t155 -64q85 0 147 42v83h-139v137h285v-390h-146v19q-73 -30 -149 -30q-154 0 -259.5 101.5t-105.5 260.5q0 158 106 259.5t259 101.5zM325 831
q0 35 24 59t58 24t58.5 -24.5t24.5 -58.5t-24.5 -58t-58.5 -24t-58 24t-24 58z" />
    <glyph glyph-name="Gcommaaccent.ss01" horiz-adv-x="759" 
d="M407 712q87 0 161.5 -35.5t122.5 -96.5l-100 -102q-25 36 -73.5 65t-108.5 29q-92 0 -155 -64t-63 -157q0 -95 63 -159t155 -64q85 0 147 42v83h-139v137h285v-390h-146v19q-73 -30 -149 -30q-154 0 -259.5 101.5t-105.5 260.5q0 158 106 259.5t259 101.5zM328 -57h152
l-72 -137h-126z" />
    <glyph glyph-name="Igrave.ss01" horiz-adv-x="488" 
d="M70 564v136h348v-136h-101v-428h101v-136h-348v136h100v428h-100zM82 872h170l74 -103h-146z" />
    <glyph glyph-name="Iacute.ss01" horiz-adv-x="488" 
d="M70 564v136h348v-136h-101v-428h101v-136h-348v136h100v428h-100zM236 872h170l-98 -103h-146z" />
    <glyph glyph-name="Icircumflex.ss01" horiz-adv-x="488" 
d="M70 564v136h348v-136h-101v-428h101v-136h-348v136h100v428h-100zM158 872h174l85 -103h-134l-38 40l-38 -40h-135z" />
    <glyph glyph-name="Itilde.ss01" horiz-adv-x="488" 
d="M70 564v136h348v-136h-101v-428h101v-136h-348v136h100v428h-100zM318 894h91q0 -51 -26.5 -88t-70.5 -37q-7 0 -43 8l-41 13q-17 5 -30 5q-26 0 -27 -26h-91q0 51 26 88t71 37q11 0 43 -7l41 -13q20 -6 30 -6q26 0 27 26z" />
    <glyph glyph-name="Idieresis.ss01" horiz-adv-x="488" 
d="M70 564v136h348v-136h-101v-428h101v-136h-348v136h100v428h-100zM64 833q0 30 21.5 52t52.5 22q30 0 52.5 -22t22.5 -52t-22.5 -52t-52.5 -22q-31 0 -52.5 21.5t-21.5 52.5zM276 833q0 30 21.5 52t52.5 22q30 0 52.5 -22t22.5 -52t-22.5 -52t-52.5 -22q-31 0 -52.5 21.5
t-21.5 52.5z" />
    <glyph glyph-name="Imacron.ss01" horiz-adv-x="488" 
d="M70 564v136h348v-136h-101v-428h101v-136h-348v136h100v428h-100zM119 886h250v-117h-250v117z" />
    <glyph glyph-name="Ibreve.ss01" horiz-adv-x="488" 
d="M70 564v136h348v-136h-101v-428h101v-136h-348v136h100v428h-100zM244 740q-63 0 -104.5 39t-45.5 107h106q4 -40 44 -40q39 0 45 40h106q-4 -68 -45.5 -107t-105.5 -39z" />
    <glyph glyph-name="Idotaccent.ss01" horiz-adv-x="488" 
d="M70 564v136h348v-136h-101v-428h101v-136h-348v136h100v428h-100zM162 831q0 35 24 59t58 24t58.5 -24.5t24.5 -58.5t-24.5 -58t-58.5 -24t-58 24t-24 58z" />
    <glyph glyph-name="Iogonek.ss01" horiz-adv-x="488" 
d="M70 564v136h348v-136h-101v-428h101v-136h-103q-61 -36 -61 -71t57 -35h4v-83q-27 -5 -62 -5q-49 0 -78 24.5t-29 67.5q0 59 60 102h-136v136h100v428h-100z" />
    <glyph glyph-name="IJ.ss01" horiz-adv-x="1050" 
d="M70 564v136h348v-136h-101v-428h101v-136h-348v136h100v428h-100zM649 564v136h338v-459q0 -117 -65.5 -184.5t-173.5 -67.5t-169 63t-61 177v21h147v-21q0 -104 85 -104q90 0 90 117v322h-191z" />
    <glyph glyph-name="Jcircumflex.ss01" horiz-adv-x="562" 
d="M161 564v136h338v-459q0 -117 -65.5 -184.5t-173.5 -67.5t-169 63t-61 177v21h147v-21q0 -104 85 -104q90 0 90 117v322h-191zM251 872h174l85 -103h-134l-38 40l-38 -40h-135z" />
    <glyph glyph-name="Kcommaaccent.ss01" horiz-adv-x="632" 
d="M70 0v700h147v-267h44l183 267h157l-226 -330l232 -370h-160l-184 295h-46v-295h-147zM259 -57h152l-72 -137h-126z" />
    <glyph glyph-name="Scedilla.ss01" horiz-adv-x="654" 
d="M368 275l-86 15q-103 17 -162 70t-59 140q0 97 76.5 154.5t182.5 57.5q164 0 270 -112l-100 -105q-79 81 -178 81q-47 0 -75 -19t-28 -50q0 -56 100 -74l69 -11q236 -38 236 -219q0 -82 -56.5 -138t-154.5 -71v-131h-127v131q-146 20 -232 129l102 103q78 -101 198 -101
q57 0 89.5 21.5t32.5 54.5q0 56 -98 74z" />
    <glyph glyph-name="uni0162.ss01" horiz-adv-x="610" 
d="M30 700h550v-137h-201v-563h-10v-137h-127v137h-11v563h-201v137z" />
    <glyph glyph-name="Wgrave.ss01" horiz-adv-x="994" 
d="M498 168l-49 -168h-234l-200 700h156l152 -563h30l69 231l-105 332h146l34 -128l34 128h146l-105 -332l69 -231h30l152 563h156l-195 -700h-239zM335 872h170l74 -103h-146z" />
    <glyph glyph-name="Wacute.ss01" horiz-adv-x="994" 
d="M498 168l-49 -168h-234l-200 700h156l152 -563h30l69 231l-105 332h146l34 -128l34 128h146l-105 -332l69 -231h30l152 563h156l-195 -700h-239zM489 872h170l-98 -103h-146z" />
    <glyph glyph-name="Wcircumflex.ss01" horiz-adv-x="994" 
d="M498 168l-49 -168h-234l-200 700h156l152 -563h30l69 231l-105 332h146l34 -128l34 128h146l-105 -332l69 -231h30l152 563h156l-195 -700h-239zM411 872h174l85 -103h-134l-38 40l-38 -40h-135z" />
    <glyph glyph-name="Wdieresis.ss01" horiz-adv-x="994" 
d="M498 168l-49 -168h-234l-200 700h156l152 -563h30l69 231l-105 332h146l34 -128l34 128h146l-105 -332l69 -231h30l152 563h156l-195 -700h-239zM317 833q0 30 21.5 52t52.5 22q30 0 52.5 -22t22.5 -52t-22.5 -52t-52.5 -22q-31 0 -52.5 21.5t-21.5 52.5zM529 833
q0 30 21.5 52t52.5 22q30 0 52.5 -22t22.5 -52t-22.5 -52t-52.5 -22q-31 0 -52.5 21.5t-21.5 52.5z" />
    <glyph glyph-name="agrave.ss01" horiz-adv-x="535" 
d="M83 360v130h389v-490h-244q-81 0 -129.5 44t-48.5 115q0 70 49.5 111.5t128.5 41.5h102v48h-247zM330 190h-107q-40 0 -40 -31t40 -31h107v62zM113 700h180l74 -142h-134z" />
    <glyph glyph-name="aacute.ss01" horiz-adv-x="535" 
d="M83 360v130h389v-490h-244q-81 0 -129.5 44t-48.5 115q0 70 49.5 111.5t128.5 41.5h102v48h-247zM330 190h-107q-40 0 -40 -31t40 -31h107v62zM267 700h180l-120 -142h-134z" />
    <glyph glyph-name="acircumflex.ss01" horiz-adv-x="535" 
d="M83 360v130h389v-490h-244q-81 0 -129.5 44t-48.5 115q0 70 49.5 111.5t128.5 41.5h102v48h-247zM330 190h-107q-40 0 -40 -31t40 -31h107v62zM199 700h163l91 -142h-123l-50 59l-49 -59h-123z" />
    <glyph glyph-name="atilde.ss01" horiz-adv-x="535" 
d="M83 360v130h389v-490h-244q-81 0 -129.5 44t-48.5 115q0 70 49.5 111.5t128.5 41.5h102v48h-247zM330 190h-107q-40 0 -40 -31t40 -31h107v62zM354 700h91q0 -51 -26.5 -88t-70.5 -37q-7 0 -43 8l-41 13q-17 5 -30 5q-26 0 -27 -26h-91q0 51 26 88t71 37q11 0 43 -7
l41 -13q20 -6 30 -6q26 0 27 26z" />
    <glyph glyph-name="adieresis.ss01" horiz-adv-x="535" 
d="M83 360v130h389v-490h-244q-81 0 -129.5 44t-48.5 115q0 70 49.5 111.5t128.5 41.5h102v48h-247zM330 190h-107q-40 0 -40 -31t40 -31h107v62zM100 638q0 30 21.5 52t52.5 22q30 0 52.5 -22t22.5 -52t-22.5 -52t-52.5 -22q-31 0 -52.5 21.5t-21.5 52.5zM312 638
q0 30 21.5 52t52.5 22q30 0 52.5 -22t22.5 -52t-22.5 -52t-52.5 -22q-31 0 -52.5 21.5t-21.5 52.5z" />
    <glyph glyph-name="amacron.ss01" horiz-adv-x="535" 
d="M83 360v130h389v-490h-244q-81 0 -129.5 44t-48.5 115q0 70 49.5 111.5t128.5 41.5h102v48h-247zM330 190h-107q-40 0 -40 -31t40 -31h107v62zM155 700h250v-117h-250v117z" />
    <glyph glyph-name="abreve.ss01" horiz-adv-x="535" 
d="M83 360v130h389v-490h-244q-81 0 -129.5 44t-48.5 115q0 70 49.5 111.5t128.5 41.5h102v48h-247zM330 190h-107q-40 0 -40 -31t40 -31h107v62zM280 552q-64 0 -103.5 40t-36.5 108h96q4 -40 44 -40q39 0 45 40h96q3 -68 -37 -108t-104 -40z" />
    <glyph glyph-name="aring.ss01" horiz-adv-x="535" 
d="M83 360v130h389v-490h-244q-81 0 -129.5 44t-48.5 115q0 70 49.5 111.5t128.5 41.5h102v48h-247zM330 190h-107q-40 0 -40 -31t40 -31h107v62zM182 631q0 40 28.5 68.5t69.5 28.5q40 0 69 -28.5t29 -68.5q0 -39 -29 -67t-69 -28t-69 28t-29 67zM304 631q0 10 -7 17t-17 7
t-17 -7t-7 -17t7 -17t17 -7t17 7t7 17z" />
    <glyph glyph-name="aringacute.ss01" horiz-adv-x="535" 
d="M83 360v130h389v-490h-244q-81 0 -129.5 44t-48.5 115q0 70 49.5 111.5t128.5 41.5h102v48h-247zM330 190h-107q-40 0 -40 -31t40 -31h107v62zM182 631q0 40 28.5 68.5t69.5 28.5q40 0 69 -28.5t29 -68.5q0 -39 -29 -67t-69 -28t-69 28t-29 67zM304 631q0 10 -7 17t-17 7
t-17 -7t-7 -17t7 -17t17 -7t17 7t7 17zM287 911h180l-120 -142h-134z" />
    <glyph glyph-name="aogonek.ss01" horiz-adv-x="535" 
d="M83 360v130h389v-490h-4q-61 -36 -61 -71t57 -35h4v-83q-27 -5 -62 -5q-49 0 -78 24.5t-29 67.5q0 59 60 102h-131q-81 0 -129.5 44t-48.5 115q0 70 49.5 111.5t128.5 41.5h102v48h-247zM330 190h-107q-40 0 -40 -31t40 -31h107v62z" />
    <glyph glyph-name="ae.ss01" horiz-adv-x="757" 
d="M690 128v-128h-462q-81 0 -129.5 43t-48.5 114q0 69 49.5 109.5t128.5 40.5h102v53h-247v130h456q81 0 129.5 -42.5t48.5 -113.5q0 -69 -49 -109t-129 -40h-67v-57h218zM330 185h-112q-35 0 -35 -28q0 -29 35 -29h112v57zM549 362h-77v-55h77q35 0 35 27q0 28 -35 28z
" />
    <glyph glyph-name="aeacute.ss01" horiz-adv-x="757" 
d="M690 128v-128h-462q-81 0 -129.5 43t-48.5 114q0 69 49.5 109.5t128.5 40.5h102v53h-247v130h456q81 0 129.5 -42.5t48.5 -113.5q0 -69 -49 -109t-129 -40h-67v-57h218zM330 185h-112q-35 0 -35 -28q0 -29 35 -29h112v57zM549 362h-77v-55h77q35 0 35 27q0 28 -35 28z
M370 700h180l-120 -142h-134z" />
    <glyph glyph-name="ccedilla.ss01" horiz-adv-x="537" 
d="M233 -137v133q-88 19 -143 87t-55 162q0 110 74.5 183.5t184.5 73.5q117 0 205 -98l-96 -93q-47 57 -104 57q-51 0 -85 -34.5t-34 -88.5t34 -88.5t85 -34.5q64 0 114 64l96 -93q-59 -78 -149 -97v-133h-127z" />
    <glyph glyph-name="egrave.ss01" horiz-adv-x="470" 
d="M244 161q-27 0 -44 4v-37h218v-128h-360v317q0 87 53.5 136t132.5 49q80 0 133 -48t53 -123q0 -74 -54.5 -122t-131.5 -48zM244 287q20 0 33 13t13 31t-13 31t-33 13t-33 -13t-13 -31t13 -31t33 -13zM77 700h180l74 -142h-134z" />
    <glyph glyph-name="eacute.ss01" horiz-adv-x="470" 
d="M244 161q-27 0 -44 4v-37h218v-128h-360v317q0 87 53.5 136t132.5 49q80 0 133 -48t53 -123q0 -74 -54.5 -122t-131.5 -48zM244 287q20 0 33 13t13 31t-13 31t-33 13t-33 -13t-13 -31t13 -31t33 -13zM231 700h180l-120 -142h-134z" />
    <glyph glyph-name="ecircumflex.ss01" horiz-adv-x="470" 
d="M244 161q-27 0 -44 4v-37h218v-128h-360v317q0 87 53.5 136t132.5 49q80 0 133 -48t53 -123q0 -74 -54.5 -122t-131.5 -48zM244 287q20 0 33 13t13 31t-13 31t-33 13t-33 -13t-13 -31t13 -31t33 -13zM163 700h163l91 -142h-123l-50 59l-49 -59h-123z" />
    <glyph glyph-name="ecaron.ss01" horiz-adv-x="470" 
d="M244 161q-27 0 -44 4v-37h218v-128h-360v317q0 87 53.5 136t132.5 49q80 0 133 -48t53 -123q0 -74 -54.5 -122t-131.5 -48zM244 287q20 0 33 13t13 31t-13 31t-33 13t-33 -13t-13 -31t13 -31t33 -13zM326 558h-163l-91 142h123l49 -59l50 59h123z" />
    <glyph glyph-name="edieresis.ss01" horiz-adv-x="470" 
d="M244 161q-27 0 -44 4v-37h218v-128h-360v317q0 87 53.5 136t132.5 49q80 0 133 -48t53 -123q0 -74 -54.5 -122t-131.5 -48zM244 287q20 0 33 13t13 31t-13 31t-33 13t-33 -13t-13 -31t13 -31t33 -13zM64 638q0 30 21.5 52t52.5 22q30 0 52.5 -22t22.5 -52t-22.5 -52
t-52.5 -22q-31 0 -52.5 21.5t-21.5 52.5zM276 638q0 30 21.5 52t52.5 22q30 0 52.5 -22t22.5 -52t-22.5 -52t-52.5 -22q-31 0 -52.5 21.5t-21.5 52.5z" />
    <glyph glyph-name="emacron.ss01" horiz-adv-x="470" 
d="M244 161q-27 0 -44 4v-37h218v-128h-360v317q0 87 53.5 136t132.5 49q80 0 133 -48t53 -123q0 -74 -54.5 -122t-131.5 -48zM244 287q20 0 33 13t13 31t-13 31t-33 13t-33 -13t-13 -31t13 -31t33 -13zM119 700h250v-117h-250v117z" />
    <glyph glyph-name="ebreve.ss01" horiz-adv-x="470" 
d="M244 161q-27 0 -44 4v-37h218v-128h-360v317q0 87 53.5 136t132.5 49q80 0 133 -48t53 -123q0 -74 -54.5 -122t-131.5 -48zM244 287q20 0 33 13t13 31t-13 31t-33 13t-33 -13t-13 -31t13 -31t33 -13zM244 552q-64 0 -103.5 40t-36.5 108h96q4 -40 44 -40q39 0 45 40h96
q3 -68 -37 -108t-104 -40z" />
    <glyph glyph-name="edotaccent.ss01" horiz-adv-x="470" 
d="M244 161q-27 0 -44 4v-37h218v-128h-360v317q0 87 53.5 136t132.5 49q80 0 133 -48t53 -123q0 -74 -54.5 -122t-131.5 -48zM244 287q20 0 33 13t13 31t-13 31t-33 13t-33 -13t-13 -31t13 -31t33 -13zM162 629q0 35 24 59t58 24t58.5 -24.5t24.5 -58.5t-24.5 -58
t-58.5 -24t-58 24t-24 58z" />
    <glyph glyph-name="eogonek.ss01" horiz-adv-x="470" 
d="M244 161q-27 0 -44 4v-37h218v-128h-1q-61 -36 -61 -71t57 -35h4v-83q-28 -5 -62 -5q-49 0 -78 24.5t-29 67.5q0 59 60 102h-250v317q0 87 53.5 136t132.5 49q80 0 133 -48t53 -123q0 -74 -54.5 -122t-131.5 -48zM244 287q20 0 33 13t13 31t-13 31t-33 13t-33 -13
t-13 -31t13 -31t33 -13z" />
    <glyph glyph-name="gcircumflex.ss01" horiz-adv-x="568" 
d="M538 490v-128h-56q28 -40 28 -90q0 -84 -45 -134t-114 -64l162 -142v-126h-448v130h250l-162 136q-108 91 -108 205q0 91 69 152t163 61h261zM367 276q0 37 -26 60t-64 23t-63.5 -23t-25.5 -60t26 -60.5t64 -23.5q37 0 63 23.5t26 60.5zM210 700h163l91 -142h-123l-50 59
l-49 -59h-123z" />
    <glyph glyph-name="gbreve.ss01" horiz-adv-x="568" 
d="M538 490v-128h-56q28 -40 28 -90q0 -84 -45 -134t-114 -64l162 -142v-126h-448v130h250l-162 136q-108 91 -108 205q0 91 69 152t163 61h261zM367 276q0 37 -26 60t-64 23t-63.5 -23t-25.5 -60t26 -60.5t64 -23.5q37 0 63 23.5t26 60.5zM291 552q-64 0 -103.5 40
t-36.5 108h96q4 -40 44 -40q39 0 45 40h96q3 -68 -37 -108t-104 -40z" />
    <glyph glyph-name="gdotaccent.ss01" horiz-adv-x="568" 
d="M538 490v-128h-56q28 -40 28 -90q0 -84 -45 -134t-114 -64l162 -142v-126h-448v130h250l-162 136q-108 91 -108 205q0 91 69 152t163 61h261zM367 276q0 37 -26 60t-64 23t-63.5 -23t-25.5 -60t26 -60.5t64 -23.5q37 0 63 23.5t26 60.5zM209 629q0 35 24 59t58 24
t58.5 -24.5t24.5 -58.5t-24.5 -58t-58.5 -24t-58 24t-24 58z" />
    <glyph glyph-name="gcommaaccent.ss01" horiz-adv-x="568" 
d="M538 490v-128h-56q28 -40 28 -90q0 -84 -45 -134t-114 -64l162 -142v-126h-448v130h250l-162 136q-108 91 -108 205q0 91 69 152t163 61h261zM367 276q0 37 -26 60t-64 23t-63.5 -23t-25.5 -60t26 -60.5t64 -23.5q37 0 63 23.5t26 60.5zM369 563h-141l72 137h115z" />
    <glyph glyph-name="hcircumflex.ss01" horiz-adv-x="582" 
d="M63 0v700h142v-210h314v-490h-143v359h-171v-359h-142zM50 872h174l85 -103h-134l-38 40l-38 -40h-135z" />
    <glyph glyph-name="hbar.ss01" horiz-adv-x="582" 
d="M10 530v128h53v42h142v-42h163v-128h-163v-40h314v-490h-143v359h-171v-359h-142v530h-53z" />
    <glyph glyph-name="ij.ss01" horiz-adv-x="572" 
d="M68 0v490h142v-490h-142zM57 629q0 35 24 59t58 24q35 0 59 -24t24 -59q0 -34 -24.5 -58t-58.5 -24t-58 24t-24 58zM508 -194h-249v130h106v554h143v-684zM354 629q0 35 24 59t58 24t58.5 -24t24.5 -59q0 -34 -24.5 -58t-58.5 -24t-58 24t-24 58z" />
    <glyph glyph-name="dotlessj.ss01" horiz-adv-x="293" 
d="M229 -194h-249v130h106v554h143v-684z" />
    <glyph glyph-name="jcircumflex.ss01" horiz-adv-x="293" 
d="M229 -194h-249v130h106v554h143v-684zM76 700h163l91 -142h-123l-50 59l-49 -59h-123z" />
    <glyph glyph-name="kcommaaccent.ss01" horiz-adv-x="521" 
d="M63 0v700h142v-391h42l94 181h151l-129 -245l138 -245h-151l-102 178h-43v-178h-142zM204 -57h151l-72 -137h-125z" />
    <glyph glyph-name="kgreenlandic.ss01" horiz-adv-x="521" 
d="M63 0v490h144v-181h40l94 181h151l-129 -245l138 -245h-151l-102 178h-41v-178h-144z" />
    <glyph glyph-name="lacute.ss01" horiz-adv-x="268" 
d="M205 700v-700h-142v700h142zM138 872h170l-98 -103h-146z" />
    <glyph glyph-name="lcaron.ss01" horiz-adv-x="268" 
d="M205 700v-700h-142v700h142zM364 511l59 189h-137l-27 -189h105z" />
    <glyph glyph-name="lcommaaccent.ss01" horiz-adv-x="268" 
d="M205 700v-700h-142v700h142zM56 -57h151l-72 -137h-125z" />
    <glyph glyph-name="lslash.ss01" horiz-adv-x="268" 
d="M274 377l-69 -35v-342h-142v270l-69 -35v127l69 35v303h142v-231l69 35v-127z" />
    <glyph glyph-name="ldot.ss01" horiz-adv-x="422" 
d="M63 0v700h142v-700h-142zM264 344q0 35 24 59t58 24t58.5 -24.5t24.5 -58.5t-24.5 -58t-58.5 -24t-58 24t-24 58z" />
    <glyph glyph-name="nacute.ss01" horiz-adv-x="582" 
d="M63 490h456v-490h-143v359h-171v-359h-142v490zM278 700h180l-120 -142h-134z" />
    <glyph glyph-name="ncaron.ss01" horiz-adv-x="582" 
d="M63 490h456v-490h-143v359h-171v-359h-142v490zM373 558h-163l-91 142h123l49 -59l50 59h123z" />
    <glyph glyph-name="ntilde.ss01" horiz-adv-x="582" 
d="M63 490h456v-490h-143v359h-171v-359h-142v490zM365 700h91q0 -51 -26.5 -88t-70.5 -37q-7 0 -43 8l-41 13q-17 5 -30 5q-26 0 -27 -26h-91q0 51 26 88t71 37q12 0 43 -7l41 -13q20 -6 30 -6q26 0 27 26z" />
    <glyph glyph-name="ncommaaccent.ss01" horiz-adv-x="582" 
d="M63 490h456v-490h-143v359h-171v-359h-142v490zM220 -57h151l-72 -137h-125z" />
    <glyph glyph-name="oe.ss01" horiz-adv-x="827" 
d="M606 161q-40 0 -75 16q-8 -28 -19 -47h267v-130h-491q-108 0 -180.5 70.5t-72.5 179.5t73 180.5t180 71.5q105 0 176 -68q52 68 142 68q79 0 130 -48t51 -123t-52 -122.5t-129 -47.5zM180 250q0 -51 30.5 -84t77.5 -33t77.5 33t30.5 84t-30.5 84t-77.5 33t-77.5 -33
t-30.5 -84zM601 287q20 0 33 13t13 31t-13 31t-33 13t-33 -13t-13 -31t13 -31t33 -13z" />
    <glyph glyph-name="eng.ss01" horiz-adv-x="582" 
d="M63 490h456v-684h-249v130h106v64v359h-171v-359h-142v490z" />
    <glyph glyph-name="racute.ss01" horiz-adv-x="380" 
d="M205 359v-359h-142v490h282v-131h-140zM191 700h180l-120 -142h-134z" />
    <glyph glyph-name="rcaron.ss01" horiz-adv-x="380" 
d="M205 359v-359h-142v490h282v-131h-140zM286 558h-163l-91 142h123l49 -59l50 59h123z" />
    <glyph glyph-name="rcommaaccent.ss01" horiz-adv-x="380" 
d="M205 359v-359h-142v490h282v-131h-140zM59 -57h151l-72 -137h-125z" />
    <glyph glyph-name="sacute.ss01" horiz-adv-x="484" 
d="M240 502q109 0 189 -74l-75 -108l-75 47q-20 13 -35 13q-11 0 -17.5 -7t-6.5 -16q0 -17 23 -31l203 -124q0 -52 -19.5 -98.5t-67 -80.5t-113.5 -34q-113 0 -207 87l71 106l59 -34q48 -27 77 -27q28 0 34 24l-133 74q-84 47 -84 136q0 63 53 105t124 42zM237 700h180
l-120 -142h-134z" />
    <glyph glyph-name="scircumflex.ss01" horiz-adv-x="484" 
d="M240 502q109 0 189 -74l-75 -108l-75 47q-20 13 -35 13q-11 0 -17.5 -7t-6.5 -16q0 -17 23 -31l203 -124q0 -52 -19.5 -98.5t-67 -80.5t-113.5 -34q-113 0 -207 87l71 106l59 -34q48 -27 77 -27q28 0 34 24l-133 74q-84 47 -84 136q0 63 53 105t124 42zM169 700h163
l91 -142h-123l-50 59l-49 -59h-123z" />
    <glyph glyph-name="scaron.ss01" horiz-adv-x="484" 
d="M240 502q109 0 189 -74l-75 -108l-75 47q-20 13 -35 13q-11 0 -17.5 -7t-6.5 -16q0 -17 23 -31l203 -124q0 -52 -19.5 -98.5t-67 -80.5t-113.5 -34q-113 0 -207 87l71 106l59 -34q48 -27 77 -27q28 0 34 24l-133 74q-84 47 -84 136q0 63 53 105t124 42zM332 558h-163
l-91 142h123l49 -59l50 59h123z" />
    <glyph glyph-name="scedilla.ss01" horiz-adv-x="484" 
d="M179 -137v134q-72 16 -140 79l71 106l59 -34q48 -27 77 -27q28 0 34 24l-133 74q-84 47 -84 136q0 63 53 105t124 42q109 0 189 -74l-75 -108l-75 47q-20 13 -35 13q-11 0 -17.5 -7t-6.5 -16q0 -17 23 -31l203 -124q0 -67 -35.5 -126t-104.5 -79v-134h-127z" />
    <glyph glyph-name="scommaaccent.ss01" horiz-adv-x="484" 
d="M240 502q109 0 189 -74l-75 -108l-75 47q-20 13 -35 13q-11 0 -17.5 -7t-6.5 -16q0 -17 23 -31l203 -124q0 -52 -19.5 -98.5t-67 -80.5t-113.5 -34q-113 0 -207 87l71 106l59 -34q48 -27 77 -27q28 0 34 24l-133 74q-84 47 -84 136q0 63 53 105t124 42zM164 -57h151
l-72 -137h-125z" />
    <glyph glyph-name="germandbls.ss01" horiz-adv-x="643" 
d="M292 292v136l102 135h-180v-563h-151v700h504v-132l-115 -146q71 -18 113.5 -72t42.5 -127q0 -105 -64.5 -164t-178.5 -59h-73v146h67q98 0 98 72q0 74 -98 74h-67z" />
    <glyph glyph-name="tcaron.ss01" horiz-adv-x="431" 
d="M381 0h-277v359h-84v131h84v137h154v-137h128v-131h-140v-228h135v-131zM453 749l-59 -189h-105l27 189h137z" />
    <glyph glyph-name="tcommaaccent.ss01" horiz-adv-x="431" 
d="M381 0h-277v359h-84v131h84v137h154v-137h128v-131h-140v-228h135v-131zM163 -57h151l-72 -137h-125z" />
    <glyph glyph-name="tbar.ss01" horiz-adv-x="431" 
d="M381 -10h-277v189h-84v117h84v53h-84v131h84v137h154v-137h128v-131h-140v-53h140v-117h-140v-58h135v-131z" />
    <glyph glyph-name="uni0163.ss01" horiz-adv-x="431" 
d="M178 -137v137h-74v359h-84v131h84v137h154v-137h128v-131h-140v-228h135v-131h-76v-137h-127z" />
    <glyph glyph-name="ugrave.ss01" horiz-adv-x="582" 
d="M519 0h-456v490h142v-359h171v359h143v-490zM124 700h180l74 -142h-134z" />
    <glyph glyph-name="uacute.ss01" horiz-adv-x="582" 
d="M519 0h-456v490h142v-359h171v359h143v-490zM278 700h180l-120 -142h-134z" />
    <glyph glyph-name="ucircumflex.ss01" horiz-adv-x="582" 
d="M519 0h-456v490h142v-359h171v359h143v-490zM210 700h163l91 -142h-123l-50 59l-49 -59h-123z" />
    <glyph glyph-name="utilde.ss01" horiz-adv-x="582" 
d="M519 0h-456v490h142v-359h171v359h143v-490zM365 700h91q0 -51 -26.5 -88t-70.5 -37q-7 0 -43 8l-41 13q-17 5 -30 5q-26 0 -27 -26h-91q0 51 26 88t71 37q12 0 43 -7l41 -13q20 -6 30 -6q26 0 27 26z" />
    <glyph glyph-name="udieresis.ss01" horiz-adv-x="582" 
d="M519 0h-456v490h142v-359h171v359h143v-490zM111 638q0 30 21.5 52t52.5 22q30 0 52.5 -22t22.5 -52t-22.5 -52t-52.5 -22q-31 0 -52.5 21.5t-21.5 52.5zM323 638q0 30 21.5 52t52.5 22q30 0 52.5 -22t22.5 -52t-22.5 -52t-52.5 -22q-31 0 -52.5 21.5t-21.5 52.5z" />
    <glyph glyph-name="umacron.ss01" horiz-adv-x="582" 
d="M519 0h-456v490h142v-359h171v359h143v-490zM166 700h250v-117h-250v117z" />
    <glyph glyph-name="ubreve.ss01" horiz-adv-x="582" 
d="M519 0h-456v490h142v-359h171v359h143v-490zM291 552q-64 0 -103.5 40t-36.5 108h96q4 -40 44 -40q39 0 45 40h96q3 -68 -37 -108t-104 -40z" />
    <glyph glyph-name="uring.ss01" horiz-adv-x="582" 
d="M519 0h-456v490h142v-359h171v359h143v-490zM193 631q0 40 28.5 68.5t69.5 28.5q40 0 69 -28.5t29 -68.5q0 -39 -29 -67t-69 -28t-69 28t-29 67zM315 631q0 10 -7 17t-17 7t-17 -7t-7 -17t7 -17t17 -7t17 7t7 17z" />
    <glyph glyph-name="uhungarumlaut.ss01" horiz-adv-x="582" 
d="M519 0h-456v490h142v-359h171v359h143v-490zM192 700h140l-86 -131h-128zM377 700h141l-86 -131h-129z" />
    <glyph glyph-name="uogonek.ss01" horiz-adv-x="582" 
d="M519 0h-143q-61 -36 -61 -71t57 -35h4v-83q-27 -5 -62 -5q-49 0 -78 24.5t-29 67.5q0 59 60 102h-204v490h142v-359h171v359h143v-490z" />
    <glyph glyph-name="ygrave.ss01" horiz-adv-x="570" 
d="M358 -194h-148v194l-195 490h157l113 -307l113 307h157l-197 -490v-194zM118 700h180l74 -142h-134z" />
    <glyph glyph-name="yacute.ss01" horiz-adv-x="570" 
d="M358 -194h-148v194l-195 490h157l113 -307l113 307h157l-197 -490v-194zM272 700h180l-120 -142h-134z" />
    <glyph glyph-name="ycircumflex.ss01" horiz-adv-x="570" 
d="M358 -194h-148v194l-195 490h157l113 -307l113 307h157l-197 -490v-194zM204 700h163l91 -142h-123l-50 59l-49 -59h-123z" />
    <glyph glyph-name="ydieresis.ss01" horiz-adv-x="570" 
d="M358 -194h-148v194l-195 490h157l113 -307l113 307h157l-197 -490v-194zM105 638q0 30 21.5 52t52.5 22q30 0 52.5 -22t22.5 -52t-22.5 -52t-52.5 -22q-31 0 -52.5 21.5t-21.5 52.5zM317 638q0 30 21.5 52t52.5 22q30 0 52.5 -22t22.5 -52t-22.5 -52t-52.5 -22
q-31 0 -52.5 21.5t-21.5 52.5z" />
    <glyph glyph-name="f_b.ss01" horiz-adv-x="972" 
d="M937 245q0 -116 -70.5 -186t-174.5 -70q-78 0 -126 46v-35h-142v359h-200v-359h-146v359h-53v131h53v57q0 74 52 119.5t127 45.5q57 0 102.5 -28.5t64.5 -77.5v94h144v-241q49 43 124 43q104 0 174.5 -71.5t70.5 -185.5zM566 245q0 -57 31.5 -92.5t80.5 -35.5t81.5 36
t32.5 92t-32.5 92t-81.5 36t-80.5 -35.5t-31.5 -92.5zM224 538v-48h200v45h-133v8q0 36 -34 36q-33 0 -33 -41z" />
    <glyph glyph-name="f_f_b.ss01" horiz-adv-x="1320" 
d="M224 359v-359h-146v359h-53v131h53v57q0 74 52 119.5t127 45.5q62 0 110 -33.5t63 -89.5q14 57 62 90t112 33q58 0 103.5 -29t64.5 -79v96h144v-241q49 43 124 43q104 0 174.5 -71.5t70.5 -185.5q0 -116 -70.5 -186t-174.5 -70q-78 0 -126 46v-35h-142v359h-201v-359
h-146v359h-201zM914 245q0 -57 31.5 -92.5t80.5 -35.5t81.5 36t32.5 92t-32.5 92t-81.5 36t-80.5 -35.5t-31.5 -92.5zM224 538v-48h201v45h-134v8q0 36 -34 36q-33 0 -33 -41zM571 538v-48h201v45h-134v8q0 36 -34 36q-33 0 -33 -41z" />
    <glyph glyph-name="f_f.ss01" horiz-adv-x="800" 
d="M224 359v-359h-146v359h-53v131h53v57q0 74 52 119.5t127 45.5q62 0 110 -33.5t63 -89.5q14 57 62 90t112 33q75 0 126.5 -46t51.5 -121v-10h-144v8q0 36 -34 36q-33 0 -33 -41v-48h211v-131h-211v-359h-146v359h-201zM224 538v-48h201v45h-134v8q0 36 -34 36
q-33 0 -33 -41z" />
    <glyph glyph-name="f_h.ss01" horiz-adv-x="944" 
d="M25 359v131h53v57q0 74 52 119.5t127 45.5q58 0 103.5 -29t64.5 -79v96h142v-210h314v-490h-143v359h-171v-359h-142v359h-201v-359h-146v359h-53zM224 538v-48h201v45h-134v8q0 36 -34 36q-33 0 -33 -41z" />
    <glyph glyph-name="f_f_h.ss01" horiz-adv-x="1291" 
d="M25 359v131h53v57q0 74 52 119.5t127 45.5q62 0 110 -33.5t63 -89.5q14 57 62 90t112 33q58 0 103.5 -29t64.5 -79v96h142v-210h314v-490h-143v359h-171v-359h-142v359h-201v-359h-146v359h-201v-359h-146v359h-53zM224 538v-48h201v45h-134v8q0 36 -34 36q-33 0 -33 -41
zM571 538v-48h201v45h-134v8q0 36 -34 36q-33 0 -33 -41z" />
    <glyph glyph-name="fi.ss01" horiz-adv-x="636" 
d="M425 0v359h-201v-359h-146v359h-53v131h53v57q0 74 52 119.5t127 45.5t126.5 -46t51.5 -121v-10h-144v8q0 36 -34 36q-33 0 -33 -41v-48h344v-490h-143z" />
    <glyph glyph-name="f_f_i.ss01" horiz-adv-x="983" 
d="M224 359v-359h-146v359h-53v131h53v57q0 74 52 119.5t127 45.5q62 0 110 -33.5t63 -89.5q14 57 62 90t112 33q75 0 126.5 -46t51.5 -121v-10h-144v8q0 36 -34 36q-33 0 -33 -41v-48h344v-490h-143v359h-201v-359h-146v359h-201zM224 538v-48h201v45h-134v8q0 36 -34 36
q-33 0 -33 -41z" />
    <glyph glyph-name="f_j.ss01" horiz-adv-x="632" 
d="M568 -194h-249v130h106v423h-201v-359h-146v359h-53v131h53v57q0 74 52 119.5t127 45.5t126.5 -46t51.5 -121v-10h-144v8q0 36 -34 36q-33 0 -33 -41v-48h344v-684z" />
    <glyph glyph-name="f_f_j.ss01" horiz-adv-x="979" 
d="M915 -194h-249v130h106v423h-201v-359h-146v359h-201v-359h-146v359h-53v131h53v57q0 74 52 119.5t127 45.5q62 0 110 -33.5t63 -89.5q14 57 62 90t112 33q75 0 126.5 -46t51.5 -121v-10h-144v8q0 36 -34 36q-33 0 -33 -41v-48h344v-684zM224 538v-48h201v45h-134v8
q0 36 -34 36q-33 0 -33 -41z" />
    <glyph glyph-name="f_k.ss01" horiz-adv-x="883" 
d="M25 359v131h53v57q0 74 52 119.5t127 45.5q58 0 103.5 -29t64.5 -79v96h142v-391h42l94 181h151l-129 -245l138 -245h-151l-102 178h-43v-178h-142v359h-201v-359h-146v359h-53zM224 538v-48h201v45h-134v8q0 36 -34 36q-33 0 -33 -41z" />
    <glyph glyph-name="f_f_k.ss01" horiz-adv-x="1230" 
d="M25 359v131h53v57q0 74 52 119.5t127 45.5q62 0 110 -33.5t63 -89.5q14 57 62 90t112 33q58 0 103.5 -29t64.5 -79v96h142v-391h42l94 181h151l-129 -245l138 -245h-151l-102 178h-43v-178h-142v359h-201v-359h-146v359h-201v-359h-146v359h-53zM224 538v-48h201v45h-134
v8q0 36 -34 36q-33 0 -33 -41zM571 538v-48h201v45h-134v8q0 36 -34 36q-33 0 -33 -41z" />
    <glyph glyph-name="fl.ss01" horiz-adv-x="630" 
d="M567 700v-700h-142v359h-201v-359h-146v359h-53v131h53v57q0 74 52 119.5t127 45.5q58 0 103.5 -29t64.5 -79v96h142zM224 538v-48h201v45h-134v8q0 36 -34 36q-33 0 -33 -41z" />
    <glyph glyph-name="f_f_l.ss01" horiz-adv-x="977" 
d="M25 359v131h53v57q0 74 52 119.5t127 45.5q62 0 110 -33.5t63 -89.5q14 57 62 90t112 33q58 0 103.5 -29t64.5 -79v96h142v-700h-142v359h-201v-359h-146v359h-201v-359h-146v359h-53zM224 538v-48h201v45h-134v8q0 36 -34 36q-33 0 -33 -41zM571 538v-48h201v45h-134v8
q0 36 -34 36q-33 0 -33 -41z" />
    <glyph glyph-name="f_t.ss01" horiz-adv-x="752" 
d="M25 359v131h53v57q0 74 52 119.5t127 45.5q58 0 103.5 -29t64.5 -79v23h154v-137h128v-131h-140v-228h135v-131h-277v359h-201v-359h-146v359h-53zM224 490h201v45h-134v8q0 36 -34 36q-33 0 -33 -41v-48z" />
    <glyph glyph-name="f_f_t.ss01" horiz-adv-x="1099" 
d="M25 359v131h53v57q0 74 52 119.5t127 45.5q62 0 110 -33.5t63 -89.5q14 57 62 90t112 33q58 0 103.5 -29t64.5 -79v23h154v-137h128v-131h-140v-228h135v-131h-277v359h-201v-359h-146v359h-201v-359h-146v359h-53zM224 538v-48h201v45h-134v8q0 36 -34 36q-33 0 -33 -41
zM571 538v-48h201v45h-134v8q0 36 -34 36q-33 0 -33 -41z" />
    <glyph glyph-name="t_t.ss01" horiz-adv-x="774" 
d="M381 0h-277v359h-84v131h84v137h154v-137h189v137h154v-137h128v-131h-140v-228h135v-131h-277v359h-201v-228h135v-131z" />
    <glyph glyph-name="t_f.ss01" horiz-adv-x="822" 
d="M381 0h-277v359h-84v131h84v137h154v-137h189v57q0 74 52 119.5t127 45.5t126.5 -46t51.5 -121v-10h-144v8q0 36 -34 36q-33 0 -33 -41v-48h211v-131h-211v-359h-146v359h-201v-228h135v-131z" />
    <glyph glyph-name="cedilla.ss01" horiz-adv-x="500" 
d="M186 -137v148h127v-148h-127z" />
    <glyph glyph-name="cedilla.ss01.cap" horiz-adv-x="500" 
d="M186 -137v148h127v-148h-127z" />
    <glyph glyph-name="comma.ss01" horiz-adv-x="280" 
d="M135 -154l-120 54l93 229l130 -59z" />
    <glyph glyph-name="semicolon.ss01" horiz-adv-x="280" 
d="M135 -154l-120 54l93 229l130 -59zM61 403q0 42 29 70.5t71 28.5q41 0 69.5 -28.5t28.5 -70.5q0 -41 -28.5 -69.5t-69.5 -28.5q-42 0 -71 28.5t-29 69.5z" />
    <glyph glyph-name="colon.ss01" horiz-adv-x="280" 
d="M41 87q0 42 29 70.5t71 28.5q41 0 69.5 -28.5t28.5 -70.5q0 -41 -28.5 -69.5t-69.5 -28.5q-42 0 -71 28.5t-29 69.5zM41 403q0 42 29 70.5t71 28.5q41 0 69.5 -28.5t28.5 -70.5q0 -41 -28.5 -69.5t-69.5 -28.5q-42 0 -71 28.5t-29 69.5z" />
    <glyph glyph-name="period.ss01" horiz-adv-x="280" 
d="M41 87q0 42 29 70.5t71 28.5q41 0 69.5 -28.5t28.5 -70.5q0 -41 -28.5 -69.5t-69.5 -28.5q-42 0 -71 28.5t-29 69.5z" />
    <glyph glyph-name="ellipsis.ss01" horiz-adv-x="791" 
d="M41 87q0 42 29 70.5t71 28.5q41 0 69.5 -28.5t28.5 -70.5q0 -41 -28.5 -69.5t-69.5 -28.5q-42 0 -71 28.5t-29 69.5zM296 87q0 42 29 70.5t71 28.5q41 0 69.5 -28.5t28.5 -70.5q0 -41 -28.5 -69.5t-69.5 -28.5q-42 0 -71 28.5t-29 69.5zM552 87q0 42 29 70.5t71 28.5
q41 0 69.5 -28.5t28.5 -70.5q0 -41 -28.5 -69.5t-69.5 -28.5q-42 0 -71 28.5t-29 69.5z" />
    <glyph glyph-name="exclam.ss01" horiz-adv-x="338" 
d="M70 87q0 42 29 70.5t71 28.5q41 0 69.5 -28.5t28.5 -70.5q0 -41 -28.5 -69.5t-69.5 -28.5q-42 0 -71 28.5t-29 69.5zM92 226v474h147v-474h-147z" />
    <glyph glyph-name="exclamdown.ss01" horiz-adv-x="338" 
d="M268 405q0 -42 -29 -70.5t-71 -28.5q-41 0 -69.5 28.5t-28.5 70.5q0 41 28.5 69.5t69.5 28.5q42 0 71 -28.5t29 -69.5zM246 266v-460h-147v460h147z" />
    <glyph glyph-name="exclamdown.cap.ss01" horiz-adv-x="338" 
d="M70 602q0 41 29 69.5t71 28.5q41 0 69.5 -28.5t28.5 -69.5q0 -42 -28.5 -70.5t-69.5 -28.5q-42 0 -71 28.5t-29 70.5zM92 -11v474h147v-474h-147z" />
    <glyph glyph-name="question.ss01" horiz-adv-x="546" 
d="M155 87q0 42 29 70.5t71 28.5q41 0 69.5 -28.5t28.5 -70.5q0 -41 -28.5 -69.5t-69.5 -28.5q-42 0 -71 28.5t-29 69.5zM236 269h-28v131h13q62 0 100.5 25t38.5 70q0 37 -26.5 58.5t-67.5 21.5q-83 0 -147 -76l-89 95q37 55 99 86.5t136 31.5q103 0 173 -58.5t70 -156.5
q0 -93 -72 -160.5t-200 -67.5z" />
    <glyph glyph-name="questiondown.ss01" horiz-adv-x="546" 
d="M389 404q0 -42 -29 -70.5t-71 -28.5q-41 0 -69.5 28.5t-28.5 70.5q0 41 28.5 69.5t69.5 28.5q42 0 71 -28.5t29 -69.5zM308 232h28v-131h-13q-66 0 -102.5 -23t-36.5 -66q0 -37 26.5 -58.5t67.5 -21.5q84 0 146 77l90 -96q-80 -118 -235 -118q-111 0 -177 57.5t-66 157.5
q0 95 71 158.5t201 63.5z" />
    <glyph glyph-name="questiondown.cap.ss01" horiz-adv-x="546" 
d="M391 614q0 -42 -29 -70.5t-71 -28.5q-41 0 -69.5 28.5t-28.5 70.5q0 41 28.5 69.5t69.5 28.5q42 0 71 -28.5t29 -69.5zM310 432h28v-131h-13q-62 0 -100.5 -25t-38.5 -70q0 -37 26.5 -58.5t67.5 -21.5q83 0 147 76l89 -95q-37 -55 -99 -86.5t-136 -31.5q-103 0 -173 58.5
t-70 156.5q0 93 72 160.5t200 67.5z" />
    <glyph glyph-name="quoteleft.ss01" horiz-adv-x="280" 
d="M133 710l120 -54l-93 -229l-130 59z" />
    <glyph glyph-name="quoteright.ss01" horiz-adv-x="280" 
d="M152 443l-120 54l93 229l130 -59z" />
    <glyph glyph-name="quotedblleft.ss01" horiz-adv-x="474" 
d="M133 710l120 -54l-93 -229l-130 59zM327 710l120 -54l-93 -229l-130 59z" />
    <glyph glyph-name="quotedblright.ss01" horiz-adv-x="474" 
d="M346 445l-120 54l93 229l130 -59zM152 445l-120 54l93 229l130 -59z" />
    <glyph glyph-name="quotesinglbase.ss01" horiz-adv-x="280" 
d="M147 -154l-120 54l93 229l130 -59z" />
    <glyph glyph-name="quotedblbase.ss01" horiz-adv-x="474" 
d="M341 -148l-120 54l93 229l130 -59zM147 -148l-120 54l93 229l130 -59z" />
    <glyph glyph-name="periodcentered.ss01" horiz-adv-x="280" 
d="M41 256q0 42 29 70.5t71 28.5q41 0 69.5 -28.5t28.5 -70.5q0 -41 -28.5 -69.5t-69.5 -28.5q-42 0 -71 28.5t-29 69.5z" />
    <glyph glyph-name="periodcentered.cap.ss01" horiz-adv-x="280" 
d="M41 350q0 42 29 70.5t71 28.5q41 0 69.5 -28.5t28.5 -70.5q0 -41 -28.5 -69.5t-69.5 -28.5q-42 0 -71 28.5t-29 69.5z" />
    <glyph glyph-name="ordfeminine.ss01" horiz-adv-x="414" 
d="M61 602v101h306v-361h-191q-63 0 -101 32.5t-38 84.5t38.5 82.5t100.5 30.5h76v30h-191zM252 478h-81q-26 0 -26 -19q0 -18 26 -18h81v37z" />
    <glyph glyph-name="numeroLC.ss01" horiz-adv-x="1006" 
d="M63 490h456v-490h-143v359h-171v-359h-142v490zM579 522q0 81 57.5 135t143.5 54t143.5 -54t57.5 -135t-57.5 -134.5t-143.5 -53.5t-143.5 53.5t-57.5 134.5zM697 522q0 -37 23.5 -61.5t59.5 -24.5q37 0 60.5 24t23.5 62t-23.5 62.5t-60.5 24.5q-36 0 -59.5 -24.5
t-23.5 -62.5z" />
    <glyph glyph-name="numeroLC_s.ss01" horiz-adv-x="1375" 
d="M63 490h456v-490h-143v359h-171v-359h-142v490zM579 522q0 81 57.5 135t143.5 54t143.5 -54t57.5 -135t-57.5 -134.5t-143.5 -53.5t-143.5 53.5t-57.5 134.5zM697 522q0 -37 23.5 -61.5t59.5 -24.5q37 0 60.5 24t23.5 62t-23.5 62.5t-60.5 24.5q-36 0 -59.5 -24.5
t-23.5 -62.5zM1187 711q85 0 147 -54l-60 -83l-53 31q-22 13 -30 13q-14 0 -14 -15q0 -11 14 -19l156 -90q1 -61 -39 -110.5t-116 -49.5q-88 0 -161 64l56 82q81 -44 106 -44q12 0 12 10q0 8 -12 14l-80 42q-64 34 -64 100q0 47 40 78t98 31z" />
    <glyph glyph-name="ampersand.ss01" horiz-adv-x="699" 
d="M365 564h-60q-24 0 -45.5 -14.5t-21.5 -47.5q0 -30 19 -49.5t49 -19.5h112v267h147v-267h96v-136h-96v-297h-263q-105 0 -172 51.5t-67 149.5q0 52 30.5 104.5t73.5 73.5q-31 22 -54 59t-23 78q0 93 65 138.5t176 45.5h34v-136zM210 216q0 -37 25 -58.5t64 -21.5h119v161
h-128q-33 0 -56.5 -22t-23.5 -59z" />
    <glyph glyph-name="zero.osf.ss01" horiz-adv-x="684" 
d="M342 -11q-120 0 -208 79t-88 206t88 206t208 79t208 -79t88 -206t-88 -206t-208 -79zM490 274q0 27 -10 55l-199 -192q27 -12 61 -12q64 0 106 42t42 107zM342 422q-64 0 -106 -41.5t-42 -106.5q0 -29 7 -50l195 188q-28 10 -54 10z" />
    <glyph glyph-name="one.osf.ss01" horiz-adv-x="545" 
d="M61 136h149v275h-138v136h285v-411h151v-136h-447v136z" />
    <glyph glyph-name="two.osf.ss01" horiz-adv-x="566" 
d="M70 386q0 81 59 127t143 46q82 0 141.5 -48.5t59.5 -124.5q0 -56 -28 -102t-92 -93l-73 -54h220v-137h-445v100l153 122q-65 12 -101.5 56t-36.5 108zM219 376q0 -19 15.5 -32.5t36.5 -13.5t36.5 13.5t15.5 32.5q0 21 -15 34t-36 13q-22 0 -37.5 -13.5t-15.5 -33.5z" />
    <glyph glyph-name="three.osf.ss01" horiz-adv-x="576" 
d="M491 420l-159 -150q84 -14 135.5 -70t51.5 -137q0 -98 -72 -162.5t-190 -64.5q-141 0 -234 112l100 102q25 -39 60.5 -59.5t71.5 -20.5q49 0 77 22.5t28 64.5q0 91 -120 91h-79v131l136 136h-251v132h445v-127z" />
    <glyph glyph-name="four.osf.ss01" horiz-adv-x="633" 
d="M474 265v-134h119v-131h-119v-153h-148v153h-276v208l247 339h169l-258 -354v-62h118v134h148z" />
    <glyph glyph-name="five.osf.ss01" horiz-adv-x="620" 
d="M410 82q0 48 -31 78t-76 30q-73 0 -101 -66h-135v424h445v-136h-298v-127q17 16 50 25.5t67 9.5q97 0 167.5 -61t70.5 -174q0 -106 -75 -177t-196 -71q-156 0 -247 105l102 101q57 -70 137 -70q52 0 86 31.5t34 77.5z" />
    <glyph glyph-name="six.osf.ss01" horiz-adv-x="620" 
d="M312 -11q-115 0 -188.5 74t-73.5 192q0 59 25.5 121.5t67.5 114.5l171 209h162l-180 -214q16 6 47 6q94 0 159.5 -71t65.5 -178q0 -110 -75 -182t-181 -72zM195 241q0 -52 32.5 -86t82.5 -34q49 0 81 33.5t32 86.5q0 52 -31.5 85.5t-81.5 33.5t-82.5 -33.5t-32.5 -85.5z
" />
    <glyph glyph-name="seven.osf.ss01" horiz-adv-x="556" 
d="M34 317v231h493v-134l-244 -566h-162l250 566h-190v-97h-147z" />
    <glyph glyph-name="eight.osf.ss01" horiz-adv-x="622" 
d="M310 -11q-45 0 -87.5 13t-79 38t-59 68t-22.5 98q0 103 87 160q-27 20 -48.5 58.5t-21.5 81.5q0 94 68 150t163 56t163 -56t68 -150q0 -43 -21.5 -81.5t-48.5 -58.5q87 -57 87 -160q0 -55 -22.5 -98t-59 -68t-79 -38t-87.5 -13zM310 307q-44 0 -71 -26t-27 -66
q0 -41 28 -66t70 -25t70 25t28 66q0 40 -27 66t-71 26zM310 592q-35 0 -59 -22.5t-24 -58.5t22 -59t61 -23q40 0 61.5 23t21.5 59t-24 58.5t-59 22.5z" />
    <glyph glyph-name="nine.osf.ss01" horiz-adv-x="616" 
d="M301 560q115 0 188.5 -73.5t73.5 -191.5q0 -59 -25.5 -121.5t-67.5 -114.5l-171 -211h-162l180 216q-17 -6 -47 -6q-94 0 -159.5 71t-65.5 178q0 110 75 181.5t181 71.5zM418 309q0 52 -32.5 85.5t-82.5 33.5t-81.5 -33.5t-31.5 -85.5t31.5 -85.5t81.5 -33.5t82.5 33.5
t32.5 85.5z" />
    <glyph glyph-name="zero.to.ss01" 
d="M300 -11q-117 0 -191.5 77.5t-74.5 207.5q0 129 74.5 207t191.5 78t191.5 -78t74.5 -207q0 -130 -74.5 -207.5t-191.5 -77.5zM418 274q0 18 -3 33l-173 -167q26 -15 58 -15q55 0 86.5 41t31.5 108zM300 422q-55 0 -86.5 -41t-31.5 -107q0 -19 1 -27l168 163
q-26 12 -51 12z" />
    <glyph glyph-name="one.to.ss01" 
d="M76 136h149v275h-138v136h285v-411h151v-136h-447v136z" />
    <glyph glyph-name="two.to.ss01" 
d="M92 386q0 81 59 127t143 46q82 0 141.5 -48.5t59.5 -124.5q0 -56 -28 -102t-92 -93l-73 -54h220v-137h-445v100l153 122q-65 12 -101.5 56t-36.5 108zM241 376q0 -19 15.5 -32.5t36.5 -13.5t36.5 13.5t15.5 32.5q0 21 -15 34t-36 13q-22 0 -37.5 -13.5t-15.5 -33.5z" />
    <glyph glyph-name="three.to.ss01" 
d="M520 421l-159 -150q84 -14 135.5 -70t51.5 -137q0 -98 -72 -162.5t-190 -64.5q-141 0 -234 112l100 102q25 -39 60.5 -59.5t71.5 -20.5q49 0 77 22.5t28 64.5q0 91 -120 91h-79v131l136 136h-251v132h445v-127z" />
    <glyph glyph-name="four.to.ss01" 
d="M452 265v-134h119v-131h-119v-153h-148v153h-276v208l247 339h169l-258 -354v-62h118v134h148z" />
    <glyph glyph-name="five.to.ss01" 
d="M400 82q0 48 -31 78t-76 30q-73 0 -101 -66h-135v424h445v-136h-298v-127q17 16 50 25.5t67 9.5q97 0 167.5 -61t70.5 -174q0 -106 -75 -177t-196 -71q-156 0 -247 105l102 101q57 -70 137 -70q52 0 86 31.5t34 77.5z" />
    <glyph glyph-name="six.to.ss01" 
d="M303 -11q-115 0 -188.5 74t-73.5 192q0 59 25.5 121.5t67.5 114.5l171 209h162l-180 -214q17 6 47 6q94 0 159.5 -71t65.5 -178q0 -110 -75 -182t-181 -72zM186 241q0 -52 32.5 -86t82.5 -34q49 0 81 33.5t32 86.5q0 52 -31.5 85.5t-81.5 33.5t-82.5 -33.5t-32.5 -85.5z
" />
    <glyph glyph-name="seven.to.ss01" 
d="M53 317v231h493v-134l-244 -566h-162l250 566h-190v-97h-147z" />
    <glyph glyph-name="eight.to.ss01" 
d="M300 -11q-45 0 -87.5 13t-79 38t-59 68t-22.5 98q0 103 87 160q-27 20 -48.5 58.5t-21.5 81.5q0 94 68 150t163 56t163 -56t68 -150q0 -43 -21.5 -81.5t-48.5 -58.5q87 -57 87 -160q0 -55 -22.5 -98t-59 -68t-79 -38t-87.5 -13zM300 307q-44 0 -71 -26t-27 -66
q0 -41 28 -66t70 -25t70 25t28 66q0 40 -27 66t-71 26zM300 592q-35 0 -59 -22.5t-24 -58.5t22 -59t61 -23q40 0 61.5 23t21.5 59t-24 58.5t-59 22.5z" />
    <glyph glyph-name="nine.to.ss01" 
d="M297 560q115 0 188.5 -73.5t73.5 -191.5q0 -59 -25.5 -121.5t-67.5 -114.5l-171 -211h-162l180 216q-17 -6 -47 -6q-94 0 -159.5 71t-65.5 178q0 110 75 181.5t181 71.5zM414 309q0 52 -32.5 85.5t-82.5 33.5t-81.5 -33.5t-31.5 -85.5t31.5 -85.5t81.5 -33.5t82.5 33.5
t32.5 85.5z" />
    <glyph glyph-name="zero.ss01" horiz-adv-x="650" 
d="M600 351q0 -163 -74 -262.5t-201 -99.5q-126 0 -200.5 100t-74.5 262t74 261.5t201 99.5q126 0 200.5 -99.5t74.5 -261.5zM199 351q0 -28 1 -42l216 210q-34 53 -91 53q-65 0 -95.5 -60.5t-30.5 -160.5zM451 351q0 6 -0.5 18t-0.5 18l-214 -207q32 -51 89 -51
q65 0 95.5 60.5t30.5 161.5z" />
    <glyph glyph-name="one.ss01" horiz-adv-x="534" 
d="M57 136h150v428h-139v136h286v-564h151v-136h-448v136z" />
    <glyph glyph-name="two.ss01" horiz-adv-x="578" 
d="M58 117l151 162q-74 25 -116.5 82t-42.5 133q0 87 67.5 152.5t167.5 65.5q99 0 163.5 -62.5t64.5 -152.5q0 -56 -28 -103t-87 -111l-134 -146h248v-137h-454v117zM366 491q0 37 -24.5 61t-60.5 24q-35 0 -60.5 -24t-25.5 -62q0 -37 24.5 -61t60.5 -24q35 0 60.5 24
t25.5 62z" />
    <glyph glyph-name="three.ss01" horiz-adv-x="576" 
d="M491 573l-159 -150q84 -14 135.5 -70t51.5 -137q0 -98 -72 -162.5t-190 -64.5q-141 0 -234 112l100 102q25 -39 60.5 -59.5t71.5 -20.5q49 0 77 22.5t28 64.5q0 91 -120 91h-79v131l136 136h-251v132h445v-127z" />
    <glyph glyph-name="four.ss01" horiz-adv-x="633" 
d="M474 413v-134h119v-131h-119v-148h-148v148h-276v208l247 344h169l-258 -359v-62h118v134h148z" />
    <glyph glyph-name="five.ss01" horiz-adv-x="620" 
d="M410 234q0 48 -31 78t-76 30q-73 0 -101 -66h-135v424h445v-136h-298v-127q17 16 50 25.5t67 9.5q97 0 167.5 -61t70.5 -174q0 -106 -75 -177t-196 -71q-156 0 -247 105l102 101q57 -70 137 -70q52 0 86 31.5t34 77.5z" />
    <glyph glyph-name="six.ss01" horiz-adv-x="620" 
d="M312 -11q-115 0 -188.5 74t-73.5 192q0 59 25.5 121.5t67.5 114.5l171 209h162l-180 -214q16 6 47 6q94 0 159.5 -71t65.5 -178q0 -110 -75 -182t-181 -72zM195 241q0 -52 32.5 -86t82.5 -34q49 0 81 33.5t32 86.5q0 52 -31.5 85.5t-81.5 33.5t-82.5 -33.5t-32.5 -85.5z
" />
    <glyph glyph-name="seven.ss01" horiz-adv-x="556" 
d="M34 469v231h493v-134l-244 -566h-162l250 566h-190v-97h-147z" />
    <glyph glyph-name="eight.ss01" horiz-adv-x="622" 
d="M310 -11q-45 0 -87.5 13t-79 38t-59 68t-22.5 98q0 103 87 160q-27 20 -48.5 58.5t-21.5 81.5q0 94 68 150t163 56t163 -56t68 -150q0 -43 -21.5 -81.5t-48.5 -58.5q87 -57 87 -160q0 -55 -22.5 -98t-59 -68t-79 -38t-87.5 -13zM310 307q-44 0 -71 -26t-27 -66
q0 -41 28 -66t70 -25t70 25t28 66q0 40 -27 66t-71 26zM310 592q-35 0 -59 -22.5t-24 -58.5t22 -59t61 -23q40 0 61.5 23t21.5 59t-24 58.5t-59 22.5z" />
    <glyph glyph-name="nine.ss01" horiz-adv-x="616" 
d="M301 712q115 0 188.5 -73.5t73.5 -191.5q0 -59 -25.5 -121.5t-67.5 -114.5l-171 -211h-162l180 216q-17 -6 -47 -6q-94 0 -159.5 71t-65.5 178q0 110 75 181.5t181 71.5zM418 461q0 52 -32.5 85.5t-82.5 33.5t-81.5 -33.5t-31.5 -85.5t31.5 -85.5t81.5 -33.5t82.5 33.5
t32.5 85.5z" />
    <glyph glyph-name="dollar.ss01" horiz-adv-x="654" 
d="M368 275l-86 15q-103 17 -162 70t-59 140q0 83 57.5 138t144.5 69v108h147v-113q104 -24 180 -102l-100 -105q-79 81 -178 81q-47 0 -75 -19t-28 -50q0 -56 100 -74l69 -11q236 -38 236 -219q0 -81 -54.5 -136t-149.5 -72v-109h-147v110q-137 24 -219 127l102 103
q78 -101 198 -101q57 0 89.5 21.5t32.5 54.5q0 56 -98 74z" />
    <glyph glyph-name="zero.tf.ss01" 
d="M37 351q0 164 67 262.5t196 98.5q128 0 195.5 -98.5t67.5 -262.5t-67.5 -263t-195.5 -99q-129 0 -196 99t-67 263zM185 351v-30l201 195q-30 60 -86 60q-58 0 -86.5 -59.5t-28.5 -165.5zM415 351q0 19 -1 28l-200 -194q29 -60 86 -60q58 0 86.5 60t28.5 166z" />
    <glyph glyph-name="one.tf.ss01" 
d="M76 136h150v428h-139v136h286v-564h151v-136h-448v136z" />
    <glyph glyph-name="two.tf.ss01" 
d="M76 117l151 162q-74 25 -116.5 82t-42.5 133q0 87 67.5 152.5t167.5 65.5q99 0 163.5 -62.5t64.5 -152.5q0 -56 -28 -103t-87 -111l-134 -146h248v-137h-454v117zM384 491q0 37 -24.5 61t-60.5 24q-35 0 -60.5 -24t-25.5 -62q0 -37 24.5 -61t60.5 -24q35 0 60.5 24
t25.5 62z" />
    <glyph glyph-name="three.tf.ss01" 
d="M520 573l-159 -150q84 -14 135.5 -70t51.5 -137q0 -98 -72 -162.5t-190 -64.5q-141 0 -234 112l100 102q25 -39 60.5 -59.5t71.5 -20.5q49 0 77 22.5t28 64.5q0 91 -120 91h-79v131l136 136h-251v132h445v-127z" />
    <glyph glyph-name="four.tf.ss01" 
d="M452 413v-134h119v-131h-119v-148h-148v148h-276v208l247 344h169l-258 -359v-62h118v134h148z" />
    <glyph glyph-name="five.tf.ss01" 
d="M400 234q0 48 -31 78t-76 30q-73 0 -101 -66h-135v424h445v-136h-298v-127q17 16 50 25.5t67 9.5q97 0 167.5 -61t70.5 -174q0 -106 -75 -177t-196 -71q-156 0 -247 105l102 101q57 -70 137 -70q52 0 86 31.5t34 77.5z" />
    <glyph glyph-name="six.tf.ss01" 
d="M303 -11q-115 0 -188.5 74t-73.5 192q0 59 25.5 121.5t67.5 114.5l171 209h162l-180 -214q17 6 47 6q94 0 159.5 -71t65.5 -178q0 -110 -75 -182t-181 -72zM186 241q0 -52 32.5 -86t82.5 -34q49 0 81 33.5t32 86.5q0 52 -31.5 85.5t-81.5 33.5t-82.5 -33.5t-32.5 -85.5z
" />
    <glyph glyph-name="seven.tf.ss01" 
d="M53 469v231h493v-134l-244 -566h-162l250 566h-190v-97h-147z" />
    <glyph glyph-name="eight.tf.ss01" 
d="M300 -11q-45 0 -87.5 13t-79 38t-59 68t-22.5 98q0 103 87 160q-27 20 -48.5 58.5t-21.5 81.5q0 94 68 150t163 56t163 -56t68 -150q0 -43 -21.5 -81.5t-48.5 -58.5q87 -57 87 -160q0 -55 -22.5 -98t-59 -68t-79 -38t-87.5 -13zM300 307q-44 0 -71 -26t-27 -66
q0 -41 28 -66t70 -25t70 25t28 66q0 40 -27 66t-71 26zM300 592q-35 0 -59 -22.5t-24 -58.5t22 -59t61 -23q40 0 61.5 23t21.5 59t-24 58.5t-59 22.5z" />
    <glyph glyph-name="nine.tf.ss01" 
d="M297 712q115 0 188.5 -73.5t73.5 -191.5q0 -59 -25.5 -121.5t-67.5 -114.5l-171 -211h-162l180 216q-17 -6 -47 -6q-94 0 -159.5 71t-65.5 178q0 110 75 181.5t181 71.5zM414 461q0 52 -32.5 85.5t-82.5 33.5t-81.5 -33.5t-31.5 -85.5t31.5 -85.5t81.5 -33.5t82.5 33.5
t32.5 85.5z" />
    <glyph glyph-name="dollar.tf.ss01" horiz-adv-x="654" 
d="M363 275l-86 15q-97 16 -149 71.5t-52 138.5q0 81 49.5 137t132.5 70v108h147v-113q91 -21 170 -102l-100 -105q-79 81 -168 81q-40 0 -61.5 -19t-21.5 -50q0 -29 21.5 -48.5t58.5 -25.5l69 -11q226 -37 226 -210q0 -82 -51 -141.5t-143 -75.5v-109h-147v110
q-114 20 -199 127l102 103q38 -50 77.5 -75.5t100.5 -25.5q52 0 82 21.5t30 54.5q0 27 -22.5 47t-65.5 27z" />
    <glyph glyph-name="zerosuperior.ss01" horiz-adv-x="395" 
d="M368 504q0 -96 -47 -148.5t-124 -52.5q-75 0 -122.5 52.5t-47.5 148.5t47 149.5t123 53.5t123.5 -53.5t47.5 -149.5zM197 603q-54 0 -54 -94l87 86q-14 8 -33 8zM197 407q53 0 55 90l-86 -84q11 -6 31 -6z" />
    <glyph glyph-name="onesuperior.ss01" horiz-adv-x="312" 
d="M29 408h70v192h-64v100h179v-292h73v-100h-258v100z" />
    <glyph glyph-name="twosuperior.ss01" horiz-adv-x="333" 
d="M28 392l64 73q-73 37 -73 119q0 52 39 87.5t104 35.5q61 0 99 -35t38 -85q0 -39 -14 -66t-50 -64l-47 -48h109v-101h-269v84zM183 581q0 25 -25 25q-9 0 -17 -7t-8 -19q0 -25 25 -25q9 0 17 7t8 19z" />
    <glyph glyph-name="threesuperior.ss01" horiz-adv-x="335" 
d="M296 607l-87 -59q47 -12 74 -42.5t27 -75.5q0 -54 -45 -91t-119 -37q-82 0 -141 63l77 75q27 -39 64 -39t37 32q0 37 -52 37h-53v79l79 55h-144v96h283v-93z" />
    <glyph glyph-name="foursuperior.ss01" horiz-adv-x="399" 
d="M308 539v-64h70v-95h-70v-72h-115v72h-166v136l138 184h129l-152 -202v-23h51v64h115z" />
    <glyph glyph-name="zeroinferior.ss01" horiz-adv-x="395" 
d="M368 196q0 -96 -47 -148.5t-124 -52.5q-75 0 -122.5 52.5t-47.5 148.5t47 149.5t123 53.5t123.5 -53.5t47.5 -149.5zM197 295q-54 0 -54 -94l87 86q-14 8 -33 8zM197 99q53 0 55 90l-86 -84q11 -6 31 -6z" />
    <glyph glyph-name="oneinferior.ss01" horiz-adv-x="302" 
d="M29 100h70v192h-64v100h179v-292h73v-100h-258v100z" />
    <glyph glyph-name="twoinferior.ss01" horiz-adv-x="333" 
d="M28 84l64 73q-73 37 -73 119q0 52 39 87.5t104 35.5q61 0 99 -35t38 -85q0 -39 -14 -66t-50 -64l-47 -48h109v-101h-269v84zM183 273q0 25 -25 25q-9 0 -17 -7t-8 -19q0 -25 25 -25q9 0 17 7t8 19z" />
    <glyph glyph-name="threeinferior.ss01" horiz-adv-x="335" 
d="M296 299l-87 -59q47 -12 74 -42.5t27 -75.5q0 -54 -45 -91t-119 -37q-82 0 -141 63l77 75q27 -39 64 -39t37 32q0 37 -52 37h-53v79l79 55h-144v96h283v-93z" />
    <glyph glyph-name="fourinferior.ss01" horiz-adv-x="399" 
d="M308 231v-64h70v-95h-70v-72h-115v72h-166v136l138 184h129l-152 -202v-23h51v64h115z" />
    <glyph glyph-name="onehalf.ss01" horiz-adv-x="848" 
d="M148 0l431 700h133l-431 -700h-133zM552 84l64 73q-73 37 -73 119q0 52 39 87.5t104 35.5q61 0 99 -35t38 -85q0 -39 -14 -66t-50 -64l-47 -48h109v-101h-269v84zM29 408h70v192h-64v100h179v-292h73v-100h-258v100zM707 273q0 25 -25 25q-9 0 -17 -7t-8 -19
q0 -25 25 -25q9 0 17 7t8 19z" />
    <glyph glyph-name="onequarter.ss01" horiz-adv-x="872" 
d="M148 0l431 700h133l-431 -700h-133zM29 408h70v192h-64v100h179v-292h73v-100h-258v100zM781 231v-64h70v-95h-70v-72h-115v72h-166v136l138 184h129l-152 -202v-23h51v64h115z" />
    <glyph glyph-name="threequarters.ss01" horiz-adv-x="872" 
d="M149 0l431 700h133l-431 -700h-133zM781 231v-64h70v-95h-70v-72h-115v72h-166v136l138 184h129l-152 -202v-23h51v64h115zM296 607l-87 -59q47 -12 74 -42.5t27 -75.5q0 -54 -45 -91t-119 -37q-82 0 -141 63l77 75q27 -39 64 -39t37 32q0 37 -52 37h-53v79l79 55h-144
v96h283v-93z" />
    <glyph glyph-name="A.ss02" horiz-adv-x="708" 
d="M359 718l338 -718h-154l-63 133h-257l-62 -133h-150l334 718h14zM351 430l-73 -165h147z" />
    <glyph glyph-name="K.ss02" horiz-adv-x="621" 
d="M219 286v-286h-149v700h149v-276l193 276h168l-240 -339l256 -361h-179z" />
    <glyph glyph-name="M.ss02" horiz-adv-x="870" 
d="M430 98l-211 254v-352h-149v718h14l352 -411l350 411h14v-718h-148v352l-208 -254h-14z" />
    <glyph glyph-name="N.ss02" horiz-adv-x="750" 
d="M666 -17l-447 422v-405h-149v718h14l448 -425v407h148v-717h-14z" />
    <glyph glyph-name="Q.ss02" horiz-adv-x="807" 
d="M42 351q0 156 104 258.5t256 102.5q153 0 258 -102.5t105 -258.5q0 -117 -64 -210l80 -80l-95 -94l-81 80q-91 -58 -203 -58q-152 0 -256 102.5t-104 259.5zM614 351q0 92 -58.5 156.5t-149.5 64.5q-96 0 -153.5 -64t-57.5 -157q0 -92 58.5 -156.5t149.5 -64.5
q96 0 153.5 64t57.5 157z" />
    <glyph glyph-name="R.ss02" horiz-adv-x="683" 
d="M471 0l-174 225h-78v-225h-149v700h284q125 0 199.5 -60t74.5 -168q0 -84 -46 -145.5t-126 -86.5l193 -240h-178zM339 563h-120v-202h120q141 0 141 110q0 92 -141 92z" />
    <glyph glyph-name="S.ss02" horiz-adv-x="602" 
d="M344 271l-103 41q-164 65 -164 199q0 95 67 148t164 53q68 0 126.5 -29t94.5 -74l-96 -97q-54 65 -136 65q-35 0 -54.5 -18.5t-19.5 -42.5t17 -42t59 -35l99 -41q80 -33 122 -77.5t42 -119.5q0 -98 -70.5 -155t-188.5 -57q-82 0 -149 37t-109 96l97 99q74 -98 174 -98
q50 0 75 20t25 52q0 48 -72 76z" />
    <glyph glyph-name="V.ss02" horiz-adv-x="654" 
d="M162 700l165 -412l165 412h151l-309 -717h-14l-309 717h151z" />
    <glyph glyph-name="W.ss02" horiz-adv-x="948" 
d="M678 -17l-204 436l-204 -436h-14l-242 717h151l118 -368l184 386h14l184 -386l118 368h151l-242 -717h-14z" />
    <glyph glyph-name="Z.ss02" horiz-adv-x="678" 
d="M81 700h549v-14l-340 -549h333v-137h-578v14l342 549h-306v137z" />
    <glyph glyph-name="a.ss02" horiz-adv-x="634" 
d="M35 245q0 109 75 183t182 74q88 0 136 -45v33h143v-490h-143v36q-57 -47 -136 -47q-107 0 -182 73.5t-75 182.5zM182 248q0 -50 35 -88t86 -38q56 0 90.5 37.5t34.5 88.5t-34 86.5t-91 35.5q-52 0 -86.5 -36t-34.5 -86z" />
    <glyph glyph-name="k.ss02" horiz-adv-x="527" 
d="M63 0v700h142v-377l119 167h163l-174 -235l194 -255h-171l-131 177v-177h-142z" />
    <glyph glyph-name="v.ss02" horiz-adv-x="494" 
d="M494 490l-239 -500h-14l-241 500h151l97 -222l95 222h151z" />
    <glyph glyph-name="w.ss02" horiz-adv-x="740" 
d="M238 279l125 221h14l125 -221l86 211h152l-208 -500h-13l-149 271l-149 -271h-13l-208 500h152z" />
    <glyph glyph-name="z.ss02" horiz-adv-x="532" 
d="M66 490h416v-13l-225 -349h222v-128h-439v14l222 349h-196v127z" />
    <glyph glyph-name="a.ordn.ss02" horiz-adv-x="491" 
d="M31 523q0 82 54 135.5t134 53.5q66 0 105 -33v25h115v-361h-115v25q-40 -34 -105 -34q-80 0 -134 54t-54 135zM146 523q0 -38 24.5 -64t62.5 -26q42 0 66.5 25.5t24.5 64.5t-24.5 65t-66.5 26q-37 0 -62 -26.5t-25 -64.5z" />
    <glyph glyph-name="Agrave.ss02" horiz-adv-x="708" 
d="M359 718l338 -718h-154l-63 133h-257l-62 -133h-150l334 718h14zM351 430l-73 -165h147zM192 872h170l74 -103h-146z" />
    <glyph glyph-name="Aacute.ss02" horiz-adv-x="708" 
d="M359 718l338 -718h-154l-63 133h-257l-62 -133h-150l334 718h14zM351 430l-73 -165h147zM346 872h170l-98 -103h-146z" />
    <glyph glyph-name="Acircumflex.ss02" horiz-adv-x="708" 
d="M359 718l338 -718h-154l-63 133h-257l-62 -133h-150l334 718h14zM351 430l-73 -165h147zM268 872h174l85 -103h-134l-38 40l-38 -40h-135z" />
    <glyph glyph-name="Atilde.ss02" horiz-adv-x="708" 
d="M359 718l338 -718h-154l-63 133h-257l-62 -133h-150l334 718h14zM351 430l-73 -165h147zM428 894h91q0 -51 -26.5 -88t-70.5 -37q-7 0 -43 8l-41 13q-17 5 -30 5q-26 0 -27 -26h-91q0 51 26 88t71 37q11 0 43 -7l41 -13q20 -6 30 -6q26 0 27 26z" />
    <glyph glyph-name="Adieresis.ss02" horiz-adv-x="708" 
d="M359 718l338 -718h-154l-63 133h-257l-62 -133h-150l334 718h14zM351 430l-73 -165h147zM174 833q0 30 21.5 52t52.5 22q30 0 52.5 -22t22.5 -52t-22.5 -52t-52.5 -22q-31 0 -52.5 21.5t-21.5 52.5zM386 833q0 30 21.5 52t52.5 22q30 0 52.5 -22t22.5 -52t-22.5 -52
t-52.5 -22q-31 0 -52.5 21.5t-21.5 52.5z" />
    <glyph glyph-name="Amacron.ss02" horiz-adv-x="708" 
d="M359 718l338 -718h-154l-63 133h-257l-62 -133h-150l334 718h14zM351 430l-73 -165h147zM229 886h250v-117h-250v117z" />
    <glyph glyph-name="Abreve.ss02" horiz-adv-x="708" 
d="M359 718l338 -718h-154l-63 133h-257l-62 -133h-150l334 718h14zM351 430l-73 -165h147zM354 740q-63 0 -104.5 39t-45.5 107h106q4 -40 44 -40q39 0 45 40h106q-4 -68 -45.5 -107t-105.5 -39z" />
    <glyph glyph-name="Aring.ss02" horiz-adv-x="708" 
d="M254 770q0 40 28.5 68.5t69.5 28.5q40 0 69 -28.5t29 -68.5q0 -32 -21 -58t-52 -34l320 -678h-154l-63 133h-257l-62 -133h-150l315 678q-31 8 -51.5 33.5t-20.5 58.5zM351 430l-73 -165h147zM376 770q0 10 -7 17t-17 7t-17 -7t-7 -17t7 -17t17 -7t17 7t7 17z" />
    <glyph glyph-name="Aringacute.ss02" horiz-adv-x="708" 
d="M254 770q0 40 28.5 68.5t69.5 28.5q40 0 69 -28.5t29 -68.5q0 -32 -21 -58t-52 -34l320 -678h-154l-63 133h-257l-62 -133h-150l315 678q-31 8 -51.5 33.5t-20.5 58.5zM344 1008h170l-98 -103h-146zM351 430l-73 -165h147zM376 770q0 10 -7 17t-17 7t-17 -7t-7 -17t7 -17
t17 -7t17 7t7 17z" />
    <glyph glyph-name="Aogonek.ss02" horiz-adv-x="708" 
d="M359 718l338 -718h1q-61 -36 -61 -71t57 -35h4v-83q-28 -5 -62 -5q-49 0 -78 24.5t-29 67.5q0 59 60 102h-46l-63 133h-257l-62 -133h-150l334 718h14zM351 430l-73 -165h147z" />
    <glyph glyph-name="AE.ss02" horiz-adv-x="922" 
d="M859 700v-136h-419l66 -144h336v-136h-274l67 -148h224v-136h-316l-63 138h-255l-64 -138h-150l334 700h514zM351 440l-74 -170h149z" />
    <glyph glyph-name="AEacute.ss02" horiz-adv-x="922" 
d="M859 700v-136h-419l66 -144h336v-136h-274l67 -148h224v-136h-316l-63 138h-255l-64 -138h-150l334 700h514zM351 440l-74 -170h149zM581 872h170l-98 -103h-146z" />
    <glyph glyph-name="Kcommaaccent.ss02" horiz-adv-x="621" 
d="M219 286v-286h-149v700h149v-276l193 276h168l-240 -339l256 -361h-179zM254 -57h152l-72 -137h-126z" />
    <glyph glyph-name="Nacute.ss02" horiz-adv-x="750" 
d="M666 -17l-447 422v-405h-149v718h14l448 -425v407h148v-717h-14zM367 872h170l-98 -103h-146z" />
    <glyph glyph-name="Ncaron.ss02" horiz-adv-x="750" 
d="M666 -17l-447 422v-405h-149v718h14l448 -425v407h148v-717h-14zM463 769h-174l-86 103h135l38 -41l38 41h134z" />
    <glyph glyph-name="Ntilde.ss02" horiz-adv-x="750" 
d="M666 -17l-447 422v-405h-149v718h14l448 -425v407h148v-717h-14zM449 894h91q0 -51 -26.5 -88t-70.5 -37q-7 0 -43 8l-41 13q-17 5 -30 5q-26 0 -27 -26h-91q0 51 26 88t71 37q12 0 43 -7l41 -13q20 -6 30 -6q26 0 27 26z" />
    <glyph glyph-name="Ncommaaccent.ss02" horiz-adv-x="750" 
d="M666 -17l-447 422v-405h-149v718h14l448 -425v407h148v-717h-14zM323 -57h152l-72 -137h-126z" />
    <glyph glyph-name="Eng.ss02" horiz-adv-x="750" 
d="M532 -5v114l-313 296v-405h-149v718h14l448 -425v407h148v-722q0 -183 -179 -183l-69 2v136h32q35 0 51.5 13t16.5 49z" />
    <glyph glyph-name="Racute.ss02" horiz-adv-x="683" 
d="M471 0l-174 225h-78v-225h-149v700h284q125 0 199.5 -60t74.5 -168q0 -84 -46 -145.5t-126 -86.5l193 -240h-178zM339 563h-120v-202h120q141 0 141 110q0 92 -141 92zM327 872h170l-98 -103h-146z" />
    <glyph glyph-name="Rcaron.ss02" horiz-adv-x="683" 
d="M471 0l-174 225h-78v-225h-149v700h284q125 0 199.5 -60t74.5 -168q0 -84 -46 -145.5t-126 -86.5l193 -240h-178zM339 563h-120v-202h120q141 0 141 110q0 92 -141 92zM423 769h-174l-86 103h135l38 -41l38 41h134z" />
    <glyph glyph-name="Rcommaaccent.ss02" horiz-adv-x="683" 
d="M471 0l-174 225h-78v-225h-149v700h284q125 0 199.5 -60t74.5 -168q0 -84 -46 -145.5t-126 -86.5l193 -240h-178zM339 563h-120v-202h120q141 0 141 110q0 92 -141 92zM272 -57h152l-72 -137h-126z" />
    <glyph glyph-name="Sacute.ss02" horiz-adv-x="602" 
d="M344 271l-103 41q-164 65 -164 199q0 95 67 148t164 53q68 0 126.5 -29t94.5 -74l-96 -97q-54 65 -136 65q-35 0 -54.5 -18.5t-19.5 -42.5t17 -42t59 -35l99 -41q80 -33 122 -77.5t42 -119.5q0 -98 -70.5 -155t-188.5 -57q-82 0 -149 37t-109 96l97 99q74 -98 174 -98
q50 0 75 20t25 52q0 48 -72 76zM302 872h170l-98 -103h-146z" />
    <glyph glyph-name="Scircumflex.ss02" horiz-adv-x="602" 
d="M344 271l-103 41q-164 65 -164 199q0 95 67 148t164 53q68 0 126.5 -29t94.5 -74l-96 -97q-54 65 -136 65q-35 0 -54.5 -18.5t-19.5 -42.5t17 -42t59 -35l99 -41q80 -33 122 -77.5t42 -119.5q0 -98 -70.5 -155t-188.5 -57q-82 0 -149 37t-109 96l97 99q74 -98 174 -98
q50 0 75 20t25 52q0 48 -72 76zM224 872h174l85 -103h-134l-38 40l-38 -40h-135z" />
    <glyph glyph-name="Scaron.ss02" horiz-adv-x="602" 
d="M344 271l-103 41q-164 65 -164 199q0 95 67 148t164 53q68 0 126.5 -29t94.5 -74l-96 -97q-54 65 -136 65q-35 0 -54.5 -18.5t-19.5 -42.5t17 -42t59 -35l99 -41q80 -33 122 -77.5t42 -119.5q0 -98 -70.5 -155t-188.5 -57q-82 0 -149 37t-109 96l97 99q74 -98 174 -98
q50 0 75 20t25 52q0 48 -72 76zM398 769h-174l-86 103h135l38 -41l38 41h134z" />
    <glyph glyph-name="Scedilla.ss02" horiz-adv-x="602" 
d="M322 -137h-143l68 131q-64 11 -116 45.5t-86 82.5l97 99q74 -98 174 -98q50 0 75 20t25 52q0 48 -72 76l-103 41q-164 65 -164 199q0 95 67 148t164 53q68 0 126.5 -29t94.5 -74l-96 -97q-54 65 -136 65q-35 0 -54.5 -18.5t-19.5 -42.5t17 -42t59 -35l99 -41
q80 -33 122 -77.5t42 -119.5q0 -82 -50 -135.5t-137 -69.5z" />
    <glyph glyph-name="Scommaaccent.ss02" horiz-adv-x="602" 
d="M344 271l-103 41q-164 65 -164 199q0 95 67 148t164 53q68 0 126.5 -29t94.5 -74l-96 -97q-54 65 -136 65q-35 0 -54.5 -18.5t-19.5 -42.5t17 -42t59 -35l99 -41q80 -33 122 -77.5t42 -119.5q0 -98 -70.5 -155t-188.5 -57q-82 0 -149 37t-109 96l97 99q74 -98 174 -98
q50 0 75 20t25 52q0 48 -72 76zM231 -57h152l-72 -137h-126z" />
    <glyph glyph-name="Wgrave.ss02" horiz-adv-x="948" 
d="M678 -17l-204 436l-204 -436h-14l-242 717h151l118 -368l184 386h14l184 -386l118 368h151l-242 -717h-14zM312 872h170l74 -103h-146z" />
    <glyph glyph-name="Wacute.ss02" horiz-adv-x="948" 
d="M678 -17l-204 436l-204 -436h-14l-242 717h151l118 -368l184 386h14l184 -386l118 368h151l-242 -717h-14zM466 872h170l-98 -103h-146z" />
    <glyph glyph-name="Wcircumflex.ss02" horiz-adv-x="948" 
d="M678 -17l-204 436l-204 -436h-14l-242 717h151l118 -368l184 386h14l184 -386l118 368h151l-242 -717h-14zM388 872h174l85 -103h-134l-38 40l-38 -40h-135z" />
    <glyph glyph-name="Wdieresis.ss02" horiz-adv-x="948" 
d="M678 -17l-204 436l-204 -436h-14l-242 717h151l118 -368l184 386h14l184 -386l118 368h151l-242 -717h-14zM294 833q0 30 21.5 52t52.5 22q30 0 52.5 -22t22.5 -52t-22.5 -52t-52.5 -22q-31 0 -52.5 21.5t-21.5 52.5zM506 833q0 30 21.5 52t52.5 22q30 0 52.5 -22
t22.5 -52t-22.5 -52t-52.5 -22q-31 0 -52.5 21.5t-21.5 52.5z" />
    <glyph glyph-name="Zacute.ss02" horiz-adv-x="678" 
d="M81 700h549v-14l-340 -549h333v-137h-578v14l342 549h-306v137zM329 872h170l-98 -103h-146z" />
    <glyph glyph-name="Zcaron.ss02" horiz-adv-x="678" 
d="M81 700h549v-14l-340 -549h333v-137h-578v14l342 549h-306v137zM425 769h-174l-86 103h135l38 -41l38 41h134z" />
    <glyph glyph-name="Zdotaccent.ss02" horiz-adv-x="678" 
d="M81 700h549v-14l-340 -549h333v-137h-578v14l342 549h-306v137zM281 831q0 35 24 59t58 24t58.5 -24.5t24.5 -58.5t-24.5 -58t-58.5 -24t-58 24t-24 58z" />
    <glyph glyph-name="agrave.ss02" horiz-adv-x="634" 
d="M35 245q0 109 75 183t182 74q88 0 136 -45v33h143v-490h-143v36q-57 -47 -136 -47q-107 0 -182 73.5t-75 182.5zM182 248q0 -50 35 -88t86 -38q56 0 90.5 37.5t34.5 88.5t-34 86.5t-91 35.5q-52 0 -86.5 -36t-34.5 -86zM158 700h180l74 -142h-134z" />
    <glyph glyph-name="aacute.ss02" horiz-adv-x="634" 
d="M35 245q0 109 75 183t182 74q88 0 136 -45v33h143v-490h-143v36q-57 -47 -136 -47q-107 0 -182 73.5t-75 182.5zM182 248q0 -50 35 -88t86 -38q56 0 90.5 37.5t34.5 88.5t-34 86.5t-91 35.5q-52 0 -86.5 -36t-34.5 -86zM312 700h180l-120 -142h-134z" />
    <glyph glyph-name="acircumflex.ss02" horiz-adv-x="634" 
d="M35 245q0 109 75 183t182 74q88 0 136 -45v33h143v-490h-143v36q-57 -47 -136 -47q-107 0 -182 73.5t-75 182.5zM182 248q0 -50 35 -88t86 -38q56 0 90.5 37.5t34.5 88.5t-34 86.5t-91 35.5q-52 0 -86.5 -36t-34.5 -86zM244 700h163l91 -142h-123l-50 59l-49 -59h-123z
" />
    <glyph glyph-name="atilde.ss02" horiz-adv-x="634" 
d="M35 245q0 109 75 183t182 74q88 0 136 -45v33h143v-490h-143v36q-57 -47 -136 -47q-107 0 -182 73.5t-75 182.5zM182 248q0 -50 35 -88t86 -38q56 0 90.5 37.5t34.5 88.5t-34 86.5t-91 35.5q-52 0 -86.5 -36t-34.5 -86zM399 700h91q0 -51 -26.5 -88t-70.5 -37q-7 0 -43 8
l-41 13q-17 5 -30 5q-26 0 -27 -26h-91q0 51 26 88t71 37q12 0 43 -7l41 -13q20 -6 30 -6q26 0 27 26z" />
    <glyph glyph-name="adieresis.ss02" horiz-adv-x="634" 
d="M35 245q0 109 75 183t182 74q88 0 136 -45v33h143v-490h-143v36q-57 -47 -136 -47q-107 0 -182 73.5t-75 182.5zM182 248q0 -50 35 -88t86 -38q56 0 90.5 37.5t34.5 88.5t-34 86.5t-91 35.5q-52 0 -86.5 -36t-34.5 -86zM145 638q0 30 21.5 52t52.5 22q30 0 52.5 -22
t22.5 -52t-22.5 -52t-52.5 -22q-31 0 -52.5 21.5t-21.5 52.5zM357 638q0 30 21.5 52t52.5 22q30 0 52.5 -22t22.5 -52t-22.5 -52t-52.5 -22q-31 0 -52.5 21.5t-21.5 52.5z" />
    <glyph glyph-name="amacron.ss02" horiz-adv-x="634" 
d="M35 245q0 109 75 183t182 74q88 0 136 -45v33h143v-490h-143v36q-57 -47 -136 -47q-107 0 -182 73.5t-75 182.5zM182 248q0 -50 35 -88t86 -38q56 0 90.5 37.5t34.5 88.5t-34 86.5t-91 35.5q-52 0 -86.5 -36t-34.5 -86zM200 700h250v-117h-250v117z" />
    <glyph glyph-name="abreve.ss02" horiz-adv-x="634" 
d="M35 245q0 109 75 183t182 74q88 0 136 -45v33h143v-490h-143v36q-57 -47 -136 -47q-107 0 -182 73.5t-75 182.5zM182 248q0 -50 35 -88t86 -38q56 0 90.5 37.5t34.5 88.5t-34 86.5t-91 35.5q-52 0 -86.5 -36t-34.5 -86zM325 552q-64 0 -103.5 40t-36.5 108h96
q4 -40 44 -40q39 0 45 40h96q3 -68 -37 -108t-104 -40z" />
    <glyph glyph-name="aring.ss02" horiz-adv-x="634" 
d="M35 245q0 109 75 183t182 74q88 0 136 -45v33h143v-490h-143v36q-57 -47 -136 -47q-107 0 -182 73.5t-75 182.5zM182 248q0 -50 35 -88t86 -38q56 0 90.5 37.5t34.5 88.5t-34 86.5t-91 35.5q-52 0 -86.5 -36t-34.5 -86zM227 631q0 40 28.5 68.5t69.5 28.5q40 0 69 -28.5
t29 -68.5q0 -39 -29 -67t-69 -28t-69 28t-29 67zM349 631q0 10 -7 17t-17 7t-17 -7t-7 -17t7 -17t17 -7t17 7t7 17z" />
    <glyph glyph-name="aringacute.ss02" horiz-adv-x="634" 
d="M35 245q0 109 75 183t182 74q88 0 136 -45v33h143v-490h-143v36q-57 -47 -136 -47q-107 0 -182 73.5t-75 182.5zM182 248q0 -50 35 -88t86 -38q56 0 90.5 37.5t34.5 88.5t-34 86.5t-91 35.5q-52 0 -86.5 -36t-34.5 -86zM227 631q0 40 28.5 68.5t69.5 28.5q40 0 69 -28.5
t29 -68.5q0 -39 -29 -67t-69 -28t-69 28t-29 67zM349 631q0 10 -7 17t-17 7t-17 -7t-7 -17t7 -17t17 -7t17 7t7 17zM332 911h180l-120 -142h-134z" />
    </font>
</defs>
</svg>
